<?xml version="1.0" encoding="utf-8" standalone="no"?>
<!DOCTYPE svg PUBLIC "-//W3C//DTD SVG 1.1//EN"
  "http://www.w3.org/Graphics/SVG/1.1/DTD/svg11.dtd">
<!-- Created with matplotlib (http://matplotlib.org/) -->
<svg height="416.892125pt" version="1.1" viewBox="0 0 1001.338125 416.892125" width="1001.338125pt" xmlns="http://www.w3.org/2000/svg" xmlns:xlink="http://www.w3.org/1999/xlink">
 <defs>
  <style type="text/css">
*{stroke-linecap:butt;stroke-linejoin:round;}
  </style>
 </defs>
 <g id="figure_1">
  <g id="patch_1">
   <path d="M 0 416.892125 
L 1001.338125 416.892125 
L 1001.338125 0 
L 0 0 
z
" style="fill:#ffffff;"/>
  </g>
  <g id="axes_1">
   <g id="patch_2">
    <path d="M 32.968125 381.2715 
L 990.638125 381.2715 
L 990.638125 36.5915 
L 32.968125 36.5915 
z
" style="fill:#ffffff;"/>
   </g>
   <g id="patch_3">
    <path clip-path="url(#pdb77a589ad)" d="M 32.968125 1759.9915 
L 990.638125 1759.9915 
L 990.638125 -3754.8885 
L 32.968125 -3754.8885 
z
" style="fill:#e6c3c3;"/>
   </g>
   <g id="patch_4">
    <path clip-path="url(#pdb77a589ad)" d="M 32.968125 553.6115 
L 990.638125 553.6115 
L 990.638125 -480.4285 
L 32.968125 -480.4285 
z
" style="fill:#e6dcc3;"/>
   </g>
   <g id="patch_5">
    <path clip-path="url(#pdb77a589ad)" d="M 32.968125 553.6115 
L 990.638125 553.6115 
L 990.638125 208.9315 
L 32.968125 208.9315 
z
" style="fill:#c3e6c3;"/>
   </g>
   <g id="matplotlib.axis_1">
    <g id="xtick_1">
     <g id="text_1">
      <!-- 0 -->
      <defs>
       <path d="M 31.78125 66.40625 
Q 24.171875 66.40625 20.328125 58.90625 
Q 16.5 51.421875 16.5 36.375 
Q 16.5 21.390625 20.328125 13.890625 
Q 24.171875 6.390625 31.78125 6.390625 
Q 39.453125 6.390625 43.28125 13.890625 
Q 47.125 21.390625 47.125 36.375 
Q 47.125 51.421875 43.28125 58.90625 
Q 39.453125 66.40625 31.78125 66.40625 
z
M 31.78125 74.21875 
Q 44.046875 74.21875 50.515625 64.515625 
Q 56.984375 54.828125 56.984375 36.375 
Q 56.984375 17.96875 50.515625 8.265625 
Q 44.046875 -1.421875 31.78125 -1.421875 
Q 19.53125 -1.421875 13.0625 8.265625 
Q 6.59375 17.96875 6.59375 36.375 
Q 6.59375 54.828125 13.0625 64.515625 
Q 19.53125 74.21875 31.78125 74.21875 
z
" id="DejaVuSans-30"/>
      </defs>
      <g transform="translate(30.423125 394.35025)scale(0.08 -0.08)">
       <use xlink:href="#DejaVuSans-30"/>
      </g>
     </g>
    </g>
    <g id="xtick_2">
     <g id="text_2">
      <!-- 20 -->
      <defs>
       <path d="M 19.1875 8.296875 
L 53.609375 8.296875 
L 53.609375 0 
L 7.328125 0 
L 7.328125 8.296875 
Q 12.9375 14.109375 22.625 23.890625 
Q 32.328125 33.6875 34.8125 36.53125 
Q 39.546875 41.84375 41.421875 45.53125 
Q 43.3125 49.21875 43.3125 52.78125 
Q 43.3125 58.59375 39.234375 62.25 
Q 35.15625 65.921875 28.609375 65.921875 
Q 23.96875 65.921875 18.8125 64.3125 
Q 13.671875 62.703125 7.8125 59.421875 
L 7.8125 69.390625 
Q 13.765625 71.78125 18.9375 73 
Q 24.125 74.21875 28.421875 74.21875 
Q 39.75 74.21875 46.484375 68.546875 
Q 53.21875 62.890625 53.21875 53.421875 
Q 53.21875 48.921875 51.53125 44.890625 
Q 49.859375 40.875 45.40625 35.40625 
Q 44.1875 33.984375 37.640625 27.21875 
Q 31.109375 20.453125 19.1875 8.296875 
z
" id="DejaVuSans-32"/>
      </defs>
      <g transform="translate(210.378363 394.35025)scale(0.08 -0.08)">
       <use xlink:href="#DejaVuSans-32"/>
       <use x="63.623047" xlink:href="#DejaVuSans-30"/>
      </g>
     </g>
    </g>
    <g id="xtick_3">
     <g id="text_3">
      <!-- 40 -->
      <defs>
       <path d="M 37.796875 64.3125 
L 12.890625 25.390625 
L 37.796875 25.390625 
z
M 35.203125 72.90625 
L 47.609375 72.90625 
L 47.609375 25.390625 
L 58.015625 25.390625 
L 58.015625 17.1875 
L 47.609375 17.1875 
L 47.609375 0 
L 37.796875 0 
L 37.796875 17.1875 
L 4.890625 17.1875 
L 4.890625 26.703125 
z
" id="DejaVuSans-34"/>
      </defs>
      <g transform="translate(392.878601 394.35025)scale(0.08 -0.08)">
       <use xlink:href="#DejaVuSans-34"/>
       <use x="63.623047" xlink:href="#DejaVuSans-30"/>
      </g>
     </g>
    </g>
    <g id="xtick_4">
     <g id="text_4">
      <!-- 60 -->
      <defs>
       <path d="M 33.015625 40.375 
Q 26.375 40.375 22.484375 35.828125 
Q 18.609375 31.296875 18.609375 23.390625 
Q 18.609375 15.53125 22.484375 10.953125 
Q 26.375 6.390625 33.015625 6.390625 
Q 39.65625 6.390625 43.53125 10.953125 
Q 47.40625 15.53125 47.40625 23.390625 
Q 47.40625 31.296875 43.53125 35.828125 
Q 39.65625 40.375 33.015625 40.375 
z
M 52.59375 71.296875 
L 52.59375 62.3125 
Q 48.875 64.0625 45.09375 64.984375 
Q 41.3125 65.921875 37.59375 65.921875 
Q 27.828125 65.921875 22.671875 59.328125 
Q 17.53125 52.734375 16.796875 39.40625 
Q 19.671875 43.65625 24.015625 45.921875 
Q 28.375 48.1875 33.59375 48.1875 
Q 44.578125 48.1875 50.953125 41.515625 
Q 57.328125 34.859375 57.328125 23.390625 
Q 57.328125 12.15625 50.6875 5.359375 
Q 44.046875 -1.421875 33.015625 -1.421875 
Q 20.359375 -1.421875 13.671875 8.265625 
Q 6.984375 17.96875 6.984375 36.375 
Q 6.984375 53.65625 15.1875 63.9375 
Q 23.390625 74.21875 37.203125 74.21875 
Q 40.921875 74.21875 44.703125 73.484375 
Q 48.484375 72.75 52.59375 71.296875 
z
" id="DejaVuSans-36"/>
      </defs>
      <g transform="translate(575.37884 394.35025)scale(0.08 -0.08)">
       <use xlink:href="#DejaVuSans-36"/>
       <use x="63.623047" xlink:href="#DejaVuSans-30"/>
      </g>
     </g>
    </g>
    <g id="xtick_5">
     <g id="text_5">
      <!-- 80 -->
      <defs>
       <path d="M 31.78125 34.625 
Q 24.75 34.625 20.71875 30.859375 
Q 16.703125 27.09375 16.703125 20.515625 
Q 16.703125 13.921875 20.71875 10.15625 
Q 24.75 6.390625 31.78125 6.390625 
Q 38.8125 6.390625 42.859375 10.171875 
Q 46.921875 13.96875 46.921875 20.515625 
Q 46.921875 27.09375 42.890625 30.859375 
Q 38.875 34.625 31.78125 34.625 
z
M 21.921875 38.8125 
Q 15.578125 40.375 12.03125 44.71875 
Q 8.5 49.078125 8.5 55.328125 
Q 8.5 64.0625 14.71875 69.140625 
Q 20.953125 74.21875 31.78125 74.21875 
Q 42.671875 74.21875 48.875 69.140625 
Q 55.078125 64.0625 55.078125 55.328125 
Q 55.078125 49.078125 51.53125 44.71875 
Q 48 40.375 41.703125 38.8125 
Q 48.828125 37.15625 52.796875 32.3125 
Q 56.78125 27.484375 56.78125 20.515625 
Q 56.78125 9.90625 50.3125 4.234375 
Q 43.84375 -1.421875 31.78125 -1.421875 
Q 19.734375 -1.421875 13.25 4.234375 
Q 6.78125 9.90625 6.78125 20.515625 
Q 6.78125 27.484375 10.78125 32.3125 
Q 14.796875 37.15625 21.921875 38.8125 
z
M 18.3125 54.390625 
Q 18.3125 48.734375 21.84375 45.5625 
Q 25.390625 42.390625 31.78125 42.390625 
Q 38.140625 42.390625 41.71875 45.5625 
Q 45.3125 48.734375 45.3125 54.390625 
Q 45.3125 60.0625 41.71875 63.234375 
Q 38.140625 66.40625 31.78125 66.40625 
Q 25.390625 66.40625 21.84375 63.234375 
Q 18.3125 60.0625 18.3125 54.390625 
z
" id="DejaVuSans-38"/>
      </defs>
      <g transform="translate(757.879078 394.35025)scale(0.08 -0.08)">
       <use xlink:href="#DejaVuSans-38"/>
       <use x="63.623047" xlink:href="#DejaVuSans-30"/>
      </g>
     </g>
    </g>
    <g id="xtick_6">
     <g id="text_6">
      <!-- 100 -->
      <defs>
       <path d="M 12.40625 8.296875 
L 28.515625 8.296875 
L 28.515625 63.921875 
L 10.984375 60.40625 
L 10.984375 69.390625 
L 28.421875 72.90625 
L 38.28125 72.90625 
L 38.28125 8.296875 
L 54.390625 8.296875 
L 54.390625 0 
L 12.40625 0 
z
" id="DejaVuSans-31"/>
      </defs>
      <g transform="translate(937.834316 394.35025)scale(0.08 -0.08)">
       <use xlink:href="#DejaVuSans-31"/>
       <use x="63.623047" xlink:href="#DejaVuSans-30"/>
       <use x="127.246094" xlink:href="#DejaVuSans-30"/>
      </g>
     </g>
    </g>
    <g id="text_7">
     <!-- Position in Read (bp) -->
     <defs>
      <path d="M 19.671875 64.796875 
L 19.671875 37.40625 
L 32.078125 37.40625 
Q 38.96875 37.40625 42.71875 40.96875 
Q 46.484375 44.53125 46.484375 51.125 
Q 46.484375 57.671875 42.71875 61.234375 
Q 38.96875 64.796875 32.078125 64.796875 
z
M 9.8125 72.90625 
L 32.078125 72.90625 
Q 44.34375 72.90625 50.609375 67.359375 
Q 56.890625 61.8125 56.890625 51.125 
Q 56.890625 40.328125 50.609375 34.8125 
Q 44.34375 29.296875 32.078125 29.296875 
L 19.671875 29.296875 
L 19.671875 0 
L 9.8125 0 
z
" id="DejaVuSans-50"/>
      <path d="M 30.609375 48.390625 
Q 23.390625 48.390625 19.1875 42.75 
Q 14.984375 37.109375 14.984375 27.296875 
Q 14.984375 17.484375 19.15625 11.84375 
Q 23.34375 6.203125 30.609375 6.203125 
Q 37.796875 6.203125 41.984375 11.859375 
Q 46.1875 17.53125 46.1875 27.296875 
Q 46.1875 37.015625 41.984375 42.703125 
Q 37.796875 48.390625 30.609375 48.390625 
z
M 30.609375 56 
Q 42.328125 56 49.015625 48.375 
Q 55.71875 40.765625 55.71875 27.296875 
Q 55.71875 13.875 49.015625 6.21875 
Q 42.328125 -1.421875 30.609375 -1.421875 
Q 18.84375 -1.421875 12.171875 6.21875 
Q 5.515625 13.875 5.515625 27.296875 
Q 5.515625 40.765625 12.171875 48.375 
Q 18.84375 56 30.609375 56 
z
" id="DejaVuSans-6f"/>
      <path d="M 44.28125 53.078125 
L 44.28125 44.578125 
Q 40.484375 46.53125 36.375 47.5 
Q 32.28125 48.484375 27.875 48.484375 
Q 21.1875 48.484375 17.84375 46.4375 
Q 14.5 44.390625 14.5 40.28125 
Q 14.5 37.15625 16.890625 35.375 
Q 19.28125 33.59375 26.515625 31.984375 
L 29.59375 31.296875 
Q 39.15625 29.25 43.1875 25.515625 
Q 47.21875 21.78125 47.21875 15.09375 
Q 47.21875 7.46875 41.1875 3.015625 
Q 35.15625 -1.421875 24.609375 -1.421875 
Q 20.21875 -1.421875 15.453125 -0.5625 
Q 10.6875 0.296875 5.421875 2 
L 5.421875 11.28125 
Q 10.40625 8.6875 15.234375 7.390625 
Q 20.0625 6.109375 24.8125 6.109375 
Q 31.15625 6.109375 34.5625 8.28125 
Q 37.984375 10.453125 37.984375 14.40625 
Q 37.984375 18.0625 35.515625 20.015625 
Q 33.0625 21.96875 24.703125 23.78125 
L 21.578125 24.515625 
Q 13.234375 26.265625 9.515625 29.90625 
Q 5.8125 33.546875 5.8125 39.890625 
Q 5.8125 47.609375 11.28125 51.796875 
Q 16.75 56 26.8125 56 
Q 31.78125 56 36.171875 55.265625 
Q 40.578125 54.546875 44.28125 53.078125 
z
" id="DejaVuSans-73"/>
      <path d="M 9.421875 54.6875 
L 18.40625 54.6875 
L 18.40625 0 
L 9.421875 0 
z
M 9.421875 75.984375 
L 18.40625 75.984375 
L 18.40625 64.59375 
L 9.421875 64.59375 
z
" id="DejaVuSans-69"/>
      <path d="M 18.3125 70.21875 
L 18.3125 54.6875 
L 36.8125 54.6875 
L 36.8125 47.703125 
L 18.3125 47.703125 
L 18.3125 18.015625 
Q 18.3125 11.328125 20.140625 9.421875 
Q 21.96875 7.515625 27.59375 7.515625 
L 36.8125 7.515625 
L 36.8125 0 
L 27.59375 0 
Q 17.1875 0 13.234375 3.875 
Q 9.28125 7.765625 9.28125 18.015625 
L 9.28125 47.703125 
L 2.6875 47.703125 
L 2.6875 54.6875 
L 9.28125 54.6875 
L 9.28125 70.21875 
z
" id="DejaVuSans-74"/>
      <path d="M 54.890625 33.015625 
L 54.890625 0 
L 45.90625 0 
L 45.90625 32.71875 
Q 45.90625 40.484375 42.875 44.328125 
Q 39.84375 48.1875 33.796875 48.1875 
Q 26.515625 48.1875 22.3125 43.546875 
Q 18.109375 38.921875 18.109375 30.90625 
L 18.109375 0 
L 9.078125 0 
L 9.078125 54.6875 
L 18.109375 54.6875 
L 18.109375 46.1875 
Q 21.34375 51.125 25.703125 53.5625 
Q 30.078125 56 35.796875 56 
Q 45.21875 56 50.046875 50.171875 
Q 54.890625 44.34375 54.890625 33.015625 
z
" id="DejaVuSans-6e"/>
      <path id="DejaVuSans-20"/>
      <path d="M 44.390625 34.1875 
Q 47.5625 33.109375 50.5625 29.59375 
Q 53.5625 26.078125 56.59375 19.921875 
L 66.609375 0 
L 56 0 
L 46.6875 18.703125 
Q 43.0625 26.03125 39.671875 28.421875 
Q 36.28125 30.8125 30.421875 30.8125 
L 19.671875 30.8125 
L 19.671875 0 
L 9.8125 0 
L 9.8125 72.90625 
L 32.078125 72.90625 
Q 44.578125 72.90625 50.734375 67.671875 
Q 56.890625 62.453125 56.890625 51.90625 
Q 56.890625 45.015625 53.6875 40.46875 
Q 50.484375 35.9375 44.390625 34.1875 
z
M 19.671875 64.796875 
L 19.671875 38.921875 
L 32.078125 38.921875 
Q 39.203125 38.921875 42.84375 42.21875 
Q 46.484375 45.515625 46.484375 51.90625 
Q 46.484375 58.296875 42.84375 61.546875 
Q 39.203125 64.796875 32.078125 64.796875 
z
" id="DejaVuSans-52"/>
      <path d="M 56.203125 29.59375 
L 56.203125 25.203125 
L 14.890625 25.203125 
Q 15.484375 15.921875 20.484375 11.0625 
Q 25.484375 6.203125 34.421875 6.203125 
Q 39.59375 6.203125 44.453125 7.46875 
Q 49.3125 8.734375 54.109375 11.28125 
L 54.109375 2.78125 
Q 49.265625 0.734375 44.1875 -0.34375 
Q 39.109375 -1.421875 33.890625 -1.421875 
Q 20.796875 -1.421875 13.15625 6.1875 
Q 5.515625 13.8125 5.515625 26.8125 
Q 5.515625 40.234375 12.765625 48.109375 
Q 20.015625 56 32.328125 56 
Q 43.359375 56 49.78125 48.890625 
Q 56.203125 41.796875 56.203125 29.59375 
z
M 47.21875 32.234375 
Q 47.125 39.59375 43.09375 43.984375 
Q 39.0625 48.390625 32.421875 48.390625 
Q 24.90625 48.390625 20.390625 44.140625 
Q 15.875 39.890625 15.1875 32.171875 
z
" id="DejaVuSans-65"/>
      <path d="M 34.28125 27.484375 
Q 23.390625 27.484375 19.1875 25 
Q 14.984375 22.515625 14.984375 16.5 
Q 14.984375 11.71875 18.140625 8.90625 
Q 21.296875 6.109375 26.703125 6.109375 
Q 34.1875 6.109375 38.703125 11.40625 
Q 43.21875 16.703125 43.21875 25.484375 
L 43.21875 27.484375 
z
M 52.203125 31.203125 
L 52.203125 0 
L 43.21875 0 
L 43.21875 8.296875 
Q 40.140625 3.328125 35.546875 0.953125 
Q 30.953125 -1.421875 24.3125 -1.421875 
Q 15.921875 -1.421875 10.953125 3.296875 
Q 6 8.015625 6 15.921875 
Q 6 25.140625 12.171875 29.828125 
Q 18.359375 34.515625 30.609375 34.515625 
L 43.21875 34.515625 
L 43.21875 35.40625 
Q 43.21875 41.609375 39.140625 45 
Q 35.0625 48.390625 27.6875 48.390625 
Q 23 48.390625 18.546875 47.265625 
Q 14.109375 46.140625 10.015625 43.890625 
L 10.015625 52.203125 
Q 14.9375 54.109375 19.578125 55.046875 
Q 24.21875 56 28.609375 56 
Q 40.484375 56 46.34375 49.84375 
Q 52.203125 43.703125 52.203125 31.203125 
z
" id="DejaVuSans-61"/>
      <path d="M 45.40625 46.390625 
L 45.40625 75.984375 
L 54.390625 75.984375 
L 54.390625 0 
L 45.40625 0 
L 45.40625 8.203125 
Q 42.578125 3.328125 38.25 0.953125 
Q 33.9375 -1.421875 27.875 -1.421875 
Q 17.96875 -1.421875 11.734375 6.484375 
Q 5.515625 14.40625 5.515625 27.296875 
Q 5.515625 40.1875 11.734375 48.09375 
Q 17.96875 56 27.875 56 
Q 33.9375 56 38.25 53.625 
Q 42.578125 51.265625 45.40625 46.390625 
z
M 14.796875 27.296875 
Q 14.796875 17.390625 18.875 11.75 
Q 22.953125 6.109375 30.078125 6.109375 
Q 37.203125 6.109375 41.296875 11.75 
Q 45.40625 17.390625 45.40625 27.296875 
Q 45.40625 37.203125 41.296875 42.84375 
Q 37.203125 48.484375 30.078125 48.484375 
Q 22.953125 48.484375 18.875 42.84375 
Q 14.796875 37.203125 14.796875 27.296875 
z
" id="DejaVuSans-64"/>
      <path d="M 31 75.875 
Q 24.46875 64.65625 21.28125 53.65625 
Q 18.109375 42.671875 18.109375 31.390625 
Q 18.109375 20.125 21.3125 9.0625 
Q 24.515625 -2 31 -13.1875 
L 23.1875 -13.1875 
Q 15.875 -1.703125 12.234375 9.375 
Q 8.59375 20.453125 8.59375 31.390625 
Q 8.59375 42.28125 12.203125 53.3125 
Q 15.828125 64.359375 23.1875 75.875 
z
" id="DejaVuSans-28"/>
      <path d="M 48.6875 27.296875 
Q 48.6875 37.203125 44.609375 42.84375 
Q 40.53125 48.484375 33.40625 48.484375 
Q 26.265625 48.484375 22.1875 42.84375 
Q 18.109375 37.203125 18.109375 27.296875 
Q 18.109375 17.390625 22.1875 11.75 
Q 26.265625 6.109375 33.40625 6.109375 
Q 40.53125 6.109375 44.609375 11.75 
Q 48.6875 17.390625 48.6875 27.296875 
z
M 18.109375 46.390625 
Q 20.953125 51.265625 25.265625 53.625 
Q 29.59375 56 35.59375 56 
Q 45.5625 56 51.78125 48.09375 
Q 58.015625 40.1875 58.015625 27.296875 
Q 58.015625 14.40625 51.78125 6.484375 
Q 45.5625 -1.421875 35.59375 -1.421875 
Q 29.59375 -1.421875 25.265625 0.953125 
Q 20.953125 3.328125 18.109375 8.203125 
L 18.109375 0 
L 9.078125 0 
L 9.078125 75.984375 
L 18.109375 75.984375 
z
" id="DejaVuSans-62"/>
      <path d="M 18.109375 8.203125 
L 18.109375 -20.796875 
L 9.078125 -20.796875 
L 9.078125 54.6875 
L 18.109375 54.6875 
L 18.109375 46.390625 
Q 20.953125 51.265625 25.265625 53.625 
Q 29.59375 56 35.59375 56 
Q 45.5625 56 51.78125 48.09375 
Q 58.015625 40.1875 58.015625 27.296875 
Q 58.015625 14.40625 51.78125 6.484375 
Q 45.5625 -1.421875 35.59375 -1.421875 
Q 29.59375 -1.421875 25.265625 0.953125 
Q 20.953125 3.328125 18.109375 8.203125 
z
M 48.6875 27.296875 
Q 48.6875 37.203125 44.609375 42.84375 
Q 40.53125 48.484375 33.40625 48.484375 
Q 26.265625 48.484375 22.1875 42.84375 
Q 18.109375 37.203125 18.109375 27.296875 
Q 18.109375 17.390625 22.1875 11.75 
Q 26.265625 6.109375 33.40625 6.109375 
Q 40.53125 6.109375 44.609375 11.75 
Q 48.6875 17.390625 48.6875 27.296875 
z
" id="DejaVuSans-70"/>
      <path d="M 8.015625 75.875 
L 15.828125 75.875 
Q 23.140625 64.359375 26.78125 53.3125 
Q 30.421875 42.28125 30.421875 31.390625 
Q 30.421875 20.453125 26.78125 9.375 
Q 23.140625 -1.703125 15.828125 -13.1875 
L 8.015625 -13.1875 
Q 14.5 -2 17.703125 9.0625 
Q 20.90625 20.125 20.90625 31.390625 
Q 20.90625 42.671875 17.703125 53.65625 
Q 14.5 64.65625 8.015625 75.875 
z
" id="DejaVuSans-29"/>
     </defs>
     <g transform="translate(459.799219 407.612437)scale(0.1 -0.1)">
      <use xlink:href="#DejaVuSans-50"/>
      <use x="60.255859" xlink:href="#DejaVuSans-6f"/>
      <use x="121.4375" xlink:href="#DejaVuSans-73"/>
      <use x="173.537109" xlink:href="#DejaVuSans-69"/>
      <use x="201.320312" xlink:href="#DejaVuSans-74"/>
      <use x="240.529297" xlink:href="#DejaVuSans-69"/>
      <use x="268.3125" xlink:href="#DejaVuSans-6f"/>
      <use x="329.494141" xlink:href="#DejaVuSans-6e"/>
      <use x="392.873047" xlink:href="#DejaVuSans-20"/>
      <use x="424.660156" xlink:href="#DejaVuSans-69"/>
      <use x="452.443359" xlink:href="#DejaVuSans-6e"/>
      <use x="515.822266" xlink:href="#DejaVuSans-20"/>
      <use x="547.609375" xlink:href="#DejaVuSans-52"/>
      <use x="617.029297" xlink:href="#DejaVuSans-65"/>
      <use x="678.552734" xlink:href="#DejaVuSans-61"/>
      <use x="739.832031" xlink:href="#DejaVuSans-64"/>
      <use x="803.308594" xlink:href="#DejaVuSans-20"/>
      <use x="835.095703" xlink:href="#DejaVuSans-28"/>
      <use x="874.109375" xlink:href="#DejaVuSans-62"/>
      <use x="937.585938" xlink:href="#DejaVuSans-70"/>
      <use x="1001.0625" xlink:href="#DejaVuSans-29"/>
     </g>
    </g>
   </g>
   <g id="matplotlib.axis_2">
    <g id="ytick_1">
     <g id="line2d_1">
      <path clip-path="url(#pdb77a589ad)" d="M 32.968125 381.2715 
L 990.638125 381.2715 
" style="fill:none;stroke:#dedede;stroke-linecap:square;"/>
     </g>
     <g id="text_8">
      <!-- 0 -->
      <g transform="translate(20.878125 384.310875)scale(0.08 -0.08)">
       <use xlink:href="#DejaVuSans-30"/>
      </g>
     </g>
    </g>
    <g id="ytick_2">
     <g id="line2d_2">
      <path clip-path="url(#pdb77a589ad)" d="M 32.968125 312.3355 
L 990.638125 312.3355 
" style="fill:none;stroke:#dedede;stroke-linecap:square;"/>
     </g>
     <g id="text_9">
      <!-- 1 -->
      <g transform="translate(20.878125 315.374875)scale(0.08 -0.08)">
       <use xlink:href="#DejaVuSans-31"/>
      </g>
     </g>
    </g>
    <g id="ytick_3">
     <g id="line2d_3">
      <path clip-path="url(#pdb77a589ad)" d="M 32.968125 243.3995 
L 990.638125 243.3995 
" style="fill:none;stroke:#dedede;stroke-linecap:square;"/>
     </g>
     <g id="text_10">
      <!-- 2 -->
      <g transform="translate(20.878125 246.438875)scale(0.08 -0.08)">
       <use xlink:href="#DejaVuSans-32"/>
      </g>
     </g>
    </g>
    <g id="ytick_4">
     <g id="line2d_4">
      <path clip-path="url(#pdb77a589ad)" d="M 32.968125 174.4635 
L 990.638125 174.4635 
" style="fill:none;stroke:#dedede;stroke-linecap:square;"/>
     </g>
     <g id="text_11">
      <!-- 3 -->
      <defs>
       <path d="M 40.578125 39.3125 
Q 47.65625 37.796875 51.625 33 
Q 55.609375 28.21875 55.609375 21.1875 
Q 55.609375 10.40625 48.1875 4.484375 
Q 40.765625 -1.421875 27.09375 -1.421875 
Q 22.515625 -1.421875 17.65625 -0.515625 
Q 12.796875 0.390625 7.625 2.203125 
L 7.625 11.71875 
Q 11.71875 9.328125 16.59375 8.109375 
Q 21.484375 6.890625 26.8125 6.890625 
Q 36.078125 6.890625 40.9375 10.546875 
Q 45.796875 14.203125 45.796875 21.1875 
Q 45.796875 27.640625 41.28125 31.265625 
Q 36.765625 34.90625 28.71875 34.90625 
L 20.21875 34.90625 
L 20.21875 43.015625 
L 29.109375 43.015625 
Q 36.375 43.015625 40.234375 45.921875 
Q 44.09375 48.828125 44.09375 54.296875 
Q 44.09375 59.90625 40.109375 62.90625 
Q 36.140625 65.921875 28.71875 65.921875 
Q 24.65625 65.921875 20.015625 65.03125 
Q 15.375 64.15625 9.8125 62.3125 
L 9.8125 71.09375 
Q 15.4375 72.65625 20.34375 73.4375 
Q 25.25 74.21875 29.59375 74.21875 
Q 40.828125 74.21875 47.359375 69.109375 
Q 53.90625 64.015625 53.90625 55.328125 
Q 53.90625 49.265625 50.4375 45.09375 
Q 46.96875 40.921875 40.578125 39.3125 
z
" id="DejaVuSans-33"/>
      </defs>
      <g transform="translate(20.878125 177.502875)scale(0.08 -0.08)">
       <use xlink:href="#DejaVuSans-33"/>
      </g>
     </g>
    </g>
    <g id="ytick_5">
     <g id="line2d_5">
      <path clip-path="url(#pdb77a589ad)" d="M 32.968125 105.5275 
L 990.638125 105.5275 
" style="fill:none;stroke:#dedede;stroke-linecap:square;"/>
     </g>
     <g id="text_12">
      <!-- 4 -->
      <g transform="translate(20.878125 108.566875)scale(0.08 -0.08)">
       <use xlink:href="#DejaVuSans-34"/>
      </g>
     </g>
    </g>
    <g id="ytick_6">
     <g id="line2d_6">
      <path clip-path="url(#pdb77a589ad)" d="M 32.968125 36.5915 
L 990.638125 36.5915 
" style="fill:none;stroke:#dedede;stroke-linecap:square;"/>
     </g>
     <g id="text_13">
      <!-- 5 -->
      <defs>
       <path d="M 10.796875 72.90625 
L 49.515625 72.90625 
L 49.515625 64.59375 
L 19.828125 64.59375 
L 19.828125 46.734375 
Q 21.96875 47.46875 24.109375 47.828125 
Q 26.265625 48.1875 28.421875 48.1875 
Q 40.625 48.1875 47.75 41.5 
Q 54.890625 34.8125 54.890625 23.390625 
Q 54.890625 11.625 47.5625 5.09375 
Q 40.234375 -1.421875 26.90625 -1.421875 
Q 22.3125 -1.421875 17.546875 -0.640625 
Q 12.796875 0.140625 7.71875 1.703125 
L 7.71875 11.625 
Q 12.109375 9.234375 16.796875 8.0625 
Q 21.484375 6.890625 26.703125 6.890625 
Q 35.15625 6.890625 40.078125 11.328125 
Q 45.015625 15.765625 45.015625 23.390625 
Q 45.015625 31 40.078125 35.4375 
Q 35.15625 39.890625 26.703125 39.890625 
Q 22.75 39.890625 18.8125 39.015625 
Q 14.890625 38.140625 10.796875 36.28125 
z
" id="DejaVuSans-35"/>
      </defs>
      <g transform="translate(20.878125 39.630875)scale(0.08 -0.08)">
       <use xlink:href="#DejaVuSans-35"/>
      </g>
     </g>
    </g>
    <g id="text_14">
     <!-- Percentage N-Count -->
     <defs>
      <path d="M 41.109375 46.296875 
Q 39.59375 47.171875 37.8125 47.578125 
Q 36.03125 48 33.890625 48 
Q 26.265625 48 22.1875 43.046875 
Q 18.109375 38.09375 18.109375 28.8125 
L 18.109375 0 
L 9.078125 0 
L 9.078125 54.6875 
L 18.109375 54.6875 
L 18.109375 46.1875 
Q 20.953125 51.171875 25.484375 53.578125 
Q 30.03125 56 36.53125 56 
Q 37.453125 56 38.578125 55.875 
Q 39.703125 55.765625 41.0625 55.515625 
z
" id="DejaVuSans-72"/>
      <path d="M 48.78125 52.59375 
L 48.78125 44.1875 
Q 44.96875 46.296875 41.140625 47.34375 
Q 37.3125 48.390625 33.40625 48.390625 
Q 24.65625 48.390625 19.8125 42.84375 
Q 14.984375 37.3125 14.984375 27.296875 
Q 14.984375 17.28125 19.8125 11.734375 
Q 24.65625 6.203125 33.40625 6.203125 
Q 37.3125 6.203125 41.140625 7.25 
Q 44.96875 8.296875 48.78125 10.40625 
L 48.78125 2.09375 
Q 45.015625 0.34375 40.984375 -0.53125 
Q 36.96875 -1.421875 32.421875 -1.421875 
Q 20.0625 -1.421875 12.78125 6.34375 
Q 5.515625 14.109375 5.515625 27.296875 
Q 5.515625 40.671875 12.859375 48.328125 
Q 20.21875 56 33.015625 56 
Q 37.15625 56 41.109375 55.140625 
Q 45.0625 54.296875 48.78125 52.59375 
z
" id="DejaVuSans-63"/>
      <path d="M 45.40625 27.984375 
Q 45.40625 37.75 41.375 43.109375 
Q 37.359375 48.484375 30.078125 48.484375 
Q 22.859375 48.484375 18.828125 43.109375 
Q 14.796875 37.75 14.796875 27.984375 
Q 14.796875 18.265625 18.828125 12.890625 
Q 22.859375 7.515625 30.078125 7.515625 
Q 37.359375 7.515625 41.375 12.890625 
Q 45.40625 18.265625 45.40625 27.984375 
z
M 54.390625 6.78125 
Q 54.390625 -7.171875 48.1875 -13.984375 
Q 42 -20.796875 29.203125 -20.796875 
Q 24.46875 -20.796875 20.265625 -20.09375 
Q 16.0625 -19.390625 12.109375 -17.921875 
L 12.109375 -9.1875 
Q 16.0625 -11.328125 19.921875 -12.34375 
Q 23.78125 -13.375 27.78125 -13.375 
Q 36.625 -13.375 41.015625 -8.765625 
Q 45.40625 -4.15625 45.40625 5.171875 
L 45.40625 9.625 
Q 42.625 4.78125 38.28125 2.390625 
Q 33.9375 0 27.875 0 
Q 17.828125 0 11.671875 7.65625 
Q 5.515625 15.328125 5.515625 27.984375 
Q 5.515625 40.671875 11.671875 48.328125 
Q 17.828125 56 27.875 56 
Q 33.9375 56 38.28125 53.609375 
Q 42.625 51.21875 45.40625 46.390625 
L 45.40625 54.6875 
L 54.390625 54.6875 
z
" id="DejaVuSans-67"/>
      <path d="M 9.8125 72.90625 
L 23.09375 72.90625 
L 55.421875 11.921875 
L 55.421875 72.90625 
L 64.984375 72.90625 
L 64.984375 0 
L 51.703125 0 
L 19.390625 60.984375 
L 19.390625 0 
L 9.8125 0 
z
" id="DejaVuSans-4e"/>
      <path d="M 4.890625 31.390625 
L 31.203125 31.390625 
L 31.203125 23.390625 
L 4.890625 23.390625 
z
" id="DejaVuSans-2d"/>
      <path d="M 64.40625 67.28125 
L 64.40625 56.890625 
Q 59.421875 61.53125 53.78125 63.8125 
Q 48.140625 66.109375 41.796875 66.109375 
Q 29.296875 66.109375 22.65625 58.46875 
Q 16.015625 50.828125 16.015625 36.375 
Q 16.015625 21.96875 22.65625 14.328125 
Q 29.296875 6.6875 41.796875 6.6875 
Q 48.140625 6.6875 53.78125 8.984375 
Q 59.421875 11.28125 64.40625 15.921875 
L 64.40625 5.609375 
Q 59.234375 2.09375 53.4375 0.328125 
Q 47.65625 -1.421875 41.21875 -1.421875 
Q 24.65625 -1.421875 15.125 8.703125 
Q 5.609375 18.84375 5.609375 36.375 
Q 5.609375 53.953125 15.125 64.078125 
Q 24.65625 74.21875 41.21875 74.21875 
Q 47.75 74.21875 53.53125 72.484375 
Q 59.328125 70.75 64.40625 67.28125 
z
" id="DejaVuSans-43"/>
      <path d="M 8.5 21.578125 
L 8.5 54.6875 
L 17.484375 54.6875 
L 17.484375 21.921875 
Q 17.484375 14.15625 20.5 10.265625 
Q 23.53125 6.390625 29.59375 6.390625 
Q 36.859375 6.390625 41.078125 11.03125 
Q 45.3125 15.671875 45.3125 23.6875 
L 45.3125 54.6875 
L 54.296875 54.6875 
L 54.296875 0 
L 45.3125 0 
L 45.3125 8.40625 
Q 42.046875 3.421875 37.71875 1 
Q 33.40625 -1.421875 27.6875 -1.421875 
Q 18.265625 -1.421875 13.375 4.4375 
Q 8.5 10.296875 8.5 21.578125 
z
M 31.109375 56 
z
" id="DejaVuSans-75"/>
     </defs>
     <g transform="translate(14.798438 259.326031)rotate(-90)scale(0.1 -0.1)">
      <use xlink:href="#DejaVuSans-50"/>
      <use x="60.255859" xlink:href="#DejaVuSans-65"/>
      <use x="121.779297" xlink:href="#DejaVuSans-72"/>
      <use x="162.861328" xlink:href="#DejaVuSans-63"/>
      <use x="217.841797" xlink:href="#DejaVuSans-65"/>
      <use x="279.365234" xlink:href="#DejaVuSans-6e"/>
      <use x="342.744141" xlink:href="#DejaVuSans-74"/>
      <use x="381.953125" xlink:href="#DejaVuSans-61"/>
      <use x="443.232422" xlink:href="#DejaVuSans-67"/>
      <use x="506.708984" xlink:href="#DejaVuSans-65"/>
      <use x="568.232422" xlink:href="#DejaVuSans-20"/>
      <use x="600.019531" xlink:href="#DejaVuSans-4e"/>
      <use x="674.824219" xlink:href="#DejaVuSans-2d"/>
      <use x="710.908203" xlink:href="#DejaVuSans-43"/>
      <use x="780.732422" xlink:href="#DejaVuSans-6f"/>
      <use x="841.914062" xlink:href="#DejaVuSans-75"/>
      <use x="905.292969" xlink:href="#DejaVuSans-6e"/>
      <use x="968.671875" xlink:href="#DejaVuSans-74"/>
     </g>
    </g>
   </g>
   <g id="line2d_7">
    <path clip-path="url(#pdb77a589ad)" d="M 42.093137 378.161119 
L 51.218149 378.27643 
L 60.343161 381.269993 
L 69.468173 381.2715 
L 78.593185 380.907479 
L 87.718196 381.2715 
L 96.843208 381.2715 
L 105.96822 381.2715 
L 115.093232 381.163726 
L 124.218244 381.2715 
L 142.468268 381.204424 
L 160.718292 381.2715 
L 178.968316 381.203858 
L 197.218339 381.2715 
L 215.468363 381.2715 
L 233.718387 381.145638 
L 251.968411 381.202916 
L 270.218435 380.631637 
L 288.468458 379.614 
L 306.718482 381.271123 
L 324.968506 381.2715 
L 343.21853 381.230802 
L 361.468554 381.2715 
L 379.718578 381.25963 
L 397.968601 381.269993 
L 416.218625 381.2715 
L 434.468649 381.2715 
L 452.718673 381.2715 
L 470.968697 381.265282 
L 489.218721 381.2715 
L 507.468744 381.2715 
L 525.718768 381.048038 
L 543.968792 381.200655 
L 562.218816 380.494282 
L 580.46884 381.183886 
L 598.718863 381.239469 
L 616.968887 381.229672 
L 635.218911 381.087417 
L 653.468935 381.266978 
L 671.718959 381.238339 
L 689.968983 381.260949 
L 708.219006 381.241542 
L 726.46903 381.212902 
L 744.719054 381.2715 
L 762.969078 381.2715 
L 781.219102 381.270935 
L 799.469125 381.2715 
L 817.719149 381.235136 
L 835.969173 381.229672 
L 854.219197 381.2715 
L 872.469221 381.2715 
L 890.719245 381.2715 
L 908.969268 381.245499 
L 927.219292 381.208757 
L 945.469316 381.178611 
" style="fill:none;stroke:#5cb85c;stroke-linecap:square;"/>
   </g>
   <g id="line2d_8">
    <path clip-path="url(#pdb77a589ad)" d="M 42.093137 377.70892 
L 51.218149 381.2715 
L 60.343161 381.2715 
L 69.468173 381.2715 
L 78.593185 381.2715 
L 87.718196 381.2715 
L 96.843208 381.228164 
L 105.96822 381.130188 
L 115.093232 381.2715 
L 124.218244 381.2715 
L 142.468268 381.019022 
L 160.718292 379.485499 
L 178.968316 380.825706 
L 197.218339 381.23457 
L 215.468363 381.253224 
L 233.718387 381.269051 
L 251.968411 381.115868 
L 270.218435 381.100041 
L 288.468458 381.207627 
L 306.718482 381.192742 
L 324.968506 381.132072 
L 343.21853 381.159769 
L 361.468554 380.772385 
L 379.718578 381.113607 
L 397.968601 380.847186 
L 416.218625 379.734398 
L 434.468649 379.64603 
L 452.718673 380.647088 
L 470.968697 381.12397 
L 489.218721 380.690989 
L 507.468744 381.126796 
L 525.718768 381.251339 
L 543.968792 380.847563 
L 562.218816 381.134898 
L 580.46884 380.429843 
L 598.718863 381.038994 
L 616.968887 380.595838 
L 635.218911 381.24776 
L 653.468935 381.01092 
L 671.718959 381.123405 
L 689.968983 380.846432 
L 708.219006 381.150537 
L 726.46903 380.597911 
L 744.719054 381.093823 
L 762.969078 381.15732 
L 781.219102 381.139232 
L 799.469125 371.81883 
L 817.719149 367.493162 
L 835.969173 366.667144 
L 854.219197 366.542412 
L 872.469221 368.507032 
L 890.719245 367.092966 
L 908.969268 368.237973 
L 927.219292 367.537817 
L 945.469316 368.180506 
" style="fill:none;stroke:#5cb85c;stroke-linecap:square;"/>
   </g>
   <g id="line2d_9">
    <path clip-path="url(#pdb77a589ad)" d="M 42.093137 378.123488 
L 51.218149 378.189547 
L 60.343161 381.271003 
L 69.468173 381.2715 
L 78.593185 380.898487 
L 87.718196 381.2715 
L 96.843208 381.2715 
L 105.96822 381.2715 
L 115.093232 381.155275 
L 124.218244 381.2715 
L 142.468268 381.202709 
L 160.718292 381.2715 
L 178.968316 381.208917 
L 197.218339 381.2715 
L 215.468363 381.271252 
L 233.718387 381.145341 
L 251.968411 381.202212 
L 270.218435 380.628537 
L 288.468458 379.628454 
L 306.718482 381.270755 
L 324.968506 381.2715 
L 343.21853 381.22655 
L 361.468554 381.2715 
L 379.718578 381.259579 
L 397.968601 381.270755 
L 416.218625 381.2715 
L 434.468649 381.2715 
L 452.718673 381.2715 
L 470.968697 381.266533 
L 489.218721 381.2715 
L 507.468744 381.2715 
L 525.718768 381.04799 
L 543.968792 381.193023 
L 562.218816 380.475805 
L 580.46884 381.181848 
L 598.718863 381.233752 
L 616.968887 381.224315 
L 635.218911 381.068354 
L 653.468935 381.266285 
L 671.718959 381.234497 
L 689.968983 381.260821 
L 708.219006 381.236235 
L 726.46903 381.207676 
L 744.719054 381.2715 
L 762.969078 381.2715 
L 781.219102 381.271252 
L 799.469125 381.2715 
L 817.719149 381.236483 
L 835.969173 381.230772 
L 854.219197 381.2715 
L 872.469221 381.2715 
L 890.719245 381.2715 
L 908.969268 381.24294 
L 927.219292 381.202709 
L 945.469316 381.170672 
" style="fill:none;stroke:#5cb85c;stroke-linecap:square;"/>
   </g>
   <g id="line2d_10">
    <path clip-path="url(#pdb77a589ad)" d="M 42.093137 377.703786 
L 51.218149 381.2715 
L 60.343161 381.2715 
L 69.468173 381.2715 
L 78.593185 381.2715 
L 87.718196 381.2715 
L 96.843208 381.228785 
L 105.96822 381.113553 
L 115.093232 381.271003 
L 124.218244 381.2715 
L 142.468268 381.018685 
L 160.718292 379.465043 
L 178.968316 380.799397 
L 197.218339 381.228536 
L 215.468363 381.252626 
L 233.718387 381.269762 
L 251.968411 381.110325 
L 270.218435 381.102626 
L 288.468458 381.203702 
L 306.718482 381.192527 
L 324.968506 381.125225 
L 343.21853 381.157758 
L 361.468554 380.769844 
L 379.718578 381.110325 
L 397.968601 380.837642 
L 416.218625 379.788388 
L 434.468649 379.646086 
L 452.718673 380.632758 
L 470.968697 381.115788 
L 489.218721 380.708503 
L 507.468744 381.117527 
L 525.718768 381.245921 
L 543.968792 380.854033 
L 562.218816 381.13044 
L 580.46884 380.401798 
L 598.718863 381.022659 
L 616.968887 380.591533 
L 635.218911 381.244679 
L 653.468935 380.999066 
L 671.718959 381.118023 
L 689.968983 380.82746 
L 708.219006 381.151798 
L 726.46903 380.616119 
L 744.719054 381.095921 
L 762.969078 381.157013 
L 781.219102 381.127212 
L 799.469125 371.54733 
L 817.719149 367.037646 
L 835.969173 366.199484 
L 854.219197 366.067365 
L 872.469221 368.12142 
L 890.719245 366.702878 
L 908.969268 367.870841 
L 927.219292 367.090295 
L 945.469316 367.746917 
" style="fill:none;stroke:#5cb85c;stroke-linecap:square;"/>
   </g>
   <g id="line2d_11">
    <path clip-path="url(#pdb77a589ad)" d="M 42.093137 378.211861 
L 51.218149 378.274553 
L 60.343161 381.2715 
L 69.468173 381.2715 
L 78.593185 380.902892 
L 87.718196 381.2715 
L 96.843208 381.2715 
L 105.96822 381.2715 
L 115.093232 381.172984 
L 124.218244 381.2715 
L 142.468268 381.196317 
L 160.718292 381.2715 
L 178.968316 381.204802 
L 197.218339 381.2715 
L 215.468363 381.271264 
L 233.718387 381.152244 
L 251.968411 381.207394 
L 270.218435 380.643169 
L 288.468458 379.651414 
L 306.718482 381.270322 
L 324.968506 381.2715 
L 343.21853 381.236619 
L 361.468554 381.2715 
L 379.718578 381.260423 
L 397.968601 381.270793 
L 416.218625 381.2715 
L 434.468649 381.2715 
L 452.718673 381.2715 
L 470.968697 381.26443 
L 489.218721 381.2715 
L 507.468744 381.2715 
L 525.718768 381.058914 
L 543.968792 381.198674 
L 562.218816 380.485497 
L 580.46884 381.189954 
L 598.718863 381.240154 
L 616.968887 381.226956 
L 635.218911 381.097566 
L 653.468935 381.266079 
L 671.718959 381.238504 
L 689.968983 381.259952 
L 708.219006 381.243454 
L 726.46903 381.212579 
L 744.719054 381.2715 
L 762.969078 381.2715 
L 781.219102 381.271264 
L 799.469125 381.2715 
L 817.719149 381.238033 
L 835.969173 381.231198 
L 854.219197 381.2715 
L 872.469221 381.2715 
L 890.719245 381.2715 
L 908.969268 381.246753 
L 927.219292 381.208337 
L 945.469316 381.182647 
" style="fill:none;stroke:#5cb85c;stroke-linecap:square;"/>
   </g>
   <g id="line2d_12">
    <path clip-path="url(#pdb77a589ad)" d="M 42.093137 377.640565 
L 51.218149 381.2715 
L 60.343161 381.2715 
L 69.468173 381.2715 
L 78.593185 381.2715 
L 87.718196 381.2715 
L 96.843208 381.232848 
L 105.96822 381.11972 
L 115.093232 381.270557 
L 124.218244 381.2715 
L 142.468268 381.038881 
L 160.718292 379.551249 
L 178.968316 380.844678 
L 197.218339 381.234969 
L 215.468363 381.254059 
L 233.718387 381.26985 
L 251.968411 381.11972 
L 270.218435 381.110764 
L 288.468458 381.209515 
L 306.718482 381.192782 
L 324.968506 381.134332 
L 343.21853 381.167564 
L 361.468554 380.800134 
L 379.718578 381.129383 
L 397.968601 380.846092 
L 416.218625 379.802251 
L 434.468649 379.68441 
L 452.718673 380.682056 
L 470.968697 381.120663 
L 489.218721 380.725894 
L 507.468744 381.128676 
L 525.718768 381.248167 
L 543.968792 380.880737 
L 562.218816 381.141167 
L 580.46884 380.454387 
L 598.718863 381.04383 
L 616.968887 380.630678 
L 635.218911 381.24911 
L 653.468935 381.020969 
L 671.718959 381.134332 
L 689.968983 380.858112 
L 708.219006 381.163557 
L 726.46903 380.646233 
L 744.719054 381.107465 
L 762.969078 381.163086 
L 781.219102 381.143053 
L 799.469125 371.954945 
L 817.719149 367.599756 
L 835.969173 366.822945 
L 854.219197 366.701097 
L 872.469221 368.666694 
L 890.719245 367.26108 
L 908.969268 368.351821 
L 927.219292 367.69403 
L 945.469316 368.322832 
" style="fill:none;stroke:#5cb85c;stroke-linecap:square;"/>
   </g>
   <g id="line2d_13">
    <path clip-path="url(#pdb77a589ad)" d="M 42.093137 378.079301 
L 51.218149 378.175938 
L 60.343161 381.270593 
L 69.468173 381.2715 
L 78.593185 380.86998 
L 87.718196 381.2715 
L 96.843208 381.2715 
L 105.96822 381.2715 
L 115.093232 381.157623 
L 124.218244 381.2715 
L 142.468268 381.210932 
L 160.718292 381.2715 
L 178.968316 381.200043 
L 197.218339 381.2715 
L 215.468363 381.2715 
L 233.718387 381.156488 
L 251.968411 381.202311 
L 270.218435 380.620221 
L 288.468458 379.602583 
L 306.718482 381.271046 
L 324.968506 381.2715 
L 343.21853 381.228853 
L 361.468554 381.2715 
L 379.718578 381.257662 
L 397.968601 381.270139 
L 416.218625 381.2715 
L 434.468649 381.2715 
L 452.718673 381.2715 
L 470.968697 381.266056 
L 489.218721 381.2715 
L 507.468744 381.2715 
L 525.718768 381.047601 
L 543.968792 381.194599 
L 562.218816 380.490237 
L 580.46884 381.190289 
L 598.718863 381.235885 
L 616.968887 381.223181 
L 635.218911 381.071647 
L 653.468935 381.265375 
L 671.718959 381.23339 
L 689.968983 381.261746 
L 708.219006 381.23838 
L 726.46903 381.206848 
L 744.719054 381.2715 
L 762.969078 381.2715 
L 781.219102 381.270819 
L 799.469125 381.2715 
L 817.719149 381.228853 
L 835.969173 381.228853 
L 854.219197 381.2715 
L 872.469221 381.2715 
L 890.719245 381.2715 
L 908.969268 381.244051 
L 927.219292 381.20458 
L 945.469316 381.165562 
" style="fill:none;stroke:#5cb85c;stroke-linecap:square;"/>
   </g>
   <g id="line2d_14">
    <path clip-path="url(#pdb77a589ad)" d="M 42.093137 377.599292 
L 51.218149 381.2715 
L 60.343161 381.2715 
L 69.468173 381.2715 
L 78.593185 381.2715 
L 87.718196 381.2715 
L 96.843208 381.240649 
L 105.96822 381.122688 
L 115.093232 381.2715 
L 124.218244 381.2715 
L 142.468268 381.04624 
L 160.718292 379.528857 
L 178.968316 380.851151 
L 197.218339 381.233616 
L 215.468363 381.25494 
L 233.718387 381.269005 
L 251.968411 381.106809 
L 270.218435 381.11316 
L 288.468458 381.203219 
L 306.718482 381.199136 
L 324.968506 381.144012 
L 343.21853 381.16647 
L 361.468554 380.821888 
L 379.718578 381.128132 
L 397.968601 380.834138 
L 416.218625 379.785649 
L 434.468649 379.67472 
L 452.718673 380.675345 
L 470.968697 381.107716 
L 489.218721 380.73614 
L 507.468744 381.120646 
L 525.718768 381.249496 
L 543.968792 380.883137 
L 562.218816 381.140609 
L 580.46884 380.440104 
L 598.718863 381.038981 
L 616.968887 380.6116 
L 635.218911 381.253352 
L 653.468935 381.026505 
L 671.718959 381.133577 
L 689.968983 380.861133 
L 708.219006 381.168284 
L 726.46903 380.658331 
L 744.719054 381.118151 
L 762.969078 381.162159 
L 781.219102 381.136072 
L 799.469125 371.74912 
L 817.719149 367.276821 
L 835.969173 366.495558 
L 854.219197 366.373514 
L 872.469221 368.435104 
L 890.719245 366.942447 
L 908.969268 368.099143 
L 927.219292 367.381397 
L 945.469316 368.100504 
" style="fill:none;stroke:#5cb85c;stroke-linecap:square;"/>
   </g>
   <g id="line2d_15">
    <path clip-path="url(#pdb77a589ad)" d="M 42.093137 378.253242 
L 51.218149 378.303079 
L 60.343161 381.2715 
L 69.468173 381.2715 
L 78.593185 380.909664 
L 87.718196 381.2715 
L 96.843208 381.2715 
L 105.96822 381.2715 
L 115.093232 381.161584 
L 124.218244 381.2715 
L 142.468268 381.20596 
L 160.718292 381.2715 
L 178.968316 381.215518 
L 197.218339 381.2715 
L 215.468363 381.2715 
L 233.718387 381.144857 
L 251.968411 381.202546 
L 270.218435 380.65672 
L 288.468458 379.650065 
L 306.718482 381.270817 
L 324.968506 381.2715 
L 343.21853 381.230196 
L 361.468554 381.2715 
L 379.718578 381.258529 
L 397.968601 381.271159 
L 416.218625 381.2715 
L 434.468649 381.2715 
L 452.718673 381.2715 
L 470.968697 381.26399 
L 489.218721 381.2715 
L 507.468744 381.2715 
L 525.718768 381.058153 
L 543.968792 381.197767 
L 562.218816 380.495942 
L 580.46884 381.189575 
L 598.718863 381.236682 
L 616.968887 381.22371 
L 635.218911 381.077611 
L 653.468935 381.266721 
L 671.718959 381.235658 
L 689.968983 381.259211 
L 708.219006 381.238389 
L 726.46903 381.210739 
L 744.719054 381.2715 
L 762.969078 381.2715 
L 781.219102 381.271159 
L 799.469125 381.2715 
L 817.719149 381.242143 
L 835.969173 381.238389 
L 854.219197 381.2715 
L 872.469221 381.2715 
L 890.719245 381.2715 
L 908.969268 381.242826 
L 927.219292 381.203912 
L 945.469316 381.178993 
" style="fill:none;stroke:#5cb85c;stroke-linecap:square;"/>
   </g>
   <g id="line2d_16">
    <path clip-path="url(#pdb77a589ad)" d="M 42.093137 377.769201 
L 51.218149 381.2715 
L 60.343161 381.2715 
L 69.468173 381.2715 
L 78.593185 381.2715 
L 87.718196 381.2715 
L 96.843208 381.234634 
L 105.96822 381.117208 
L 115.093232 381.2715 
L 124.218244 381.2715 
L 142.468268 381.048595 
L 160.718292 379.519668 
L 178.968316 380.840369 
L 197.218339 381.23361 
L 215.468363 381.251019 
L 233.718387 381.269793 
L 251.968411 381.114135 
L 270.218435 381.104578 
L 288.468458 381.204936 
L 306.718482 381.195719 
L 324.968506 381.141785 
L 343.21853 381.154074 
L 361.468554 380.826715 
L 379.718578 381.121645 
L 397.968601 380.848903 
L 416.218625 379.815622 
L 434.468649 379.688979 
L 452.718673 380.684029 
L 470.968697 381.1254 
L 489.218721 380.725332 
L 507.468744 381.135299 
L 525.718768 381.25136 
L 543.968792 380.8885 
L 562.218816 381.133251 
L 580.46884 380.444397 
L 598.718863 381.048595 
L 616.968887 380.625657 
L 635.218911 381.247947 
L 653.468935 381.032552 
L 671.718959 381.124376 
L 689.968983 380.863922 
L 708.219006 381.153391 
L 726.46903 380.635215 
L 744.719054 381.104919 
L 762.969078 381.157488 
L 781.219102 381.13803 
L 799.469125 371.770574 
L 817.719149 367.497837 
L 835.969173 366.735933 
L 854.219197 366.558087 
L 872.469221 368.525997 
L 890.719245 367.108351 
L 908.969268 368.239259 
L 927.219292 367.5743 
L 945.469316 368.224581 
" style="fill:none;stroke:#5cb85c;stroke-linecap:square;"/>
   </g>
   <g id="line2d_17">
    <path clip-path="url(#pdb77a589ad)" d="M 42.093137 378.145486 
L 51.218149 378.211327 
L 60.343161 381.270427 
L 69.468173 381.2715 
L 78.593185 380.887547 
L 87.718196 381.2715 
L 96.843208 381.2715 
L 105.96822 381.2715 
L 115.093232 381.153774 
L 124.218244 381.2715 
L 142.468268 381.197608 
L 160.718292 381.2715 
L 178.968316 381.203691 
L 197.218339 381.2715 
L 215.468363 381.271142 
L 233.718387 381.159499 
L 251.968411 381.196355 
L 270.218435 380.638318 
L 288.468458 379.653745 
L 306.718482 381.270605 
L 324.968506 381.2715 
L 343.21853 381.230349 
L 361.468554 381.2715 
L 379.718578 381.258618 
L 397.968601 381.270963 
L 416.218625 381.2715 
L 434.468649 381.2715 
L 452.718673 381.2715 
L 470.968697 381.266669 
L 489.218721 381.2715 
L 507.468744 381.2715 
L 525.718768 381.043025 
L 543.968792 381.193851 
L 562.218816 380.477115 
L 580.46884 381.187589 
L 598.718863 381.233391 
L 616.968887 381.221046 
L 635.218911 381.068073 
L 653.468935 381.26488 
L 671.718959 381.233212 
L 689.968983 381.261123 
L 708.219006 381.235896 
L 726.46903 381.203154 
L 744.719054 381.2715 
L 762.969078 381.2715 
L 781.219102 381.271321 
L 799.469125 381.2715 
L 817.719149 381.231423 
L 835.969173 381.230528 
L 854.219197 381.2715 
L 872.469221 381.2715 
L 890.719245 381.2715 
L 908.969268 381.2418 
L 927.219292 381.201723 
L 945.469316 381.167013 
" style="fill:none;stroke:#5cb85c;stroke-linecap:square;"/>
   </g>
   <g id="line2d_18">
    <path clip-path="url(#pdb77a589ad)" d="M 42.093137 377.649532 
L 51.218149 381.2715 
L 60.343161 381.2715 
L 69.468173 381.2715 
L 78.593185 381.2715 
L 87.718196 381.2715 
L 96.843208 381.22534 
L 105.96822 381.112981 
L 115.093232 381.2715 
L 124.218244 381.2715 
L 142.468268 381.016903 
L 160.718292 379.453896 
L 178.968316 380.805067 
L 197.218339 381.229992 
L 215.468363 381.253787 
L 233.718387 381.270427 
L 251.968411 381.10493 
L 270.218435 381.0933 
L 288.468458 381.199576 
L 306.718482 381.196355 
L 324.968506 381.131409 
L 343.21853 381.152521 
L 361.468554 380.769642 
L 379.718578 381.112265 
L 397.968601 380.822422 
L 416.218625 379.78489 
L 434.468649 379.635138 
L 452.718673 380.626867 
L 470.968697 381.113875 
L 489.218721 380.682868 
L 507.468744 381.114591 
L 525.718768 381.245736 
L 543.968792 380.858921 
L 562.218816 381.129083 
L 580.46884 380.398928 
L 598.718863 381.021376 
L 616.968887 380.598777 
L 635.218911 381.247525 
L 653.468935 381.001337 
L 671.718959 381.113517 
L 689.968983 380.829221 
L 708.219006 381.149301 
L 726.46903 380.603608 
L 744.719054 381.097594 
L 762.969078 381.148943 
L 781.219102 381.12461 
L 799.469125 371.540278 
L 817.719149 367.030352 
L 835.969173 366.209845 
L 854.219197 366.065281 
L 872.469221 368.121021 
L 890.719245 366.668763 
L 908.969268 367.827779 
L 927.219292 367.09655 
L 945.469316 367.774999 
" style="fill:none;stroke:#5cb85c;stroke-linecap:square;"/>
   </g>
   <g id="line2d_19">
    <path clip-path="url(#pdb77a589ad)" d="M 42.093137 378.303678 
L 51.218149 378.352264 
L 60.343161 381.270329 
L 69.468173 381.2715 
L 78.593185 380.910327 
L 87.718196 381.2715 
L 96.843208 381.2715 
L 105.96822 381.2715 
L 115.093232 381.149158 
L 124.218244 381.2715 
L 142.468268 381.190426 
L 160.718292 381.2715 
L 178.968316 381.201548 
L 197.218339 381.2715 
L 215.468363 381.2715 
L 233.718387 381.148572 
L 251.968411 381.204768 
L 270.218435 380.630228 
L 288.468458 379.634515 
L 306.718482 381.269744 
L 324.968506 381.2715 
L 343.21853 381.231988 
L 361.468554 381.2715 
L 379.718578 381.261841 
L 397.968601 381.270622 
L 416.218625 381.2715 
L 434.468649 381.2715 
L 452.718673 381.2715 
L 470.968697 381.265939 
L 489.218721 381.2715 
L 507.468744 381.2715 
L 525.718768 381.056962 
L 543.968792 381.202426 
L 562.218816 380.470715 
L 580.46884 381.18106 
L 598.718863 381.242817 
L 616.968887 381.23111 
L 635.218911 381.076572 
L 653.468935 381.266817 
L 671.718959 381.240768 
L 689.968983 381.262427 
L 708.219006 381.245451 
L 726.46903 381.217353 
L 744.719054 381.2715 
L 762.969078 381.2715 
L 781.219102 381.270915 
L 799.469125 381.2715 
L 817.719149 381.238134 
L 835.969173 381.234329 
L 854.219197 381.2715 
L 872.469221 381.2715 
L 890.719245 381.2715 
L 908.969268 381.248378 
L 927.219292 381.217061 
L 945.469316 381.175207 
" style="fill:none;stroke:#5cb85c;stroke-linecap:square;"/>
   </g>
   <g id="line2d_20">
    <path clip-path="url(#pdb77a589ad)" d="M 42.093137 377.766309 
L 51.218149 381.2715 
L 60.343161 381.2715 
L 69.468173 381.2715 
L 78.593185 381.2715 
L 87.718196 381.2715 
L 96.843208 381.218231 
L 105.96822 381.127499 
L 115.093232 381.269744 
L 124.218244 381.2715 
L 142.468268 381.036182 
L 160.718292 379.573344 
L 178.968316 380.848571 
L 197.218339 381.239597 
L 215.468363 381.253646 
L 233.718387 381.269451 
L 251.968411 381.113158 
L 270.218435 381.111109 
L 288.468458 381.213548 
L 306.718482 381.196573 
L 324.968506 381.116377 
L 343.21853 381.170524 
L 361.468554 380.816668 
L 379.718578 381.134524 
L 397.968601 380.842132 
L 416.218625 379.78554 
L 434.468649 379.652076 
L 452.718673 380.685253 
L 470.968697 381.116377 
L 489.218721 380.735887 
L 507.468744 381.132475 
L 525.718768 381.248378 
L 543.968792 380.893644 
L 562.218816 381.135987 
L 580.46884 380.437934 
L 598.718863 381.066913 
L 616.968887 380.596569 
L 635.218911 381.243402 
L 653.468935 381.036767 
L 671.718959 381.139207 
L 689.968983 380.861449 
L 708.219006 381.163499 
L 726.46903 380.653935 
L 744.719054 381.114914 
L 762.969078 381.159694 
L 781.219102 381.154133 
L 799.469125 372.107252 
L 817.719149 367.862447 
L 835.969173 367.085955 
L 854.219197 366.953954 
L 872.469221 368.862258 
L 890.719245 367.532006 
L 908.969268 368.570744 
L 927.219292 367.913374 
L 945.469316 368.555524 
" style="fill:none;stroke:#5cb85c;stroke-linecap:square;"/>
   </g>
   <g id="line2d_21">
    <path clip-path="url(#pdb77a589ad)" d="M 42.093137 378.173813 
L 51.218149 378.225348 
L 60.343161 381.270804 
L 69.468173 381.2715 
L 78.593185 380.904834 
L 87.718196 381.2715 
L 96.843208 381.2715 
L 105.96822 381.2715 
L 115.093232 381.162858 
L 124.218244 381.2715 
L 142.468268 381.206036 
L 160.718292 381.2715 
L 178.968316 381.201335 
L 197.218339 381.2715 
L 215.468363 381.270629 
L 233.718387 381.146144 
L 251.968411 381.205166 
L 270.218435 380.637407 
L 288.468458 379.626028 
L 306.718482 381.269585 
L 324.968506 381.2715 
L 343.21853 381.233893 
L 361.468554 381.2715 
L 379.718578 381.259835 
L 397.968601 381.270281 
L 416.218625 381.2715 
L 434.468649 381.2715 
L 452.718673 381.2715 
L 470.968697 381.267321 
L 489.218721 381.2715 
L 507.468744 381.2715 
L 525.718768 381.06118 
L 543.968792 381.200465 
L 562.218816 380.511529 
L 580.46884 381.190715 
L 598.718863 381.238942 
L 616.968887 381.22867 
L 635.218911 381.084511 
L 653.468935 381.266799 
L 671.718959 381.237724 
L 689.968983 381.26175 
L 708.219006 381.24138 
L 726.46903 381.213001 
L 744.719054 381.2715 
L 762.969078 381.2715 
L 781.219102 381.271152 
L 799.469125 381.2715 
L 817.719149 381.230411 
L 835.969173 381.232849 
L 854.219197 381.2715 
L 872.469221 381.2715 
L 890.719245 381.2715 
L 908.969268 381.245036 
L 927.219292 381.209693 
L 945.469316 381.180965 
" style="fill:none;stroke:#5cb85c;stroke-linecap:square;"/>
   </g>
   <g id="line2d_22">
    <path clip-path="url(#pdb77a589ad)" d="M 42.093137 377.698156 
L 51.218149 381.2715 
L 60.343161 381.2715 
L 69.468173 381.2715 
L 78.593185 381.2715 
L 87.718196 381.2715 
L 96.843208 381.240857 
L 105.96822 381.131867 
L 115.093232 381.271152 
L 124.218244 381.2715 
L 142.468268 381.043422 
L 160.718292 379.511815 
L 178.968316 380.841807 
L 197.218339 381.232849 
L 215.468363 381.254786 
L 233.718387 381.269237 
L 251.968411 381.122291 
L 270.218435 381.110975 
L 288.468458 381.209344 
L 306.718482 381.197331 
L 324.968506 381.139006 
L 343.21853 381.167385 
L 361.468554 380.796192 
L 379.718578 381.130474 
L 397.968601 380.858173 
L 416.218625 379.796651 
L 434.468649 379.678782 
L 452.718673 380.672228 
L 470.968697 381.127341 
L 489.218721 380.733688 
L 507.468744 381.129778 
L 525.718768 381.246603 
L 543.968792 380.884811 
L 562.218816 381.139702 
L 580.46884 380.453378 
L 598.718863 381.048471 
L 616.968887 380.630443 
L 635.218911 381.249563 
L 653.468935 381.020614 
L 671.718959 381.136568 
L 689.968983 380.860959 
L 708.219006 381.167037 
L 726.46903 380.641934 
L 744.719054 381.114283 
L 762.969078 381.157113 
L 781.219102 381.139702 
L 799.469125 371.682807 
L 817.719149 367.264703 
L 835.969173 366.507518 
L 854.219197 366.364055 
L 872.469221 368.370622 
L 890.719245 366.936166 
L 908.969268 368.077602 
L 927.219292 367.374564 
L 945.469316 368.01684 
" style="fill:none;stroke:#5cb85c;stroke-linecap:square;"/>
   </g>
   <g id="line2d_23">
    <path clip-path="url(#pdb77a589ad)" d="M 42.093137 378.301087 
L 51.218149 378.349608 
L 60.343161 381.2715 
L 69.468173 381.2715 
L 78.593185 380.925672 
L 87.718196 381.2715 
L 96.843208 381.2715 
L 105.96822 381.2715 
L 115.093232 381.153283 
L 124.218244 381.2715 
L 142.468268 381.201364 
L 160.718292 381.2715 
L 178.968316 381.210186 
L 197.218339 381.2715 
L 215.468363 381.2715 
L 233.718387 381.151519 
L 251.968411 381.204893 
L 270.218435 380.652186 
L 288.468458 379.627936 
L 306.718482 381.270177 
L 324.968506 381.2715 
L 343.21853 381.230477 
L 361.468554 381.2715 
L 379.718578 381.260913 
L 397.968601 381.270618 
L 416.218625 381.2715 
L 434.468649 381.2715 
L 452.718673 381.2715 
L 470.968697 381.26753 
L 489.218721 381.2715 
L 507.468744 381.2715 
L 525.718768 381.034185 
L 543.968792 381.194306 
L 562.218816 380.487212 
L 580.46884 381.185484 
L 598.718863 381.233124 
L 616.968887 381.222096 
L 635.218911 381.077413 
L 653.468935 381.265766 
L 671.718959 381.2318 
L 689.968983 381.262237 
L 708.219006 381.23577 
L 726.46903 381.205775 
L 744.719054 381.2715 
L 762.969078 381.2715 
L 781.219102 381.271059 
L 799.469125 381.2715 
L 817.719149 381.238858 
L 835.969173 381.233124 
L 854.219197 381.2715 
L 872.469221 381.2715 
L 890.719245 381.2715 
L 908.969268 381.241946 
L 927.219292 381.204011 
L 945.469316 381.178426 
" style="fill:none;stroke:#5cb85c;stroke-linecap:square;"/>
   </g>
   <g id="line2d_24">
    <path clip-path="url(#pdb77a589ad)" d="M 42.093137 377.781463 
L 51.218149 381.2715 
L 60.343161 381.2715 
L 69.468173 381.2715 
L 78.593185 381.2715 
L 87.718196 381.2715 
L 96.843208 381.229154 
L 105.96822 381.115348 
L 115.093232 381.2715 
L 124.218244 381.2715 
L 142.468268 381.047859 
L 160.718292 379.619114 
L 178.968316 380.864799 
L 197.218339 381.230036 
L 215.468363 381.25562 
L 233.718387 381.270177 
L 251.968411 381.117995 
L 270.218435 381.115348 
L 288.468458 381.204452 
L 306.718482 381.206657 
L 324.968506 381.144461 
L 343.21853 381.161223 
L 361.468554 380.843185 
L 379.718578 381.121965 
L 397.968601 380.860388 
L 416.218625 379.783647 
L 434.468649 379.645139 
L 452.718673 380.706442 
L 470.968697 381.131228 
L 489.218721 380.754523 
L 507.468744 381.13211 
L 525.718768 381.253415 
L 543.968792 380.904058 
L 562.218816 381.141373 
L 580.46884 380.480595 
L 598.718863 381.046536 
L 616.968887 380.627925 
L 635.218911 381.245916 
L 653.468935 381.030656 
L 671.718959 381.13211 
L 689.968983 380.887737 
L 708.219006 381.161223 
L 726.46903 380.662331 
L 744.719054 381.117113 
L 762.969078 381.17181 
L 781.219102 381.135198 
L 799.469125 372.358495 
L 817.719149 368.125193 
L 835.969173 367.392514 
L 854.219197 367.223571 
L 872.469221 369.143268 
L 890.719245 367.723786 
L 908.969268 368.823465 
L 927.219292 368.168863 
L 945.469316 368.825671 
" style="fill:none;stroke:#5cb85c;stroke-linecap:square;"/>
   </g>
   <g id="line2d_25">
    <path clip-path="url(#pdb77a589ad)" d="M 32.968125 381.2715 
L 990.638125 381.2715 
" style="fill:none;stroke:#dedede;stroke-linecap:square;stroke-width:2;"/>
   </g>
   <g id="text_15">
    <!-- FastQC: Per Base N Content -->
    <defs>
     <path d="M 9.8125 72.90625 
L 51.703125 72.90625 
L 51.703125 64.59375 
L 19.671875 64.59375 
L 19.671875 43.109375 
L 48.578125 43.109375 
L 48.578125 34.8125 
L 19.671875 34.8125 
L 19.671875 0 
L 9.8125 0 
z
" id="DejaVuSans-46"/>
     <path d="M 39.40625 66.21875 
Q 28.65625 66.21875 22.328125 58.203125 
Q 16.015625 50.203125 16.015625 36.375 
Q 16.015625 22.609375 22.328125 14.59375 
Q 28.65625 6.59375 39.40625 6.59375 
Q 50.140625 6.59375 56.421875 14.59375 
Q 62.703125 22.609375 62.703125 36.375 
Q 62.703125 50.203125 56.421875 58.203125 
Q 50.140625 66.21875 39.40625 66.21875 
z
M 53.21875 1.3125 
L 66.21875 -12.890625 
L 54.296875 -12.890625 
L 43.5 -1.21875 
Q 41.890625 -1.3125 41.03125 -1.359375 
Q 40.1875 -1.421875 39.40625 -1.421875 
Q 24.03125 -1.421875 14.8125 8.859375 
Q 5.609375 19.140625 5.609375 36.375 
Q 5.609375 53.65625 14.8125 63.9375 
Q 24.03125 74.21875 39.40625 74.21875 
Q 54.734375 74.21875 63.90625 63.9375 
Q 73.09375 53.65625 73.09375 36.375 
Q 73.09375 23.6875 67.984375 14.640625 
Q 62.890625 5.609375 53.21875 1.3125 
z
" id="DejaVuSans-51"/>
     <path d="M 11.71875 12.40625 
L 22.015625 12.40625 
L 22.015625 0 
L 11.71875 0 
z
M 11.71875 51.703125 
L 22.015625 51.703125 
L 22.015625 39.3125 
L 11.71875 39.3125 
z
" id="DejaVuSans-3a"/>
     <path d="M 19.671875 34.8125 
L 19.671875 8.109375 
L 35.5 8.109375 
Q 43.453125 8.109375 47.28125 11.40625 
Q 51.125 14.703125 51.125 21.484375 
Q 51.125 28.328125 47.28125 31.5625 
Q 43.453125 34.8125 35.5 34.8125 
z
M 19.671875 64.796875 
L 19.671875 42.828125 
L 34.28125 42.828125 
Q 41.5 42.828125 45.03125 45.53125 
Q 48.578125 48.25 48.578125 53.8125 
Q 48.578125 59.328125 45.03125 62.0625 
Q 41.5 64.796875 34.28125 64.796875 
z
M 9.8125 72.90625 
L 35.015625 72.90625 
Q 46.296875 72.90625 52.390625 68.21875 
Q 58.5 63.53125 58.5 54.890625 
Q 58.5 48.1875 55.375 44.234375 
Q 52.25 40.28125 46.1875 39.3125 
Q 53.46875 37.75 57.5 32.78125 
Q 61.53125 27.828125 61.53125 20.40625 
Q 61.53125 10.640625 54.890625 5.3125 
Q 48.25 0 35.984375 0 
L 9.8125 0 
z
" id="DejaVuSans-42"/>
    </defs>
    <g transform="translate(399.944375 19.3575)scale(0.16 -0.16)">
     <use xlink:href="#DejaVuSans-46"/>
     <use x="57.378906" xlink:href="#DejaVuSans-61"/>
     <use x="118.658203" xlink:href="#DejaVuSans-73"/>
     <use x="170.757812" xlink:href="#DejaVuSans-74"/>
     <use x="209.966797" xlink:href="#DejaVuSans-51"/>
     <use x="288.677734" xlink:href="#DejaVuSans-43"/>
     <use x="358.501953" xlink:href="#DejaVuSans-3a"/>
     <use x="392.193359" xlink:href="#DejaVuSans-20"/>
     <use x="423.980469" xlink:href="#DejaVuSans-50"/>
     <use x="484.236328" xlink:href="#DejaVuSans-65"/>
     <use x="545.759766" xlink:href="#DejaVuSans-72"/>
     <use x="586.873047" xlink:href="#DejaVuSans-20"/>
     <use x="618.660156" xlink:href="#DejaVuSans-42"/>
     <use x="687.263672" xlink:href="#DejaVuSans-61"/>
     <use x="748.542969" xlink:href="#DejaVuSans-73"/>
     <use x="800.642578" xlink:href="#DejaVuSans-65"/>
     <use x="862.166016" xlink:href="#DejaVuSans-20"/>
     <use x="893.953125" xlink:href="#DejaVuSans-4e"/>
     <use x="968.757812" xlink:href="#DejaVuSans-20"/>
     <use x="1000.544922" xlink:href="#DejaVuSans-43"/>
     <use x="1070.369141" xlink:href="#DejaVuSans-6f"/>
     <use x="1131.550781" xlink:href="#DejaVuSans-6e"/>
     <use x="1194.929688" xlink:href="#DejaVuSans-74"/>
     <use x="1234.138672" xlink:href="#DejaVuSans-65"/>
     <use x="1295.662109" xlink:href="#DejaVuSans-6e"/>
     <use x="1359.041016" xlink:href="#DejaVuSans-74"/>
    </g>
   </g>
  </g>
 </g>
 <defs>
  <clipPath id="pdb77a589ad">
   <rect height="344.68" width="957.67" x="32.968125" y="36.5915"/>
  </clipPath>
 </defs>
</svg>
