<?xml version="1.0" encoding="utf-8" standalone="no"?>
<!DOCTYPE svg PUBLIC "-//W3C//DTD SVG 1.1//EN"
  "http://www.w3.org/Graphics/SVG/1.1/DTD/svg11.dtd">
<!-- Created with matplotlib (http://matplotlib.org/) -->
<svg height="417.270125pt" version="1.1" viewBox="0 0 1001.388125 417.270125" width="1001.388125pt" xmlns="http://www.w3.org/2000/svg" xmlns:xlink="http://www.w3.org/1999/xlink">
 <defs>
  <style type="text/css">
*{stroke-linecap:butt;stroke-linejoin:round;}
  </style>
 </defs>
 <g id="figure_1">
  <g id="patch_1">
   <path d="M 0 417.270125 
L 1001.388125 417.270125 
L 1001.388125 0 
L 0 0 
z
" style="fill:#ffffff;"/>
  </g>
  <g id="axes_1">
   <g id="patch_2">
    <path d="M 38.058125 381.6495 
L 990.688125 381.6495 
L 990.688125 36.6095 
L 38.058125 36.6095 
z
" style="fill:#ffffff;"/>
   </g>
   <g id="patch_3">
    <path clip-path="url(#p0012f5faf5)" d="M 38.058125 450.579916 
L 956.134512 450.579916 
L 956.134512 -169.793828 
L 38.058125 -169.793828 
z
" style="fill:#c3e6c3;"/>
   </g>
   <g id="patch_4">
    <path clip-path="url(#p0012f5faf5)" d="M 38.058125 243.788668 
L 956.134512 243.788668 
L 956.134512 174.858252 
L 38.058125 174.858252 
z
" style="fill:#e6dcc3;"/>
   </g>
   <g id="patch_5">
    <path clip-path="url(#p0012f5faf5)" d="M 38.058125 467.81252 
L 956.134512 467.81252 
L 956.134512 295.48648 
L 38.058125 295.48648 
z
" style="fill:#e6c3c3;"/>
   </g>
   <g id="matplotlib.axis_1">
    <g id="xtick_1">
     <g id="text_1">
      <!-- 0 -->
      <defs>
       <path d="M 31.78125 66.40625 
Q 24.171875 66.40625 20.328125 58.90625 
Q 16.5 51.421875 16.5 36.375 
Q 16.5 21.390625 20.328125 13.890625 
Q 24.171875 6.390625 31.78125 6.390625 
Q 39.453125 6.390625 43.28125 13.890625 
Q 47.125 21.390625 47.125 36.375 
Q 47.125 51.421875 43.28125 58.90625 
Q 39.453125 66.40625 31.78125 66.40625 
z
M 31.78125 74.21875 
Q 44.046875 74.21875 50.515625 64.515625 
Q 56.984375 54.828125 56.984375 36.375 
Q 56.984375 17.96875 50.515625 8.265625 
Q 44.046875 -1.421875 31.78125 -1.421875 
Q 19.53125 -1.421875 13.0625 8.265625 
Q 6.59375 17.96875 6.59375 36.375 
Q 6.59375 54.828125 13.0625 64.515625 
Q 19.53125 74.21875 31.78125 74.21875 
z
" id="DejaVuSans-30"/>
      </defs>
      <g transform="translate(70.066738 394.72825)scale(0.08 -0.08)">
       <use xlink:href="#DejaVuSans-30"/>
      </g>
     </g>
    </g>
    <g id="xtick_2">
     <g id="text_2">
      <!-- 20 -->
      <defs>
       <path d="M 19.1875 8.296875 
L 53.609375 8.296875 
L 53.609375 0 
L 7.328125 0 
L 7.328125 8.296875 
Q 12.9375 14.109375 22.625 23.890625 
Q 32.328125 33.6875 34.8125 36.53125 
Q 39.546875 41.84375 41.421875 45.53125 
Q 43.3125 49.21875 43.3125 52.78125 
Q 43.3125 58.59375 39.234375 62.25 
Q 35.15625 65.921875 28.609375 65.921875 
Q 23.96875 65.921875 18.8125 64.3125 
Q 13.671875 62.703125 7.8125 59.421875 
L 7.8125 69.390625 
Q 13.765625 71.78125 18.9375 73 
Q 24.125 74.21875 28.421875 74.21875 
Q 39.75 74.21875 46.484375 68.546875 
Q 53.21875 62.890625 53.21875 53.421875 
Q 53.21875 48.921875 51.53125 44.890625 
Q 49.859375 40.875 45.40625 35.40625 
Q 44.1875 33.984375 37.640625 27.21875 
Q 31.109375 20.453125 19.1875 8.296875 
z
" id="DejaVuSans-32"/>
      </defs>
      <g transform="translate(242.476743 394.72825)scale(0.08 -0.08)">
       <use xlink:href="#DejaVuSans-32"/>
       <use x="63.623047" xlink:href="#DejaVuSans-30"/>
      </g>
     </g>
    </g>
    <g id="xtick_3">
     <g id="text_3">
      <!-- 40 -->
      <defs>
       <path d="M 37.796875 64.3125 
L 12.890625 25.390625 
L 37.796875 25.390625 
z
M 35.203125 72.90625 
L 47.609375 72.90625 
L 47.609375 25.390625 
L 58.015625 25.390625 
L 58.015625 17.1875 
L 47.609375 17.1875 
L 47.609375 0 
L 37.796875 0 
L 37.796875 17.1875 
L 4.890625 17.1875 
L 4.890625 26.703125 
z
" id="DejaVuSans-34"/>
      </defs>
      <g transform="translate(417.431748 394.72825)scale(0.08 -0.08)">
       <use xlink:href="#DejaVuSans-34"/>
       <use x="63.623047" xlink:href="#DejaVuSans-30"/>
      </g>
     </g>
    </g>
    <g id="xtick_4">
     <g id="text_4">
      <!-- 60 -->
      <defs>
       <path d="M 33.015625 40.375 
Q 26.375 40.375 22.484375 35.828125 
Q 18.609375 31.296875 18.609375 23.390625 
Q 18.609375 15.53125 22.484375 10.953125 
Q 26.375 6.390625 33.015625 6.390625 
Q 39.65625 6.390625 43.53125 10.953125 
Q 47.40625 15.53125 47.40625 23.390625 
Q 47.40625 31.296875 43.53125 35.828125 
Q 39.65625 40.375 33.015625 40.375 
z
M 52.59375 71.296875 
L 52.59375 62.3125 
Q 48.875 64.0625 45.09375 64.984375 
Q 41.3125 65.921875 37.59375 65.921875 
Q 27.828125 65.921875 22.671875 59.328125 
Q 17.53125 52.734375 16.796875 39.40625 
Q 19.671875 43.65625 24.015625 45.921875 
Q 28.375 48.1875 33.59375 48.1875 
Q 44.578125 48.1875 50.953125 41.515625 
Q 57.328125 34.859375 57.328125 23.390625 
Q 57.328125 12.15625 50.6875 5.359375 
Q 44.046875 -1.421875 33.015625 -1.421875 
Q 20.359375 -1.421875 13.671875 8.265625 
Q 6.984375 17.96875 6.984375 36.375 
Q 6.984375 53.65625 15.1875 63.9375 
Q 23.390625 74.21875 37.203125 74.21875 
Q 40.921875 74.21875 44.703125 73.484375 
Q 48.484375 72.75 52.59375 71.296875 
z
" id="DejaVuSans-36"/>
      </defs>
      <g transform="translate(592.386752 394.72825)scale(0.08 -0.08)">
       <use xlink:href="#DejaVuSans-36"/>
       <use x="63.623047" xlink:href="#DejaVuSans-30"/>
      </g>
     </g>
    </g>
    <g id="xtick_5">
     <g id="text_5">
      <!-- 80 -->
      <defs>
       <path d="M 31.78125 34.625 
Q 24.75 34.625 20.71875 30.859375 
Q 16.703125 27.09375 16.703125 20.515625 
Q 16.703125 13.921875 20.71875 10.15625 
Q 24.75 6.390625 31.78125 6.390625 
Q 38.8125 6.390625 42.859375 10.171875 
Q 46.921875 13.96875 46.921875 20.515625 
Q 46.921875 27.09375 42.890625 30.859375 
Q 38.875 34.625 31.78125 34.625 
z
M 21.921875 38.8125 
Q 15.578125 40.375 12.03125 44.71875 
Q 8.5 49.078125 8.5 55.328125 
Q 8.5 64.0625 14.71875 69.140625 
Q 20.953125 74.21875 31.78125 74.21875 
Q 42.671875 74.21875 48.875 69.140625 
Q 55.078125 64.0625 55.078125 55.328125 
Q 55.078125 49.078125 51.53125 44.71875 
Q 48 40.375 41.703125 38.8125 
Q 48.828125 37.15625 52.796875 32.3125 
Q 56.78125 27.484375 56.78125 20.515625 
Q 56.78125 9.90625 50.3125 4.234375 
Q 43.84375 -1.421875 31.78125 -1.421875 
Q 19.734375 -1.421875 13.25 4.234375 
Q 6.78125 9.90625 6.78125 20.515625 
Q 6.78125 27.484375 10.78125 32.3125 
Q 14.796875 37.15625 21.921875 38.8125 
z
M 18.3125 54.390625 
Q 18.3125 48.734375 21.84375 45.5625 
Q 25.390625 42.390625 31.78125 42.390625 
Q 38.140625 42.390625 41.71875 45.5625 
Q 45.3125 48.734375 45.3125 54.390625 
Q 45.3125 60.0625 41.71875 63.234375 
Q 38.140625 66.40625 31.78125 66.40625 
Q 25.390625 66.40625 21.84375 63.234375 
Q 18.3125 60.0625 18.3125 54.390625 
z
" id="DejaVuSans-38"/>
      </defs>
      <g transform="translate(767.341757 394.72825)scale(0.08 -0.08)">
       <use xlink:href="#DejaVuSans-38"/>
       <use x="63.623047" xlink:href="#DejaVuSans-30"/>
      </g>
     </g>
    </g>
    <g id="xtick_6">
     <g id="text_6">
      <!-- 100 -->
      <defs>
       <path d="M 12.40625 8.296875 
L 28.515625 8.296875 
L 28.515625 63.921875 
L 10.984375 60.40625 
L 10.984375 69.390625 
L 28.421875 72.90625 
L 38.28125 72.90625 
L 38.28125 8.296875 
L 54.390625 8.296875 
L 54.390625 0 
L 12.40625 0 
z
" id="DejaVuSans-31"/>
      </defs>
      <g transform="translate(939.751761 394.72825)scale(0.08 -0.08)">
       <use xlink:href="#DejaVuSans-31"/>
       <use x="63.623047" xlink:href="#DejaVuSans-30"/>
       <use x="127.246094" xlink:href="#DejaVuSans-30"/>
      </g>
     </g>
    </g>
    <g id="text_7">
     <!-- Position (bp) -->
     <defs>
      <path d="M 19.671875 64.796875 
L 19.671875 37.40625 
L 32.078125 37.40625 
Q 38.96875 37.40625 42.71875 40.96875 
Q 46.484375 44.53125 46.484375 51.125 
Q 46.484375 57.671875 42.71875 61.234375 
Q 38.96875 64.796875 32.078125 64.796875 
z
M 9.8125 72.90625 
L 32.078125 72.90625 
Q 44.34375 72.90625 50.609375 67.359375 
Q 56.890625 61.8125 56.890625 51.125 
Q 56.890625 40.328125 50.609375 34.8125 
Q 44.34375 29.296875 32.078125 29.296875 
L 19.671875 29.296875 
L 19.671875 0 
L 9.8125 0 
z
" id="DejaVuSans-50"/>
      <path d="M 30.609375 48.390625 
Q 23.390625 48.390625 19.1875 42.75 
Q 14.984375 37.109375 14.984375 27.296875 
Q 14.984375 17.484375 19.15625 11.84375 
Q 23.34375 6.203125 30.609375 6.203125 
Q 37.796875 6.203125 41.984375 11.859375 
Q 46.1875 17.53125 46.1875 27.296875 
Q 46.1875 37.015625 41.984375 42.703125 
Q 37.796875 48.390625 30.609375 48.390625 
z
M 30.609375 56 
Q 42.328125 56 49.015625 48.375 
Q 55.71875 40.765625 55.71875 27.296875 
Q 55.71875 13.875 49.015625 6.21875 
Q 42.328125 -1.421875 30.609375 -1.421875 
Q 18.84375 -1.421875 12.171875 6.21875 
Q 5.515625 13.875 5.515625 27.296875 
Q 5.515625 40.765625 12.171875 48.375 
Q 18.84375 56 30.609375 56 
z
" id="DejaVuSans-6f"/>
      <path d="M 44.28125 53.078125 
L 44.28125 44.578125 
Q 40.484375 46.53125 36.375 47.5 
Q 32.28125 48.484375 27.875 48.484375 
Q 21.1875 48.484375 17.84375 46.4375 
Q 14.5 44.390625 14.5 40.28125 
Q 14.5 37.15625 16.890625 35.375 
Q 19.28125 33.59375 26.515625 31.984375 
L 29.59375 31.296875 
Q 39.15625 29.25 43.1875 25.515625 
Q 47.21875 21.78125 47.21875 15.09375 
Q 47.21875 7.46875 41.1875 3.015625 
Q 35.15625 -1.421875 24.609375 -1.421875 
Q 20.21875 -1.421875 15.453125 -0.5625 
Q 10.6875 0.296875 5.421875 2 
L 5.421875 11.28125 
Q 10.40625 8.6875 15.234375 7.390625 
Q 20.0625 6.109375 24.8125 6.109375 
Q 31.15625 6.109375 34.5625 8.28125 
Q 37.984375 10.453125 37.984375 14.40625 
Q 37.984375 18.0625 35.515625 20.015625 
Q 33.0625 21.96875 24.703125 23.78125 
L 21.578125 24.515625 
Q 13.234375 26.265625 9.515625 29.90625 
Q 5.8125 33.546875 5.8125 39.890625 
Q 5.8125 47.609375 11.28125 51.796875 
Q 16.75 56 26.8125 56 
Q 31.78125 56 36.171875 55.265625 
Q 40.578125 54.546875 44.28125 53.078125 
z
" id="DejaVuSans-73"/>
      <path d="M 9.421875 54.6875 
L 18.40625 54.6875 
L 18.40625 0 
L 9.421875 0 
z
M 9.421875 75.984375 
L 18.40625 75.984375 
L 18.40625 64.59375 
L 9.421875 64.59375 
z
" id="DejaVuSans-69"/>
      <path d="M 18.3125 70.21875 
L 18.3125 54.6875 
L 36.8125 54.6875 
L 36.8125 47.703125 
L 18.3125 47.703125 
L 18.3125 18.015625 
Q 18.3125 11.328125 20.140625 9.421875 
Q 21.96875 7.515625 27.59375 7.515625 
L 36.8125 7.515625 
L 36.8125 0 
L 27.59375 0 
Q 17.1875 0 13.234375 3.875 
Q 9.28125 7.765625 9.28125 18.015625 
L 9.28125 47.703125 
L 2.6875 47.703125 
L 2.6875 54.6875 
L 9.28125 54.6875 
L 9.28125 70.21875 
z
" id="DejaVuSans-74"/>
      <path d="M 54.890625 33.015625 
L 54.890625 0 
L 45.90625 0 
L 45.90625 32.71875 
Q 45.90625 40.484375 42.875 44.328125 
Q 39.84375 48.1875 33.796875 48.1875 
Q 26.515625 48.1875 22.3125 43.546875 
Q 18.109375 38.921875 18.109375 30.90625 
L 18.109375 0 
L 9.078125 0 
L 9.078125 54.6875 
L 18.109375 54.6875 
L 18.109375 46.1875 
Q 21.34375 51.125 25.703125 53.5625 
Q 30.078125 56 35.796875 56 
Q 45.21875 56 50.046875 50.171875 
Q 54.890625 44.34375 54.890625 33.015625 
z
" id="DejaVuSans-6e"/>
      <path id="DejaVuSans-20"/>
      <path d="M 31 75.875 
Q 24.46875 64.65625 21.28125 53.65625 
Q 18.109375 42.671875 18.109375 31.390625 
Q 18.109375 20.125 21.3125 9.0625 
Q 24.515625 -2 31 -13.1875 
L 23.1875 -13.1875 
Q 15.875 -1.703125 12.234375 9.375 
Q 8.59375 20.453125 8.59375 31.390625 
Q 8.59375 42.28125 12.203125 53.3125 
Q 15.828125 64.359375 23.1875 75.875 
z
" id="DejaVuSans-28"/>
      <path d="M 48.6875 27.296875 
Q 48.6875 37.203125 44.609375 42.84375 
Q 40.53125 48.484375 33.40625 48.484375 
Q 26.265625 48.484375 22.1875 42.84375 
Q 18.109375 37.203125 18.109375 27.296875 
Q 18.109375 17.390625 22.1875 11.75 
Q 26.265625 6.109375 33.40625 6.109375 
Q 40.53125 6.109375 44.609375 11.75 
Q 48.6875 17.390625 48.6875 27.296875 
z
M 18.109375 46.390625 
Q 20.953125 51.265625 25.265625 53.625 
Q 29.59375 56 35.59375 56 
Q 45.5625 56 51.78125 48.09375 
Q 58.015625 40.1875 58.015625 27.296875 
Q 58.015625 14.40625 51.78125 6.484375 
Q 45.5625 -1.421875 35.59375 -1.421875 
Q 29.59375 -1.421875 25.265625 0.953125 
Q 20.953125 3.328125 18.109375 8.203125 
L 18.109375 0 
L 9.078125 0 
L 9.078125 75.984375 
L 18.109375 75.984375 
z
" id="DejaVuSans-62"/>
      <path d="M 18.109375 8.203125 
L 18.109375 -20.796875 
L 9.078125 -20.796875 
L 9.078125 54.6875 
L 18.109375 54.6875 
L 18.109375 46.390625 
Q 20.953125 51.265625 25.265625 53.625 
Q 29.59375 56 35.59375 56 
Q 45.5625 56 51.78125 48.09375 
Q 58.015625 40.1875 58.015625 27.296875 
Q 58.015625 14.40625 51.78125 6.484375 
Q 45.5625 -1.421875 35.59375 -1.421875 
Q 29.59375 -1.421875 25.265625 0.953125 
Q 20.953125 3.328125 18.109375 8.203125 
z
M 48.6875 27.296875 
Q 48.6875 37.203125 44.609375 42.84375 
Q 40.53125 48.484375 33.40625 48.484375 
Q 26.265625 48.484375 22.1875 42.84375 
Q 18.109375 37.203125 18.109375 27.296875 
Q 18.109375 17.390625 22.1875 11.75 
Q 26.265625 6.109375 33.40625 6.109375 
Q 40.53125 6.109375 44.609375 11.75 
Q 48.6875 17.390625 48.6875 27.296875 
z
" id="DejaVuSans-70"/>
      <path d="M 8.015625 75.875 
L 15.828125 75.875 
Q 23.140625 64.359375 26.78125 53.3125 
Q 30.421875 42.28125 30.421875 31.390625 
Q 30.421875 20.453125 26.78125 9.375 
Q 23.140625 -1.703125 15.828125 -13.1875 
L 8.015625 -13.1875 
Q 14.5 -2 17.703125 9.0625 
Q 20.90625 20.125 20.90625 31.390625 
Q 20.90625 42.671875 17.703125 53.65625 
Q 14.5 64.65625 8.015625 75.875 
z
" id="DejaVuSans-29"/>
     </defs>
     <g transform="translate(482.891094 407.990437)scale(0.1 -0.1)">
      <use xlink:href="#DejaVuSans-50"/>
      <use x="60.255859" xlink:href="#DejaVuSans-6f"/>
      <use x="121.4375" xlink:href="#DejaVuSans-73"/>
      <use x="173.537109" xlink:href="#DejaVuSans-69"/>
      <use x="201.320312" xlink:href="#DejaVuSans-74"/>
      <use x="240.529297" xlink:href="#DejaVuSans-69"/>
      <use x="268.3125" xlink:href="#DejaVuSans-6f"/>
      <use x="329.494141" xlink:href="#DejaVuSans-6e"/>
      <use x="392.873047" xlink:href="#DejaVuSans-20"/>
      <use x="424.660156" xlink:href="#DejaVuSans-28"/>
      <use x="463.673828" xlink:href="#DejaVuSans-62"/>
      <use x="527.150391" xlink:href="#DejaVuSans-70"/>
      <use x="590.626953" xlink:href="#DejaVuSans-29"/>
     </g>
    </g>
   </g>
   <g id="matplotlib.axis_2">
    <g id="ytick_1">
     <g id="line2d_1">
      <path clip-path="url(#p0012f5faf5)" d="M 38.058125 381.6495 
L 990.688125 381.6495 
" style="fill:none;stroke:#dedede;stroke-linecap:square;"/>
     </g>
     <g id="text_8">
      <!-- 0 -->
      <g transform="translate(25.968125 384.688875)scale(0.08 -0.08)">
       <use xlink:href="#DejaVuSans-30"/>
      </g>
     </g>
    </g>
    <g id="ytick_2">
     <g id="line2d_2">
      <path clip-path="url(#p0012f5faf5)" d="M 38.058125 338.56799 
L 990.688125 338.56799 
" style="fill:none;stroke:#dedede;stroke-linecap:square;"/>
     </g>
     <g id="text_9">
      <!-- 5 -->
      <defs>
       <path d="M 10.796875 72.90625 
L 49.515625 72.90625 
L 49.515625 64.59375 
L 19.828125 64.59375 
L 19.828125 46.734375 
Q 21.96875 47.46875 24.109375 47.828125 
Q 26.265625 48.1875 28.421875 48.1875 
Q 40.625 48.1875 47.75 41.5 
Q 54.890625 34.8125 54.890625 23.390625 
Q 54.890625 11.625 47.5625 5.09375 
Q 40.234375 -1.421875 26.90625 -1.421875 
Q 22.3125 -1.421875 17.546875 -0.640625 
Q 12.796875 0.140625 7.71875 1.703125 
L 7.71875 11.625 
Q 12.109375 9.234375 16.796875 8.0625 
Q 21.484375 6.890625 26.703125 6.890625 
Q 35.15625 6.890625 40.078125 11.328125 
Q 45.015625 15.765625 45.015625 23.390625 
Q 45.015625 31 40.078125 35.4375 
Q 35.15625 39.890625 26.703125 39.890625 
Q 22.75 39.890625 18.8125 39.015625 
Q 14.890625 38.140625 10.796875 36.28125 
z
" id="DejaVuSans-35"/>
      </defs>
      <g transform="translate(25.968125 341.607365)scale(0.08 -0.08)">
       <use xlink:href="#DejaVuSans-35"/>
      </g>
     </g>
    </g>
    <g id="ytick_3">
     <g id="line2d_3">
      <path clip-path="url(#p0012f5faf5)" d="M 38.058125 295.48648 
L 990.688125 295.48648 
" style="fill:none;stroke:#dedede;stroke-linecap:square;"/>
     </g>
     <g id="text_10">
      <!-- 10 -->
      <g transform="translate(20.878125 298.525855)scale(0.08 -0.08)">
       <use xlink:href="#DejaVuSans-31"/>
       <use x="63.623047" xlink:href="#DejaVuSans-30"/>
      </g>
     </g>
    </g>
    <g id="ytick_4">
     <g id="line2d_4">
      <path clip-path="url(#p0012f5faf5)" d="M 38.058125 252.40497 
L 990.688125 252.40497 
" style="fill:none;stroke:#dedede;stroke-linecap:square;"/>
     </g>
     <g id="text_11">
      <!-- 15 -->
      <g transform="translate(20.878125 255.444345)scale(0.08 -0.08)">
       <use xlink:href="#DejaVuSans-31"/>
       <use x="63.623047" xlink:href="#DejaVuSans-35"/>
      </g>
     </g>
    </g>
    <g id="ytick_5">
     <g id="line2d_5">
      <path clip-path="url(#p0012f5faf5)" d="M 38.058125 209.32346 
L 990.688125 209.32346 
" style="fill:none;stroke:#dedede;stroke-linecap:square;"/>
     </g>
     <g id="text_12">
      <!-- 20 -->
      <g transform="translate(20.878125 212.362835)scale(0.08 -0.08)">
       <use xlink:href="#DejaVuSans-32"/>
       <use x="63.623047" xlink:href="#DejaVuSans-30"/>
      </g>
     </g>
    </g>
    <g id="ytick_6">
     <g id="line2d_6">
      <path clip-path="url(#p0012f5faf5)" d="M 38.058125 166.24195 
L 990.688125 166.24195 
" style="fill:none;stroke:#dedede;stroke-linecap:square;"/>
     </g>
     <g id="text_13">
      <!-- 25 -->
      <g transform="translate(20.878125 169.281325)scale(0.08 -0.08)">
       <use xlink:href="#DejaVuSans-32"/>
       <use x="63.623047" xlink:href="#DejaVuSans-35"/>
      </g>
     </g>
    </g>
    <g id="ytick_7">
     <g id="line2d_7">
      <path clip-path="url(#p0012f5faf5)" d="M 38.058125 123.16044 
L 990.688125 123.16044 
" style="fill:none;stroke:#dedede;stroke-linecap:square;"/>
     </g>
     <g id="text_14">
      <!-- 30 -->
      <defs>
       <path d="M 40.578125 39.3125 
Q 47.65625 37.796875 51.625 33 
Q 55.609375 28.21875 55.609375 21.1875 
Q 55.609375 10.40625 48.1875 4.484375 
Q 40.765625 -1.421875 27.09375 -1.421875 
Q 22.515625 -1.421875 17.65625 -0.515625 
Q 12.796875 0.390625 7.625 2.203125 
L 7.625 11.71875 
Q 11.71875 9.328125 16.59375 8.109375 
Q 21.484375 6.890625 26.8125 6.890625 
Q 36.078125 6.890625 40.9375 10.546875 
Q 45.796875 14.203125 45.796875 21.1875 
Q 45.796875 27.640625 41.28125 31.265625 
Q 36.765625 34.90625 28.71875 34.90625 
L 20.21875 34.90625 
L 20.21875 43.015625 
L 29.109375 43.015625 
Q 36.375 43.015625 40.234375 45.921875 
Q 44.09375 48.828125 44.09375 54.296875 
Q 44.09375 59.90625 40.109375 62.90625 
Q 36.140625 65.921875 28.71875 65.921875 
Q 24.65625 65.921875 20.015625 65.03125 
Q 15.375 64.15625 9.8125 62.3125 
L 9.8125 71.09375 
Q 15.4375 72.65625 20.34375 73.4375 
Q 25.25 74.21875 29.59375 74.21875 
Q 40.828125 74.21875 47.359375 69.109375 
Q 53.90625 64.015625 53.90625 55.328125 
Q 53.90625 49.265625 50.4375 45.09375 
Q 46.96875 40.921875 40.578125 39.3125 
z
" id="DejaVuSans-33"/>
      </defs>
      <g transform="translate(20.878125 126.199815)scale(0.08 -0.08)">
       <use xlink:href="#DejaVuSans-33"/>
       <use x="63.623047" xlink:href="#DejaVuSans-30"/>
      </g>
     </g>
    </g>
    <g id="ytick_8">
     <g id="line2d_8">
      <path clip-path="url(#p0012f5faf5)" d="M 38.058125 80.07893 
L 990.688125 80.07893 
" style="fill:none;stroke:#dedede;stroke-linecap:square;"/>
     </g>
     <g id="text_15">
      <!-- 35 -->
      <g transform="translate(20.878125 83.118305)scale(0.08 -0.08)">
       <use xlink:href="#DejaVuSans-33"/>
       <use x="63.623047" xlink:href="#DejaVuSans-35"/>
      </g>
     </g>
    </g>
    <g id="ytick_9">
     <g id="line2d_9">
      <path clip-path="url(#p0012f5faf5)" d="M 38.058125 36.99742 
L 990.688125 36.99742 
" style="fill:none;stroke:#dedede;stroke-linecap:square;"/>
     </g>
     <g id="text_16">
      <!-- 40 -->
      <g transform="translate(20.878125 40.036795)scale(0.08 -0.08)">
       <use xlink:href="#DejaVuSans-34"/>
       <use x="63.623047" xlink:href="#DejaVuSans-30"/>
      </g>
     </g>
    </g>
    <g id="text_17">
     <!-- Phred Score -->
     <defs>
      <path d="M 54.890625 33.015625 
L 54.890625 0 
L 45.90625 0 
L 45.90625 32.71875 
Q 45.90625 40.484375 42.875 44.328125 
Q 39.84375 48.1875 33.796875 48.1875 
Q 26.515625 48.1875 22.3125 43.546875 
Q 18.109375 38.921875 18.109375 30.90625 
L 18.109375 0 
L 9.078125 0 
L 9.078125 75.984375 
L 18.109375 75.984375 
L 18.109375 46.1875 
Q 21.34375 51.125 25.703125 53.5625 
Q 30.078125 56 35.796875 56 
Q 45.21875 56 50.046875 50.171875 
Q 54.890625 44.34375 54.890625 33.015625 
z
" id="DejaVuSans-68"/>
      <path d="M 41.109375 46.296875 
Q 39.59375 47.171875 37.8125 47.578125 
Q 36.03125 48 33.890625 48 
Q 26.265625 48 22.1875 43.046875 
Q 18.109375 38.09375 18.109375 28.8125 
L 18.109375 0 
L 9.078125 0 
L 9.078125 54.6875 
L 18.109375 54.6875 
L 18.109375 46.1875 
Q 20.953125 51.171875 25.484375 53.578125 
Q 30.03125 56 36.53125 56 
Q 37.453125 56 38.578125 55.875 
Q 39.703125 55.765625 41.0625 55.515625 
z
" id="DejaVuSans-72"/>
      <path d="M 56.203125 29.59375 
L 56.203125 25.203125 
L 14.890625 25.203125 
Q 15.484375 15.921875 20.484375 11.0625 
Q 25.484375 6.203125 34.421875 6.203125 
Q 39.59375 6.203125 44.453125 7.46875 
Q 49.3125 8.734375 54.109375 11.28125 
L 54.109375 2.78125 
Q 49.265625 0.734375 44.1875 -0.34375 
Q 39.109375 -1.421875 33.890625 -1.421875 
Q 20.796875 -1.421875 13.15625 6.1875 
Q 5.515625 13.8125 5.515625 26.8125 
Q 5.515625 40.234375 12.765625 48.109375 
Q 20.015625 56 32.328125 56 
Q 43.359375 56 49.78125 48.890625 
Q 56.203125 41.796875 56.203125 29.59375 
z
M 47.21875 32.234375 
Q 47.125 39.59375 43.09375 43.984375 
Q 39.0625 48.390625 32.421875 48.390625 
Q 24.90625 48.390625 20.390625 44.140625 
Q 15.875 39.890625 15.1875 32.171875 
z
" id="DejaVuSans-65"/>
      <path d="M 45.40625 46.390625 
L 45.40625 75.984375 
L 54.390625 75.984375 
L 54.390625 0 
L 45.40625 0 
L 45.40625 8.203125 
Q 42.578125 3.328125 38.25 0.953125 
Q 33.9375 -1.421875 27.875 -1.421875 
Q 17.96875 -1.421875 11.734375 6.484375 
Q 5.515625 14.40625 5.515625 27.296875 
Q 5.515625 40.1875 11.734375 48.09375 
Q 17.96875 56 27.875 56 
Q 33.9375 56 38.25 53.625 
Q 42.578125 51.265625 45.40625 46.390625 
z
M 14.796875 27.296875 
Q 14.796875 17.390625 18.875 11.75 
Q 22.953125 6.109375 30.078125 6.109375 
Q 37.203125 6.109375 41.296875 11.75 
Q 45.40625 17.390625 45.40625 27.296875 
Q 45.40625 37.203125 41.296875 42.84375 
Q 37.203125 48.484375 30.078125 48.484375 
Q 22.953125 48.484375 18.875 42.84375 
Q 14.796875 37.203125 14.796875 27.296875 
z
" id="DejaVuSans-64"/>
      <path d="M 53.515625 70.515625 
L 53.515625 60.890625 
Q 47.90625 63.578125 42.921875 64.890625 
Q 37.9375 66.21875 33.296875 66.21875 
Q 25.25 66.21875 20.875 63.09375 
Q 16.5 59.96875 16.5 54.203125 
Q 16.5 49.359375 19.40625 46.890625 
Q 22.3125 44.4375 30.421875 42.921875 
L 36.375 41.703125 
Q 47.40625 39.59375 52.65625 34.296875 
Q 57.90625 29 57.90625 20.125 
Q 57.90625 9.515625 50.796875 4.046875 
Q 43.703125 -1.421875 29.984375 -1.421875 
Q 24.8125 -1.421875 18.96875 -0.25 
Q 13.140625 0.921875 6.890625 3.21875 
L 6.890625 13.375 
Q 12.890625 10.015625 18.65625 8.296875 
Q 24.421875 6.59375 29.984375 6.59375 
Q 38.421875 6.59375 43.015625 9.90625 
Q 47.609375 13.234375 47.609375 19.390625 
Q 47.609375 24.75 44.3125 27.78125 
Q 41.015625 30.8125 33.5 32.328125 
L 27.484375 33.5 
Q 16.453125 35.6875 11.515625 40.375 
Q 6.59375 45.0625 6.59375 53.421875 
Q 6.59375 63.09375 13.40625 68.65625 
Q 20.21875 74.21875 32.171875 74.21875 
Q 37.3125 74.21875 42.625 73.28125 
Q 47.953125 72.359375 53.515625 70.515625 
z
" id="DejaVuSans-53"/>
      <path d="M 48.78125 52.59375 
L 48.78125 44.1875 
Q 44.96875 46.296875 41.140625 47.34375 
Q 37.3125 48.390625 33.40625 48.390625 
Q 24.65625 48.390625 19.8125 42.84375 
Q 14.984375 37.3125 14.984375 27.296875 
Q 14.984375 17.28125 19.8125 11.734375 
Q 24.65625 6.203125 33.40625 6.203125 
Q 37.3125 6.203125 41.140625 7.25 
Q 44.96875 8.296875 48.78125 10.40625 
L 48.78125 2.09375 
Q 45.015625 0.34375 40.984375 -0.53125 
Q 36.96875 -1.421875 32.421875 -1.421875 
Q 20.0625 -1.421875 12.78125 6.34375 
Q 5.515625 14.109375 5.515625 27.296875 
Q 5.515625 40.671875 12.859375 48.328125 
Q 20.21875 56 33.015625 56 
Q 37.15625 56 41.109375 55.140625 
Q 45.0625 54.296875 48.78125 52.59375 
z
" id="DejaVuSans-63"/>
     </defs>
     <g transform="translate(14.798438 239.320125)rotate(-90)scale(0.1 -0.1)">
      <use xlink:href="#DejaVuSans-50"/>
      <use x="60.302734" xlink:href="#DejaVuSans-68"/>
      <use x="123.681641" xlink:href="#DejaVuSans-72"/>
      <use x="164.763672" xlink:href="#DejaVuSans-65"/>
      <use x="226.287109" xlink:href="#DejaVuSans-64"/>
      <use x="289.763672" xlink:href="#DejaVuSans-20"/>
      <use x="321.550781" xlink:href="#DejaVuSans-53"/>
      <use x="385.027344" xlink:href="#DejaVuSans-63"/>
      <use x="440.007812" xlink:href="#DejaVuSans-6f"/>
      <use x="501.189453" xlink:href="#DejaVuSans-72"/>
      <use x="542.271484" xlink:href="#DejaVuSans-65"/>
     </g>
    </g>
   </g>
   <g id="line2d_10">
    <path clip-path="url(#p0012f5faf5)" d="M 81.359489 101.947563 
L 90.107239 101.028001 
L 98.854989 100.430204 
L 107.602739 70.773749 
L 116.35049 70.026731 
L 125.09824 69.521335 
L 133.84599 70.02093 
L 142.59374 69.81075 
L 151.34149 54.281402 
L 160.089241 55.071897 
L 177.584741 54.876278 
L 195.080242 42.537813 
L 212.575742 42.911316 
L 230.071243 42.904776 
L 247.566743 43.910549 
L 265.062243 45.116858 
L 282.557744 44.498137 
L 300.053244 45.320893 
L 317.548745 46.074951 
L 335.044245 46.201235 
L 352.539746 46.602665 
L 370.035246 47.069603 
L 387.530747 47.85044 
L 405.026247 48.612818 
L 422.521748 49.593739 
L 440.017248 50.654166 
L 457.512749 51.766825 
L 475.008249 53.073205 
L 492.503749 54.254539 
L 509.99925 55.455172 
L 527.49475 56.93281 
L 544.990251 58.391588 
L 562.485751 59.910022 
L 579.981252 61.509755 
L 597.476752 64.348749 
L 614.972253 65.957006 
L 632.467753 68.149027 
L 649.963254 70.921292 
L 667.458754 73.717622 
L 684.954254 76.79789 
L 702.449755 80.038692 
L 719.945255 83.099199 
L 737.440756 94.222845 
L 754.936256 89.287218 
L 772.431757 90.571238 
L 789.927257 92.55498 
L 807.422758 94.629475 
L 824.918258 96.38018 
L 842.413759 97.913232 
L 859.909259 98.939274 
L 877.40476 99.903105 
L 894.90026 100.520843 
L 912.39576 101.195258 
L 929.891261 101.830281 
L 947.386761 107.426526 
" style="fill:none;stroke:#5cb85c;stroke-linecap:square;"/>
   </g>
   <g id="line2d_11">
    <path clip-path="url(#p0012f5faf5)" d="M 81.359489 105.354888 
L 90.107239 104.525334 
L 98.854989 103.726205 
L 107.602739 73.86321 
L 116.35049 73.90078 
L 125.09824 72.884089 
L 133.84599 73.236013 
L 142.59374 72.983801 
L 151.34149 57.973318 
L 160.089241 58.735659 
L 177.584741 58.935413 
L 195.080242 46.714965 
L 212.575742 46.682099 
L 230.071243 46.459297 
L 247.566743 46.634486 
L 265.062243 46.993528 
L 282.557744 47.372169 
L 300.053244 48.13828 
L 317.548745 48.76684 
L 335.044245 49.531634 
L 352.539746 50.431743 
L 370.035246 51.264593 
L 387.530747 52.066168 
L 405.026247 52.816815 
L 422.521748 53.575129 
L 440.017248 54.683495 
L 457.512749 56.098001 
L 475.008249 57.221698 
L 492.503749 58.582484 
L 509.99925 67.171213 
L 527.49475 65.598295 
L 544.990251 62.516649 
L 562.485751 63.253226 
L 579.981252 64.895545 
L 597.476752 66.860612 
L 614.972253 68.946252 
L 632.467753 71.647022 
L 649.963254 74.434714 
L 667.458754 77.542551 
L 684.954254 81.181111 
L 702.449755 84.594787 
L 719.945255 87.880869 
L 737.440756 91.116403 
L 754.936256 94.242474 
L 772.431757 97.064816 
L 789.927257 99.890933 
L 807.422758 103.659959 
L 824.918258 106.564469 
L 842.413759 108.693029 
L 859.909259 110.915225 
L 877.40476 112.877306 
L 894.90026 114.927597 
L 912.39576 116.789229 
L 929.891261 118.520582 
L 947.386761 130.943359 
" style="fill:none;stroke:#5cb85c;stroke-linecap:square;"/>
   </g>
   <g id="line2d_12">
    <path clip-path="url(#p0012f5faf5)" d="M 81.359489 101.301802 
L 90.107239 100.343605 
L 98.854989 99.764384 
L 107.602739 70.236833 
L 116.35049 69.564799 
L 125.09824 69.053602 
L 133.84599 69.519013 
L 142.59374 69.294964 
L 151.34149 53.767601 
L 160.089241 54.47519 
L 177.584741 54.30879 
L 195.080242 41.716203 
L 212.575742 42.144903 
L 230.071243 42.246318 
L 247.566743 43.284862 
L 265.062243 44.520897 
L 282.557744 44.050246 
L 300.053244 44.912194 
L 317.548745 45.773747 
L 335.044245 45.912389 
L 352.539746 46.35896 
L 370.035246 46.886068 
L 387.530747 47.7335 
L 405.026247 48.591254 
L 422.521748 49.689998 
L 440.017248 50.908299 
L 457.512749 52.113683 
L 475.008249 53.589936 
L 492.503749 54.767195 
L 509.99925 56.145688 
L 527.49475 57.752514 
L 544.990251 59.482904 
L 562.485751 61.209696 
L 579.981252 62.959182 
L 597.476752 65.904234 
L 614.972253 67.611174 
L 632.467753 69.810761 
L 649.963254 72.52239 
L 667.458754 75.126417 
L 684.954254 77.920136 
L 702.449755 80.782482 
L 719.945255 83.515853 
L 737.440756 94.110996 
L 754.936256 88.845813 
L 772.431757 89.752579 
L 789.927257 91.266988 
L 807.422758 92.996677 
L 824.918258 94.414435 
L 842.413759 95.686422 
L 859.909259 96.484161 
L 877.40476 97.216723 
L 894.90026 97.664256 
L 912.39576 98.168414 
L 929.891261 98.668558 
L 947.386761 103.779844 
" style="fill:none;stroke:#5cb85c;stroke-linecap:square;"/>
   </g>
   <g id="line2d_13">
    <path clip-path="url(#p0012f5faf5)" d="M 81.359489 104.762944 
L 90.107239 103.952375 
L 98.854989 103.194848 
L 107.602739 73.385605 
L 116.35049 73.513622 
L 125.09824 72.599492 
L 133.84599 72.923929 
L 142.59374 72.712393 
L 151.34149 57.75467 
L 160.089241 58.401527 
L 177.584741 58.625919 
L 195.080242 46.236064 
L 212.575742 46.283381 
L 230.071243 46.201157 
L 247.566743 46.427087 
L 265.062243 46.821569 
L 282.557744 47.360745 
L 300.053244 48.173231 
L 317.548745 48.930812 
L 335.044245 49.698667 
L 352.539746 50.645384 
L 370.035246 51.519274 
L 387.530747 52.385648 
L 405.026247 53.205007 
L 422.521748 54.071519 
L 440.017248 55.295886 
L 457.512749 56.723402 
L 475.008249 57.979591 
L 492.503749 59.345464 
L 509.99925 68.068521 
L 527.49475 66.629947 
L 544.990251 64.016513 
L 562.485751 65.070859 
L 579.981252 66.923672 
L 597.476752 69.06823 
L 614.972253 71.222872 
L 632.467753 73.84107 
L 649.963254 76.437354 
L 667.458754 79.25796 
L 684.954254 82.352688 
L 702.449755 85.109749 
L 719.945255 87.789968 
L 737.440756 90.33242 
L 754.936256 92.722184 
L 772.431757 94.872041 
L 789.927257 96.804318 
L 807.422758 99.709216 
L 824.918258 101.639078 
L 842.413759 102.941141 
L 859.909259 104.154989 
L 877.40476 105.0787 
L 894.90026 106.094108 
L 912.39576 106.852133 
L 929.891261 107.664336 
L 947.386761 118.057113 
" style="fill:none;stroke:#5cb85c;stroke-linecap:square;"/>
   </g>
   <g id="line2d_14">
    <path clip-path="url(#p0012f5faf5)" d="M 81.359489 102.545918 
L 90.107239 101.592758 
L 98.854989 101.103342 
L 107.602739 71.241071 
L 116.35049 70.533048 
L 125.09824 69.998956 
L 133.84599 70.421725 
L 142.59374 70.14757 
L 151.34149 54.716269 
L 160.089241 55.541775 
L 177.584741 55.430772 
L 195.080242 43.337068 
L 212.575742 43.899795 
L 230.071243 44.239208 
L 247.566743 45.62844 
L 265.062243 47.002094 
L 282.557744 46.633153 
L 300.053244 47.78616 
L 317.548745 48.6503 
L 335.044245 48.854893 
L 352.539746 49.309691 
L 370.035246 49.865893 
L 387.530747 50.722188 
L 405.026247 51.616569 
L 422.521748 52.691505 
L 440.017248 53.958759 
L 457.512749 55.203446 
L 475.008249 56.69232 
L 492.503749 57.933467 
L 509.99925 59.229742 
L 527.49475 60.69575 
L 544.990251 62.277517 
L 562.485751 63.766542 
L 579.981252 65.454324 
L 597.476752 68.216177 
L 614.972253 69.884741 
L 632.467753 72.062153 
L 649.963254 74.853825 
L 667.458754 77.571393 
L 684.954254 80.560617 
L 702.449755 83.722819 
L 719.945255 86.706764 
L 737.440756 97.748691 
L 754.936256 92.533144 
L 772.431757 93.609379 
L 789.927257 95.529924 
L 807.422758 97.706361 
L 824.918258 99.463939 
L 842.413759 101.052848 
L 859.909259 102.132404 
L 877.40476 103.130716 
L 894.90026 103.737679 
L 912.39576 104.433093 
L 929.891261 105.037851 
L 947.386761 110.476227 
" style="fill:none;stroke:#5cb85c;stroke-linecap:square;"/>
   </g>
   <g id="line2d_15">
    <path clip-path="url(#p0012f5faf5)" d="M 81.359489 105.72273 
L 90.107239 104.912576 
L 98.854989 104.123379 
L 107.602739 74.234898 
L 116.35049 74.546449 
L 125.09824 73.818107 
L 133.84599 74.043113 
L 142.59374 73.913747 
L 151.34149 58.965066 
L 160.089241 59.823353 
L 177.584741 60.102968 
L 195.080242 48.092927 
L 212.575742 48.2033 
L 230.071243 48.286134 
L 247.566743 48.8178 
L 265.062243 49.293332 
L 282.557744 49.837239 
L 300.053244 50.848486 
L 317.548745 51.552542 
L 335.044245 52.422403 
L 352.539746 53.318787 
L 370.035246 54.250033 
L 387.530747 55.098695 
L 405.026247 56.024 
L 422.521748 56.943719 
L 440.017248 58.336352 
L 457.512749 59.910022 
L 475.008249 61.228235 
L 492.503749 62.741461 
L 509.99925 71.441825 
L 527.49475 69.959675 
L 544.990251 67.088125 
L 562.485751 67.975746 
L 579.981252 69.758041 
L 597.476752 71.74203 
L 614.972253 73.962109 
L 632.467753 76.708414 
L 649.963254 79.649849 
L 667.458754 82.808571 
L 684.954254 86.44393 
L 702.449755 89.795616 
L 719.945255 93.008142 
L 737.440756 96.021883 
L 754.936256 98.953317 
L 772.431757 101.426078 
L 789.927257 103.906849 
L 807.422758 107.219831 
L 824.918258 109.871251 
L 842.413759 111.776324 
L 859.909259 113.814766 
L 877.40476 115.569724 
L 894.90026 117.457335 
L 912.39576 119.100175 
L 929.891261 120.618517 
L 947.386761 132.541855 
" style="fill:none;stroke:#5cb85c;stroke-linecap:square;"/>
   </g>
   <g id="line2d_16">
    <path clip-path="url(#p0012f5faf5)" d="M 81.359489 101.376399 
L 90.107239 100.436963 
L 98.854989 99.75435 
L 107.602739 70.294386 
L 116.35049 69.582744 
L 125.09824 69.105558 
L 133.84599 69.544919 
L 142.59374 69.374807 
L 151.34149 53.824282 
L 160.089241 54.529021 
L 177.584741 54.314313 
L 195.080242 41.712452 
L 212.575742 42.007132 
L 230.071243 41.958227 
L 247.566743 42.844007 
L 265.062243 43.974411 
L 282.557744 43.280714 
L 300.053244 43.972633 
L 317.548745 44.751927 
L 335.044245 44.807894 
L 352.539746 45.174936 
L 370.035246 45.604971 
L 387.530747 46.380967 
L 405.026247 47.194077 
L 422.521748 48.210191 
L 440.017248 49.30902 
L 457.512749 50.374202 
L 475.008249 51.640654 
L 492.503749 52.670161 
L 509.99925 53.891599 
L 527.49475 55.402337 
L 544.990251 56.977653 
L 562.485751 58.626452 
L 579.981252 60.245237 
L 597.476752 63.161842 
L 614.972253 64.757355 
L 632.467753 66.85167 
L 649.963254 69.508672 
L 667.458754 72.129208 
L 684.954254 74.999251 
L 702.449755 78.009265 
L 719.945255 80.877742 
L 737.440756 91.725653 
L 754.936256 86.652696 
L 772.431757 87.751404 
L 789.927257 89.456404 
L 807.422758 91.319882 
L 824.918258 92.861906 
L 842.413759 94.203035 
L 859.909259 95.055304 
L 877.40476 95.858352 
L 894.90026 96.356379 
L 912.39576 96.857554 
L 929.891261 97.372416 
L 947.386761 102.623123 
" style="fill:none;stroke:#5cb85c;stroke-linecap:square;"/>
   </g>
   <g id="line2d_17">
    <path clip-path="url(#p0012f5faf5)" d="M 81.359489 105.505829 
L 90.107239 104.684206 
L 98.854989 103.899076 
L 107.602739 74.038096 
L 116.35049 74.055752 
L 125.09824 72.998053 
L 133.84599 73.366397 
L 142.59374 73.112577 
L 151.34149 58.25646 
L 160.089241 58.930049 
L 177.584741 59.091665 
L 195.080242 46.820124 
L 212.575742 46.812748 
L 230.071243 46.569586 
L 247.566743 46.605707 
L 265.062243 46.908883 
L 282.557744 47.313893 
L 300.053244 47.972353 
L 317.548745 48.676262 
L 335.044245 49.342838 
L 352.539746 50.219799 
L 370.035246 51.010153 
L 387.530747 51.809791 
L 405.026247 52.535926 
L 422.521748 53.33456 
L 440.017248 54.427756 
L 457.512749 55.757056 
L 475.008249 56.812091 
L 492.503749 58.025212 
L 509.99925 66.635026 
L 527.49475 65.105037 
L 544.990251 62.262107 
L 562.485751 63.118026 
L 579.981252 64.794174 
L 597.476752 66.827331 
L 614.972253 68.849974 
L 632.467753 71.3531 
L 649.963254 73.866792 
L 667.458754 76.646239 
L 684.954254 79.818163 
L 702.449755 82.724131 
L 719.945255 85.59268 
L 737.440756 88.413993 
L 754.936256 91.125917 
L 772.431757 93.664946 
L 789.927257 96.043894 
L 807.422758 99.481159 
L 824.918258 101.898661 
L 842.413759 103.671329 
L 859.909259 105.365424 
L 877.40476 106.812145 
L 894.90026 108.370646 
L 912.39576 109.693063 
L 929.891261 111.04731 
L 947.386761 122.739475 
" style="fill:none;stroke:#5cb85c;stroke-linecap:square;"/>
   </g>
   <g id="line2d_18">
    <path clip-path="url(#p0012f5faf5)" d="M 81.359489 102.539195 
L 90.107239 101.696757 
L 98.854989 101.251787 
L 107.602739 71.316138 
L 116.35049 70.60679 
L 125.09824 70.010206 
L 133.84599 70.396256 
L 142.59374 70.069739 
L 151.34149 54.591082 
L 160.089241 55.421765 
L 177.584741 55.393198 
L 195.080242 43.393987 
L 212.575742 44.100284 
L 230.071243 44.76411 
L 247.566743 46.637326 
L 265.062243 48.224527 
L 282.557744 48.163202 
L 300.053244 49.699592 
L 317.548745 50.775529 
L 335.044245 51.187689 
L 352.539746 51.804143 
L 370.035246 52.504304 
L 387.530747 53.537047 
L 405.026247 54.540217 
L 422.521748 55.75135 
L 440.017248 57.165282 
L 457.512749 58.502369 
L 475.008249 60.021641 
L 492.503749 61.375842 
L 509.99925 62.83682 
L 527.49475 64.495443 
L 544.990251 66.186121 
L 562.485751 67.844622 
L 579.981252 69.568601 
L 597.476752 72.305334 
L 614.972253 73.977155 
L 632.467753 76.033605 
L 649.963254 78.7881 
L 667.458754 81.328606 
L 684.954254 84.208494 
L 702.449755 87.12439 
L 719.945255 89.966693 
L 737.440756 100.750526 
L 754.936256 95.614865 
L 772.431757 96.63157 
L 789.927257 98.530443 
L 807.422758 100.655573 
L 824.918258 102.441616 
L 842.413759 104.072074 
L 859.909259 105.209488 
L 877.40476 106.22598 
L 894.90026 106.905234 
L 912.39576 107.633791 
L 929.891261 108.298844 
L 947.386761 113.506883 
" style="fill:none;stroke:#5cb85c;stroke-linecap:square;"/>
   </g>
   <g id="line2d_19">
    <path clip-path="url(#p0012f5faf5)" d="M 81.359489 105.825237 
L 90.107239 105.153806 
L 98.854989 104.353088 
L 107.602739 74.480491 
L 116.35049 74.930203 
L 125.09824 74.369947 
L 133.84599 74.547145 
L 142.59374 74.480338 
L 151.34149 59.513595 
L 160.089241 60.447549 
L 177.584741 60.818054 
L 195.080242 48.996825 
L 212.575742 49.255902 
L 230.071243 49.650927 
L 247.566743 50.597161 
L 265.062243 51.285402 
L 282.557744 52.156546 
L 300.053244 53.527879 
L 317.548745 54.434536 
L 335.044245 55.520678 
L 352.539746 56.620346 
L 370.035246 57.71383 
L 387.530747 58.72735 
L 405.026247 59.786235 
L 422.521748 60.761668 
L 440.017248 62.289001 
L 457.512749 63.934173 
L 475.008249 65.433896 
L 492.503749 67.027242 
L 509.99925 75.734855 
L 527.49475 74.297401 
L 544.990251 71.554409 
L 562.485751 72.490598 
L 579.981252 74.37511 
L 597.476752 76.35339 
L 614.972253 78.563998 
L 632.467753 81.162625 
L 649.963254 83.974119 
L 667.458754 86.93154 
L 684.954254 90.309094 
L 702.449755 93.337746 
L 719.945255 96.301037 
L 737.440756 99.053405 
L 754.936256 101.769582 
L 772.431757 103.965188 
L 789.927257 106.175465 
L 807.422758 109.078075 
L 824.918258 111.224993 
L 842.413759 112.708932 
L 859.909259 114.294727 
L 877.40476 115.569816 
L 894.90026 116.922409 
L 912.39576 117.942621 
L 929.891261 118.946605 
L 947.386761 129.210395 
" style="fill:none;stroke:#5cb85c;stroke-linecap:square;"/>
   </g>
   <g id="line2d_20">
    <path clip-path="url(#p0012f5faf5)" d="M 81.359489 101.440414 
L 90.107239 100.514869 
L 98.854989 99.907023 
L 107.602739 70.379057 
L 116.35049 69.674304 
L 125.09824 69.163603 
L 133.84599 69.630248 
L 142.59374 69.407251 
L 151.34149 53.895745 
L 160.089241 54.628535 
L 177.584741 54.449554 
L 195.080242 41.940415 
L 212.575742 42.309169 
L 230.071243 42.320502 
L 247.566743 43.268475 
L 265.062243 44.482485 
L 282.557744 43.937326 
L 300.053244 44.734898 
L 317.548745 45.524556 
L 335.044245 45.634638 
L 352.539746 46.047645 
L 370.035246 46.509347 
L 387.530747 47.290016 
L 405.026247 48.061666 
L 422.521748 49.077769 
L 440.017248 50.194196 
L 457.512749 51.319977 
L 475.008249 52.623212 
L 492.503749 53.702689 
L 509.99925 54.901123 
L 527.49475 56.360012 
L 544.990251 57.887889 
L 562.485751 59.454953 
L 579.981252 61.087151 
L 597.476752 63.95643 
L 614.972253 65.563767 
L 632.467753 67.686581 
L 649.963254 70.412803 
L 667.458754 73.089352 
L 684.954254 76.056324 
L 702.449755 79.111185 
L 719.945255 82.026117 
L 737.440756 92.918861 
L 754.936256 87.904132 
L 772.431757 89.036407 
L 789.927257 90.810246 
L 807.422758 92.718289 
L 824.918258 94.296148 
L 842.413759 95.682168 
L 859.909259 96.596061 
L 877.40476 97.41617 
L 894.90026 97.93227 
L 912.39576 98.481922 
L 929.891261 99.005403 
L 947.386761 104.196215 
" style="fill:none;stroke:#5cb85c;stroke-linecap:square;"/>
   </g>
   <g id="line2d_21">
    <path clip-path="url(#p0012f5faf5)" d="M 81.359489 104.634189 
L 90.107239 103.833903 
L 98.854989 103.060122 
L 107.602739 73.220108 
L 116.35049 73.289155 
L 125.09824 72.333595 
L 133.84599 72.654655 
L 142.59374 72.424961 
L 151.34149 57.440674 
L 160.089241 58.097284 
L 177.584741 58.291955 
L 195.080242 45.91471 
L 212.575742 45.897005 
L 230.071243 45.713621 
L 247.566743 45.850757 
L 265.062243 46.196066 
L 282.557744 46.65673 
L 300.053244 47.409243 
L 317.548745 48.082041 
L 335.044245 48.808162 
L 352.539746 49.700274 
L 370.035246 50.505628 
L 387.530747 51.300701 
L 405.026247 52.039726 
L 422.521748 52.7938 
L 440.017248 53.902772 
L 457.512749 55.269795 
L 475.008249 56.415781 
L 492.503749 57.697397 
L 509.99925 66.301059 
L 527.49475 64.770495 
L 544.990251 61.905568 
L 562.485751 62.754961 
L 579.981252 64.491936 
L 597.476752 66.514894 
L 614.972253 68.546371 
L 632.467753 71.116608 
L 649.963254 73.72213 
L 667.458754 76.602309 
L 684.954254 79.879779 
L 702.449755 82.9 
L 719.945255 85.863377 
L 737.440756 88.772752 
L 754.936256 91.566583 
L 772.431757 94.137407 
L 789.927257 96.552947 
L 807.422758 99.897539 
L 824.918258 102.271157 
L 842.413759 104.002844 
L 859.909259 105.664168 
L 877.40476 107.086352 
L 894.90026 108.603057 
L 912.39576 109.89677 
L 929.891261 111.159125 
L 947.386761 122.533335 
" style="fill:none;stroke:#5cb85c;stroke-linecap:square;"/>
   </g>
   <g id="line2d_22">
    <path clip-path="url(#p0012f5faf5)" d="M 81.359489 103.43283 
L 90.107239 102.587601 
L 98.854989 102.184384 
L 107.602739 71.968435 
L 116.35049 71.293791 
L 125.09824 70.677222 
L 133.84599 71.075169 
L 142.59374 70.689576 
L 151.34149 55.365343 
L 160.089241 56.201757 
L 177.584741 56.213184 
L 195.080242 44.567159 
L 212.575742 45.399939 
L 230.071243 46.191167 
L 247.566743 48.230943 
L 265.062243 49.900388 
L 282.557744 49.961789 
L 300.053244 51.698749 
L 317.548745 52.86632 
L 335.044245 53.361895 
L 352.539746 53.964715 
L 370.035246 54.698982 
L 387.530747 55.776945 
L 405.026247 56.840904 
L 422.521748 58.09136 
L 440.017248 59.642917 
L 457.512749 61.129422 
L 475.008249 62.769193 
L 492.503749 64.233298 
L 509.99925 65.754808 
L 527.49475 67.380749 
L 544.990251 69.053806 
L 562.485751 70.665698 
L 579.981252 72.373716 
L 597.476752 75.0482 
L 614.972253 76.751133 
L 632.467753 78.837424 
L 649.963254 81.600956 
L 667.458754 84.168324 
L 684.954254 87.088329 
L 702.449755 90.18934 
L 719.945255 93.046487 
L 737.440756 104.108778 
L 754.936256 98.755246 
L 772.431757 99.860876 
L 789.927257 101.855582 
L 807.422758 104.201742 
L 824.918258 106.176402 
L 842.413759 107.965983 
L 859.909259 109.234721 
L 877.40476 110.439795 
L 894.90026 111.195878 
L 912.39576 112.018837 
L 929.891261 112.821071 
L 947.386761 118.344618 
" style="fill:none;stroke:#5cb85c;stroke-linecap:square;"/>
   </g>
   <g id="line2d_23">
    <path clip-path="url(#p0012f5faf5)" d="M 81.359489 106.142128 
L 90.107239 105.460569 
L 98.854989 104.679629 
L 107.602739 74.637686 
L 116.35049 75.242573 
L 125.09824 74.814836 
L 133.84599 74.947778 
L 142.59374 74.937577 
L 151.34149 60.006661 
L 160.089241 60.966527 
L 177.584741 61.363548 
L 195.080242 49.779279 
L 212.575742 50.103693 
L 230.071243 50.62686 
L 247.566743 51.730166 
L 265.062243 52.454358 
L 282.557744 53.383099 
L 300.053244 54.873913 
L 317.548745 55.817831 
L 335.044245 56.986326 
L 352.539746 58.062253 
L 370.035246 59.253798 
L 387.530747 60.275737 
L 405.026247 61.40997 
L 422.521748 62.464288 
L 440.017248 64.230225 
L 457.512749 66.024127 
L 475.008249 67.647471 
L 492.503749 69.316505 
L 509.99925 78.145266 
L 527.49475 76.728217 
L 544.990251 73.983249 
L 562.485751 74.962289 
L 579.981252 76.866657 
L 597.476752 78.824783 
L 614.972253 81.086102 
L 632.467753 83.771555 
L 649.963254 86.742175 
L 667.458754 89.838766 
L 684.954254 93.469943 
L 702.449755 96.752745 
L 719.945255 99.91172 
L 737.440756 102.854947 
L 754.936256 105.812972 
L 772.431757 108.20668 
L 789.927257 110.703178 
L 807.422758 113.871327 
L 824.918258 116.491973 
L 842.413759 118.34732 
L 859.909259 120.440278 
L 877.40476 122.209769 
L 894.90026 124.117976 
L 912.39576 125.697918 
L 929.891261 127.267052 
L 947.386761 138.754648 
" style="fill:none;stroke:#5cb85c;stroke-linecap:square;"/>
   </g>
   <g id="line2d_24">
    <path clip-path="url(#p0012f5faf5)" d="M 81.359489 102.023975 
L 90.107239 101.11854 
L 98.854989 100.520555 
L 107.602739 70.819273 
L 116.35049 70.098412 
L 125.09824 69.59113 
L 133.84599 70.021921 
L 142.59374 69.785272 
L 151.34149 54.368673 
L 160.089241 55.133112 
L 177.584741 54.964735 
L 195.080242 42.605345 
L 212.575742 43.067133 
L 230.071243 43.205974 
L 247.566743 44.293861 
L 265.062243 45.553599 
L 282.557744 45.098545 
L 300.053244 46.037489 
L 317.548745 46.860463 
L 335.044245 46.968687 
L 352.539746 47.374762 
L 370.035246 47.835824 
L 387.530747 48.631474 
L 405.026247 49.416666 
L 422.521748 50.44759 
L 440.017248 51.57509 
L 457.512749 52.679006 
L 475.008249 53.94819 
L 492.503749 54.993338 
L 509.99925 56.128131 
L 527.49475 57.52375 
L 544.990251 58.963948 
L 562.485751 60.415095 
L 579.981252 61.957122 
L 597.476752 64.689165 
L 614.972253 66.233041 
L 632.467753 68.203688 
L 649.963254 70.873335 
L 667.458754 73.483066 
L 684.954254 76.422899 
L 702.449755 79.487945 
L 719.945255 82.462065 
L 737.440756 93.58121 
L 754.936256 88.523265 
L 772.431757 89.768588 
L 789.927257 91.738754 
L 807.422758 93.870243 
L 824.918258 95.659158 
L 842.413759 97.232431 
L 859.909259 98.296934 
L 877.40476 99.271752 
L 894.90026 99.879849 
L 912.39576 100.516545 
L 929.891261 101.113497 
L 947.386761 106.396003 
" style="fill:none;stroke:#5cb85c;stroke-linecap:square;"/>
   </g>
   <g id="line2d_25">
    <path clip-path="url(#p0012f5faf5)" d="M 81.359489 104.818836 
L 90.107239 104.09044 
L 98.854989 103.302813 
L 107.602739 73.402123 
L 116.35049 73.542311 
L 125.09824 72.664442 
L 133.84599 72.91757 
L 142.59374 72.746711 
L 151.34149 57.781561 
L 160.089241 58.479402 
L 177.584741 58.680233 
L 195.080242 46.397462 
L 212.575742 46.447985 
L 230.071243 46.377207 
L 247.566743 46.613045 
L 265.062243 46.991225 
L 282.557744 47.517259 
L 300.053244 48.34941 
L 317.548745 49.038227 
L 335.044245 49.775355 
L 352.539746 50.672793 
L 370.035246 51.505185 
L 387.530747 52.281959 
L 405.026247 53.032306 
L 422.521748 53.794045 
L 440.017248 54.912723 
L 457.512749 56.231828 
L 475.008249 57.359479 
L 492.503749 58.584587 
L 509.99925 67.161617 
L 527.49475 65.595239 
L 544.990251 62.662222 
L 562.485751 63.428794 
L 579.981252 65.106584 
L 597.476752 67.010063 
L 614.972253 68.995611 
L 632.467753 71.469077 
L 649.963254 74.04515 
L 667.458754 76.929412 
L 684.954254 80.262284 
L 702.449755 83.363083 
L 719.945255 86.439378 
L 737.440756 89.504983 
L 754.936256 92.507707 
L 772.431757 95.288286 
L 789.927257 98.003397 
L 807.422758 101.626331 
L 824.918258 104.36665 
L 842.413759 106.439438 
L 859.909259 108.502986 
L 877.40476 110.336986 
L 894.90026 112.267258 
L 912.39576 113.98722 
L 929.891261 115.659132 
L 947.386761 127.780263 
" style="fill:none;stroke:#5cb85c;stroke-linecap:square;"/>
   </g>
   <g id="line2d_26">
    <path clip-path="url(#p0012f5faf5)" d="M 81.359489 104.41248 
L 90.107239 103.673051 
L 98.854989 103.389155 
L 107.602739 72.786379 
L 116.35049 72.092168 
L 125.09824 71.508855 
L 133.84599 71.645563 
L 142.59374 71.142816 
L 151.34149 55.948604 
L 160.089241 56.85076 
L 177.584741 57.083815 
L 195.080242 45.756055 
L 212.575742 47.067418 
L 230.071243 48.877695 
L 247.566743 51.990886 
L 265.062243 54.136721 
L 282.557744 54.95073 
L 300.053244 57.56272 
L 317.548745 59.110616 
L 335.044245 59.844392 
L 352.539746 60.59011 
L 370.035246 61.470282 
L 387.530747 62.701994 
L 405.026247 64.00017 
L 422.521748 65.513352 
L 440.017248 67.300402 
L 457.512749 68.849759 
L 475.008249 70.465309 
L 492.503749 72.129767 
L 509.99925 73.774955 
L 527.49475 75.677711 
L 544.990251 77.476654 
L 562.485751 79.3023 
L 579.981252 80.976072 
L 597.476752 83.877633 
L 614.972253 85.435797 
L 632.467753 87.577338 
L 649.963254 90.192525 
L 667.458754 92.636695 
L 684.954254 95.226917 
L 702.449755 98.095913 
L 719.945255 100.644358 
L 737.440756 111.334849 
L 754.936256 105.806286 
L 772.431757 106.793945 
L 789.927257 108.845193 
L 807.422758 111.45409 
L 824.918258 113.642045 
L 842.413759 115.712928 
L 859.909259 117.172676 
L 877.40476 118.570203 
L 894.90026 119.494137 
L 912.39576 120.479187 
L 929.891261 121.368879 
L 947.386761 126.418265 
" style="fill:none;stroke:#5cb85c;stroke-linecap:square;"/>
   </g>
   <g id="line2d_27">
    <path clip-path="url(#p0012f5faf5)" d="M 81.359489 107.060832 
L 90.107239 106.49149 
L 98.854989 105.627773 
L 107.602739 75.619387 
L 116.35049 76.898063 
L 125.09824 77.292477 
L 133.84599 77.137381 
L 142.59374 77.436299 
L 151.34149 62.581537 
L 160.089241 63.873601 
L 177.584741 64.439533 
L 195.080242 53.243148 
L 212.575742 53.97266 
L 230.071243 55.47235 
L 247.566743 57.557828 
L 265.062243 58.678478 
L 282.557744 60.224156 
L 300.053244 62.517291 
L 317.548745 63.749433 
L 335.044245 65.245976 
L 352.539746 66.494686 
L 370.035246 68.027898 
L 387.530747 69.191314 
L 405.026247 70.750854 
L 422.521748 72.106342 
L 440.017248 74.381405 
L 457.512749 76.393975 
L 475.008249 78.454954 
L 492.503749 80.37764 
L 509.99925 89.381904 
L 527.49475 88.094543 
L 544.990251 85.764801 
L 562.485751 86.964633 
L 579.981252 89.184539 
L 597.476752 91.174388 
L 614.972253 93.723555 
L 632.467753 96.324011 
L 649.963254 99.554136 
L 667.458754 102.657437 
L 684.954254 106.249316 
L 702.449755 109.29815 
L 719.945255 112.331216 
L 737.440756 114.880276 
L 754.936256 117.551072 
L 772.431757 119.307208 
L 789.927257 121.247199 
L 807.422758 123.626374 
L 824.918258 125.735928 
L 842.413759 127.121324 
L 859.909259 128.863985 
L 877.40476 130.222517 
L 894.90026 131.765354 
L 912.39576 132.856826 
L 929.891261 133.959701 
L 947.386761 143.771483 
" style="fill:none;stroke:#5cb85c;stroke-linecap:square;"/>
   </g>
   <g id="line2d_28">
    <path clip-path="url(#p0012f5faf5)" d="M 38.058125 381.6495 
L 990.688125 381.6495 
" style="fill:none;stroke:#dedede;stroke-linecap:square;stroke-width:2;"/>
   </g>
   <g id="text_18">
    <!-- FastQC: Mean Quality Scores -->
    <defs>
     <path d="M 9.8125 72.90625 
L 51.703125 72.90625 
L 51.703125 64.59375 
L 19.671875 64.59375 
L 19.671875 43.109375 
L 48.578125 43.109375 
L 48.578125 34.8125 
L 19.671875 34.8125 
L 19.671875 0 
L 9.8125 0 
z
" id="DejaVuSans-46"/>
     <path d="M 34.28125 27.484375 
Q 23.390625 27.484375 19.1875 25 
Q 14.984375 22.515625 14.984375 16.5 
Q 14.984375 11.71875 18.140625 8.90625 
Q 21.296875 6.109375 26.703125 6.109375 
Q 34.1875 6.109375 38.703125 11.40625 
Q 43.21875 16.703125 43.21875 25.484375 
L 43.21875 27.484375 
z
M 52.203125 31.203125 
L 52.203125 0 
L 43.21875 0 
L 43.21875 8.296875 
Q 40.140625 3.328125 35.546875 0.953125 
Q 30.953125 -1.421875 24.3125 -1.421875 
Q 15.921875 -1.421875 10.953125 3.296875 
Q 6 8.015625 6 15.921875 
Q 6 25.140625 12.171875 29.828125 
Q 18.359375 34.515625 30.609375 34.515625 
L 43.21875 34.515625 
L 43.21875 35.40625 
Q 43.21875 41.609375 39.140625 45 
Q 35.0625 48.390625 27.6875 48.390625 
Q 23 48.390625 18.546875 47.265625 
Q 14.109375 46.140625 10.015625 43.890625 
L 10.015625 52.203125 
Q 14.9375 54.109375 19.578125 55.046875 
Q 24.21875 56 28.609375 56 
Q 40.484375 56 46.34375 49.84375 
Q 52.203125 43.703125 52.203125 31.203125 
z
" id="DejaVuSans-61"/>
     <path d="M 39.40625 66.21875 
Q 28.65625 66.21875 22.328125 58.203125 
Q 16.015625 50.203125 16.015625 36.375 
Q 16.015625 22.609375 22.328125 14.59375 
Q 28.65625 6.59375 39.40625 6.59375 
Q 50.140625 6.59375 56.421875 14.59375 
Q 62.703125 22.609375 62.703125 36.375 
Q 62.703125 50.203125 56.421875 58.203125 
Q 50.140625 66.21875 39.40625 66.21875 
z
M 53.21875 1.3125 
L 66.21875 -12.890625 
L 54.296875 -12.890625 
L 43.5 -1.21875 
Q 41.890625 -1.3125 41.03125 -1.359375 
Q 40.1875 -1.421875 39.40625 -1.421875 
Q 24.03125 -1.421875 14.8125 8.859375 
Q 5.609375 19.140625 5.609375 36.375 
Q 5.609375 53.65625 14.8125 63.9375 
Q 24.03125 74.21875 39.40625 74.21875 
Q 54.734375 74.21875 63.90625 63.9375 
Q 73.09375 53.65625 73.09375 36.375 
Q 73.09375 23.6875 67.984375 14.640625 
Q 62.890625 5.609375 53.21875 1.3125 
z
" id="DejaVuSans-51"/>
     <path d="M 64.40625 67.28125 
L 64.40625 56.890625 
Q 59.421875 61.53125 53.78125 63.8125 
Q 48.140625 66.109375 41.796875 66.109375 
Q 29.296875 66.109375 22.65625 58.46875 
Q 16.015625 50.828125 16.015625 36.375 
Q 16.015625 21.96875 22.65625 14.328125 
Q 29.296875 6.6875 41.796875 6.6875 
Q 48.140625 6.6875 53.78125 8.984375 
Q 59.421875 11.28125 64.40625 15.921875 
L 64.40625 5.609375 
Q 59.234375 2.09375 53.4375 0.328125 
Q 47.65625 -1.421875 41.21875 -1.421875 
Q 24.65625 -1.421875 15.125 8.703125 
Q 5.609375 18.84375 5.609375 36.375 
Q 5.609375 53.953125 15.125 64.078125 
Q 24.65625 74.21875 41.21875 74.21875 
Q 47.75 74.21875 53.53125 72.484375 
Q 59.328125 70.75 64.40625 67.28125 
z
" id="DejaVuSans-43"/>
     <path d="M 11.71875 12.40625 
L 22.015625 12.40625 
L 22.015625 0 
L 11.71875 0 
z
M 11.71875 51.703125 
L 22.015625 51.703125 
L 22.015625 39.3125 
L 11.71875 39.3125 
z
" id="DejaVuSans-3a"/>
     <path d="M 9.8125 72.90625 
L 24.515625 72.90625 
L 43.109375 23.296875 
L 61.8125 72.90625 
L 76.515625 72.90625 
L 76.515625 0 
L 66.890625 0 
L 66.890625 64.015625 
L 48.09375 14.015625 
L 38.1875 14.015625 
L 19.390625 64.015625 
L 19.390625 0 
L 9.8125 0 
z
" id="DejaVuSans-4d"/>
     <path d="M 8.5 21.578125 
L 8.5 54.6875 
L 17.484375 54.6875 
L 17.484375 21.921875 
Q 17.484375 14.15625 20.5 10.265625 
Q 23.53125 6.390625 29.59375 6.390625 
Q 36.859375 6.390625 41.078125 11.03125 
Q 45.3125 15.671875 45.3125 23.6875 
L 45.3125 54.6875 
L 54.296875 54.6875 
L 54.296875 0 
L 45.3125 0 
L 45.3125 8.40625 
Q 42.046875 3.421875 37.71875 1 
Q 33.40625 -1.421875 27.6875 -1.421875 
Q 18.265625 -1.421875 13.375 4.4375 
Q 8.5 10.296875 8.5 21.578125 
z
M 31.109375 56 
z
" id="DejaVuSans-75"/>
     <path d="M 9.421875 75.984375 
L 18.40625 75.984375 
L 18.40625 0 
L 9.421875 0 
z
" id="DejaVuSans-6c"/>
     <path d="M 32.171875 -5.078125 
Q 28.375 -14.84375 24.75 -17.8125 
Q 21.140625 -20.796875 15.09375 -20.796875 
L 7.90625 -20.796875 
L 7.90625 -13.28125 
L 13.1875 -13.28125 
Q 16.890625 -13.28125 18.9375 -11.515625 
Q 21 -9.765625 23.484375 -3.21875 
L 25.09375 0.875 
L 2.984375 54.6875 
L 12.5 54.6875 
L 29.59375 11.921875 
L 46.6875 54.6875 
L 56.203125 54.6875 
z
" id="DejaVuSans-79"/>
    </defs>
    <g transform="translate(398.238125 19.3575)scale(0.16 -0.16)">
     <use xlink:href="#DejaVuSans-46"/>
     <use x="57.378906" xlink:href="#DejaVuSans-61"/>
     <use x="118.658203" xlink:href="#DejaVuSans-73"/>
     <use x="170.757812" xlink:href="#DejaVuSans-74"/>
     <use x="209.966797" xlink:href="#DejaVuSans-51"/>
     <use x="288.677734" xlink:href="#DejaVuSans-43"/>
     <use x="358.501953" xlink:href="#DejaVuSans-3a"/>
     <use x="392.193359" xlink:href="#DejaVuSans-20"/>
     <use x="423.980469" xlink:href="#DejaVuSans-4d"/>
     <use x="510.259766" xlink:href="#DejaVuSans-65"/>
     <use x="571.783203" xlink:href="#DejaVuSans-61"/>
     <use x="633.0625" xlink:href="#DejaVuSans-6e"/>
     <use x="696.441406" xlink:href="#DejaVuSans-20"/>
     <use x="728.228516" xlink:href="#DejaVuSans-51"/>
     <use x="806.939453" xlink:href="#DejaVuSans-75"/>
     <use x="870.318359" xlink:href="#DejaVuSans-61"/>
     <use x="931.597656" xlink:href="#DejaVuSans-6c"/>
     <use x="959.380859" xlink:href="#DejaVuSans-69"/>
     <use x="987.164062" xlink:href="#DejaVuSans-74"/>
     <use x="1026.373047" xlink:href="#DejaVuSans-79"/>
     <use x="1085.552734" xlink:href="#DejaVuSans-20"/>
     <use x="1117.339844" xlink:href="#DejaVuSans-53"/>
     <use x="1180.816406" xlink:href="#DejaVuSans-63"/>
     <use x="1235.796875" xlink:href="#DejaVuSans-6f"/>
     <use x="1296.978516" xlink:href="#DejaVuSans-72"/>
     <use x="1338.060547" xlink:href="#DejaVuSans-65"/>
     <use x="1399.583984" xlink:href="#DejaVuSans-73"/>
    </g>
   </g>
  </g>
 </g>
 <defs>
  <clipPath id="p0012f5faf5">
   <rect height="345.04" width="952.63" x="38.058125" y="36.6095"/>
  </clipPath>
 </defs>
</svg>
