<?xml version="1.0" encoding="utf-8" standalone="no"?>
<!DOCTYPE svg PUBLIC "-//W3C//DTD SVG 1.1//EN"
  "http://www.w3.org/Graphics/SVG/1.1/DTD/svg11.dtd">
<!-- Created with matplotlib (http://matplotlib.org/) -->
<svg height="416.632782pt" version="1.1" viewBox="0 0 1000.683125 416.632782" width="1000.683125pt" xmlns="http://www.w3.org/2000/svg" xmlns:xlink="http://www.w3.org/1999/xlink">
 <defs>
  <style type="text/css">
*{stroke-linecap:butt;stroke-linejoin:round;}
  </style>
 </defs>
 <g id="figure_1">
  <g id="patch_1">
   <path d="M 0 416.632782 
L 1000.683125 416.632782 
L 1000.683125 0 
L 0 0 
z
" style="fill:#ffffff;"/>
  </g>
  <g id="axes_1">
   <g id="patch_2">
    <path d="M 58.418125 381.012157 
L 985.848125 381.012157 
L 985.848125 36.57915 
L 58.418125 36.57915 
z
" style="fill:#ffffff;"/>
   </g>
   <g id="matplotlib.axis_1">
    <g id="xtick_1">
     <g id="text_1">
      <!-- 0 -->
      <defs>
       <path d="M 31.78125 66.40625 
Q 24.171875 66.40625 20.328125 58.90625 
Q 16.5 51.421875 16.5 36.375 
Q 16.5 21.390625 20.328125 13.890625 
Q 24.171875 6.390625 31.78125 6.390625 
Q 39.453125 6.390625 43.28125 13.890625 
Q 47.125 21.390625 47.125 36.375 
Q 47.125 51.421875 43.28125 58.90625 
Q 39.453125 66.40625 31.78125 66.40625 
z
M 31.78125 74.21875 
Q 44.046875 74.21875 50.515625 64.515625 
Q 56.984375 54.828125 56.984375 36.375 
Q 56.984375 17.96875 50.515625 8.265625 
Q 44.046875 -1.421875 31.78125 -1.421875 
Q 19.53125 -1.421875 13.0625 8.265625 
Q 6.59375 17.96875 6.59375 36.375 
Q 6.59375 54.828125 13.0625 64.515625 
Q 19.53125 74.21875 31.78125 74.21875 
z
" id="DejaVuSans-30"/>
      </defs>
      <g transform="translate(55.873125 394.090907)scale(0.08 -0.08)">
       <use xlink:href="#DejaVuSans-30"/>
      </g>
     </g>
    </g>
    <g id="xtick_2">
     <g id="text_2">
      <!-- 20 -->
      <defs>
       <path d="M 19.1875 8.296875 
L 53.609375 8.296875 
L 53.609375 0 
L 7.328125 0 
L 7.328125 8.296875 
Q 12.9375 14.109375 22.625 23.890625 
Q 32.328125 33.6875 34.8125 36.53125 
Q 39.546875 41.84375 41.421875 45.53125 
Q 43.3125 49.21875 43.3125 52.78125 
Q 43.3125 58.59375 39.234375 62.25 
Q 35.15625 65.921875 28.609375 65.921875 
Q 23.96875 65.921875 18.8125 64.3125 
Q 13.671875 62.703125 7.8125 59.421875 
L 7.8125 69.390625 
Q 13.765625 71.78125 18.9375 73 
Q 24.125 74.21875 28.421875 74.21875 
Q 39.75 74.21875 46.484375 68.546875 
Q 53.21875 62.890625 53.21875 53.421875 
Q 53.21875 48.921875 51.53125 44.890625 
Q 49.859375 40.875 45.40625 35.40625 
Q 44.1875 33.984375 37.640625 27.21875 
Q 31.109375 20.453125 19.1875 8.296875 
z
" id="DejaVuSans-32"/>
      </defs>
      <g transform="translate(238.814125 394.090907)scale(0.08 -0.08)">
       <use xlink:href="#DejaVuSans-32"/>
       <use x="63.623047" xlink:href="#DejaVuSans-30"/>
      </g>
     </g>
    </g>
    <g id="xtick_3">
     <g id="text_3">
      <!-- 40 -->
      <defs>
       <path d="M 37.796875 64.3125 
L 12.890625 25.390625 
L 37.796875 25.390625 
z
M 35.203125 72.90625 
L 47.609375 72.90625 
L 47.609375 25.390625 
L 58.015625 25.390625 
L 58.015625 17.1875 
L 47.609375 17.1875 
L 47.609375 0 
L 37.796875 0 
L 37.796875 17.1875 
L 4.890625 17.1875 
L 4.890625 26.703125 
z
" id="DejaVuSans-34"/>
      </defs>
      <g transform="translate(424.300125 394.090907)scale(0.08 -0.08)">
       <use xlink:href="#DejaVuSans-34"/>
       <use x="63.623047" xlink:href="#DejaVuSans-30"/>
      </g>
     </g>
    </g>
    <g id="xtick_4">
     <g id="text_4">
      <!-- 60 -->
      <defs>
       <path d="M 33.015625 40.375 
Q 26.375 40.375 22.484375 35.828125 
Q 18.609375 31.296875 18.609375 23.390625 
Q 18.609375 15.53125 22.484375 10.953125 
Q 26.375 6.390625 33.015625 6.390625 
Q 39.65625 6.390625 43.53125 10.953125 
Q 47.40625 15.53125 47.40625 23.390625 
Q 47.40625 31.296875 43.53125 35.828125 
Q 39.65625 40.375 33.015625 40.375 
z
M 52.59375 71.296875 
L 52.59375 62.3125 
Q 48.875 64.0625 45.09375 64.984375 
Q 41.3125 65.921875 37.59375 65.921875 
Q 27.828125 65.921875 22.671875 59.328125 
Q 17.53125 52.734375 16.796875 39.40625 
Q 19.671875 43.65625 24.015625 45.921875 
Q 28.375 48.1875 33.59375 48.1875 
Q 44.578125 48.1875 50.953125 41.515625 
Q 57.328125 34.859375 57.328125 23.390625 
Q 57.328125 12.15625 50.6875 5.359375 
Q 44.046875 -1.421875 33.015625 -1.421875 
Q 20.359375 -1.421875 13.671875 8.265625 
Q 6.984375 17.96875 6.984375 36.375 
Q 6.984375 53.65625 15.1875 63.9375 
Q 23.390625 74.21875 37.203125 74.21875 
Q 40.921875 74.21875 44.703125 73.484375 
Q 48.484375 72.75 52.59375 71.296875 
z
" id="DejaVuSans-36"/>
      </defs>
      <g transform="translate(609.786125 394.090907)scale(0.08 -0.08)">
       <use xlink:href="#DejaVuSans-36"/>
       <use x="63.623047" xlink:href="#DejaVuSans-30"/>
      </g>
     </g>
    </g>
    <g id="xtick_5">
     <g id="text_5">
      <!-- 80 -->
      <defs>
       <path d="M 31.78125 34.625 
Q 24.75 34.625 20.71875 30.859375 
Q 16.703125 27.09375 16.703125 20.515625 
Q 16.703125 13.921875 20.71875 10.15625 
Q 24.75 6.390625 31.78125 6.390625 
Q 38.8125 6.390625 42.859375 10.171875 
Q 46.921875 13.96875 46.921875 20.515625 
Q 46.921875 27.09375 42.890625 30.859375 
Q 38.875 34.625 31.78125 34.625 
z
M 21.921875 38.8125 
Q 15.578125 40.375 12.03125 44.71875 
Q 8.5 49.078125 8.5 55.328125 
Q 8.5 64.0625 14.71875 69.140625 
Q 20.953125 74.21875 31.78125 74.21875 
Q 42.671875 74.21875 48.875 69.140625 
Q 55.078125 64.0625 55.078125 55.328125 
Q 55.078125 49.078125 51.53125 44.71875 
Q 48 40.375 41.703125 38.8125 
Q 48.828125 37.15625 52.796875 32.3125 
Q 56.78125 27.484375 56.78125 20.515625 
Q 56.78125 9.90625 50.3125 4.234375 
Q 43.84375 -1.421875 31.78125 -1.421875 
Q 19.734375 -1.421875 13.25 4.234375 
Q 6.78125 9.90625 6.78125 20.515625 
Q 6.78125 27.484375 10.78125 32.3125 
Q 14.796875 37.15625 21.921875 38.8125 
z
M 18.3125 54.390625 
Q 18.3125 48.734375 21.84375 45.5625 
Q 25.390625 42.390625 31.78125 42.390625 
Q 38.140625 42.390625 41.71875 45.5625 
Q 45.3125 48.734375 45.3125 54.390625 
Q 45.3125 60.0625 41.71875 63.234375 
Q 38.140625 66.40625 31.78125 66.40625 
Q 25.390625 66.40625 21.84375 63.234375 
Q 18.3125 60.0625 18.3125 54.390625 
z
" id="DejaVuSans-38"/>
      </defs>
      <g transform="translate(795.272125 394.090907)scale(0.08 -0.08)">
       <use xlink:href="#DejaVuSans-38"/>
       <use x="63.623047" xlink:href="#DejaVuSans-30"/>
      </g>
     </g>
    </g>
    <g id="xtick_6">
     <g id="text_6">
      <!-- 100 -->
      <defs>
       <path d="M 12.40625 8.296875 
L 28.515625 8.296875 
L 28.515625 63.921875 
L 10.984375 60.40625 
L 10.984375 69.390625 
L 28.421875 72.90625 
L 38.28125 72.90625 
L 38.28125 8.296875 
L 54.390625 8.296875 
L 54.390625 0 
L 12.40625 0 
z
" id="DejaVuSans-31"/>
      </defs>
      <g transform="translate(978.213125 394.090907)scale(0.08 -0.08)">
       <use xlink:href="#DejaVuSans-31"/>
       <use x="63.623047" xlink:href="#DejaVuSans-30"/>
       <use x="127.246094" xlink:href="#DejaVuSans-30"/>
      </g>
     </g>
    </g>
    <g id="text_7">
     <!-- % GC -->
     <defs>
      <path d="M 72.703125 32.078125 
Q 68.453125 32.078125 66.03125 28.46875 
Q 63.625 24.859375 63.625 18.40625 
Q 63.625 12.0625 66.03125 8.421875 
Q 68.453125 4.78125 72.703125 4.78125 
Q 76.859375 4.78125 79.265625 8.421875 
Q 81.6875 12.0625 81.6875 18.40625 
Q 81.6875 24.8125 79.265625 28.4375 
Q 76.859375 32.078125 72.703125 32.078125 
z
M 72.703125 38.28125 
Q 80.421875 38.28125 84.953125 32.90625 
Q 89.5 27.546875 89.5 18.40625 
Q 89.5 9.28125 84.9375 3.921875 
Q 80.375 -1.421875 72.703125 -1.421875 
Q 64.890625 -1.421875 60.34375 3.921875 
Q 55.8125 9.28125 55.8125 18.40625 
Q 55.8125 27.59375 60.375 32.9375 
Q 64.9375 38.28125 72.703125 38.28125 
z
M 22.3125 68.015625 
Q 18.109375 68.015625 15.6875 64.375 
Q 13.28125 60.75 13.28125 54.390625 
Q 13.28125 47.953125 15.671875 44.328125 
Q 18.0625 40.71875 22.3125 40.71875 
Q 26.5625 40.71875 28.96875 44.328125 
Q 31.390625 47.953125 31.390625 54.390625 
Q 31.390625 60.6875 28.953125 64.34375 
Q 26.515625 68.015625 22.3125 68.015625 
z
M 66.40625 74.21875 
L 74.21875 74.21875 
L 28.609375 -1.421875 
L 20.796875 -1.421875 
z
M 22.3125 74.21875 
Q 30.03125 74.21875 34.609375 68.875 
Q 39.203125 63.53125 39.203125 54.390625 
Q 39.203125 45.171875 34.640625 39.84375 
Q 30.078125 34.515625 22.3125 34.515625 
Q 14.546875 34.515625 10.03125 39.859375 
Q 5.515625 45.21875 5.515625 54.390625 
Q 5.515625 63.484375 10.046875 68.84375 
Q 14.59375 74.21875 22.3125 74.21875 
z
" id="DejaVuSans-25"/>
      <path id="DejaVuSans-20"/>
      <path d="M 59.515625 10.40625 
L 59.515625 29.984375 
L 43.40625 29.984375 
L 43.40625 38.09375 
L 69.28125 38.09375 
L 69.28125 6.78125 
Q 63.578125 2.734375 56.6875 0.65625 
Q 49.8125 -1.421875 42 -1.421875 
Q 24.90625 -1.421875 15.25 8.5625 
Q 5.609375 18.5625 5.609375 36.375 
Q 5.609375 54.25 15.25 64.234375 
Q 24.90625 74.21875 42 74.21875 
Q 49.125 74.21875 55.546875 72.453125 
Q 61.96875 70.703125 67.390625 67.28125 
L 67.390625 56.78125 
Q 61.921875 61.421875 55.765625 63.765625 
Q 49.609375 66.109375 42.828125 66.109375 
Q 29.4375 66.109375 22.71875 58.640625 
Q 16.015625 51.171875 16.015625 36.375 
Q 16.015625 21.625 22.71875 14.15625 
Q 29.4375 6.6875 42.828125 6.6875 
Q 48.046875 6.6875 52.140625 7.59375 
Q 56.25 8.5 59.515625 10.40625 
z
" id="DejaVuSans-47"/>
      <path d="M 64.40625 67.28125 
L 64.40625 56.890625 
Q 59.421875 61.53125 53.78125 63.8125 
Q 48.140625 66.109375 41.796875 66.109375 
Q 29.296875 66.109375 22.65625 58.46875 
Q 16.015625 50.828125 16.015625 36.375 
Q 16.015625 21.96875 22.65625 14.328125 
Q 29.296875 6.6875 41.796875 6.6875 
Q 48.140625 6.6875 53.78125 8.984375 
Q 59.421875 11.28125 64.40625 15.921875 
L 64.40625 5.609375 
Q 59.234375 2.09375 53.4375 0.328125 
Q 47.65625 -1.421875 41.21875 -1.421875 
Q 24.65625 -1.421875 15.125 8.703125 
Q 5.609375 18.84375 5.609375 36.375 
Q 5.609375 53.953125 15.125 64.078125 
Q 24.65625 74.21875 41.21875 74.21875 
Q 47.75 74.21875 53.53125 72.484375 
Q 59.328125 70.75 64.40625 67.28125 
z
" id="DejaVuSans-43"/>
     </defs>
     <g transform="translate(508.427656 407.353095)scale(0.1 -0.1)">
      <use xlink:href="#DejaVuSans-25"/>
      <use x="95.019531" xlink:href="#DejaVuSans-20"/>
      <use x="126.806641" xlink:href="#DejaVuSans-47"/>
      <use x="204.296875" xlink:href="#DejaVuSans-43"/>
     </g>
    </g>
   </g>
   <g id="matplotlib.axis_2">
    <g id="ytick_1">
     <g id="line2d_1">
      <path clip-path="url(#p3be8e1eae2)" d="M 58.418125 381.012157 
L 985.848125 381.012157 
" style="fill:none;stroke:#dedede;stroke-linecap:square;"/>
     </g>
     <g id="text_8">
      <!-- 0 -->
      <g transform="translate(46.328125 384.051532)scale(0.08 -0.08)">
       <use xlink:href="#DejaVuSans-30"/>
      </g>
     </g>
    </g>
    <g id="ytick_2">
     <g id="line2d_2">
      <path clip-path="url(#p3be8e1eae2)" d="M 58.418125 342.713407 
L 985.848125 342.713407 
" style="fill:none;stroke:#dedede;stroke-linecap:square;"/>
     </g>
     <g id="text_9">
      <!-- 100000 -->
      <g transform="translate(20.878125 345.752782)scale(0.08 -0.08)">
       <use xlink:href="#DejaVuSans-31"/>
       <use x="63.623047" xlink:href="#DejaVuSans-30"/>
       <use x="127.246094" xlink:href="#DejaVuSans-30"/>
       <use x="190.869141" xlink:href="#DejaVuSans-30"/>
       <use x="254.492188" xlink:href="#DejaVuSans-30"/>
       <use x="318.115234" xlink:href="#DejaVuSans-30"/>
      </g>
     </g>
    </g>
    <g id="ytick_3">
     <g id="line2d_3">
      <path clip-path="url(#p3be8e1eae2)" d="M 58.418125 304.414656 
L 985.848125 304.414656 
" style="fill:none;stroke:#dedede;stroke-linecap:square;"/>
     </g>
     <g id="text_10">
      <!-- 200000 -->
      <g transform="translate(20.878125 307.454031)scale(0.08 -0.08)">
       <use xlink:href="#DejaVuSans-32"/>
       <use x="63.623047" xlink:href="#DejaVuSans-30"/>
       <use x="127.246094" xlink:href="#DejaVuSans-30"/>
       <use x="190.869141" xlink:href="#DejaVuSans-30"/>
       <use x="254.492188" xlink:href="#DejaVuSans-30"/>
       <use x="318.115234" xlink:href="#DejaVuSans-30"/>
      </g>
     </g>
    </g>
    <g id="ytick_4">
     <g id="line2d_4">
      <path clip-path="url(#p3be8e1eae2)" d="M 58.418125 266.115905 
L 985.848125 266.115905 
" style="fill:none;stroke:#dedede;stroke-linecap:square;"/>
     </g>
     <g id="text_11">
      <!-- 300000 -->
      <defs>
       <path d="M 40.578125 39.3125 
Q 47.65625 37.796875 51.625 33 
Q 55.609375 28.21875 55.609375 21.1875 
Q 55.609375 10.40625 48.1875 4.484375 
Q 40.765625 -1.421875 27.09375 -1.421875 
Q 22.515625 -1.421875 17.65625 -0.515625 
Q 12.796875 0.390625 7.625 2.203125 
L 7.625 11.71875 
Q 11.71875 9.328125 16.59375 8.109375 
Q 21.484375 6.890625 26.8125 6.890625 
Q 36.078125 6.890625 40.9375 10.546875 
Q 45.796875 14.203125 45.796875 21.1875 
Q 45.796875 27.640625 41.28125 31.265625 
Q 36.765625 34.90625 28.71875 34.90625 
L 20.21875 34.90625 
L 20.21875 43.015625 
L 29.109375 43.015625 
Q 36.375 43.015625 40.234375 45.921875 
Q 44.09375 48.828125 44.09375 54.296875 
Q 44.09375 59.90625 40.109375 62.90625 
Q 36.140625 65.921875 28.71875 65.921875 
Q 24.65625 65.921875 20.015625 65.03125 
Q 15.375 64.15625 9.8125 62.3125 
L 9.8125 71.09375 
Q 15.4375 72.65625 20.34375 73.4375 
Q 25.25 74.21875 29.59375 74.21875 
Q 40.828125 74.21875 47.359375 69.109375 
Q 53.90625 64.015625 53.90625 55.328125 
Q 53.90625 49.265625 50.4375 45.09375 
Q 46.96875 40.921875 40.578125 39.3125 
z
" id="DejaVuSans-33"/>
      </defs>
      <g transform="translate(20.878125 269.15528)scale(0.08 -0.08)">
       <use xlink:href="#DejaVuSans-33"/>
       <use x="63.623047" xlink:href="#DejaVuSans-30"/>
       <use x="127.246094" xlink:href="#DejaVuSans-30"/>
       <use x="190.869141" xlink:href="#DejaVuSans-30"/>
       <use x="254.492188" xlink:href="#DejaVuSans-30"/>
       <use x="318.115234" xlink:href="#DejaVuSans-30"/>
      </g>
     </g>
    </g>
    <g id="ytick_5">
     <g id="line2d_5">
      <path clip-path="url(#p3be8e1eae2)" d="M 58.418125 227.817155 
L 985.848125 227.817155 
" style="fill:none;stroke:#dedede;stroke-linecap:square;"/>
     </g>
     <g id="text_12">
      <!-- 400000 -->
      <g transform="translate(20.878125 230.85653)scale(0.08 -0.08)">
       <use xlink:href="#DejaVuSans-34"/>
       <use x="63.623047" xlink:href="#DejaVuSans-30"/>
       <use x="127.246094" xlink:href="#DejaVuSans-30"/>
       <use x="190.869141" xlink:href="#DejaVuSans-30"/>
       <use x="254.492188" xlink:href="#DejaVuSans-30"/>
       <use x="318.115234" xlink:href="#DejaVuSans-30"/>
      </g>
     </g>
    </g>
    <g id="ytick_6">
     <g id="line2d_6">
      <path clip-path="url(#p3be8e1eae2)" d="M 58.418125 189.518404 
L 985.848125 189.518404 
" style="fill:none;stroke:#dedede;stroke-linecap:square;"/>
     </g>
     <g id="text_13">
      <!-- 500000 -->
      <defs>
       <path d="M 10.796875 72.90625 
L 49.515625 72.90625 
L 49.515625 64.59375 
L 19.828125 64.59375 
L 19.828125 46.734375 
Q 21.96875 47.46875 24.109375 47.828125 
Q 26.265625 48.1875 28.421875 48.1875 
Q 40.625 48.1875 47.75 41.5 
Q 54.890625 34.8125 54.890625 23.390625 
Q 54.890625 11.625 47.5625 5.09375 
Q 40.234375 -1.421875 26.90625 -1.421875 
Q 22.3125 -1.421875 17.546875 -0.640625 
Q 12.796875 0.140625 7.71875 1.703125 
L 7.71875 11.625 
Q 12.109375 9.234375 16.796875 8.0625 
Q 21.484375 6.890625 26.703125 6.890625 
Q 35.15625 6.890625 40.078125 11.328125 
Q 45.015625 15.765625 45.015625 23.390625 
Q 45.015625 31 40.078125 35.4375 
Q 35.15625 39.890625 26.703125 39.890625 
Q 22.75 39.890625 18.8125 39.015625 
Q 14.890625 38.140625 10.796875 36.28125 
z
" id="DejaVuSans-35"/>
      </defs>
      <g transform="translate(20.878125 192.557779)scale(0.08 -0.08)">
       <use xlink:href="#DejaVuSans-35"/>
       <use x="63.623047" xlink:href="#DejaVuSans-30"/>
       <use x="127.246094" xlink:href="#DejaVuSans-30"/>
       <use x="190.869141" xlink:href="#DejaVuSans-30"/>
       <use x="254.492188" xlink:href="#DejaVuSans-30"/>
       <use x="318.115234" xlink:href="#DejaVuSans-30"/>
      </g>
     </g>
    </g>
    <g id="ytick_7">
     <g id="line2d_7">
      <path clip-path="url(#p3be8e1eae2)" d="M 58.418125 151.219653 
L 985.848125 151.219653 
" style="fill:none;stroke:#dedede;stroke-linecap:square;"/>
     </g>
     <g id="text_14">
      <!-- 600000 -->
      <g transform="translate(20.878125 154.259028)scale(0.08 -0.08)">
       <use xlink:href="#DejaVuSans-36"/>
       <use x="63.623047" xlink:href="#DejaVuSans-30"/>
       <use x="127.246094" xlink:href="#DejaVuSans-30"/>
       <use x="190.869141" xlink:href="#DejaVuSans-30"/>
       <use x="254.492188" xlink:href="#DejaVuSans-30"/>
       <use x="318.115234" xlink:href="#DejaVuSans-30"/>
      </g>
     </g>
    </g>
    <g id="ytick_8">
     <g id="line2d_8">
      <path clip-path="url(#p3be8e1eae2)" d="M 58.418125 112.920902 
L 985.848125 112.920902 
" style="fill:none;stroke:#dedede;stroke-linecap:square;"/>
     </g>
     <g id="text_15">
      <!-- 700000 -->
      <defs>
       <path d="M 8.203125 72.90625 
L 55.078125 72.90625 
L 55.078125 68.703125 
L 28.609375 0 
L 18.3125 0 
L 43.21875 64.59375 
L 8.203125 64.59375 
z
" id="DejaVuSans-37"/>
      </defs>
      <g transform="translate(20.878125 115.960277)scale(0.08 -0.08)">
       <use xlink:href="#DejaVuSans-37"/>
       <use x="63.623047" xlink:href="#DejaVuSans-30"/>
       <use x="127.246094" xlink:href="#DejaVuSans-30"/>
       <use x="190.869141" xlink:href="#DejaVuSans-30"/>
       <use x="254.492188" xlink:href="#DejaVuSans-30"/>
       <use x="318.115234" xlink:href="#DejaVuSans-30"/>
      </g>
     </g>
    </g>
    <g id="ytick_9">
     <g id="line2d_9">
      <path clip-path="url(#p3be8e1eae2)" d="M 58.418125 74.622152 
L 985.848125 74.622152 
" style="fill:none;stroke:#dedede;stroke-linecap:square;"/>
     </g>
     <g id="text_16">
      <!-- 800000 -->
      <g transform="translate(20.878125 77.661527)scale(0.08 -0.08)">
       <use xlink:href="#DejaVuSans-38"/>
       <use x="63.623047" xlink:href="#DejaVuSans-30"/>
       <use x="127.246094" xlink:href="#DejaVuSans-30"/>
       <use x="190.869141" xlink:href="#DejaVuSans-30"/>
       <use x="254.492188" xlink:href="#DejaVuSans-30"/>
       <use x="318.115234" xlink:href="#DejaVuSans-30"/>
      </g>
     </g>
    </g>
    <g id="ytick_10">
     <g id="line2d_10">
      <path clip-path="url(#p3be8e1eae2)" d="M 58.418125 36.323401 
L 985.848125 36.323401 
" style="fill:none;stroke:#dedede;stroke-linecap:square;"/>
     </g>
     <g id="text_17">
      <!-- 900000 -->
      <defs>
       <path d="M 10.984375 1.515625 
L 10.984375 10.5 
Q 14.703125 8.734375 18.5 7.8125 
Q 22.3125 6.890625 25.984375 6.890625 
Q 35.75 6.890625 40.890625 13.453125 
Q 46.046875 20.015625 46.78125 33.40625 
Q 43.953125 29.203125 39.59375 26.953125 
Q 35.25 24.703125 29.984375 24.703125 
Q 19.046875 24.703125 12.671875 31.3125 
Q 6.296875 37.9375 6.296875 49.421875 
Q 6.296875 60.640625 12.9375 67.421875 
Q 19.578125 74.21875 30.609375 74.21875 
Q 43.265625 74.21875 49.921875 64.515625 
Q 56.59375 54.828125 56.59375 36.375 
Q 56.59375 19.140625 48.40625 8.859375 
Q 40.234375 -1.421875 26.421875 -1.421875 
Q 22.703125 -1.421875 18.890625 -0.6875 
Q 15.09375 0.046875 10.984375 1.515625 
z
M 30.609375 32.421875 
Q 37.25 32.421875 41.125 36.953125 
Q 45.015625 41.5 45.015625 49.421875 
Q 45.015625 57.28125 41.125 61.84375 
Q 37.25 66.40625 30.609375 66.40625 
Q 23.96875 66.40625 20.09375 61.84375 
Q 16.21875 57.28125 16.21875 49.421875 
Q 16.21875 41.5 20.09375 36.953125 
Q 23.96875 32.421875 30.609375 32.421875 
z
" id="DejaVuSans-39"/>
      </defs>
      <g transform="translate(20.878125 39.362776)scale(0.08 -0.08)">
       <use xlink:href="#DejaVuSans-39"/>
       <use x="63.623047" xlink:href="#DejaVuSans-30"/>
       <use x="127.246094" xlink:href="#DejaVuSans-30"/>
       <use x="190.869141" xlink:href="#DejaVuSans-30"/>
       <use x="254.492188" xlink:href="#DejaVuSans-30"/>
       <use x="318.115234" xlink:href="#DejaVuSans-30"/>
      </g>
     </g>
    </g>
    <g id="text_18">
     <!-- Count -->
     <defs>
      <path d="M 30.609375 48.390625 
Q 23.390625 48.390625 19.1875 42.75 
Q 14.984375 37.109375 14.984375 27.296875 
Q 14.984375 17.484375 19.15625 11.84375 
Q 23.34375 6.203125 30.609375 6.203125 
Q 37.796875 6.203125 41.984375 11.859375 
Q 46.1875 17.53125 46.1875 27.296875 
Q 46.1875 37.015625 41.984375 42.703125 
Q 37.796875 48.390625 30.609375 48.390625 
z
M 30.609375 56 
Q 42.328125 56 49.015625 48.375 
Q 55.71875 40.765625 55.71875 27.296875 
Q 55.71875 13.875 49.015625 6.21875 
Q 42.328125 -1.421875 30.609375 -1.421875 
Q 18.84375 -1.421875 12.171875 6.21875 
Q 5.515625 13.875 5.515625 27.296875 
Q 5.515625 40.765625 12.171875 48.375 
Q 18.84375 56 30.609375 56 
z
" id="DejaVuSans-6f"/>
      <path d="M 8.5 21.578125 
L 8.5 54.6875 
L 17.484375 54.6875 
L 17.484375 21.921875 
Q 17.484375 14.15625 20.5 10.265625 
Q 23.53125 6.390625 29.59375 6.390625 
Q 36.859375 6.390625 41.078125 11.03125 
Q 45.3125 15.671875 45.3125 23.6875 
L 45.3125 54.6875 
L 54.296875 54.6875 
L 54.296875 0 
L 45.3125 0 
L 45.3125 8.40625 
Q 42.046875 3.421875 37.71875 1 
Q 33.40625 -1.421875 27.6875 -1.421875 
Q 18.265625 -1.421875 13.375 4.4375 
Q 8.5 10.296875 8.5 21.578125 
z
M 31.109375 56 
z
" id="DejaVuSans-75"/>
      <path d="M 54.890625 33.015625 
L 54.890625 0 
L 45.90625 0 
L 45.90625 32.71875 
Q 45.90625 40.484375 42.875 44.328125 
Q 39.84375 48.1875 33.796875 48.1875 
Q 26.515625 48.1875 22.3125 43.546875 
Q 18.109375 38.921875 18.109375 30.90625 
L 18.109375 0 
L 9.078125 0 
L 9.078125 54.6875 
L 18.109375 54.6875 
L 18.109375 46.1875 
Q 21.34375 51.125 25.703125 53.5625 
Q 30.078125 56 35.796875 56 
Q 45.21875 56 50.046875 50.171875 
Q 54.890625 44.34375 54.890625 33.015625 
z
" id="DejaVuSans-6e"/>
      <path d="M 18.3125 70.21875 
L 18.3125 54.6875 
L 36.8125 54.6875 
L 36.8125 47.703125 
L 18.3125 47.703125 
L 18.3125 18.015625 
Q 18.3125 11.328125 20.140625 9.421875 
Q 21.96875 7.515625 27.59375 7.515625 
L 36.8125 7.515625 
L 36.8125 0 
L 27.59375 0 
Q 17.1875 0 13.234375 3.875 
Q 9.28125 7.765625 9.28125 18.015625 
L 9.28125 47.703125 
L 2.6875 47.703125 
L 2.6875 54.6875 
L 9.28125 54.6875 
L 9.28125 70.21875 
z
" id="DejaVuSans-74"/>
     </defs>
     <g transform="translate(14.798438 223.644091)rotate(-90)scale(0.1 -0.1)">
      <use xlink:href="#DejaVuSans-43"/>
      <use x="69.824219" xlink:href="#DejaVuSans-6f"/>
      <use x="131.005859" xlink:href="#DejaVuSans-75"/>
      <use x="194.384766" xlink:href="#DejaVuSans-6e"/>
      <use x="257.763672" xlink:href="#DejaVuSans-74"/>
     </g>
    </g>
   </g>
   <g id="line2d_11">
    <path clip-path="url(#p3be8e1eae2)" d="M 58.418125 380.662107 
L 67.692425 380.703661 
L 76.966725 380.528253 
L 86.241025 380.316269 
L 95.515325 380.453953 
L 104.789625 380.444953 
L 114.063925 380.041284 
L 123.338225 378.846746 
L 132.612525 377.489055 
L 141.886825 377.461289 
L 151.161125 378.303861 
L 160.435425 378.65621 
L 169.709725 378.417034 
L 178.984025 378.127304 
L 188.258325 377.778785 
L 197.532625 377.461863 
L 206.806925 377.162176 
L 216.081225 376.787422 
L 225.355525 376.317688 
L 234.629825 375.688057 
L 243.904125 374.949274 
L 253.178425 374.015359 
L 262.452725 372.614965 
L 271.727025 370.67724 
L 281.001325 368.425465 
L 290.275625 365.411544 
L 299.549925 360.924654 
L 308.824225 355.323462 
L 318.098525 348.753886 
L 327.372825 340.568485 
L 336.647125 332.057545 
L 345.921425 323.496051 
L 355.195725 313.69023 
L 364.470025 302.840003 
L 373.744325 291.087457 
L 383.018625 279.601661 
L 392.292925 265.881325 
L 401.567225 251.061049 
L 410.841525 236.604994 
L 420.115825 221.32475 
L 429.390125 206.108082 
L 438.664425 190.684409 
L 447.938725 175.666512 
L 457.213025 158.724485 
L 466.487325 141.693796 
L 475.761625 126.949543 
L 485.035925 111.108988 
L 494.310225 95.694699 
L 503.584525 82.752402 
L 512.858825 72.774428 
L 522.133125 68.700207 
L 531.407425 68.605609 
L 540.681725 72.871133 
L 549.956025 82.732104 
L 559.230325 96.551633 
L 568.504625 115.755393 
L 577.778925 139.654388 
L 587.053225 165.882138 
L 596.327525 192.463386 
L 605.601825 217.90831 
L 614.876125 242.817818 
L 624.150425 265.915794 
L 633.424725 286.23175 
L 642.699025 304.614575 
L 651.973325 320.543026 
L 661.247625 333.452577 
L 670.521925 343.779835 
L 679.796225 351.254028 
L 689.070525 356.771155 
L 698.344825 361.401474 
L 707.619125 364.911171 
L 716.893425 367.385079 
L 726.167725 369.475616 
L 735.442025 371.723178 
L 744.716325 373.339577 
L 753.990625 374.579308 
L 763.264925 375.594991 
L 772.539225 376.408648 
L 781.813525 377.059343 
L 791.087825 377.558185 
L 800.362125 377.972003 
L 809.636425 378.280691 
L 818.910725 378.53959 
L 828.185025 378.776851 
L 837.459325 378.983664 
L 846.733625 379.133795 
L 856.007925 379.30614 
L 865.282225 379.481165 
L 874.556525 379.664807 
L 883.830825 379.844046 
L 893.105125 380.004134 
L 902.379425 380.188351 
L 911.653725 380.376973 
L 920.928025 380.51638 
L 930.202325 380.619212 
L 939.476625 380.702321 
L 948.750925 380.776429 
L 958.025225 380.847856 
L 967.299525 380.89707 
L 976.573825 380.936326 
L 985.848125 380.973476 
" style="fill:none;stroke:#f0ad4e;stroke-linecap:square;"/>
   </g>
   <g id="line2d_12">
    <path clip-path="url(#p3be8e1eae2)" d="M 58.418125 380.683171 
L 67.692425 380.727598 
L 76.966725 380.554487 
L 86.241025 380.358972 
L 95.515325 380.471762 
L 104.789625 380.451272 
L 114.063925 380.106966 
L 123.338225 379.13437 
L 132.612525 377.960896 
L 141.886825 377.902682 
L 151.161125 378.578272 
L 160.435425 378.771872 
L 169.709725 378.507228 
L 178.984025 378.215008 
L 188.258325 377.90249 
L 197.532625 377.626165 
L 206.806925 377.290668 
L 216.081225 376.887573 
L 225.355525 376.439095 
L 234.629825 375.867869 
L 243.904125 375.176194 
L 253.178425 374.236342 
L 262.452725 372.950462 
L 271.727025 371.079568 
L 281.001325 368.752344 
L 290.275625 365.721381 
L 299.549925 361.333685 
L 308.824225 355.712003 
L 318.098525 348.992487 
L 327.372825 340.772426 
L 336.647125 332.27355 
L 345.921425 323.387091 
L 355.195725 313.116515 
L 364.470025 302.063879 
L 373.744325 290.016241 
L 383.018625 278.361356 
L 392.292925 264.681426 
L 401.567225 250.062792 
L 410.841525 235.98647 
L 420.115825 221.065276 
L 429.390125 206.524964 
L 438.664425 192.32034 
L 447.938725 178.470172 
L 457.213025 162.54153 
L 466.487325 146.647357 
L 475.761625 132.581566 
L 485.035925 117.676075 
L 494.310225 103.391407 
L 503.584525 90.853162 
L 512.858825 81.059023 
L 522.133125 76.145484 
L 531.407425 74.205078 
L 540.681725 76.077504 
L 549.956025 83.875896 
L 559.230325 95.841191 
L 568.504625 112.850624 
L 577.778925 135.605635 
L 587.053225 162.409016 
L 596.327525 189.08716 
L 605.601825 214.329675 
L 614.876125 239.88107 
L 624.150425 263.528825 
L 633.424725 283.902994 
L 642.699025 302.375056 
L 651.973325 318.903073 
L 661.247625 332.152335 
L 670.521925 342.340185 
L 679.796225 349.44537 
L 689.070525 355.001944 
L 698.344825 359.518324 
L 707.619125 363.054639 
L 716.893425 365.45463 
L 726.167725 367.200862 
L 735.442025 369.37355 
L 744.716325 371.033801 
L 753.990625 372.213977 
L 763.264925 373.194616 
L 772.539225 374.176405 
L 781.813525 375.030084 
L 791.087825 375.767527 
L 800.362125 376.403286 
L 809.636425 376.913234 
L 818.910725 377.374159 
L 828.185025 377.851745 
L 837.459325 378.277052 
L 846.733625 378.536909 
L 856.007925 378.82032 
L 865.282225 379.174775 
L 874.556525 379.487293 
L 883.830825 379.752129 
L 893.105125 379.990347 
L 902.379425 380.181458 
L 911.653725 380.354568 
L 920.928025 380.523848 
L 930.202325 380.651383 
L 939.476625 380.747896 
L 948.750925 380.831196 
L 958.025225 380.891899 
L 967.299525 380.933071 
L 976.573825 380.969837 
L 985.848125 380.993774 
" style="fill:none;stroke:#f0ad4e;stroke-linecap:square;"/>
   </g>
   <g id="line2d_13">
    <path clip-path="url(#p3be8e1eae2)" d="M 58.418125 380.240438 
L 67.692425 380.458932 
L 76.966725 380.484784 
L 86.241025 380.324503 
L 95.515325 380.513891 
L 104.789625 380.510061 
L 114.063925 380.098541 
L 123.338225 378.904194 
L 132.612525 377.669634 
L 141.886825 377.848106 
L 151.161125 378.838129 
L 160.435425 379.379673 
L 169.709725 379.297331 
L 178.984025 379.10239 
L 188.258325 378.950727 
L 197.532625 378.794277 
L 206.806925 378.565059 
L 216.081225 378.355373 
L 225.355525 378.13324 
L 234.629825 377.79736 
L 243.904125 377.394457 
L 253.178425 376.876084 
L 262.452725 376.087321 
L 271.727025 374.941997 
L 281.001325 373.568795 
L 290.275625 371.546621 
L 299.549925 368.504168 
L 308.824225 364.599036 
L 318.098525 359.867034 
L 327.372825 353.820236 
L 336.647125 347.127338 
L 345.921425 340.178221 
L 355.195725 332.250188 
L 364.470025 323.785781 
L 373.744325 314.921535 
L 383.018625 306.541769 
L 392.292925 297.696481 
L 401.567225 288.617187 
L 410.841525 279.87454 
L 420.115825 271.038827 
L 429.390125 262.371436 
L 438.664425 253.55583 
L 447.938725 245.042401 
L 457.213025 233.453965 
L 466.487325 220.360196 
L 475.761625 210.573334 
L 485.035925 198.11992 
L 494.310225 185.64506 
L 503.584525 174.903218 
L 512.858825 166.248657 
L 522.133125 161.718107 
L 531.407425 161.631743 
L 540.681725 161.481229 
L 549.956025 160.266009 
L 559.230325 166.695221 
L 568.504625 174.710383 
L 577.778925 183.209068 
L 587.053225 195.770675 
L 596.327525 206.941654 
L 605.601825 221.96951 
L 614.876125 243.728945 
L 624.150425 266.410423 
L 633.424725 285.76642 
L 642.699025 304.88056 
L 651.973325 321.427919 
L 661.247625 331.143163 
L 670.521925 340.509122 
L 679.796225 349.356325 
L 689.070525 355.355824 
L 698.344825 359.850183 
L 707.619125 363.546395 
L 716.893425 365.778255 
L 726.167725 367.277651 
L 735.442025 368.33125 
L 744.716325 370.692751 
L 753.990625 372.800714 
L 763.264925 374.233279 
L 772.539225 375.461137 
L 781.813525 376.41018 
L 791.087825 377.35501 
L 800.362125 377.768828 
L 809.636425 377.953236 
L 818.910725 378.265754 
L 828.185025 378.489419 
L 837.459325 378.577123 
L 846.733625 378.647401 
L 856.007925 378.693743 
L 865.282225 378.753297 
L 874.556525 378.872023 
L 883.830825 379.03575 
L 893.105125 379.244287 
L 902.379425 379.515634 
L 911.653725 379.773001 
L 920.928025 380.00739 
L 930.202325 380.210756 
L 939.476625 380.377164 
L 948.750925 380.529593 
L 958.025225 380.656362 
L 967.299525 380.753258 
L 976.573825 380.826217 
L 985.848125 380.906836 
" style="fill:none;stroke:#f0ad4e;stroke-linecap:square;"/>
   </g>
   <g id="line2d_14">
    <path clip-path="url(#p3be8e1eae2)" d="M 58.418125 380.201756 
L 67.692425 380.452804 
L 76.966725 380.542615 
L 86.241025 380.388654 
L 95.515325 380.488614 
L 104.789625 380.466592 
L 114.063925 380.160776 
L 123.338225 379.221691 
L 132.612525 378.226881 
L 141.886825 378.306925 
L 151.161125 379.024835 
L 160.435425 379.388099 
L 169.709725 379.306714 
L 178.984025 379.171711 
L 188.258325 379.001473 
L 197.532625 378.856321 
L 206.806925 378.683402 
L 216.081225 378.435418 
L 225.355525 378.182263 
L 234.629825 377.906895 
L 243.904125 377.492885 
L 253.178425 376.868424 
L 262.452725 376.026235 
L 271.727025 374.829016 
L 281.001325 373.290746 
L 290.275625 371.210741 
L 299.549925 368.164459 
L 308.824225 364.228304 
L 318.098525 359.550878 
L 327.372825 353.621657 
L 336.647125 346.930482 
L 345.921425 339.619442 
L 355.195725 331.601599 
L 364.470025 323.294025 
L 373.744325 314.124538 
L 383.018625 305.661855 
L 392.292925 296.653414 
L 401.567225 287.42782 
L 410.841525 278.962647 
L 420.115825 270.128274 
L 429.390125 261.382563 
L 438.664425 252.651213 
L 447.938725 244.455089 
L 457.213025 233.092233 
L 466.487325 220.203171 
L 475.761625 210.744146 
L 485.035925 198.701104 
L 494.310225 186.719148 
L 503.584525 176.361059 
L 512.858825 168.094849 
L 522.133125 163.800218 
L 531.407425 164.668642 
L 540.681725 165.686815 
L 549.956025 164.2914 
L 559.230325 170.084086 
L 568.504625 177.916563 
L 577.778925 186.355884 
L 587.053225 198.885704 
L 596.327525 209.40369 
L 605.601825 223.602377 
L 614.876125 244.907398 
L 624.150425 266.816006 
L 633.424725 285.190598 
L 642.699025 303.670894 
L 651.973325 320.360149 
L 661.247625 330.163672 
L 670.521925 339.231859 
L 679.796225 347.922037 
L 689.070525 354.114945 
L 698.344825 358.424129 
L 707.619125 361.544902 
L 716.893425 363.703037 
L 726.167725 365.476078 
L 735.442025 366.517038 
L 744.716325 368.443848 
L 753.990625 370.413553 
L 763.264925 372.166869 
L 772.539225 373.753012 
L 781.813525 374.868655 
L 791.087825 375.861167 
L 800.362125 376.570843 
L 809.636425 377.088642 
L 818.910725 377.591505 
L 828.185025 378.035962 
L 837.459325 378.375671 
L 846.733625 378.671338 
L 856.007925 378.915301 
L 865.282225 379.149881 
L 874.556525 379.376035 
L 883.830825 379.600466 
L 893.105125 379.814556 
L 902.379425 380.030943 
L 911.653725 380.22282 
L 920.928025 380.38042 
L 930.202325 380.541657 
L 939.476625 380.672448 
L 948.750925 380.771258 
L 958.025225 380.863175 
L 967.299525 380.925602 
L 976.573825 380.960646 
L 985.848125 380.988987 
" style="fill:none;stroke:#f0ad4e;stroke-linecap:square;"/>
   </g>
   <g id="line2d_15">
    <path clip-path="url(#p3be8e1eae2)" d="M 58.418125 380.842111 
L 67.692425 380.871027 
L 76.966725 380.796918 
L 86.241025 380.704044 
L 95.515325 380.780067 
L 104.789625 380.778535 
L 114.063925 380.572679 
L 123.338225 380.095477 
L 132.612525 379.362056 
L 141.886825 379.091092 
L 151.161125 379.474654 
L 160.435425 379.693723 
L 169.709725 379.558528 
L 178.984025 379.377375 
L 188.258325 379.204456 
L 197.532625 379.02924 
L 206.806925 378.808064 
L 216.081225 378.544377 
L 225.355525 378.247754 
L 234.629825 377.9563 
L 243.904125 377.589973 
L 253.178425 377.092472 
L 262.452725 376.419754 
L 271.727025 375.453668 
L 281.001325 374.301642 
L 290.275625 372.681413 
L 299.549925 370.207505 
L 308.824225 366.877621 
L 318.098525 362.778505 
L 327.372825 357.199335 
L 336.647125 350.748676 
L 345.921425 343.766239 
L 355.195725 335.380728 
L 364.470025 326.317712 
L 373.744325 316.399676 
L 383.018625 306.835712 
L 392.292925 296.277129 
L 401.567225 284.756482 
L 410.841525 273.142577 
L 420.115825 260.777634 
L 429.390125 248.43701 
L 438.664425 235.961767 
L 447.938725 223.495141 
L 457.213025 209.174855 
L 466.487325 194.703289 
L 475.761625 181.794695 
L 485.035925 168.045635 
L 494.310225 154.278574 
L 503.584525 142.954974 
L 512.858825 134.4358 
L 522.133125 130.160893 
L 531.407425 128.735222 
L 540.681725 130.806993 
L 549.956025 137.62149 
L 559.230325 148.403737 
L 568.504625 163.199694 
L 577.778925 180.845077 
L 587.053225 200.29663 
L 596.327525 221.400582 
L 605.601825 241.852306 
L 614.876125 261.533268 
L 624.150425 280.041523 
L 633.424725 296.992358 
L 642.699025 313.013683 
L 651.973325 326.477609 
L 661.247625 337.481223 
L 670.521925 346.42762 
L 679.796225 353.04258 
L 689.070525 357.495959 
L 698.344825 361.424644 
L 707.619125 364.398542 
L 716.893425 366.472994 
L 726.167725 368.472763 
L 735.442025 370.483831 
L 744.716325 371.981887 
L 753.990625 372.981484 
L 763.264925 373.896441 
L 772.539225 374.80527 
L 781.813525 375.40771 
L 791.087825 375.898508 
L 800.362125 376.296624 
L 809.636425 376.614503 
L 818.910725 376.922617 
L 828.185025 377.197602 
L 837.459325 377.400777 
L 846.733625 377.565844 
L 856.007925 377.807701 
L 865.282225 378.03443 
L 874.556525 378.295436 
L 883.830825 378.558931 
L 893.105125 378.890024 
L 902.379425 379.296756 
L 911.653725 379.654658 
L 920.928025 379.959899 
L 930.202325 380.196969 
L 939.476625 380.395356 
L 948.750925 380.573637 
L 958.025225 380.699065 
L 967.299525 380.785237 
L 976.573825 380.86892 
L 985.848125 380.937858 
" style="fill:none;stroke:#f0ad4e;stroke-linecap:square;"/>
   </g>
   <g id="line2d_16">
    <path clip-path="url(#p3be8e1eae2)" d="M 58.418125 380.847856 
L 67.692425 380.877537 
L 76.966725 380.840196 
L 86.241025 380.766662 
L 95.515325 380.801514 
L 104.789625 380.783131 
L 114.063925 380.608106 
L 123.338225 380.238714 
L 132.612525 379.65485 
L 141.886825 379.416631 
L 151.161125 379.685489 
L 160.435425 379.791768 
L 169.709725 379.637998 
L 178.984025 379.478867 
L 188.258325 379.319736 
L 197.532625 379.112539 
L 206.806925 378.859385 
L 216.081225 378.622507 
L 225.355525 378.337181 
L 234.629825 378.013174 
L 243.904125 377.630761 
L 253.178425 377.13843 
L 262.452725 376.458053 
L 271.727025 375.475116 
L 281.001325 374.311025 
L 290.275625 372.625306 
L 299.549925 370.046076 
L 308.824225 366.640551 
L 318.098525 362.413518 
L 327.372825 356.791645 
L 336.647125 350.379476 
L 345.921425 343.421934 
L 355.195725 334.838035 
L 364.470025 325.38552 
L 373.744325 315.472463 
L 383.018625 305.794177 
L 392.292925 295.066122 
L 401.567225 283.207872 
L 410.841525 271.45207 
L 420.115825 259.61948 
L 429.390125 247.805081 
L 438.664425 235.909106 
L 447.938725 224.337522 
L 457.213025 211.082324 
L 466.487325 197.798977 
L 475.761625 186.084729 
L 485.035925 173.56774 
L 494.310225 161.384524 
L 503.584525 150.644597 
L 512.858825 141.73918 
L 522.133125 136.669 
L 531.407425 134.455524 
L 540.681725 135.453781 
L 549.956025 141.35964 
L 559.230325 150.489679 
L 568.504625 163.42221 
L 577.778925 180.707776 
L 587.053225 200.968773 
L 596.327525 221.516819 
L 605.601825 240.733791 
L 614.876125 259.973552 
L 624.150425 279.051883 
L 633.424725 296.187318 
L 642.699025 311.376986 
L 651.973325 324.779059 
L 661.247625 335.824993 
L 670.521925 344.76622 
L 679.796225 351.070769 
L 689.070525 355.672747 
L 698.344825 359.40247 
L 707.619125 362.492797 
L 716.893425 364.460586 
L 726.167725 365.838958 
L 735.442025 367.492124 
L 744.716325 368.812282 
L 753.990625 369.840412 
L 763.264925 370.693134 
L 772.539225 371.64007 
L 781.813525 372.553878 
L 791.087825 373.29381 
L 800.362125 373.952549 
L 809.636425 374.622585 
L 818.910725 375.225025 
L 828.185025 375.893338 
L 837.459325 376.506309 
L 846.733625 376.939277 
L 856.007925 377.355967 
L 865.282225 377.855 
L 874.556525 378.401715 
L 883.830825 378.861491 
L 893.105125 379.231074 
L 902.379425 379.583997 
L 911.653725 379.912217 
L 920.928025 380.197735 
L 930.202325 380.393824 
L 939.476625 380.555253 
L 948.750925 380.716683 
L 958.025225 380.821047 
L 967.299525 380.894772 
L 976.573825 380.94705 
L 985.848125 380.984391 
" style="fill:none;stroke:#f0ad4e;stroke-linecap:square;"/>
   </g>
   <g id="line2d_17">
    <path clip-path="url(#p3be8e1eae2)" d="M 58.418125 380.77662 
L 67.692425 380.822962 
L 76.966725 380.771833 
L 86.241025 380.692937 
L 95.515325 380.780067 
L 104.789625 380.784471 
L 114.063925 380.5587 
L 123.338225 379.839641 
L 132.612525 379.096071 
L 141.886825 379.117901 
L 151.161125 379.563316 
L 160.435425 379.759022 
L 169.709725 379.622679 
L 178.984025 379.448802 
L 188.258325 379.297522 
L 197.532625 379.123455 
L 206.806925 378.888683 
L 216.081225 378.658508 
L 225.355525 378.42546 
L 234.629825 378.094367 
L 243.904125 377.700464 
L 253.178425 377.125217 
L 262.452725 376.287815 
L 271.727025 375.130427 
L 281.001325 373.534901 
L 290.275625 371.320276 
L 299.549925 368.142054 
L 308.824225 363.923446 
L 318.098525 358.848479 
L 327.372825 352.311457 
L 336.647125 344.630259 
L 345.921425 336.423986 
L 355.195725 327.022983 
L 364.470025 316.846813 
L 373.744325 306.20608 
L 383.018625 296.016123 
L 392.292925 285.284239 
L 401.567225 273.953553 
L 410.841525 263.18088 
L 420.115825 252.312844 
L 429.390125 241.239909 
L 438.664425 229.800264 
L 447.938725 218.694201 
L 457.213025 204.854947 
L 466.487325 188.636767 
L 475.761625 175.412016 
L 485.035925 161.166413 
L 494.310225 148.337098 
L 503.584525 136.254608 
L 512.858825 125.560448 
L 522.133125 116.618455 
L 531.407425 118.318345 
L 540.681725 128.718563 
L 549.956025 135.613487 
L 559.230325 147.273541 
L 568.504625 160.669104 
L 577.778925 173.668849 
L 587.053225 189.77558 
L 596.327525 204.87333 
L 605.601825 224.193327 
L 614.876125 248.788976 
L 624.150425 273.078235 
L 633.424725 293.676261 
L 642.699025 312.592205 
L 651.973325 328.464739 
L 661.247625 337.462457 
L 670.521925 346.155315 
L 679.796225 354.280204 
L 689.070525 359.854013 
L 698.344825 364.049258 
L 707.619125 367.198564 
L 716.893425 369.056053 
L 726.167725 370.661346 
L 735.442025 371.071142 
L 744.716325 372.794586 
L 753.990625 374.6988 
L 763.264925 375.916126 
L 772.539225 376.974512 
L 781.813525 377.781083 
L 791.087825 378.64338 
L 800.362125 379.11139 
L 809.636425 379.379673 
L 818.910725 379.654275 
L 828.185025 379.861854 
L 837.459325 380.022326 
L 846.733625 380.173606 
L 856.007925 380.268779 
L 865.282225 380.385973 
L 874.556525 380.488805 
L 883.830825 380.56119 
L 893.105125 380.649851 
L 902.379425 380.74579 
L 911.653725 380.811663 
L 920.928025 380.849962 
L 930.202325 380.885772 
L 939.476625 380.923879 
L 948.750925 380.945518 
L 958.025225 380.961986 
L 967.299525 380.979795 
L 976.573825 380.995689 
L 985.848125 381.007179 
" style="fill:none;stroke:#5cb85c;stroke-linecap:square;"/>
   </g>
   <g id="line2d_18">
    <path clip-path="url(#p3be8e1eae2)" d="M 58.418125 380.767811 
L 67.692425 380.820472 
L 76.966725 380.792706 
L 86.241025 380.710938 
L 95.515325 380.760152 
L 104.789625 380.743683 
L 114.063925 380.574977 
L 123.338225 380.052008 
L 132.612525 379.451675 
L 141.886825 379.412227 
L 151.161125 379.721873 
L 160.435425 379.854386 
L 169.709725 379.746958 
L 178.984025 379.59338 
L 188.258325 379.419504 
L 197.532625 379.233755 
L 206.806925 379.035367 
L 216.081225 378.816299 
L 225.355525 378.55242 
L 234.629825 378.204668 
L 243.904125 377.719805 
L 253.178425 377.089982 
L 262.452725 376.290687 
L 271.727025 375.085043 
L 281.001325 373.457346 
L 290.275625 371.161336 
L 299.549925 367.930453 
L 308.824225 363.810848 
L 318.098525 358.715965 
L 327.372825 352.066919 
L 336.647125 344.245931 
L 345.921425 335.826525 
L 355.195725 326.44831 
L 364.470025 316.076626 
L 373.744325 305.00484 
L 383.018625 294.186592 
L 392.292925 282.491494 
L 401.567225 270.60088 
L 410.841525 259.888911 
L 420.115825 249.088855 
L 429.390125 238.008835 
L 438.664425 226.952943 
L 447.938725 216.076864 
L 457.213025 202.560469 
L 466.487325 187.024581 
L 475.761625 174.843088 
L 485.035925 162.036561 
L 494.310225 150.046179 
L 503.584525 137.733705 
L 512.858825 126.825838 
L 522.133125 119.598864 
L 531.407425 124.610064 
L 540.681725 136.561189 
L 549.956025 141.732095 
L 559.230325 152.271337 
L 568.504625 166.112122 
L 577.778925 178.821371 
L 587.053225 194.323365 
L 596.327525 209.093661 
L 605.601825 227.074733 
L 614.876125 250.293351 
L 624.150425 274.207857 
L 633.424725 293.902223 
L 642.699025 311.808421 
L 651.973325 327.383183 
L 661.247625 336.195342 
L 670.521925 344.568598 
L 679.796225 352.753041 
L 689.070525 358.443278 
L 698.344825 362.460051 
L 707.619125 365.346819 
L 716.893425 367.39159 
L 726.167725 369.088224 
L 735.442025 369.485382 
L 744.716325 370.992821 
L 753.990625 372.645795 
L 763.264925 374.141936 
L 772.539225 375.643439 
L 781.813525 376.671952 
L 791.087825 377.595909 
L 800.362125 378.232817 
L 809.636425 378.653337 
L 818.910725 379.074432 
L 828.185025 379.444973 
L 837.459325 379.751554 
L 846.733625 379.985751 
L 856.007925 380.140286 
L 865.282225 380.297694 
L 874.556525 380.427144 
L 883.830825 380.511018 
L 893.105125 380.611936 
L 902.379425 380.70098 
L 911.653725 380.76379 
L 920.928025 380.822962 
L 930.202325 380.867963 
L 939.476625 380.904729 
L 948.750925 380.93939 
L 958.025225 380.966965 
L 967.299525 380.986306 
L 976.573825 380.996646 
L 985.848125 381.00354 
" style="fill:none;stroke:#5cb85c;stroke-linecap:square;"/>
   </g>
   <g id="line2d_19">
    <path clip-path="url(#p3be8e1eae2)" d="M 58.418125 380.271077 
L 67.692425 380.477698 
L 76.966725 380.500678 
L 86.241025 380.345951 
L 95.515325 380.501827 
L 104.789625 380.499529 
L 114.063925 380.133201 
L 123.338225 379.037282 
L 132.612525 377.971428 
L 141.886825 378.237413 
L 151.161125 379.187222 
L 160.435425 379.63953 
L 169.709725 379.548954 
L 178.984025 379.42027 
L 188.258325 379.297522 
L 197.532625 379.158115 
L 206.806925 379.016793 
L 216.081225 378.846172 
L 225.355525 378.598379 
L 234.629825 378.319372 
L 243.904125 378.003408 
L 253.178425 377.536929 
L 262.452725 376.944639 
L 271.727025 376.110492 
L 281.001325 375.031616 
L 290.275625 373.560178 
L 299.549925 371.376 
L 308.824225 368.508764 
L 318.098525 364.936448 
L 327.372825 360.278363 
L 336.647125 355.07452 
L 345.921425 349.617331 
L 355.195725 342.974987 
L 364.470025 335.993125 
L 373.744325 328.749874 
L 383.018625 321.926951 
L 392.292925 315.072624 
L 401.567225 307.340106 
L 410.841525 300.325307 
L 420.115825 293.873882 
L 429.390125 287.346626 
L 438.664425 280.574258 
L 447.938725 274.191388 
L 457.213025 267.448319 
L 466.487325 260.171556 
L 475.761625 253.354762 
L 485.035925 246.477838 
L 494.310225 240.401933 
L 503.584525 234.864316 
L 512.858825 230.119484 
L 522.133125 227.611873 
L 531.407425 226.658043 
L 540.681725 226.861984 
L 549.956025 228.946393 
L 559.230325 233.661352 
L 568.504625 241.832965 
L 577.778925 251.557401 
L 587.053225 262.421416 
L 596.327525 273.129555 
L 605.601825 284.9947 
L 614.876125 298.00536 
L 624.150425 309.646074 
L 633.424725 320.4333 
L 642.699025 331.053735 
L 651.973325 340.468334 
L 661.247625 348.260023 
L 670.521925 354.489315 
L 679.796225 358.951694 
L 689.070525 362.509456 
L 698.344825 364.376329 
L 707.619125 366.296054 
L 716.893425 367.608169 
L 726.167725 368.817835 
L 735.442025 370.374871 
L 744.716325 371.457194 
L 753.990625 372.141975 
L 763.264925 372.730244 
L 772.539225 373.492772 
L 781.813525 373.7938 
L 791.087825 373.994869 
L 800.362125 374.334387 
L 809.636425 374.374218 
L 818.910725 374.444688 
L 828.185025 374.653799 
L 837.459325 374.815037 
L 846.733625 374.947359 
L 856.007925 375.17696 
L 865.282225 375.501542 
L 874.556525 375.849103 
L 883.830825 376.276517 
L 893.105125 376.766549 
L 902.379425 377.331839 
L 911.653725 377.976215 
L 920.928025 378.55242 
L 930.202325 379.020431 
L 939.476625 379.456079 
L 948.750925 379.810534 
L 958.025225 380.068093 
L 967.299525 380.319716 
L 976.573825 380.542806 
L 985.848125 380.752875 
" style="fill:none;stroke:#f0ad4e;stroke-linecap:square;"/>
   </g>
   <g id="line2d_20">
    <path clip-path="url(#p3be8e1eae2)" d="M 58.418125 380.242736 
L 67.692425 380.472528 
L 76.966725 380.538593 
L 86.241025 380.388845 
L 95.515325 380.488997 
L 104.789625 380.476166 
L 114.063925 380.182989 
L 123.338225 379.304225 
L 132.612525 378.383523 
L 141.886825 378.544569 
L 151.161125 379.307672 
L 160.435425 379.66519 
L 169.709725 379.597976 
L 178.984025 379.448994 
L 188.258325 379.300778 
L 197.532625 379.190094 
L 206.806925 379.050495 
L 216.081225 378.872023 
L 225.355525 378.645678 
L 234.629825 378.378927 
L 243.904125 378.012025 
L 253.178425 377.509545 
L 262.452725 376.911702 
L 271.727025 376.091151 
L 281.001325 375.034871 
L 290.275625 373.489708 
L 299.549925 371.293083 
L 308.824225 368.281653 
L 318.098525 364.683102 
L 327.372825 360.115402 
L 336.647125 354.703788 
L 345.921425 349.281642 
L 355.195725 342.750365 
L 364.470025 335.493901 
L 373.744325 328.032347 
L 383.018625 321.181849 
L 392.292925 314.07858 
L 401.567225 306.10861 
L 410.841525 299.153365 
L 420.115825 292.922924 
L 429.390125 286.296474 
L 438.664425 279.565469 
L 447.938725 273.612694 
L 457.213025 266.850475 
L 466.487325 260.035979 
L 475.761625 253.819134 
L 485.035925 247.244004 
L 494.310225 241.719218 
L 503.584525 236.696337 
L 512.858825 232.465474 
L 522.133125 230.189188 
L 531.407425 229.237655 
L 540.681725 229.732092 
L 549.956025 232.71748 
L 559.230325 238.060921 
L 568.504625 245.798609 
L 577.778925 254.948564 
L 587.053225 265.415996 
L 596.327525 276.514016 
L 605.601825 287.390287 
L 614.876125 298.96168 
L 624.150425 310.308259 
L 633.424725 321.21019 
L 642.699025 331.280081 
L 651.973325 339.503971 
L 661.247625 347.193978 
L 670.521925 353.880365 
L 679.796225 358.196826 
L 689.070525 361.226448 
L 698.344825 363.4022 
L 707.619125 365.067047 
L 716.893425 366.040793 
L 726.167725 366.881259 
L 735.442025 367.816706 
L 744.716325 368.624427 
L 753.990625 369.145098 
L 763.264925 369.496298 
L 772.539225 370.197739 
L 781.813525 370.79654 
L 791.087825 371.359915 
L 800.362125 372.033015 
L 809.636425 372.421556 
L 818.910725 372.877311 
L 828.185025 373.555391 
L 837.459325 374.127383 
L 846.733625 374.558818 
L 856.007925 375.082745 
L 865.282225 375.669099 
L 874.556525 376.300454 
L 883.830825 376.970107 
L 893.105125 377.577717 
L 902.379425 378.112751 
L 911.653725 378.679381 
L 920.928025 379.211542 
L 930.202325 379.6267 
L 939.476625 379.997241 
L 948.750925 380.305928 
L 958.025225 380.534955 
L 967.299525 380.715151 
L 976.573825 380.858579 
L 985.848125 380.946667 
" style="fill:none;stroke:#f0ad4e;stroke-linecap:square;"/>
   </g>
   <g id="line2d_21">
    <path clip-path="url(#p3be8e1eae2)" d="M 58.418125 380.260353 
L 67.692425 380.464294 
L 76.966725 380.466592 
L 86.241025 380.28429 
L 95.515325 380.44323 
L 104.789625 380.428293 
L 114.063925 379.985751 
L 123.338225 378.440396 
L 132.612525 376.946554 
L 141.886825 377.165814 
L 151.161125 378.285286 
L 160.435425 378.889832 
L 169.709725 378.716147 
L 178.984025 378.5101 
L 188.258325 378.262307 
L 197.532625 378.010684 
L 206.806925 377.761742 
L 216.081225 377.459565 
L 225.355525 377.135366 
L 234.629825 376.705846 
L 243.904125 376.101683 
L 253.178425 375.361751 
L 262.452725 374.281726 
L 271.727025 372.733882 
L 281.001325 370.797881 
L 290.275625 368.010881 
L 299.549925 363.849147 
L 308.824225 358.337957 
L 318.098525 351.488034 
L 327.372825 342.291163 
L 336.647125 331.991671 
L 345.921425 321.281617 
L 355.195725 308.767118 
L 364.470025 295.4966 
L 373.744325 281.249657 
L 383.018625 267.17927 
L 392.292925 253.140097 
L 401.567225 238.852365 
L 410.841525 225.012154 
L 420.115825 211.070068 
L 429.390125 196.964638 
L 438.664425 182.17098 
L 447.938725 168.206298 
L 457.213025 152.019331 
L 466.487325 133.860361 
L 475.761625 118.576287 
L 485.035925 103.167742 
L 494.310225 89.022865 
L 503.584525 76.209826 
L 512.858825 65.571008 
L 522.133125 58.739277 
L 531.407425 59.552168 
L 540.681725 66.018337 
L 549.956025 74.111246 
L 559.230325 87.483638 
L 568.504625 104.737991 
L 577.778925 124.393868 
L 587.053225 146.748657 
L 596.327525 168.5822 
L 605.601825 193.832184 
L 614.876125 223.581887 
L 624.150425 251.435037 
L 633.424725 274.437458 
L 642.699025 296.27598 
L 651.973325 315.201691 
L 661.247625 327.62638 
L 670.521925 338.368988 
L 679.796225 347.425877 
L 689.070525 354.299545 
L 698.344825 359.388108 
L 707.619125 363.739038 
L 716.893425 366.434695 
L 726.167725 368.31842 
L 735.442025 369.658684 
L 744.716325 371.612878 
L 753.990625 373.249384 
L 763.264925 374.46039 
L 772.539225 375.573926 
L 781.813525 376.319029 
L 791.087825 377.097451 
L 800.362125 377.53329 
L 809.636425 377.79985 
L 818.910725 378.080963 
L 828.185025 378.254839 
L 837.459325 378.358437 
L 846.733625 378.489419 
L 856.007925 378.601251 
L 865.282225 378.696423 
L 874.556525 378.856512 
L 883.830825 379.093582 
L 893.105125 379.354396 
L 902.379425 379.620764 
L 911.653725 379.865684 
L 920.928025 380.071923 
L 930.202325 380.259396 
L 939.476625 380.43308 
L 948.750925 380.57785 
L 958.025225 380.702704 
L 967.299525 380.802472 
L 976.573825 380.868729 
L 985.848125 380.929241 
" style="fill:none;stroke:#f0ad4e;stroke-linecap:square;"/>
   </g>
   <g id="line2d_22">
    <path clip-path="url(#p3be8e1eae2)" d="M 58.418125 380.265715 
L 67.692425 380.481337 
L 76.966725 380.498763 
L 86.241025 380.323737 
L 95.515325 380.439017 
L 104.789625 380.404739 
L 114.063925 380.02405 
L 123.338225 378.79083 
L 132.612525 377.522184 
L 141.886825 377.705443 
L 151.161125 378.591293 
L 160.435425 378.93062 
L 169.709725 378.760574 
L 178.984025 378.533462 
L 188.258325 378.287201 
L 197.532625 378.049175 
L 206.806925 377.809233 
L 216.081225 377.513758 
L 225.355525 377.118132 
L 234.629825 376.618908 
L 243.904125 375.995213 
L 253.178425 375.177917 
L 262.452725 373.982805 
L 271.727025 372.270468 
L 281.001325 370.206165 
L 290.275625 367.16084 
L 299.549925 362.820059 
L 308.824225 357.271336 
L 318.098525 350.350944 
L 327.372825 341.470229 
L 336.647125 331.053544 
L 345.921425 320.027142 
L 355.195725 307.684986 
L 364.470025 294.114398 
L 373.744325 279.588448 
L 383.018625 265.098116 
L 392.292925 249.77402 
L 401.567225 234.377731 
L 410.841525 219.646882 
L 420.115825 205.257275 
L 429.390125 191.023928 
L 438.664425 175.992243 
L 447.938725 161.974708 
L 457.213025 146.402245 
L 466.487325 128.818714 
L 475.761625 113.566619 
L 485.035925 99.797452 
L 494.310225 87.544916 
L 503.584525 75.744496 
L 512.858825 66.481178 
L 522.133125 61.256845 
L 531.407425 65.632477 
L 540.681725 76.391554 
L 549.956025 85.634383 
L 559.230325 99.204779 
L 568.504625 116.743118 
L 577.778925 135.11005 
L 587.053225 156.13434 
L 596.327525 177.081076 
L 605.601825 199.8403 
L 614.876125 226.825791 
L 624.150425 253.570383 
L 633.424725 276.143859 
L 642.699025 296.544263 
L 651.973325 314.3235 
L 661.247625 326.563015 
L 670.521925 337.234196 
L 679.796225 346.24302 
L 689.070525 352.682572 
L 698.344825 357.577152 
L 707.619125 361.481518 
L 716.893425 364.125089 
L 726.167725 366.15071 
L 735.442025 367.286268 
L 744.716325 368.848283 
L 753.990625 370.423319 
L 763.264925 371.940141 
L 772.539225 373.494687 
L 781.813525 374.676587 
L 791.087825 375.683844 
L 800.362125 376.458244 
L 809.636425 377.059535 
L 818.910725 377.603377 
L 828.185025 378.114665 
L 837.459325 378.5191 
L 846.733625 378.831235 
L 856.007925 379.094348 
L 865.282225 379.322034 
L 874.556525 379.562358 
L 883.830825 379.810151 
L 893.105125 380.003751 
L 902.379425 380.173415 
L 911.653725 380.355717 
L 920.928025 380.515423 
L 930.202325 380.645064 
L 939.476625 380.74713 
L 948.750925 380.821813 
L 958.025225 380.886921 
L 967.299525 380.937475 
L 976.573825 380.973667 
L 985.848125 380.998944 
" style="fill:none;stroke:#5cb85c;stroke-linecap:square;"/>
   </g>
   <g id="line2d_23">
    <path clip-path="url(#p3be8e1eae2)" d="M 58.418125 380.431165 
L 67.692425 380.593744 
L 76.966725 380.613659 
L 86.241025 380.488039 
L 95.515325 380.602744 
L 104.789625 380.602744 
L 114.063925 380.317801 
L 123.338225 379.439611 
L 132.612525 378.50493 
L 141.886825 378.579995 
L 151.161125 379.245436 
L 160.435425 379.541294 
L 169.709725 379.380056 
L 178.984025 379.178605 
L 188.258325 379.014112 
L 197.532625 378.850767 
L 206.806925 378.64472 
L 216.081225 378.38314 
L 225.355525 378.063154 
L 234.629825 377.686485 
L 243.904125 377.228815 
L 253.178425 376.670228 
L 262.452725 375.848528 
L 271.727025 374.689608 
L 281.001325 373.243256 
L 290.275625 371.212848 
L 299.549925 368.298696 
L 308.824225 364.405819 
L 318.098525 360.134742 
L 327.372825 355.152841 
L 336.647125 349.503584 
L 345.921425 343.761452 
L 355.195725 336.84374 
L 364.470025 329.153926 
L 373.744325 321.044931 
L 383.018625 313.728529 
L 392.292925 306.374786 
L 401.567225 298.549968 
L 410.841525 291.682811 
L 420.115825 284.498731 
L 429.390125 276.747447 
L 438.664425 269.326681 
L 447.938725 262.384266 
L 457.213025 253.616916 
L 466.487325 244.503346 
L 475.761625 237.25186 
L 485.035925 229.528534 
L 494.310225 221.312112 
L 503.584525 213.464315 
L 512.858825 206.646371 
L 522.133125 201.910731 
L 531.407425 197.397797 
L 540.681725 192.988079 
L 549.956025 192.422215 
L 559.230325 194.926953 
L 568.504625 203.268804 
L 577.778925 220.834526 
L 587.053225 239.036582 
L 596.327525 254.177036 
L 605.601825 268.382042 
L 614.876125 284.751503 
L 624.150425 300.194517 
L 633.424725 313.03379 
L 642.699025 325.107471 
L 651.973325 336.333984 
L 661.247625 345.86233 
L 670.521925 352.366224 
L 679.796225 356.800836 
L 689.070525 360.672457 
L 698.344825 363.749379 
L 707.619125 365.017067 
L 716.893425 366.548443 
L 726.167725 367.403654 
L 735.442025 368.410337 
L 744.716325 369.985564 
L 753.990625 370.681452 
L 763.264925 370.860499 
L 772.539225 371.334446 
L 781.813525 371.706136 
L 791.087825 372.035888 
L 800.362125 372.359704 
L 809.636425 372.423854 
L 818.910725 372.522665 
L 828.185025 372.680647 
L 837.459325 372.794203 
L 846.733625 372.949887 
L 856.007925 373.246894 
L 865.282225 373.730799 
L 874.556525 374.310068 
L 883.830825 374.925337 
L 893.105125 375.681546 
L 902.379425 376.464181 
L 911.653725 377.319583 
L 920.928025 378.156603 
L 930.202325 378.758084 
L 939.476625 379.212116 
L 948.750925 379.637998 
L 958.025225 379.992836 
L 967.299525 380.24465 
L 976.573825 380.484209 
L 985.848125 380.710363 
" style="fill:none;stroke:#f0ad4e;stroke-linecap:square;"/>
   </g>
   <g id="line2d_24">
    <path clip-path="url(#p3be8e1eae2)" d="M 58.418125 380.379079 
L 67.692425 380.580148 
L 76.966725 380.652532 
L 86.241025 380.537827 
L 95.515325 380.59968 
L 104.789625 380.573062 
L 114.063925 380.359738 
L 123.338225 379.678978 
L 132.612525 378.917407 
L 141.886825 378.941727 
L 151.161125 379.405142 
L 160.435425 379.561975 
L 169.709725 379.400546 
L 178.984025 379.213265 
L 188.258325 379.038048 
L 197.532625 378.886002 
L 206.806925 378.690679 
L 216.081225 378.428141 
L 225.355525 378.127113 
L 234.629825 377.74987 
L 243.904125 377.311732 
L 253.178425 376.690335 
L 262.452725 375.793187 
L 271.727025 374.692864 
L 281.001325 373.246703 
L 290.275625 371.117675 
L 299.549925 368.040754 
L 308.824225 364.153239 
L 318.098525 359.897482 
L 327.372825 354.73347 
L 336.647125 349.065255 
L 345.921425 343.176056 
L 355.195725 336.059382 
L 364.470025 328.056475 
L 373.744325 319.562195 
L 383.018625 312.063299 
L 392.292925 304.069584 
L 401.567225 295.403151 
L 410.841525 288.05094 
L 420.115825 279.849837 
L 429.390125 271.828547 
L 438.664425 264.821982 
L 447.938725 257.68884 
L 457.213025 248.998279 
L 466.487325 240.363825 
L 475.761625 233.408772 
L 485.035925 226.013092 
L 494.310225 219.025676 
L 503.584525 212.60355 
L 512.858825 206.623966 
L 522.133125 202.261164 
L 531.407425 198.672188 
L 540.681725 196.202876 
L 549.956025 198.064004 
L 559.230325 204.217847 
L 568.504625 215.342868 
L 577.778925 232.072337 
L 587.053225 249.420331 
L 596.327525 263.923685 
L 605.601825 277.045411 
L 614.876125 290.498422 
L 624.150425 303.546423 
L 633.424725 315.877089 
L 642.699025 327.105517 
L 651.973325 336.348729 
L 661.247625 344.605365 
L 670.521925 351.575738 
L 679.796225 356.163353 
L 689.070525 359.372023 
L 698.344825 361.749035 
L 707.619125 363.454478 
L 716.893425 364.432245 
L 726.167725 365.0636 
L 735.442025 365.822107 
L 744.716325 366.47759 
L 753.990625 366.808108 
L 763.264925 367.084817 
L 772.539225 367.722874 
L 781.813525 368.338526 
L 791.087825 368.817644 
L 800.362125 369.35306 
L 809.636425 369.975223 
L 818.910725 370.696963 
L 828.185025 371.439193 
L 837.459325 372.205551 
L 846.733625 372.893971 
L 856.007925 373.682734 
L 865.282225 374.573754 
L 874.556525 375.41154 
L 883.830825 376.242814 
L 893.105125 377.036364 
L 902.379425 377.77936 
L 911.653725 378.425651 
L 920.928025 379.028282 
L 930.202325 379.528081 
L 939.476625 379.923132 
L 948.750925 380.255757 
L 958.025225 380.50355 
L 967.299525 380.701555 
L 976.573825 380.853026 
L 985.848125 380.946284 
" style="fill:none;stroke:#f0ad4e;stroke-linecap:square;"/>
   </g>
   <g id="line2d_25">
    <path clip-path="url(#p3be8e1eae2)" d="M 58.418125 380.291758 
L 67.692425 380.500869 
L 76.966725 380.597765 
L 86.241025 380.475592 
L 95.515325 380.569232 
L 104.789625 380.572488 
L 114.063925 380.230671 
L 123.338225 379.227819 
L 132.612525 378.170965 
L 141.886825 378.109878 
L 151.161125 378.730126 
L 160.435425 379.043219 
L 169.709725 378.831618 
L 178.984025 378.567165 
L 188.258325 378.294287 
L 197.532625 378.036919 
L 206.806925 377.787786 
L 216.081225 377.40633 
L 225.355525 376.938511 
L 234.629825 376.407307 
L 243.904125 375.717547 
L 253.178425 374.827484 
L 262.452725 373.53605 
L 271.727025 371.546047 
L 281.001325 368.854028 
L 290.275625 365.169879 
L 299.549925 359.926014 
L 308.824225 353.229861 
L 318.098525 344.735006 
L 327.372825 333.773138 
L 336.647125 321.467558 
L 345.921425 308.282064 
L 355.195725 293.36853 
L 364.470025 277.385696 
L 373.744325 261.01681 
L 383.018625 246.447582 
L 392.292925 231.575028 
L 401.567225 216.447021 
L 410.841525 203.603535 
L 420.115825 190.655111 
L 429.390125 178.013459 
L 438.664425 166.219167 
L 447.938725 154.807863 
L 457.213025 141.028738 
L 466.487325 126.018118 
L 475.761625 113.305996 
L 485.035925 100.604024 
L 494.310225 88.389787 
L 503.584525 77.180508 
L 512.858825 66.661182 
L 522.133125 53.889697 
L 531.407425 52.980485 
L 540.681725 66.296195 
L 549.956025 79.418687 
L 559.230325 95.192411 
L 568.504625 114.312104 
L 577.778925 135.210392 
L 587.053225 157.230068 
L 596.327525 180.567603 
L 605.601825 206.489729 
L 614.876125 233.750014 
L 624.150425 260.010893 
L 633.424725 283.581093 
L 642.699025 303.812217 
L 651.973325 320.158698 
L 661.247625 331.380998 
L 670.521925 340.653891 
L 679.796225 348.912634 
L 689.070525 354.735002 
L 698.344825 359.745819 
L 707.619125 363.422882 
L 716.893425 365.711424 
L 726.167725 367.653553 
L 735.442025 368.743153 
L 744.716325 370.186633 
L 753.990625 371.681816 
L 763.264925 372.918291 
L 772.539225 373.78729 
L 781.813525 374.454262 
L 791.087825 375.297026 
L 800.362125 375.852741 
L 809.636425 376.167174 
L 818.910725 376.47433 
L 828.185025 376.804465 
L 837.459325 377.161984 
L 846.733625 377.427969 
L 856.007925 377.682464 
L 865.282225 378.004174 
L 874.556525 378.305202 
L 883.830825 378.628826 
L 893.105125 378.9716 
L 902.379425 379.366269 
L 911.653725 379.733554 
L 920.928025 380.007198 
L 930.202325 380.227416 
L 939.476625 380.421399 
L 948.750925 380.574211 
L 958.025225 380.686235 
L 967.299525 380.771641 
L 976.573825 380.850154 
L 985.848125 380.931156 
" style="fill:none;stroke:#f0ad4e;stroke-linecap:square;"/>
   </g>
   <g id="line2d_26">
    <path clip-path="url(#p3be8e1eae2)" d="M 58.418125 380.294822 
L 67.692425 380.515423 
L 76.966725 380.620936 
L 86.241025 380.519444 
L 95.515325 380.589722 
L 104.789625 380.547977 
L 114.063925 380.257672 
L 123.338225 379.499548 
L 132.612525 378.655444 
L 141.886825 378.566782 
L 151.161125 378.982515 
L 160.435425 379.102582 
L 169.709725 378.868002 
L 178.984025 378.612358 
L 188.258325 378.391182 
L 197.532625 378.127113 
L 206.806925 377.802531 
L 216.081225 377.475459 
L 225.355525 377.04096 
L 234.629825 376.44618 
L 243.904125 375.661439 
L 253.178425 374.612053 
L 262.452725 373.161297 
L 271.727025 371.151378 
L 281.001325 368.535956 
L 290.275625 364.778466 
L 299.549925 359.443259 
L 308.824225 352.605783 
L 318.098525 344.148078 
L 327.372825 333.2517 
L 336.647125 320.866076 
L 345.921425 307.779967 
L 355.195725 292.555448 
L 364.470025 276.055772 
L 373.744325 259.238982 
L 383.018625 243.522323 
L 392.292925 227.376336 
L 401.567225 211.17922 
L 410.841525 198.021301 
L 420.115825 185.617676 
L 429.390125 173.402672 
L 438.664425 161.995773 
L 447.938725 151.212568 
L 457.213025 138.832497 
L 466.487325 124.895007 
L 475.761625 113.812306 
L 485.035925 102.58407 
L 494.310225 90.802799 
L 503.584525 79.607691 
L 512.858825 68.449733 
L 522.133125 57.567335 
L 531.407425 60.775238 
L 540.681725 75.688197 
L 549.956025 87.011414 
L 559.230325 101.966119 
L 568.504625 121.676188 
L 577.778925 142.195701 
L 587.053225 163.928902 
L 596.327525 185.620357 
L 605.601825 209.259686 
L 614.876125 235.601376 
L 624.150425 261.778189 
L 633.424725 284.104828 
L 642.699025 303.054859 
L 651.973325 319.439447 
L 661.247625 330.492084 
L 670.521925 339.285477 
L 679.796225 347.292022 
L 689.070525 353.427099 
L 698.344825 358.072355 
L 707.619125 361.406644 
L 716.893425 363.562289 
L 726.167725 365.034685 
L 735.442025 365.700508 
L 744.716325 367.140924 
L 753.990625 368.697769 
L 763.264925 370.035735 
L 772.539225 371.365851 
L 781.813525 372.453153 
L 791.087825 373.496602 
L 800.362125 374.363303 
L 809.636425 375.109745 
L 818.910725 375.840486 
L 828.185025 376.514927 
L 837.459325 377.108749 
L 846.733625 377.58576 
L 856.007925 377.984067 
L 865.282225 378.433311 
L 874.556525 378.892322 
L 883.830825 379.255777 
L 893.105125 379.549528 
L 902.379425 379.847109 
L 911.653725 380.119797 
L 920.928025 380.330057 
L 930.202325 380.501827 
L 939.476625 380.656554 
L 948.750925 380.772982 
L 958.025225 380.853984 
L 967.299525 380.918326 
L 976.573825 380.965624 
L 985.848125 380.992817 
" style="fill:none;stroke:#f0ad4e;stroke-linecap:square;"/>
   </g>
   <g id="line2d_27">
    <path clip-path="url(#p3be8e1eae2)" d="M 58.418125 380.526912 
L 67.692425 380.662298 
L 76.966725 380.715342 
L 86.241025 380.652341 
L 95.515325 380.731236 
L 104.789625 380.742151 
L 114.063925 380.56253 
L 123.338225 379.963921 
L 132.612525 379.344055 
L 141.886825 379.41644 
L 151.161125 379.905132 
L 160.435425 380.123052 
L 169.709725 380.039561 
L 178.984025 379.973878 
L 188.258325 379.891536 
L 197.532625 379.787363 
L 206.806925 379.684148 
L 216.081225 379.572316 
L 225.355525 379.391163 
L 234.629825 379.168647 
L 243.904125 378.963749 
L 253.178425 378.647018 
L 262.452725 378.174412 
L 271.727025 377.503417 
L 281.001325 376.615461 
L 290.275625 375.517819 
L 299.549925 373.820035 
L 308.824225 371.498556 
L 318.098525 368.923157 
L 327.372825 365.670061 
L 336.647125 361.91123 
L 345.921425 357.867648 
L 355.195725 353.024579 
L 364.470025 347.637669 
L 373.744325 342.073818 
L 383.018625 337.319219 
L 392.292925 332.479789 
L 401.567225 327.394289 
L 410.841525 323.357218 
L 420.115825 319.217889 
L 429.390125 315.073581 
L 438.664425 311.41337 
L 447.938725 307.674646 
L 457.213025 302.91909 
L 466.487325 297.890847 
L 475.761625 293.279677 
L 485.035925 287.964002 
L 494.310225 282.182806 
L 503.584525 276.400843 
L 512.858825 271.082104 
L 522.133125 267.644217 
L 531.407425 265.212246 
L 540.681725 263.791171 
L 549.956025 264.608849 
L 559.230325 268.424171 
L 568.504625 273.645631 
L 577.778925 279.909583 
L 587.053225 287.140387 
L 596.327525 296.80546 
L 605.601825 306.321551 
L 614.876125 314.229285 
L 624.150425 322.153488 
L 633.424725 331.23259 
L 642.699025 340.0256 
L 651.973325 346.410194 
L 661.247625 351.731997 
L 670.521925 357.12695 
L 679.796225 361.248853 
L 689.070525 362.712823 
L 698.344825 364.910022 
L 707.619125 365.807745 
L 716.893425 366.059559 
L 726.167725 367.338354 
L 735.442025 368.280312 
L 744.716325 368.501679 
L 753.990625 369.116757 
L 763.264925 369.852093 
L 772.539225 370.128801 
L 781.813525 370.173802 
L 791.087825 370.411063 
L 800.362125 370.803242 
L 809.636425 370.804583 
L 818.910725 370.91699 
L 828.185025 371.310701 
L 837.459325 371.648879 
L 846.733625 371.979397 
L 856.007925 372.421939 
L 865.282225 372.875779 
L 874.556525 373.446431 
L 883.830825 374.193256 
L 893.105125 375.061681 
L 902.379425 375.943318 
L 911.653725 376.863254 
L 920.928025 377.717699 
L 930.202325 378.369544 
L 939.476625 378.953791 
L 948.750925 379.464888 
L 958.025225 379.875259 
L 967.299525 380.21765 
L 976.573825 380.492635 
L 985.848125 380.735449 
" style="fill:none;stroke:#f0ad4e;stroke-linecap:square;"/>
   </g>
   <g id="line2d_28">
    <path clip-path="url(#p3be8e1eae2)" d="M 58.418125 380.530359 
L 67.692425 380.672448 
L 76.966725 380.731428 
L 86.241025 380.660192 
L 95.515325 380.722619 
L 104.789625 380.709789 
L 114.063925 380.542615 
L 123.338225 380.072498 
L 132.612525 379.531911 
L 141.886825 379.569252 
L 151.161125 379.988623 
L 160.435425 380.152159 
L 169.709725 380.067136 
L 178.984025 379.992836 
L 188.258325 379.908387 
L 197.532625 379.811492 
L 206.806925 379.735469 
L 216.081225 379.6267 
L 225.355525 379.465654 
L 234.629825 379.273777 
L 243.904125 379.044176 
L 253.178425 378.741999 
L 262.452725 378.318415 
L 271.727025 377.669825 
L 281.001325 376.782635 
L 290.275625 375.594608 
L 299.549925 373.882654 
L 308.824225 371.636432 
L 318.098525 369.114459 
L 327.372825 365.789553 
L 336.647125 361.887485 
L 345.921425 357.882393 
L 355.195725 352.917343 
L 364.470025 347.413812 
L 373.744325 342.108286 
L 383.018625 337.309644 
L 392.292925 332.242911 
L 401.567225 327.152433 
L 410.841525 323.184682 
L 420.115825 319.163122 
L 429.390125 315.282118 
L 438.664425 311.903785 
L 447.938725 308.409407 
L 457.213025 303.941283 
L 466.487325 299.419924 
L 475.761625 295.615518 
L 485.035925 291.130351 
L 494.310225 286.021681 
L 503.584525 280.60528 
L 512.858825 275.851831 
L 522.133125 272.70329 
L 531.407425 269.73935 
L 540.681725 267.756624 
L 549.956025 268.645921 
L 559.230325 271.771099 
L 568.504625 275.843979 
L 577.778925 281.876799 
L 587.053225 290.403058 
L 596.327525 298.909402 
L 605.601825 306.507683 
L 614.876125 314.092367 
L 624.150425 322.189489 
L 633.424725 330.583809 
L 642.699025 338.616972 
L 651.973325 345.209336 
L 661.247625 351.101216 
L 670.521925 356.232291 
L 679.796225 359.516984 
L 689.070525 361.878676 
L 698.344825 363.611695 
L 707.619125 364.763721 
L 716.893425 365.116261 
L 726.167725 365.16739 
L 735.442025 365.730381 
L 744.716325 366.103603 
L 753.990625 366.084262 
L 763.264925 365.988707 
L 772.539225 366.174455 
L 781.813525 366.257372 
L 791.087825 366.560698 
L 800.362125 367.14418 
L 809.636425 367.530231 
L 818.910725 368.021987 
L 828.185025 368.69662 
L 837.459325 369.452637 
L 846.733625 370.101035 
L 856.007925 370.885776 
L 865.282225 371.827543 
L 874.556525 372.852992 
L 883.830825 374.017082 
L 893.105125 375.04617 
L 902.379425 376.021256 
L 911.653725 377.039428 
L 920.928025 377.895597 
L 930.202325 378.604889 
L 939.476625 379.218244 
L 948.750925 379.737767 
L 958.025225 380.158861 
L 967.299525 380.506997 
L 976.573825 380.762258 
L 985.848125 380.909134 
" style="fill:none;stroke:#f0ad4e;stroke-linecap:square;"/>
   </g>
   <g id="line2d_29">
    <path clip-path="url(#p3be8e1eae2)" d="M 58.418125 381.012157 
L 985.848125 381.012157 
" style="fill:none;stroke:#dedede;stroke-linecap:square;stroke-width:2;"/>
   </g>
   <g id="text_19">
    <!-- FastQC: Per Sequence GC Content -->
    <defs>
     <path d="M 9.8125 72.90625 
L 51.703125 72.90625 
L 51.703125 64.59375 
L 19.671875 64.59375 
L 19.671875 43.109375 
L 48.578125 43.109375 
L 48.578125 34.8125 
L 19.671875 34.8125 
L 19.671875 0 
L 9.8125 0 
z
" id="DejaVuSans-46"/>
     <path d="M 34.28125 27.484375 
Q 23.390625 27.484375 19.1875 25 
Q 14.984375 22.515625 14.984375 16.5 
Q 14.984375 11.71875 18.140625 8.90625 
Q 21.296875 6.109375 26.703125 6.109375 
Q 34.1875 6.109375 38.703125 11.40625 
Q 43.21875 16.703125 43.21875 25.484375 
L 43.21875 27.484375 
z
M 52.203125 31.203125 
L 52.203125 0 
L 43.21875 0 
L 43.21875 8.296875 
Q 40.140625 3.328125 35.546875 0.953125 
Q 30.953125 -1.421875 24.3125 -1.421875 
Q 15.921875 -1.421875 10.953125 3.296875 
Q 6 8.015625 6 15.921875 
Q 6 25.140625 12.171875 29.828125 
Q 18.359375 34.515625 30.609375 34.515625 
L 43.21875 34.515625 
L 43.21875 35.40625 
Q 43.21875 41.609375 39.140625 45 
Q 35.0625 48.390625 27.6875 48.390625 
Q 23 48.390625 18.546875 47.265625 
Q 14.109375 46.140625 10.015625 43.890625 
L 10.015625 52.203125 
Q 14.9375 54.109375 19.578125 55.046875 
Q 24.21875 56 28.609375 56 
Q 40.484375 56 46.34375 49.84375 
Q 52.203125 43.703125 52.203125 31.203125 
z
" id="DejaVuSans-61"/>
     <path d="M 44.28125 53.078125 
L 44.28125 44.578125 
Q 40.484375 46.53125 36.375 47.5 
Q 32.28125 48.484375 27.875 48.484375 
Q 21.1875 48.484375 17.84375 46.4375 
Q 14.5 44.390625 14.5 40.28125 
Q 14.5 37.15625 16.890625 35.375 
Q 19.28125 33.59375 26.515625 31.984375 
L 29.59375 31.296875 
Q 39.15625 29.25 43.1875 25.515625 
Q 47.21875 21.78125 47.21875 15.09375 
Q 47.21875 7.46875 41.1875 3.015625 
Q 35.15625 -1.421875 24.609375 -1.421875 
Q 20.21875 -1.421875 15.453125 -0.5625 
Q 10.6875 0.296875 5.421875 2 
L 5.421875 11.28125 
Q 10.40625 8.6875 15.234375 7.390625 
Q 20.0625 6.109375 24.8125 6.109375 
Q 31.15625 6.109375 34.5625 8.28125 
Q 37.984375 10.453125 37.984375 14.40625 
Q 37.984375 18.0625 35.515625 20.015625 
Q 33.0625 21.96875 24.703125 23.78125 
L 21.578125 24.515625 
Q 13.234375 26.265625 9.515625 29.90625 
Q 5.8125 33.546875 5.8125 39.890625 
Q 5.8125 47.609375 11.28125 51.796875 
Q 16.75 56 26.8125 56 
Q 31.78125 56 36.171875 55.265625 
Q 40.578125 54.546875 44.28125 53.078125 
z
" id="DejaVuSans-73"/>
     <path d="M 39.40625 66.21875 
Q 28.65625 66.21875 22.328125 58.203125 
Q 16.015625 50.203125 16.015625 36.375 
Q 16.015625 22.609375 22.328125 14.59375 
Q 28.65625 6.59375 39.40625 6.59375 
Q 50.140625 6.59375 56.421875 14.59375 
Q 62.703125 22.609375 62.703125 36.375 
Q 62.703125 50.203125 56.421875 58.203125 
Q 50.140625 66.21875 39.40625 66.21875 
z
M 53.21875 1.3125 
L 66.21875 -12.890625 
L 54.296875 -12.890625 
L 43.5 -1.21875 
Q 41.890625 -1.3125 41.03125 -1.359375 
Q 40.1875 -1.421875 39.40625 -1.421875 
Q 24.03125 -1.421875 14.8125 8.859375 
Q 5.609375 19.140625 5.609375 36.375 
Q 5.609375 53.65625 14.8125 63.9375 
Q 24.03125 74.21875 39.40625 74.21875 
Q 54.734375 74.21875 63.90625 63.9375 
Q 73.09375 53.65625 73.09375 36.375 
Q 73.09375 23.6875 67.984375 14.640625 
Q 62.890625 5.609375 53.21875 1.3125 
z
" id="DejaVuSans-51"/>
     <path d="M 11.71875 12.40625 
L 22.015625 12.40625 
L 22.015625 0 
L 11.71875 0 
z
M 11.71875 51.703125 
L 22.015625 51.703125 
L 22.015625 39.3125 
L 11.71875 39.3125 
z
" id="DejaVuSans-3a"/>
     <path d="M 19.671875 64.796875 
L 19.671875 37.40625 
L 32.078125 37.40625 
Q 38.96875 37.40625 42.71875 40.96875 
Q 46.484375 44.53125 46.484375 51.125 
Q 46.484375 57.671875 42.71875 61.234375 
Q 38.96875 64.796875 32.078125 64.796875 
z
M 9.8125 72.90625 
L 32.078125 72.90625 
Q 44.34375 72.90625 50.609375 67.359375 
Q 56.890625 61.8125 56.890625 51.125 
Q 56.890625 40.328125 50.609375 34.8125 
Q 44.34375 29.296875 32.078125 29.296875 
L 19.671875 29.296875 
L 19.671875 0 
L 9.8125 0 
z
" id="DejaVuSans-50"/>
     <path d="M 56.203125 29.59375 
L 56.203125 25.203125 
L 14.890625 25.203125 
Q 15.484375 15.921875 20.484375 11.0625 
Q 25.484375 6.203125 34.421875 6.203125 
Q 39.59375 6.203125 44.453125 7.46875 
Q 49.3125 8.734375 54.109375 11.28125 
L 54.109375 2.78125 
Q 49.265625 0.734375 44.1875 -0.34375 
Q 39.109375 -1.421875 33.890625 -1.421875 
Q 20.796875 -1.421875 13.15625 6.1875 
Q 5.515625 13.8125 5.515625 26.8125 
Q 5.515625 40.234375 12.765625 48.109375 
Q 20.015625 56 32.328125 56 
Q 43.359375 56 49.78125 48.890625 
Q 56.203125 41.796875 56.203125 29.59375 
z
M 47.21875 32.234375 
Q 47.125 39.59375 43.09375 43.984375 
Q 39.0625 48.390625 32.421875 48.390625 
Q 24.90625 48.390625 20.390625 44.140625 
Q 15.875 39.890625 15.1875 32.171875 
z
" id="DejaVuSans-65"/>
     <path d="M 41.109375 46.296875 
Q 39.59375 47.171875 37.8125 47.578125 
Q 36.03125 48 33.890625 48 
Q 26.265625 48 22.1875 43.046875 
Q 18.109375 38.09375 18.109375 28.8125 
L 18.109375 0 
L 9.078125 0 
L 9.078125 54.6875 
L 18.109375 54.6875 
L 18.109375 46.1875 
Q 20.953125 51.171875 25.484375 53.578125 
Q 30.03125 56 36.53125 56 
Q 37.453125 56 38.578125 55.875 
Q 39.703125 55.765625 41.0625 55.515625 
z
" id="DejaVuSans-72"/>
     <path d="M 53.515625 70.515625 
L 53.515625 60.890625 
Q 47.90625 63.578125 42.921875 64.890625 
Q 37.9375 66.21875 33.296875 66.21875 
Q 25.25 66.21875 20.875 63.09375 
Q 16.5 59.96875 16.5 54.203125 
Q 16.5 49.359375 19.40625 46.890625 
Q 22.3125 44.4375 30.421875 42.921875 
L 36.375 41.703125 
Q 47.40625 39.59375 52.65625 34.296875 
Q 57.90625 29 57.90625 20.125 
Q 57.90625 9.515625 50.796875 4.046875 
Q 43.703125 -1.421875 29.984375 -1.421875 
Q 24.8125 -1.421875 18.96875 -0.25 
Q 13.140625 0.921875 6.890625 3.21875 
L 6.890625 13.375 
Q 12.890625 10.015625 18.65625 8.296875 
Q 24.421875 6.59375 29.984375 6.59375 
Q 38.421875 6.59375 43.015625 9.90625 
Q 47.609375 13.234375 47.609375 19.390625 
Q 47.609375 24.75 44.3125 27.78125 
Q 41.015625 30.8125 33.5 32.328125 
L 27.484375 33.5 
Q 16.453125 35.6875 11.515625 40.375 
Q 6.59375 45.0625 6.59375 53.421875 
Q 6.59375 63.09375 13.40625 68.65625 
Q 20.21875 74.21875 32.171875 74.21875 
Q 37.3125 74.21875 42.625 73.28125 
Q 47.953125 72.359375 53.515625 70.515625 
z
" id="DejaVuSans-53"/>
     <path d="M 14.796875 27.296875 
Q 14.796875 17.390625 18.875 11.75 
Q 22.953125 6.109375 30.078125 6.109375 
Q 37.203125 6.109375 41.296875 11.75 
Q 45.40625 17.390625 45.40625 27.296875 
Q 45.40625 37.203125 41.296875 42.84375 
Q 37.203125 48.484375 30.078125 48.484375 
Q 22.953125 48.484375 18.875 42.84375 
Q 14.796875 37.203125 14.796875 27.296875 
z
M 45.40625 8.203125 
Q 42.578125 3.328125 38.25 0.953125 
Q 33.9375 -1.421875 27.875 -1.421875 
Q 17.96875 -1.421875 11.734375 6.484375 
Q 5.515625 14.40625 5.515625 27.296875 
Q 5.515625 40.1875 11.734375 48.09375 
Q 17.96875 56 27.875 56 
Q 33.9375 56 38.25 53.625 
Q 42.578125 51.265625 45.40625 46.390625 
L 45.40625 54.6875 
L 54.390625 54.6875 
L 54.390625 -20.796875 
L 45.40625 -20.796875 
z
" id="DejaVuSans-71"/>
     <path d="M 48.78125 52.59375 
L 48.78125 44.1875 
Q 44.96875 46.296875 41.140625 47.34375 
Q 37.3125 48.390625 33.40625 48.390625 
Q 24.65625 48.390625 19.8125 42.84375 
Q 14.984375 37.3125 14.984375 27.296875 
Q 14.984375 17.28125 19.8125 11.734375 
Q 24.65625 6.203125 33.40625 6.203125 
Q 37.3125 6.203125 41.140625 7.25 
Q 44.96875 8.296875 48.78125 10.40625 
L 48.78125 2.09375 
Q 45.015625 0.34375 40.984375 -0.53125 
Q 36.96875 -1.421875 32.421875 -1.421875 
Q 20.0625 -1.421875 12.78125 6.34375 
Q 5.515625 14.109375 5.515625 27.296875 
Q 5.515625 40.671875 12.859375 48.328125 
Q 20.21875 56 33.015625 56 
Q 37.15625 56 41.109375 55.140625 
Q 45.0625 54.296875 48.78125 52.59375 
z
" id="DejaVuSans-63"/>
    </defs>
    <g transform="translate(384.491875 19.3575)scale(0.16 -0.16)">
     <use xlink:href="#DejaVuSans-46"/>
     <use x="57.378906" xlink:href="#DejaVuSans-61"/>
     <use x="118.658203" xlink:href="#DejaVuSans-73"/>
     <use x="170.757812" xlink:href="#DejaVuSans-74"/>
     <use x="209.966797" xlink:href="#DejaVuSans-51"/>
     <use x="288.677734" xlink:href="#DejaVuSans-43"/>
     <use x="358.501953" xlink:href="#DejaVuSans-3a"/>
     <use x="392.193359" xlink:href="#DejaVuSans-20"/>
     <use x="423.980469" xlink:href="#DejaVuSans-50"/>
     <use x="484.236328" xlink:href="#DejaVuSans-65"/>
     <use x="545.759766" xlink:href="#DejaVuSans-72"/>
     <use x="586.873047" xlink:href="#DejaVuSans-20"/>
     <use x="618.660156" xlink:href="#DejaVuSans-53"/>
     <use x="682.136719" xlink:href="#DejaVuSans-65"/>
     <use x="743.660156" xlink:href="#DejaVuSans-71"/>
     <use x="807.136719" xlink:href="#DejaVuSans-75"/>
     <use x="870.515625" xlink:href="#DejaVuSans-65"/>
     <use x="932.039062" xlink:href="#DejaVuSans-6e"/>
     <use x="995.417969" xlink:href="#DejaVuSans-63"/>
     <use x="1050.398438" xlink:href="#DejaVuSans-65"/>
     <use x="1111.921875" xlink:href="#DejaVuSans-20"/>
     <use x="1143.708984" xlink:href="#DejaVuSans-47"/>
     <use x="1221.199219" xlink:href="#DejaVuSans-43"/>
     <use x="1291.023438" xlink:href="#DejaVuSans-20"/>
     <use x="1322.810547" xlink:href="#DejaVuSans-43"/>
     <use x="1392.634766" xlink:href="#DejaVuSans-6f"/>
     <use x="1453.816406" xlink:href="#DejaVuSans-6e"/>
     <use x="1517.195312" xlink:href="#DejaVuSans-74"/>
     <use x="1556.404297" xlink:href="#DejaVuSans-65"/>
     <use x="1617.927734" xlink:href="#DejaVuSans-6e"/>
     <use x="1681.306641" xlink:href="#DejaVuSans-74"/>
    </g>
   </g>
  </g>
 </g>
 <defs>
  <clipPath id="p3be8e1eae2">
   <rect height="344.433007" width="927.43" x="58.418125" y="36.57915"/>
  </clipPath>
 </defs>
</svg>
