<?xml version="1.0" encoding="utf-8" standalone="no"?>
<!DOCTYPE svg PUBLIC "-//W3C//DTD SVG 1.1//EN"
  "http://www.w3.org/Graphics/SVG/1.1/DTD/svg11.dtd">
<!-- Created with matplotlib (http://matplotlib.org/) -->
<svg height="417.270125pt" version="1.1" viewBox="0 0 1000.433125 417.270125" width="1000.433125pt" xmlns="http://www.w3.org/2000/svg" xmlns:xlink="http://www.w3.org/1999/xlink">
 <defs>
  <style type="text/css">
*{stroke-linecap:butt;stroke-linejoin:round;}
  </style>
 </defs>
 <g id="figure_1">
  <g id="patch_1">
   <path d="M 0 417.270125 
L 1000.433125 417.270125 
L 1000.433125 0 
L 0 0 
z
" style="fill:#ffffff;"/>
  </g>
  <g id="axes_1">
   <g id="patch_2">
    <path d="M 32.968125 381.6495 
L 985.598125 381.6495 
L 985.598125 36.6095 
L 32.968125 36.6095 
z
" style="fill:#ffffff;"/>
   </g>
   <g id="matplotlib.axis_1">
    <g id="xtick_1">
     <g id="text_1">
      <!-- 0 -->
      <defs>
       <path d="M 31.78125 66.40625 
Q 24.171875 66.40625 20.328125 58.90625 
Q 16.5 51.421875 16.5 36.375 
Q 16.5 21.390625 20.328125 13.890625 
Q 24.171875 6.390625 31.78125 6.390625 
Q 39.453125 6.390625 43.28125 13.890625 
Q 47.125 21.390625 47.125 36.375 
Q 47.125 51.421875 43.28125 58.90625 
Q 39.453125 66.40625 31.78125 66.40625 
z
M 31.78125 74.21875 
Q 44.046875 74.21875 50.515625 64.515625 
Q 56.984375 54.828125 56.984375 36.375 
Q 56.984375 17.96875 50.515625 8.265625 
Q 44.046875 -1.421875 31.78125 -1.421875 
Q 19.53125 -1.421875 13.0625 8.265625 
Q 6.59375 17.96875 6.59375 36.375 
Q 6.59375 54.828125 13.0625 64.515625 
Q 19.53125 74.21875 31.78125 74.21875 
z
" id="DejaVuSans-30"/>
      </defs>
      <g transform="translate(30.423125 394.72825)scale(0.08 -0.08)">
       <use xlink:href="#DejaVuSans-30"/>
      </g>
     </g>
    </g>
    <g id="xtick_2">
     <g id="text_2">
      <!-- 20 -->
      <defs>
       <path d="M 19.1875 8.296875 
L 53.609375 8.296875 
L 53.609375 0 
L 7.328125 0 
L 7.328125 8.296875 
Q 12.9375 14.109375 22.625 23.890625 
Q 32.328125 33.6875 34.8125 36.53125 
Q 39.546875 41.84375 41.421875 45.53125 
Q 43.3125 49.21875 43.3125 52.78125 
Q 43.3125 58.59375 39.234375 62.25 
Q 35.15625 65.921875 28.609375 65.921875 
Q 23.96875 65.921875 18.8125 64.3125 
Q 13.671875 62.703125 7.8125 59.421875 
L 7.8125 69.390625 
Q 13.765625 71.78125 18.9375 73 
Q 24.125 74.21875 28.421875 74.21875 
Q 39.75 74.21875 46.484375 68.546875 
Q 53.21875 62.890625 53.21875 53.421875 
Q 53.21875 48.921875 51.53125 44.890625 
Q 49.859375 40.875 45.40625 35.40625 
Q 44.1875 33.984375 37.640625 27.21875 
Q 31.109375 20.453125 19.1875 8.296875 
z
" id="DejaVuSans-32"/>
      </defs>
      <g transform="translate(218.404125 394.72825)scale(0.08 -0.08)">
       <use xlink:href="#DejaVuSans-32"/>
       <use x="63.623047" xlink:href="#DejaVuSans-30"/>
      </g>
     </g>
    </g>
    <g id="xtick_3">
     <g id="text_3">
      <!-- 40 -->
      <defs>
       <path d="M 37.796875 64.3125 
L 12.890625 25.390625 
L 37.796875 25.390625 
z
M 35.203125 72.90625 
L 47.609375 72.90625 
L 47.609375 25.390625 
L 58.015625 25.390625 
L 58.015625 17.1875 
L 47.609375 17.1875 
L 47.609375 0 
L 37.796875 0 
L 37.796875 17.1875 
L 4.890625 17.1875 
L 4.890625 26.703125 
z
" id="DejaVuSans-34"/>
      </defs>
      <g transform="translate(408.930125 394.72825)scale(0.08 -0.08)">
       <use xlink:href="#DejaVuSans-34"/>
       <use x="63.623047" xlink:href="#DejaVuSans-30"/>
      </g>
     </g>
    </g>
    <g id="xtick_4">
     <g id="text_4">
      <!-- 60 -->
      <defs>
       <path d="M 33.015625 40.375 
Q 26.375 40.375 22.484375 35.828125 
Q 18.609375 31.296875 18.609375 23.390625 
Q 18.609375 15.53125 22.484375 10.953125 
Q 26.375 6.390625 33.015625 6.390625 
Q 39.65625 6.390625 43.53125 10.953125 
Q 47.40625 15.53125 47.40625 23.390625 
Q 47.40625 31.296875 43.53125 35.828125 
Q 39.65625 40.375 33.015625 40.375 
z
M 52.59375 71.296875 
L 52.59375 62.3125 
Q 48.875 64.0625 45.09375 64.984375 
Q 41.3125 65.921875 37.59375 65.921875 
Q 27.828125 65.921875 22.671875 59.328125 
Q 17.53125 52.734375 16.796875 39.40625 
Q 19.671875 43.65625 24.015625 45.921875 
Q 28.375 48.1875 33.59375 48.1875 
Q 44.578125 48.1875 50.953125 41.515625 
Q 57.328125 34.859375 57.328125 23.390625 
Q 57.328125 12.15625 50.6875 5.359375 
Q 44.046875 -1.421875 33.015625 -1.421875 
Q 20.359375 -1.421875 13.671875 8.265625 
Q 6.984375 17.96875 6.984375 36.375 
Q 6.984375 53.65625 15.1875 63.9375 
Q 23.390625 74.21875 37.203125 74.21875 
Q 40.921875 74.21875 44.703125 73.484375 
Q 48.484375 72.75 52.59375 71.296875 
z
" id="DejaVuSans-36"/>
      </defs>
      <g transform="translate(599.456125 394.72825)scale(0.08 -0.08)">
       <use xlink:href="#DejaVuSans-36"/>
       <use x="63.623047" xlink:href="#DejaVuSans-30"/>
      </g>
     </g>
    </g>
    <g id="xtick_5">
     <g id="text_5">
      <!-- 80 -->
      <defs>
       <path d="M 31.78125 34.625 
Q 24.75 34.625 20.71875 30.859375 
Q 16.703125 27.09375 16.703125 20.515625 
Q 16.703125 13.921875 20.71875 10.15625 
Q 24.75 6.390625 31.78125 6.390625 
Q 38.8125 6.390625 42.859375 10.171875 
Q 46.921875 13.96875 46.921875 20.515625 
Q 46.921875 27.09375 42.890625 30.859375 
Q 38.875 34.625 31.78125 34.625 
z
M 21.921875 38.8125 
Q 15.578125 40.375 12.03125 44.71875 
Q 8.5 49.078125 8.5 55.328125 
Q 8.5 64.0625 14.71875 69.140625 
Q 20.953125 74.21875 31.78125 74.21875 
Q 42.671875 74.21875 48.875 69.140625 
Q 55.078125 64.0625 55.078125 55.328125 
Q 55.078125 49.078125 51.53125 44.71875 
Q 48 40.375 41.703125 38.8125 
Q 48.828125 37.15625 52.796875 32.3125 
Q 56.78125 27.484375 56.78125 20.515625 
Q 56.78125 9.90625 50.3125 4.234375 
Q 43.84375 -1.421875 31.78125 -1.421875 
Q 19.734375 -1.421875 13.25 4.234375 
Q 6.78125 9.90625 6.78125 20.515625 
Q 6.78125 27.484375 10.78125 32.3125 
Q 14.796875 37.15625 21.921875 38.8125 
z
M 18.3125 54.390625 
Q 18.3125 48.734375 21.84375 45.5625 
Q 25.390625 42.390625 31.78125 42.390625 
Q 38.140625 42.390625 41.71875 45.5625 
Q 45.3125 48.734375 45.3125 54.390625 
Q 45.3125 60.0625 41.71875 63.234375 
Q 38.140625 66.40625 31.78125 66.40625 
Q 25.390625 66.40625 21.84375 63.234375 
Q 18.3125 60.0625 18.3125 54.390625 
z
" id="DejaVuSans-38"/>
      </defs>
      <g transform="translate(789.982125 394.72825)scale(0.08 -0.08)">
       <use xlink:href="#DejaVuSans-38"/>
       <use x="63.623047" xlink:href="#DejaVuSans-30"/>
      </g>
     </g>
    </g>
    <g id="xtick_6">
     <g id="text_6">
      <!-- 100 -->
      <defs>
       <path d="M 12.40625 8.296875 
L 28.515625 8.296875 
L 28.515625 63.921875 
L 10.984375 60.40625 
L 10.984375 69.390625 
L 28.421875 72.90625 
L 38.28125 72.90625 
L 38.28125 8.296875 
L 54.390625 8.296875 
L 54.390625 0 
L 12.40625 0 
z
" id="DejaVuSans-31"/>
      </defs>
      <g transform="translate(977.963125 394.72825)scale(0.08 -0.08)">
       <use xlink:href="#DejaVuSans-31"/>
       <use x="63.623047" xlink:href="#DejaVuSans-30"/>
       <use x="127.246094" xlink:href="#DejaVuSans-30"/>
      </g>
     </g>
    </g>
    <g id="text_7">
     <!-- % GC -->
     <defs>
      <path d="M 72.703125 32.078125 
Q 68.453125 32.078125 66.03125 28.46875 
Q 63.625 24.859375 63.625 18.40625 
Q 63.625 12.0625 66.03125 8.421875 
Q 68.453125 4.78125 72.703125 4.78125 
Q 76.859375 4.78125 79.265625 8.421875 
Q 81.6875 12.0625 81.6875 18.40625 
Q 81.6875 24.8125 79.265625 28.4375 
Q 76.859375 32.078125 72.703125 32.078125 
z
M 72.703125 38.28125 
Q 80.421875 38.28125 84.953125 32.90625 
Q 89.5 27.546875 89.5 18.40625 
Q 89.5 9.28125 84.9375 3.921875 
Q 80.375 -1.421875 72.703125 -1.421875 
Q 64.890625 -1.421875 60.34375 3.921875 
Q 55.8125 9.28125 55.8125 18.40625 
Q 55.8125 27.59375 60.375 32.9375 
Q 64.9375 38.28125 72.703125 38.28125 
z
M 22.3125 68.015625 
Q 18.109375 68.015625 15.6875 64.375 
Q 13.28125 60.75 13.28125 54.390625 
Q 13.28125 47.953125 15.671875 44.328125 
Q 18.0625 40.71875 22.3125 40.71875 
Q 26.5625 40.71875 28.96875 44.328125 
Q 31.390625 47.953125 31.390625 54.390625 
Q 31.390625 60.6875 28.953125 64.34375 
Q 26.515625 68.015625 22.3125 68.015625 
z
M 66.40625 74.21875 
L 74.21875 74.21875 
L 28.609375 -1.421875 
L 20.796875 -1.421875 
z
M 22.3125 74.21875 
Q 30.03125 74.21875 34.609375 68.875 
Q 39.203125 63.53125 39.203125 54.390625 
Q 39.203125 45.171875 34.640625 39.84375 
Q 30.078125 34.515625 22.3125 34.515625 
Q 14.546875 34.515625 10.03125 39.859375 
Q 5.515625 45.21875 5.515625 54.390625 
Q 5.515625 63.484375 10.046875 68.84375 
Q 14.59375 74.21875 22.3125 74.21875 
z
" id="DejaVuSans-25"/>
      <path id="DejaVuSans-20"/>
      <path d="M 59.515625 10.40625 
L 59.515625 29.984375 
L 43.40625 29.984375 
L 43.40625 38.09375 
L 69.28125 38.09375 
L 69.28125 6.78125 
Q 63.578125 2.734375 56.6875 0.65625 
Q 49.8125 -1.421875 42 -1.421875 
Q 24.90625 -1.421875 15.25 8.5625 
Q 5.609375 18.5625 5.609375 36.375 
Q 5.609375 54.25 15.25 64.234375 
Q 24.90625 74.21875 42 74.21875 
Q 49.125 74.21875 55.546875 72.453125 
Q 61.96875 70.703125 67.390625 67.28125 
L 67.390625 56.78125 
Q 61.921875 61.421875 55.765625 63.765625 
Q 49.609375 66.109375 42.828125 66.109375 
Q 29.4375 66.109375 22.71875 58.640625 
Q 16.015625 51.171875 16.015625 36.375 
Q 16.015625 21.625 22.71875 14.15625 
Q 29.4375 6.6875 42.828125 6.6875 
Q 48.046875 6.6875 52.140625 7.59375 
Q 56.25 8.5 59.515625 10.40625 
z
" id="DejaVuSans-47"/>
      <path d="M 64.40625 67.28125 
L 64.40625 56.890625 
Q 59.421875 61.53125 53.78125 63.8125 
Q 48.140625 66.109375 41.796875 66.109375 
Q 29.296875 66.109375 22.65625 58.46875 
Q 16.015625 50.828125 16.015625 36.375 
Q 16.015625 21.96875 22.65625 14.328125 
Q 29.296875 6.6875 41.796875 6.6875 
Q 48.140625 6.6875 53.78125 8.984375 
Q 59.421875 11.28125 64.40625 15.921875 
L 64.40625 5.609375 
Q 59.234375 2.09375 53.4375 0.328125 
Q 47.65625 -1.421875 41.21875 -1.421875 
Q 24.65625 -1.421875 15.125 8.703125 
Q 5.609375 18.84375 5.609375 36.375 
Q 5.609375 53.953125 15.125 64.078125 
Q 24.65625 74.21875 41.21875 74.21875 
Q 47.75 74.21875 53.53125 72.484375 
Q 59.328125 70.75 64.40625 67.28125 
z
" id="DejaVuSans-43"/>
     </defs>
     <g transform="translate(495.577656 407.990437)scale(0.1 -0.1)">
      <use xlink:href="#DejaVuSans-25"/>
      <use x="95.019531" xlink:href="#DejaVuSans-20"/>
      <use x="126.806641" xlink:href="#DejaVuSans-47"/>
      <use x="204.296875" xlink:href="#DejaVuSans-43"/>
     </g>
    </g>
   </g>
   <g id="matplotlib.axis_2">
    <g id="ytick_1">
     <g id="line2d_1">
      <path clip-path="url(#pdfbf6110f1)" d="M 32.968125 381.6495 
L 985.598125 381.6495 
" style="fill:none;stroke:#dedede;stroke-linecap:square;"/>
     </g>
     <g id="text_8">
      <!-- 0 -->
      <g transform="translate(20.878125 384.688875)scale(0.08 -0.08)">
       <use xlink:href="#DejaVuSans-30"/>
      </g>
     </g>
    </g>
    <g id="ytick_2">
     <g id="line2d_2">
      <path clip-path="url(#pdfbf6110f1)" d="M 32.968125 309.321786 
L 985.598125 309.321786 
" style="fill:none;stroke:#dedede;stroke-linecap:square;"/>
     </g>
     <g id="text_9">
      <!-- 1 -->
      <g transform="translate(20.878125 312.361161)scale(0.08 -0.08)">
       <use xlink:href="#DejaVuSans-31"/>
      </g>
     </g>
    </g>
    <g id="ytick_3">
     <g id="line2d_3">
      <path clip-path="url(#pdfbf6110f1)" d="M 32.968125 236.994072 
L 985.598125 236.994072 
" style="fill:none;stroke:#dedede;stroke-linecap:square;"/>
     </g>
     <g id="text_10">
      <!-- 2 -->
      <g transform="translate(20.878125 240.033447)scale(0.08 -0.08)">
       <use xlink:href="#DejaVuSans-32"/>
      </g>
     </g>
    </g>
    <g id="ytick_4">
     <g id="line2d_4">
      <path clip-path="url(#pdfbf6110f1)" d="M 32.968125 164.666358 
L 985.598125 164.666358 
" style="fill:none;stroke:#dedede;stroke-linecap:square;"/>
     </g>
     <g id="text_11">
      <!-- 3 -->
      <defs>
       <path d="M 40.578125 39.3125 
Q 47.65625 37.796875 51.625 33 
Q 55.609375 28.21875 55.609375 21.1875 
Q 55.609375 10.40625 48.1875 4.484375 
Q 40.765625 -1.421875 27.09375 -1.421875 
Q 22.515625 -1.421875 17.65625 -0.515625 
Q 12.796875 0.390625 7.625 2.203125 
L 7.625 11.71875 
Q 11.71875 9.328125 16.59375 8.109375 
Q 21.484375 6.890625 26.8125 6.890625 
Q 36.078125 6.890625 40.9375 10.546875 
Q 45.796875 14.203125 45.796875 21.1875 
Q 45.796875 27.640625 41.28125 31.265625 
Q 36.765625 34.90625 28.71875 34.90625 
L 20.21875 34.90625 
L 20.21875 43.015625 
L 29.109375 43.015625 
Q 36.375 43.015625 40.234375 45.921875 
Q 44.09375 48.828125 44.09375 54.296875 
Q 44.09375 59.90625 40.109375 62.90625 
Q 36.140625 65.921875 28.71875 65.921875 
Q 24.65625 65.921875 20.015625 65.03125 
Q 15.375 64.15625 9.8125 62.3125 
L 9.8125 71.09375 
Q 15.4375 72.65625 20.34375 73.4375 
Q 25.25 74.21875 29.59375 74.21875 
Q 40.828125 74.21875 47.359375 69.109375 
Q 53.90625 64.015625 53.90625 55.328125 
Q 53.90625 49.265625 50.4375 45.09375 
Q 46.96875 40.921875 40.578125 39.3125 
z
" id="DejaVuSans-33"/>
      </defs>
      <g transform="translate(20.878125 167.705733)scale(0.08 -0.08)">
       <use xlink:href="#DejaVuSans-33"/>
      </g>
     </g>
    </g>
    <g id="ytick_5">
     <g id="line2d_5">
      <path clip-path="url(#pdfbf6110f1)" d="M 32.968125 92.338645 
L 985.598125 92.338645 
" style="fill:none;stroke:#dedede;stroke-linecap:square;"/>
     </g>
     <g id="text_12">
      <!-- 4 -->
      <g transform="translate(20.878125 95.37802)scale(0.08 -0.08)">
       <use xlink:href="#DejaVuSans-34"/>
      </g>
     </g>
    </g>
    <g id="text_13">
     <!-- Percentage -->
     <defs>
      <path d="M 19.671875 64.796875 
L 19.671875 37.40625 
L 32.078125 37.40625 
Q 38.96875 37.40625 42.71875 40.96875 
Q 46.484375 44.53125 46.484375 51.125 
Q 46.484375 57.671875 42.71875 61.234375 
Q 38.96875 64.796875 32.078125 64.796875 
z
M 9.8125 72.90625 
L 32.078125 72.90625 
Q 44.34375 72.90625 50.609375 67.359375 
Q 56.890625 61.8125 56.890625 51.125 
Q 56.890625 40.328125 50.609375 34.8125 
Q 44.34375 29.296875 32.078125 29.296875 
L 19.671875 29.296875 
L 19.671875 0 
L 9.8125 0 
z
" id="DejaVuSans-50"/>
      <path d="M 56.203125 29.59375 
L 56.203125 25.203125 
L 14.890625 25.203125 
Q 15.484375 15.921875 20.484375 11.0625 
Q 25.484375 6.203125 34.421875 6.203125 
Q 39.59375 6.203125 44.453125 7.46875 
Q 49.3125 8.734375 54.109375 11.28125 
L 54.109375 2.78125 
Q 49.265625 0.734375 44.1875 -0.34375 
Q 39.109375 -1.421875 33.890625 -1.421875 
Q 20.796875 -1.421875 13.15625 6.1875 
Q 5.515625 13.8125 5.515625 26.8125 
Q 5.515625 40.234375 12.765625 48.109375 
Q 20.015625 56 32.328125 56 
Q 43.359375 56 49.78125 48.890625 
Q 56.203125 41.796875 56.203125 29.59375 
z
M 47.21875 32.234375 
Q 47.125 39.59375 43.09375 43.984375 
Q 39.0625 48.390625 32.421875 48.390625 
Q 24.90625 48.390625 20.390625 44.140625 
Q 15.875 39.890625 15.1875 32.171875 
z
" id="DejaVuSans-65"/>
      <path d="M 41.109375 46.296875 
Q 39.59375 47.171875 37.8125 47.578125 
Q 36.03125 48 33.890625 48 
Q 26.265625 48 22.1875 43.046875 
Q 18.109375 38.09375 18.109375 28.8125 
L 18.109375 0 
L 9.078125 0 
L 9.078125 54.6875 
L 18.109375 54.6875 
L 18.109375 46.1875 
Q 20.953125 51.171875 25.484375 53.578125 
Q 30.03125 56 36.53125 56 
Q 37.453125 56 38.578125 55.875 
Q 39.703125 55.765625 41.0625 55.515625 
z
" id="DejaVuSans-72"/>
      <path d="M 48.78125 52.59375 
L 48.78125 44.1875 
Q 44.96875 46.296875 41.140625 47.34375 
Q 37.3125 48.390625 33.40625 48.390625 
Q 24.65625 48.390625 19.8125 42.84375 
Q 14.984375 37.3125 14.984375 27.296875 
Q 14.984375 17.28125 19.8125 11.734375 
Q 24.65625 6.203125 33.40625 6.203125 
Q 37.3125 6.203125 41.140625 7.25 
Q 44.96875 8.296875 48.78125 10.40625 
L 48.78125 2.09375 
Q 45.015625 0.34375 40.984375 -0.53125 
Q 36.96875 -1.421875 32.421875 -1.421875 
Q 20.0625 -1.421875 12.78125 6.34375 
Q 5.515625 14.109375 5.515625 27.296875 
Q 5.515625 40.671875 12.859375 48.328125 
Q 20.21875 56 33.015625 56 
Q 37.15625 56 41.109375 55.140625 
Q 45.0625 54.296875 48.78125 52.59375 
z
" id="DejaVuSans-63"/>
      <path d="M 54.890625 33.015625 
L 54.890625 0 
L 45.90625 0 
L 45.90625 32.71875 
Q 45.90625 40.484375 42.875 44.328125 
Q 39.84375 48.1875 33.796875 48.1875 
Q 26.515625 48.1875 22.3125 43.546875 
Q 18.109375 38.921875 18.109375 30.90625 
L 18.109375 0 
L 9.078125 0 
L 9.078125 54.6875 
L 18.109375 54.6875 
L 18.109375 46.1875 
Q 21.34375 51.125 25.703125 53.5625 
Q 30.078125 56 35.796875 56 
Q 45.21875 56 50.046875 50.171875 
Q 54.890625 44.34375 54.890625 33.015625 
z
" id="DejaVuSans-6e"/>
      <path d="M 18.3125 70.21875 
L 18.3125 54.6875 
L 36.8125 54.6875 
L 36.8125 47.703125 
L 18.3125 47.703125 
L 18.3125 18.015625 
Q 18.3125 11.328125 20.140625 9.421875 
Q 21.96875 7.515625 27.59375 7.515625 
L 36.8125 7.515625 
L 36.8125 0 
L 27.59375 0 
Q 17.1875 0 13.234375 3.875 
Q 9.28125 7.765625 9.28125 18.015625 
L 9.28125 47.703125 
L 2.6875 47.703125 
L 2.6875 54.6875 
L 9.28125 54.6875 
L 9.28125 70.21875 
z
" id="DejaVuSans-74"/>
      <path d="M 34.28125 27.484375 
Q 23.390625 27.484375 19.1875 25 
Q 14.984375 22.515625 14.984375 16.5 
Q 14.984375 11.71875 18.140625 8.90625 
Q 21.296875 6.109375 26.703125 6.109375 
Q 34.1875 6.109375 38.703125 11.40625 
Q 43.21875 16.703125 43.21875 25.484375 
L 43.21875 27.484375 
z
M 52.203125 31.203125 
L 52.203125 0 
L 43.21875 0 
L 43.21875 8.296875 
Q 40.140625 3.328125 35.546875 0.953125 
Q 30.953125 -1.421875 24.3125 -1.421875 
Q 15.921875 -1.421875 10.953125 3.296875 
Q 6 8.015625 6 15.921875 
Q 6 25.140625 12.171875 29.828125 
Q 18.359375 34.515625 30.609375 34.515625 
L 43.21875 34.515625 
L 43.21875 35.40625 
Q 43.21875 41.609375 39.140625 45 
Q 35.0625 48.390625 27.6875 48.390625 
Q 23 48.390625 18.546875 47.265625 
Q 14.109375 46.140625 10.015625 43.890625 
L 10.015625 52.203125 
Q 14.9375 54.109375 19.578125 55.046875 
Q 24.21875 56 28.609375 56 
Q 40.484375 56 46.34375 49.84375 
Q 52.203125 43.703125 52.203125 31.203125 
z
" id="DejaVuSans-61"/>
      <path d="M 45.40625 27.984375 
Q 45.40625 37.75 41.375 43.109375 
Q 37.359375 48.484375 30.078125 48.484375 
Q 22.859375 48.484375 18.828125 43.109375 
Q 14.796875 37.75 14.796875 27.984375 
Q 14.796875 18.265625 18.828125 12.890625 
Q 22.859375 7.515625 30.078125 7.515625 
Q 37.359375 7.515625 41.375 12.890625 
Q 45.40625 18.265625 45.40625 27.984375 
z
M 54.390625 6.78125 
Q 54.390625 -7.171875 48.1875 -13.984375 
Q 42 -20.796875 29.203125 -20.796875 
Q 24.46875 -20.796875 20.265625 -20.09375 
Q 16.0625 -19.390625 12.109375 -17.921875 
L 12.109375 -9.1875 
Q 16.0625 -11.328125 19.921875 -12.34375 
Q 23.78125 -13.375 27.78125 -13.375 
Q 36.625 -13.375 41.015625 -8.765625 
Q 45.40625 -4.15625 45.40625 5.171875 
L 45.40625 9.625 
Q 42.625 4.78125 38.28125 2.390625 
Q 33.9375 0 27.875 0 
Q 17.828125 0 11.671875 7.65625 
Q 5.515625 15.328125 5.515625 27.984375 
Q 5.515625 40.671875 11.671875 48.328125 
Q 17.828125 56 27.875 56 
Q 33.9375 56 38.28125 53.609375 
Q 42.625 51.21875 45.40625 46.390625 
L 45.40625 54.6875 
L 54.390625 54.6875 
z
" id="DejaVuSans-67"/>
     </defs>
     <g transform="translate(14.798437 237.542)rotate(-90)scale(0.1 -0.1)">
      <use xlink:href="#DejaVuSans-50"/>
      <use x="60.255859" xlink:href="#DejaVuSans-65"/>
      <use x="121.779297" xlink:href="#DejaVuSans-72"/>
      <use x="162.861328" xlink:href="#DejaVuSans-63"/>
      <use x="217.841797" xlink:href="#DejaVuSans-65"/>
      <use x="279.365234" xlink:href="#DejaVuSans-6e"/>
      <use x="342.744141" xlink:href="#DejaVuSans-74"/>
      <use x="381.953125" xlink:href="#DejaVuSans-61"/>
      <use x="443.232422" xlink:href="#DejaVuSans-67"/>
      <use x="506.708984" xlink:href="#DejaVuSans-65"/>
     </g>
    </g>
   </g>
   <g id="line2d_6">
    <path clip-path="url(#pdfbf6110f1)" d="M 32.968125 381.288137 
L 42.494425 381.331034 
L 52.020725 381.149957 
L 61.547025 380.931123 
L 71.073325 381.073256 
L 80.599625 381.063965 
L 90.125925 380.647251 
L 99.652225 379.41411 
L 109.178525 378.012544 
L 118.704825 377.98388 
L 128.231125 378.853681 
L 137.757425 379.217416 
L 147.283725 378.970511 
L 156.810025 378.671418 
L 166.336325 378.311637 
L 175.862625 377.984473 
L 185.388925 377.6751 
L 194.915225 377.288236 
L 204.441525 376.803322 
L 213.967825 376.153343 
L 223.494125 375.390685 
L 233.020425 374.426589 
L 242.546725 372.980939 
L 252.073025 370.980593 
L 261.599325 368.656049 
L 271.125625 365.544729 
L 280.651925 360.912838 
L 290.178225 355.130635 
L 299.704525 348.348753 
L 309.230825 339.898829 
L 318.757125 331.112845 
L 328.283425 322.274673 
L 337.809725 312.151962 
L 347.336025 300.951093 
L 356.862325 288.818745 
L 366.388625 276.961769 
L 375.914925 262.798039 
L 385.441225 247.498824 
L 394.967525 232.575599 
L 404.493825 216.801551 
L 414.020125 201.093133 
L 423.546425 185.17102 
L 433.072725 169.667796 
L 442.599025 152.178262 
L 452.125325 134.597201 
L 461.651625 119.376465 
L 471.177925 103.023998 
L 480.704225 87.111572 
L 490.230525 73.751025 
L 499.756825 63.450598 
L 509.283125 59.244713 
L 518.809425 59.147058 
L 528.335725 63.550428 
L 537.862025 73.730071 
L 547.388325 87.9962 
L 556.914625 107.820558 
L 566.440925 132.491886 
L 575.967225 159.567226 
L 585.493525 187.007488 
L 595.019825 213.274703 
L 604.546125 238.989199 
L 614.072425 262.833622 
L 623.598725 283.806119 
L 633.125025 302.783014 
L 642.651325 319.226216 
L 652.177625 332.552959 
L 661.703925 343.213959 
L 671.230225 350.929691 
L 680.756525 356.625112 
L 690.282825 361.405067 
L 699.809125 365.028186 
L 709.335425 367.582042 
L 718.861725 369.740138 
L 728.388025 372.060333 
L 737.914325 373.728969 
L 747.440625 375.008763 
L 756.966925 376.057269 
L 766.493225 376.897221 
L 776.019525 377.568945 
L 785.545825 378.083907 
L 795.072125 378.511098 
L 804.598425 378.829762 
L 814.124725 379.097028 
L 823.651025 379.341956 
L 833.177325 379.555453 
L 842.703625 379.710436 
L 852.229925 379.88835 
L 861.756225 380.069031 
L 871.282525 380.258608 
L 880.808825 380.443639 
L 890.335125 380.608901 
L 899.861425 380.799071 
L 909.387725 380.993788 
L 918.914025 381.137701 
L 928.440325 381.243856 
L 937.966625 381.32965 
L 947.492925 381.406153 
L 957.019225 381.479889 
L 966.545525 381.530693 
L 976.071825 381.571218 
L 985.598125 381.609568 
" style="fill:none;stroke:#f0ad4e;stroke-linecap:square;"/>
   </g>
   <g id="line2d_7">
    <path clip-path="url(#pdfbf6110f1)" d="M 32.968125 381.309882 
L 42.494425 381.355744 
L 52.020725 381.177039 
L 61.547025 380.975206 
L 71.073325 381.091641 
L 80.599625 381.070489 
L 90.125925 380.715056 
L 99.652225 379.711027 
L 109.178525 378.49963 
L 118.704825 378.439535 
L 128.231125 379.136958 
L 137.757425 379.336815 
L 147.283725 379.063618 
L 156.810025 378.761955 
L 166.336325 378.439337 
L 175.862625 378.154082 
L 185.388925 377.807742 
L 194.915225 377.391621 
L 204.441525 376.928649 
L 213.967825 376.338963 
L 223.494125 375.624934 
L 233.020425 374.654709 
L 242.546725 373.327273 
L 252.073025 371.395917 
L 261.599325 368.993484 
L 271.125625 365.864568 
L 280.651925 361.335074 
L 290.178225 355.531714 
L 299.704525 348.595042 
L 309.230825 340.109332 
L 318.757125 331.335796 
L 328.283425 322.162151 
L 337.809725 311.559659 
L 347.336025 300.149831 
L 356.862325 287.712847 
L 366.388625 275.681309 
L 375.914925 261.559281 
L 385.441225 246.468214 
L 394.967525 231.936983 
L 404.493825 216.533578 
L 414.020125 201.523364 
L 423.546425 186.859686 
L 433.072725 172.561918 
L 442.599025 156.118507 
L 452.125325 139.710678 
L 461.651625 125.19032 
L 471.177925 109.803125 
L 480.704225 95.056816 
L 490.230525 82.113369 
L 499.756825 72.00271 
L 509.283125 66.93038 
L 518.809425 64.927265 
L 528.335725 66.860203 
L 537.862025 74.910617 
L 547.388325 87.262598 
L 556.914625 104.821728 
L 566.440925 128.312119 
L 575.967225 155.98171 
L 585.493525 183.522018 
L 595.019825 209.580301 
L 604.546125 235.957446 
L 614.072425 260.369431 
L 623.598725 281.402037 
L 633.125025 300.471065 
L 642.651325 317.533222 
L 652.177625 331.210663 
L 661.703925 341.727757 
L 671.230225 349.062561 
L 680.756525 354.798708 
L 690.282825 359.461045 
L 699.809125 363.111644 
L 709.335425 365.589197 
L 718.861725 367.391862 
L 728.388025 369.634765 
L 737.914325 371.348671 
L 747.440625 372.566987 
L 756.966925 373.579318 
L 766.493225 374.592835 
L 776.019525 375.474103 
L 785.545825 376.235377 
L 795.072125 376.891682 
L 804.598425 377.41811 
L 814.124725 377.893932 
L 823.651025 378.386951 
L 833.177325 378.826004 
L 842.703625 379.094259 
L 852.229925 379.386828 
L 861.756225 379.752738 
L 871.282525 380.075356 
L 880.808825 380.34875 
L 890.335125 380.594667 
L 899.861425 380.791954 
L 909.387725 380.970659 
L 918.914025 381.14541 
L 928.440325 381.277067 
L 937.966625 381.376698 
L 947.492925 381.46269 
L 957.019225 381.525356 
L 966.545525 381.567857 
L 976.071825 381.605812 
L 985.598125 381.630522 
" style="fill:none;stroke:#f0ad4e;stroke-linecap:square;"/>
   </g>
   <g id="line2d_8">
    <path clip-path="url(#pdfbf6110f1)" d="M 32.968125 380.599501 
L 42.494425 380.896783 
L 52.020725 380.931957 
L 61.547025 380.71388 
L 71.073325 380.97156 
L 80.599625 380.966349 
L 90.125925 380.406436 
L 99.652225 378.781413 
L 109.178525 377.101675 
L 118.704825 377.344504 
L 128.231125 378.691525 
L 137.757425 379.428348 
L 147.283725 379.316313 
L 156.810025 379.051078 
L 166.336325 378.844726 
L 175.862625 378.63186 
L 185.388925 378.319987 
L 194.915225 378.034689 
L 204.441525 377.732456 
L 213.967825 377.275459 
L 223.494125 376.727271 
L 233.020425 376.021974 
L 242.546725 374.948786 
L 252.073025 373.390462 
L 261.599325 371.522089 
L 271.125625 368.770726 
L 280.651925 364.631176 
L 290.178225 359.317868 
L 299.704525 352.879523 
L 309.230825 344.652272 
L 318.757125 335.545939 
L 328.283425 326.090997 
L 337.809725 315.304145 
L 347.336025 303.787504 
L 356.862325 291.726844 
L 366.388625 280.325364 
L 375.914925 268.290498 
L 385.441225 255.937245 
L 394.967525 244.042031 
L 404.493825 232.020192 
L 414.020125 220.227373 
L 423.546425 208.232892 
L 433.072725 196.649551 
L 442.599025 180.882368 
L 452.125325 163.067035 
L 461.651625 149.751066 
L 471.177925 132.806998 
L 480.704225 115.833749 
L 490.230525 101.218438 
L 499.756825 89.443075 
L 509.283125 83.278825 
L 518.809425 83.161319 
L 528.335725 82.95653 
L 537.862025 81.303107 
L 547.388325 90.050668 
L 556.914625 100.956068 
L 566.440925 112.519347 
L 575.967225 129.610623 
L 585.493525 144.809817 
L 595.019825 165.256661 
L 604.546125 194.862468 
L 614.072425 225.722803 
L 623.598725 252.058501 
L 633.125025 278.06513 
L 642.651325 300.579405 
L 652.177625 313.79793 
L 661.703925 326.54122 
L 671.230225 338.578691 
L 680.756525 346.741588 
L 690.282825 352.856595 
L 699.809125 357.885648 
L 709.335425 360.922308 
L 718.861725 362.962381 
L 728.388025 364.395904 
L 737.914325 367.608953 
L 747.440625 370.47704 
L 756.966925 372.426182 
L 766.493225 374.096801 
L 776.019525 375.388066 
L 785.545825 376.673598 
L 795.072125 377.236638 
L 804.598425 377.487543 
L 814.124725 377.912754 
L 823.651025 378.217071 
L 833.177325 378.336401 
L 842.703625 378.432021 
L 852.229925 378.495073 
L 861.756225 378.576103 
L 871.282525 378.737641 
L 880.808825 378.960408 
L 890.335125 379.244142 
L 899.861425 379.613335 
L 909.387725 379.963509 
L 918.914025 380.282417 
L 928.440325 380.559116 
L 937.966625 380.78553 
L 947.492925 380.992925 
L 957.019225 381.165406 
L 966.545525 381.297242 
L 976.071825 381.39651 
L 985.598125 381.5062 
" style="fill:none;stroke:#f0ad4e;stroke-linecap:square;"/>
   </g>
   <g id="line2d_9">
    <path clip-path="url(#pdfbf6110f1)" d="M 32.968125 380.54688 
L 42.494425 380.888452 
L 52.020725 381.010647 
L 61.547025 380.80117 
L 71.073325 380.937174 
L 80.599625 380.907212 
L 90.125925 380.491124 
L 99.652225 379.213418 
L 109.178525 377.859895 
L 118.704825 377.968802 
L 128.231125 378.945579 
L 137.757425 379.439831 
L 147.283725 379.3291 
L 156.810025 379.145416 
L 166.336325 378.913793 
L 175.862625 378.716301 
L 185.388925 378.48103 
L 194.915225 378.143627 
L 204.441525 377.799188 
L 213.967825 377.424526 
L 223.494125 376.861231 
L 233.020425 376.011599 
L 242.546725 374.865729 
L 252.073025 373.236811 
L 261.599325 371.143865 
L 271.125625 368.313841 
L 280.651925 364.169115 
L 290.178225 358.813643 
L 299.704525 352.449608 
L 309.230825 344.382399 
L 318.757125 335.278488 
L 328.283425 325.331197 
L 337.809725 314.422241 
L 347.336025 303.119082 
L 356.862325 290.643216 
L 366.388625 279.129017 
L 375.914925 266.872269 
L 385.441225 254.320064 
L 394.967525 242.802478 
L 404.493825 230.782564 
L 414.020125 218.883281 
L 423.546425 207.00354 
L 433.072725 195.852017 
L 442.599025 180.391886 
L 452.125325 162.855224 
L 461.651625 149.985417 
L 471.177925 133.599836 
L 480.704225 117.297368 
L 490.230525 103.204309 
L 499.756825 91.957428 
L 509.283125 86.114219 
L 518.809425 87.295783 
L 528.335725 88.681093 
L 537.862025 86.782513 
L 547.388325 94.663954 
L 556.914625 105.320704 
L 566.440925 116.803117 
L 575.967225 133.851 
L 585.493525 148.161613 
L 595.019825 167.480132 
L 604.546125 196.467421 
L 614.072425 226.275943 
L 623.598725 251.276135 
L 633.125025 276.420146 
L 642.651325 299.127295 
L 652.177625 312.465819 
L 661.703925 324.803857 
L 671.230225 336.627582 
L 680.756525 345.053559 
L 690.282825 350.91657 
L 699.809125 355.162647 
L 709.335425 358.098972 
L 718.861725 360.511345 
L 728.388025 361.927659 
L 737.914325 364.549248 
L 747.440625 367.229199 
L 756.966925 369.614735 
L 766.493225 371.772817 
L 776.019525 373.290743 
L 785.545825 374.64114 
L 795.072125 375.606714 
L 804.598425 376.311224 
L 814.124725 376.995411 
L 823.651025 377.600133 
L 833.177325 378.062337 
L 842.703625 378.464616 
L 852.229925 378.796549 
L 861.756225 379.115714 
L 871.282525 379.423416 
L 880.808825 379.728773 
L 890.335125 380.020061 
L 899.861425 380.314475 
L 909.387725 380.57554 
L 918.914025 380.789967 
L 928.440325 381.009345 
L 937.966625 381.187296 
L 947.492925 381.321736 
L 957.019225 381.446797 
L 966.545525 381.531734 
L 976.071825 381.579414 
L 985.598125 381.617974 
" style="fill:none;stroke:#f0ad4e;stroke-linecap:square;"/>
   </g>
   <g id="line2d_10">
    <path clip-path="url(#pdfbf6110f1)" d="M 32.968125 381.429919 
L 42.494425 381.467257 
L 52.020725 381.371562 
L 61.547025 381.251633 
L 71.073325 381.349801 
L 80.599625 381.347823 
L 90.125925 381.082001 
L 99.652225 380.465789 
L 109.178525 379.518721 
L 118.704825 379.168825 
L 128.231125 379.664119 
L 137.757425 379.947003 
L 147.283725 379.772426 
L 156.810025 379.538503 
L 166.336325 379.315213 
L 175.862625 379.088955 
L 185.388925 378.803351 
L 194.915225 378.462852 
L 204.441525 378.079821 
L 213.967825 377.703466 
L 223.494125 377.230427 
L 233.020425 376.588004 
L 242.546725 375.719322 
L 252.073025 374.471814 
L 261.599325 372.9842 
L 271.125625 370.891996 
L 280.651925 367.697435 
L 290.178225 363.397549 
L 299.704525 358.104355 
L 309.230825 350.899963 
L 318.757125 342.570217 
L 328.283425 333.553785 
L 337.809725 322.725561 
L 347.336025 311.022473 
L 356.862325 298.215297 
L 366.388625 285.865334 
L 375.914925 272.231019 
L 385.441225 257.354389 
L 394.967525 242.357335 
L 404.493825 226.390463 
L 414.020125 210.454996 
L 423.546425 194.345694 
L 433.072725 178.247519 
L 442.599025 159.75571 
L 452.125325 141.068554 
L 461.651625 124.399665 
L 471.177925 106.645482 
L 480.704225 88.868054 
L 490.230525 74.245871 
L 499.756825 63.245047 
L 509.283125 57.724853 
L 518.809425 55.883882 
L 528.335725 58.559163 
L 537.862025 67.358734 
L 547.388325 81.281867 
L 556.914625 100.38791 
L 566.440925 123.173423 
L 575.967225 148.291244 
L 585.493525 175.542812 
L 595.019825 201.952157 
L 604.546125 227.366215 
L 614.072425 251.265954 
L 623.598725 273.154596 
L 633.125025 293.842959 
L 642.651325 311.228948 
L 652.177625 325.437933 
L 661.703925 336.99043 
L 671.230225 345.532339 
L 680.756525 351.282994 
L 690.282825 356.356112 
L 699.809125 360.196312 
L 709.335425 362.875055 
L 718.861725 365.45736 
L 728.388025 368.054255 
L 737.914325 369.988696 
L 747.440625 371.279478 
L 756.966925 372.460964 
L 766.493225 373.634537 
L 776.019525 374.412468 
L 785.545825 375.046236 
L 795.072125 375.560324 
L 804.598425 375.970802 
L 814.124725 376.36867 
L 823.651025 376.723758 
L 833.177325 376.986118 
L 842.703625 377.19927 
L 852.229925 377.51158 
L 861.756225 377.804355 
L 871.282525 378.141393 
L 880.808825 378.481645 
L 890.335125 378.909185 
L 899.861425 379.4344 
L 909.387725 379.896559 
L 918.914025 380.290717 
L 928.440325 380.596845 
L 937.966625 380.853023 
L 947.492925 381.083238 
L 957.019225 381.245203 
L 966.545525 381.356478 
L 976.071825 381.464537 
L 985.598125 381.553557 
" style="fill:none;stroke:#f0ad4e;stroke-linecap:square;"/>
   </g>
   <g id="line2d_11">
    <path clip-path="url(#pdfbf6110f1)" d="M 32.968125 381.437337 
L 42.494425 381.475665 
L 52.020725 381.427446 
L 61.547025 381.332493 
L 71.073325 381.377497 
L 80.599625 381.353758 
L 90.125925 381.127748 
L 99.652225 380.650754 
L 109.178525 379.89681 
L 118.704825 379.589199 
L 128.231125 379.936374 
L 137.757425 380.073612 
L 147.283725 379.87505 
L 156.810025 379.669564 
L 166.336325 379.464078 
L 175.862625 379.196526 
L 185.388925 378.869627 
L 194.915225 378.563747 
L 204.441525 378.195306 
L 213.967825 377.776916 
L 223.494125 377.283107 
L 233.020425 376.647361 
L 242.546725 375.768791 
L 252.073025 374.499525 
L 261.599325 372.996336 
L 271.125625 370.819568 
L 280.651925 367.489013 
L 290.178225 363.091463 
L 299.704525 357.6331 
L 309.230825 350.373582 
L 318.757125 342.093557 
L 328.283425 333.10929 
L 337.809725 322.024912 
L 347.336025 309.818892 
L 356.862325 297.018173 
L 366.388625 284.520615 
L 375.914925 270.667491 
L 385.441225 255.354947 
L 394.967525 240.174695 
L 404.493825 224.895285 
L 414.020125 209.639367 
L 423.546425 194.278109 
L 433.072725 179.335736 
L 442.599025 162.219316 
L 452.125325 145.066546 
L 461.651625 129.939953 
L 471.177925 113.776781 
L 480.704225 98.044609 
L 490.230525 84.176155 
L 499.756825 72.676601 
L 509.283125 66.129483 
L 518.809425 63.271224 
L 528.335725 64.560272 
L 537.862025 72.1865 
L 547.388325 83.976109 
L 556.914625 100.675869 
L 566.440925 122.9967 
L 575.967225 149.1597 
L 585.493525 175.693366 
L 595.019825 200.508219 
L 604.546125 225.352498 
L 614.072425 249.988323 
L 623.598725 272.11529 
L 633.125025 291.729689 
L 642.651325 309.03577 
L 652.177625 323.299371 
L 661.703925 334.845165 
L 671.230225 342.986222 
L 680.756525 348.92875 
L 690.282825 353.744938 
L 699.809125 357.735472 
L 709.335425 360.276477 
L 718.861725 362.056367 
L 728.388025 364.191097 
L 737.914325 365.895816 
L 747.440625 367.223439 
L 756.966925 368.324557 
L 766.493225 369.547335 
L 776.019525 370.727335 
L 785.545825 371.682808 
L 795.072125 372.533436 
L 804.598425 373.398653 
L 814.124725 374.176583 
L 823.651025 375.039575 
L 833.177325 375.831104 
L 842.703625 376.390194 
L 852.229925 376.928266 
L 861.756225 377.572666 
L 871.282525 378.278638 
L 880.808825 378.872347 
L 890.335125 379.349589 
L 899.861425 379.805318 
L 909.387725 380.229149 
L 918.914025 380.597837 
L 928.440325 380.851047 
L 937.966625 381.0595 
L 947.492925 381.267954 
L 957.019225 381.402719 
L 966.545525 381.49792 
L 976.071825 381.565426 
L 985.598125 381.613645 
" style="fill:none;stroke:#f0ad4e;stroke-linecap:square;"/>
   </g>
   <g id="line2d_12">
    <path clip-path="url(#pdfbf6110f1)" d="M 32.968125 381.356755 
L 42.494425 381.414352 
L 52.020725 381.350805 
L 61.547025 381.252748 
L 71.073325 381.361039 
L 80.599625 381.366513 
L 90.125925 381.085907 
L 99.652225 380.192202 
L 109.178525 379.268033 
L 118.704825 379.295166 
L 128.231125 379.848763 
L 137.757425 380.092003 
L 147.283725 379.922544 
L 156.810025 379.706436 
L 166.336325 379.518413 
L 175.862625 379.302068 
L 185.388925 379.010275 
L 194.915225 378.724194 
L 204.441525 378.434544 
L 213.967825 378.023035 
L 223.494125 377.533461 
L 233.020425 376.818497 
L 242.546725 375.777706 
L 252.073025 374.339211 
L 261.599325 372.356162 
L 271.125625 369.603648 
L 280.651925 365.653497 
L 290.178225 360.410272 
L 299.704525 354.102693 
L 309.230825 345.977954 
L 318.757125 336.431142 
L 328.283425 326.231724 
L 337.809725 314.547399 
L 347.336025 301.899635 
L 356.862325 288.674473 
L 366.388625 276.009573 
L 375.914925 262.671121 
L 385.441225 248.588431 
L 394.967525 235.199285 
L 404.493825 221.691613 
L 414.020125 207.929276 
L 423.546425 193.711162 
L 433.072725 179.907651 
L 442.599025 162.70711 
L 452.125325 142.549848 
L 461.651625 126.113062 
L 471.177925 108.407477 
L 480.704225 92.462169 
L 490.230525 77.445076 
L 499.756825 64.153511 
L 509.283125 53.039682 
L 518.809425 55.152442 
L 528.335725 68.078671 
L 537.862025 76.648239 
L 547.388325 91.140295 
L 556.914625 107.789381 
L 566.440925 123.946512 
L 575.967225 143.965257 
L 585.493525 162.729959 
L 595.019825 186.742409 
L 604.546125 217.311865 
L 614.072425 247.500516 
L 623.598725 273.101403 
L 633.125025 296.611665 
L 642.651325 316.339331 
L 652.177625 327.522419 
L 661.703925 338.326605 
L 671.230225 348.424872 
L 680.756525 355.352451 
L 690.282825 360.56664 
L 699.809125 364.480852 
L 709.335425 366.78949 
L 718.861725 368.784676 
L 728.388025 369.294004 
L 737.914325 371.436039 
L 747.440625 373.80275 
L 756.966925 375.315741 
L 766.493225 376.631188 
L 776.019525 377.63366 
L 785.545825 378.705392 
L 795.072125 379.287073 
L 804.598425 379.620517 
L 814.124725 379.961814 
L 823.651025 380.219811 
L 833.177325 380.419258 
L 842.703625 380.607281 
L 852.229925 380.725569 
L 861.756225 380.871227 
L 871.282525 380.999035 
L 880.808825 381.089001 
L 890.335125 381.199197 
L 899.861425 381.318437 
L 909.387725 381.40031 
L 918.914025 381.447911 
L 928.440325 381.492417 
L 937.966625 381.53978 
L 947.492925 381.566675 
L 957.019225 381.587143 
L 966.545525 381.609277 
L 976.071825 381.629032 
L 985.598125 381.643312 
" style="fill:none;stroke:#5cb85c;stroke-linecap:square;"/>
   </g>
   <g id="line2d_13">
    <path clip-path="url(#pdfbf6110f1)" d="M 32.968125 381.345807 
L 42.494425 381.411258 
L 52.020725 381.376748 
L 61.547025 381.27512 
L 71.073325 381.336287 
L 80.599625 381.315819 
L 90.125925 381.106137 
L 99.652225 380.456149 
L 109.178525 379.710007 
L 118.704825 379.660979 
L 128.231125 380.045831 
L 137.757425 380.210529 
L 147.283725 380.077009 
L 156.810025 379.88613 
L 166.336325 379.670023 
L 175.862625 379.439159 
L 185.388925 379.192587 
L 194.915225 378.920311 
L 204.441525 378.592342 
L 213.967825 378.160127 
L 223.494125 377.557501 
L 233.020425 376.774707 
L 242.546725 375.781279 
L 252.073025 374.282807 
L 261.599325 372.259775 
L 271.125625 369.40611 
L 280.651925 365.390511 
L 290.178225 360.270336 
L 299.704525 353.938008 
L 309.230825 345.674041 
L 318.757125 335.953491 
L 328.283425 325.48918 
L 337.809725 313.833183 
L 347.336025 300.942423 
L 356.862325 287.181522 
L 366.388625 273.735737 
L 375.914925 259.200133 
L 385.441225 244.421527 
L 394.967525 231.107835 
L 404.493825 217.68466 
L 414.020125 203.913524 
L 423.546425 190.172377 
L 433.072725 176.654715 
L 442.599025 159.855457 
L 452.125325 140.546212 
L 461.651625 125.406078 
L 471.177925 109.489101 
L 480.704225 94.586495 
L 490.230525 79.283567 
L 499.756825 65.726396 
L 509.283125 56.744134 
L 518.809425 62.972455 
L 528.335725 77.82627 
L 537.862025 84.253085 
L 547.388325 97.352099 
L 556.914625 114.554535 
L 566.440925 130.350607 
L 575.967225 149.617725 
L 585.493525 167.975432 
L 595.019825 190.323747 
L 604.546125 219.181704 
L 614.072425 248.904566 
L 623.598725 273.382301 
L 633.125025 295.637557 
L 642.651325 314.995118 
L 652.177625 325.947575 
L 661.703925 336.354527 
L 671.230225 346.526808 
L 680.756525 353.59909 
L 690.282825 358.591457 
L 699.809125 362.179364 
L 709.335425 364.720768 
L 718.861725 366.829482 
L 728.388025 367.323101 
L 737.914325 369.196667 
L 747.440625 371.251116 
L 756.966925 373.110639 
L 766.493225 374.976826 
L 776.019525 376.255145 
L 785.545825 377.403513 
L 795.072125 378.195113 
L 804.598425 378.71777 
L 814.124725 379.24114 
L 823.651025 379.701677 
L 833.177325 380.082721 
L 842.703625 380.3738 
L 852.229925 380.565869 
L 861.756225 380.761508 
L 871.282525 380.922398 
L 880.808825 381.026644 
L 890.335125 381.152072 
L 899.861425 381.262744 
L 909.387725 381.340809 
L 918.914025 381.414352 
L 928.440325 381.470283 
L 937.966625 381.51598 
L 947.492925 381.559059 
L 957.019225 381.593331 
L 966.545525 381.617369 
L 976.071825 381.630222 
L 985.598125 381.63879 
" style="fill:none;stroke:#5cb85c;stroke-linecap:square;"/>
   </g>
   <g id="line2d_14">
    <path clip-path="url(#pdfbf6110f1)" d="M 32.968125 380.263569 
L 42.494425 380.649982 
L 52.020725 380.692957 
L 61.547025 380.403594 
L 71.073325 380.695106 
L 80.599625 380.690808 
L 90.125925 380.005721 
L 99.652225 377.95619 
L 109.178525 375.962885 
L 118.704825 376.460316 
L 128.231125 378.2366 
L 137.757425 379.082483 
L 147.283725 378.913092 
L 156.810025 378.672434 
L 166.336325 378.442878 
L 175.862625 378.182165 
L 185.388925 377.917871 
L 194.915225 377.598785 
L 204.441525 377.135375 
L 213.967825 376.613592 
L 223.494125 376.022691 
L 233.020425 375.150307 
L 242.546725 374.042636 
L 252.073025 372.482658 
L 261.599325 370.465 
L 271.125625 367.713192 
L 280.651925 363.628456 
L 290.178225 358.266299 
L 299.704525 351.585538 
L 309.230825 342.874226 
L 318.757125 333.142268 
L 328.283425 322.936515 
L 337.809725 310.514346 
L 347.336025 297.457227 
L 356.862325 283.911272 
L 366.388625 271.151395 
L 375.914925 258.332785 
L 385.441225 243.871829 
L 394.967525 230.753113 
L 404.493825 218.687992 
L 414.020125 206.481054 
L 423.546425 193.815721 
L 433.072725 181.878807 
L 442.599025 169.268266 
L 452.125325 155.65964 
L 461.651625 142.911222 
L 471.177925 130.050354 
L 480.704225 118.687509 
L 490.230525 108.331345 
L 499.756825 99.457804 
L 509.283125 94.7682 
L 518.809425 92.984395 
L 528.335725 93.365795 
L 537.862025 97.26395 
L 547.388325 106.081624 
L 556.914625 121.363753 
L 566.440925 139.549891 
L 575.967225 159.867212 
L 585.493525 179.893022 
L 595.019825 202.082603 
L 604.546125 226.414468 
L 614.072425 248.184331 
L 623.598725 268.358045 
L 633.125025 288.219835 
L 642.651325 305.826532 
L 652.177625 320.398148 
L 661.703925 332.047848 
L 671.230225 340.393159 
L 680.756525 347.046703 
L 690.282825 350.538032 
L 699.809125 354.128202 
L 709.335425 356.582052 
L 718.861725 358.844307 
L 728.388025 361.756195 
L 737.914325 363.780299 
L 747.440625 365.060943 
L 756.966925 366.161093 
L 766.493225 367.587134 
L 776.019525 368.150101 
L 785.545825 368.526129 
L 795.072125 369.161079 
L 804.598425 369.235568 
L 814.124725 369.367357 
L 823.651025 369.758426 
L 833.177325 370.059964 
L 842.703625 370.307426 
L 852.229925 370.736814 
L 861.756225 371.343831 
L 871.282525 371.993822 
L 880.808825 372.793149 
L 890.335125 373.709583 
L 899.861425 374.766758 
L 909.387725 375.971838 
L 918.914025 377.049426 
L 928.440325 377.924676 
L 937.966625 378.739403 
L 947.492925 379.402286 
L 957.019225 379.88396 
L 966.545525 380.354532 
L 976.071825 380.771744 
L 985.598125 381.164603 
" style="fill:none;stroke:#f0ad4e;stroke-linecap:square;"/>
   </g>
   <g id="line2d_15">
    <path clip-path="url(#pdfbf6110f1)" d="M 32.968125 380.210593 
L 42.494425 380.640331 
L 52.020725 380.763881 
L 61.547025 380.483835 
L 71.073325 380.671129 
L 80.599625 380.647135 
L 90.125925 380.098861 
L 99.652225 378.45547 
L 109.178525 376.733651 
L 118.704825 377.034826 
L 128.231125 378.461916 
L 137.757425 379.130517 
L 147.283725 379.004819 
L 156.810025 378.726205 
L 166.336325 378.449024 
L 175.862625 378.242033 
L 185.388925 377.980967 
L 194.915225 377.647204 
L 204.441525 377.223911 
L 213.967825 376.725057 
L 223.494125 376.038908 
L 233.020425 375.099213 
L 242.546725 373.981177 
L 252.073025 372.446653 
L 261.599325 370.471289 
L 271.125625 367.581657 
L 280.651925 363.473717 
L 290.178225 357.841996 
L 299.704525 351.112293 
L 309.230825 342.570169 
L 318.757125 332.449831 
L 328.283425 322.309797 
L 337.809725 310.095559 
L 347.336025 296.525138 
L 356.862325 282.571176 
L 366.388625 269.759959 
L 375.914925 256.476031 
L 385.441225 241.571273 
L 394.967525 228.564167 
L 404.493825 216.912528 
L 414.020125 204.520307 
L 423.546425 191.932555 
L 433.072725 180.800183 
L 442.599025 168.154058 
L 452.125325 155.410167 
L 461.651625 143.783954 
L 471.177925 131.487708 
L 480.704225 121.155723 
L 490.230525 111.762359 
L 499.756825 103.85016 
L 509.283125 99.593244 
L 518.809425 97.813769 
L 528.335725 98.738423 
L 537.862025 104.32144 
L 547.388325 114.314289 
L 556.914625 128.784653 
L 566.440925 145.896118 
L 575.967225 165.471416 
L 585.493525 186.225987 
L 595.019825 206.565861 
L 604.546125 228.205694 
L 614.072425 249.425099 
L 623.598725 269.812961 
L 633.125025 288.644811 
L 642.651325 304.02443 
L 652.177625 318.405624 
L 661.703925 330.909935 
L 671.230225 338.982212 
L 680.756525 344.647954 
L 690.282825 348.71686 
L 699.809125 351.830314 
L 709.335425 353.651331 
L 718.861725 355.223099 
L 728.388025 356.972492 
L 737.914325 358.483022 
L 747.440625 359.456737 
L 756.966925 360.113521 
L 766.493225 361.425297 
L 776.019525 362.545124 
L 785.545825 363.598699 
L 795.072125 364.857474 
L 804.598425 365.58409 
L 814.124725 366.436404 
L 823.651025 367.704491 
L 833.177325 368.774181 
L 842.703625 369.581015 
L 852.229925 370.560818 
L 861.756225 371.657367 
L 871.282525 372.838073 
L 880.808825 374.090403 
L 890.335125 375.226702 
L 899.861425 376.227276 
L 909.387725 377.28694 
L 918.914025 378.282142 
L 928.440325 379.058536 
L 937.966625 379.751489 
L 947.492925 380.328771 
L 957.019225 380.757077 
L 966.545525 381.094063 
L 976.071825 381.362292 
L 985.598125 381.527025 
" style="fill:none;stroke:#f0ad4e;stroke-linecap:square;"/>
   </g>
   <g id="line2d_16">
    <path clip-path="url(#pdfbf6110f1)" d="M 32.968125 380.912553 
L 42.494425 381.112463 
L 52.020725 381.114716 
L 61.547025 380.936016 
L 71.073325 381.091815 
L 80.599625 381.077174 
L 90.125925 380.643377 
L 99.652225 379.128562 
L 109.178525 377.66424 
L 118.704825 377.879167 
L 128.231125 378.976517 
L 137.757425 379.569116 
L 147.283725 379.398863 
L 156.810025 379.196888 
L 166.336325 378.953992 
L 175.862625 378.707342 
L 185.388925 378.463319 
L 194.915225 378.167114 
L 204.441525 377.849322 
L 213.967825 377.428289 
L 223.494125 376.836066 
L 233.020425 376.110757 
L 242.546725 375.052075 
L 252.073025 373.534819 
L 261.599325 371.637077 
L 271.125625 368.905153 
L 280.651925 364.825663 
L 290.178225 359.423384 
L 299.704525 352.708829 
L 309.230825 343.693706 
L 318.757125 333.597751 
L 328.283425 323.099348 
L 337.809725 310.832159 
L 347.336025 297.823892 
L 356.862325 283.858495 
L 366.388625 270.066166 
L 375.914925 256.304433 
L 385.441225 242.299054 
L 394.967525 228.732351 
L 404.493825 215.065788 
L 414.020125 201.239108 
L 423.546425 186.7378 
L 433.072725 173.049086 
L 442.599025 157.182004 
L 452.125325 139.38189 
L 461.651625 124.399858 
L 471.177925 109.295816 
L 480.704225 95.430467 
L 490.230525 82.870639 
L 499.756825 72.442063 
L 509.283125 65.74534 
L 518.809425 66.542167 
L 528.335725 72.880553 
L 537.862025 80.813531 
L 547.388325 93.921659 
L 556.914625 110.835033 
L 566.440925 130.102472 
L 575.967225 152.015489 
L 585.493525 173.41756 
L 595.019825 198.168556 
L 604.546125 227.330349 
L 614.072425 254.633068 
L 623.598725 277.180918 
L 633.125025 298.587869 
L 642.651325 317.139572 
L 652.177625 329.318726 
L 661.703925 339.84904 
L 671.230225 348.726947 
L 680.756525 355.464779 
L 690.282825 360.452783 
L 699.809125 364.71773 
L 709.335425 367.360116 
L 718.861725 369.206614 
L 728.388025 370.520393 
L 737.914325 372.435968 
L 747.440625 374.040133 
L 756.966925 375.227208 
L 766.493225 376.318739 
L 776.019525 377.049116 
L 785.545825 377.812155 
L 795.072125 378.239382 
L 804.598425 378.500674 
L 814.124725 378.776231 
L 823.651025 378.946671 
L 833.177325 379.048222 
L 842.703625 379.176615 
L 852.229925 379.286238 
L 861.756225 379.379529 
L 871.282525 379.536454 
L 880.808825 379.768839 
L 890.335125 380.024499 
L 899.861425 380.285603 
L 909.387725 380.525683 
L 918.914025 380.727846 
L 928.440325 380.911614 
L 937.966625 381.081867 
L 947.492925 381.223775 
L 957.019225 381.346161 
L 966.545525 381.443958 
L 976.071825 381.508906 
L 985.598125 381.568222 
" style="fill:none;stroke:#f0ad4e;stroke-linecap:square;"/>
   </g>
   <g id="line2d_17">
    <path clip-path="url(#pdfbf6110f1)" d="M 32.968125 380.91781 
L 42.494425 381.129171 
L 52.020725 381.146252 
L 61.547025 380.974686 
L 71.073325 381.087687 
L 80.599625 381.054087 
L 90.125925 380.680921 
L 99.652225 379.472075 
L 109.178525 378.228503 
L 118.704825 378.40814 
L 128.231125 379.276482 
L 137.757425 379.609103 
L 147.283725 379.442417 
L 156.810025 379.219794 
L 166.336325 378.9784 
L 175.862625 378.745078 
L 185.388925 378.509879 
L 194.915225 378.220244 
L 204.441525 377.832437 
L 213.967825 377.343079 
L 223.494125 376.731711 
L 233.020425 375.930569 
L 242.546725 374.759076 
L 252.073025 373.080582 
L 261.599325 371.057079 
L 271.125625 368.071942 
L 280.651925 363.816953 
L 290.178225 358.377896 
L 299.704525 351.594279 
L 309.230825 342.889085 
L 318.757125 332.678276 
L 328.283425 321.869801 
L 337.809725 309.771578 
L 347.336025 296.469202 
L 356.862325 282.230345 
L 366.388625 268.026401 
L 375.914925 253.005173 
L 385.441225 237.913178 
L 394.967525 223.473473 
L 404.493825 209.368264 
L 414.020125 195.416227 
L 423.546425 180.68163 
L 433.072725 166.94114 
L 442.599025 151.676454 
L 452.125325 134.440446 
L 461.651625 119.489796 
L 471.177925 105.992765 
L 480.704225 93.98239 
L 490.230525 82.415196 
L 499.756825 73.334959 
L 509.283125 68.213881 
L 518.809425 72.503032 
L 528.335725 83.049465 
L 537.862025 92.109617 
L 547.388325 105.411806 
L 556.914625 122.603514 
L 566.440925 140.607439 
L 575.967225 161.216202 
L 585.493525 181.748944 
L 595.019825 204.058351 
L 604.546125 230.510497 
L 614.072425 256.726505 
L 623.598725 278.853834 
L 633.125025 298.851042 
L 642.651325 316.278888 
L 652.177625 328.276499 
L 661.703925 338.736773 
L 671.230225 347.567545 
L 680.756525 353.879824 
L 690.282825 358.677667 
L 699.809125 362.504867 
L 709.335425 365.09619 
L 718.861725 367.081777 
L 728.388025 368.194891 
L 737.914325 369.726034 
L 747.440625 371.269941 
L 756.966925 372.756784 
L 766.493225 374.280606 
L 776.019525 375.439146 
L 785.545825 376.426496 
L 795.072125 377.185591 
L 804.598425 377.774998 
L 814.124725 378.308091 
L 823.651025 378.809274 
L 833.177325 379.205716 
L 842.703625 379.511682 
L 852.229925 379.769594 
L 861.756225 379.99278 
L 871.282525 380.228355 
L 880.808825 380.47125 
L 890.335125 380.661024 
L 899.861425 380.827334 
L 909.387725 381.006033 
L 918.914025 381.162583 
L 928.440325 381.289662 
L 937.966625 381.389711 
L 947.492925 381.462917 
L 957.019225 381.526738 
L 966.545525 381.576293 
L 976.071825 381.61177 
L 985.598125 381.636548 
" style="fill:none;stroke:#5cb85c;stroke-linecap:square;"/>
   </g>
   <g id="line2d_18">
    <path clip-path="url(#pdfbf6110f1)" d="M 32.968125 380.717845 
L 42.494425 380.978549 
L 52.020725 381.010484 
L 61.547025 380.809045 
L 71.073325 380.992981 
L 80.599625 380.992981 
L 90.125925 380.536059 
L 99.652225 379.127828 
L 109.178525 377.629012 
L 118.704825 377.749384 
L 128.231125 378.816458 
L 137.757425 379.290883 
L 147.283725 379.032329 
L 156.810025 378.70929 
L 166.336325 378.445516 
L 175.862625 378.183584 
L 185.388925 377.853175 
L 194.915225 377.433715 
L 204.441525 376.920598 
L 213.967825 376.316589 
L 223.494125 375.582688 
L 233.020425 374.68696 
L 242.546725 373.369316 
L 252.073025 371.510919 
L 261.599325 369.191608 
L 271.125625 365.935728 
L 280.651925 361.262713 
L 290.178225 355.020256 
L 299.704525 348.171332 
L 309.230825 340.182559 
L 318.757125 331.123641 
L 328.283425 321.915794 
L 337.809725 310.822835 
L 347.336025 298.491763 
L 356.862325 285.488511 
L 366.388625 273.756229 
L 375.914925 261.964068 
L 385.441225 249.41651 
L 394.967525 238.404618 
L 404.493825 226.884522 
L 414.020125 214.45488 
L 423.546425 202.555243 
L 433.072725 191.422672 
L 442.599025 177.363708 
L 452.125325 162.74956 
L 461.651625 151.121374 
L 471.177925 138.736565 
L 480.704225 125.561046 
L 490.230525 112.97664 
L 499.756825 102.043665 
L 509.283125 94.449786 
L 518.809425 87.213031 
L 528.335725 80.141788 
L 537.862025 79.234391 
L 547.388325 83.250887 
L 556.914625 96.627537 
L 566.440925 124.79521 
L 575.967225 153.983281 
L 585.493525 178.261893 
L 595.019825 201.04046 
L 604.546125 227.289856 
L 614.072425 252.053641 
L 623.598725 272.642173 
L 633.125025 292.003034 
L 642.651325 310.00541 
L 652.177625 325.284676 
L 661.703925 335.714054 
L 671.230225 342.825217 
L 680.756525 349.033589 
L 690.282825 353.967615 
L 699.809125 356.000428 
L 709.335425 358.456079 
L 718.861725 359.827461 
L 728.388025 361.441736 
L 737.914325 363.967706 
L 747.440625 365.083604 
L 756.966925 365.370716 
L 766.493225 366.130718 
L 776.019525 366.726744 
L 785.545825 367.255521 
L 795.072125 367.774779 
L 804.598425 367.877648 
L 814.124725 368.036097 
L 823.651025 368.289431 
L 833.177325 368.471525 
L 842.703625 368.721174 
L 852.229925 369.197442 
L 861.756225 369.973412 
L 871.282525 370.902303 
L 880.808825 371.888924 
L 890.335125 373.101549 
L 899.861425 374.356551 
L 909.387725 375.728239 
L 918.914025 377.070449 
L 928.440325 378.034961 
L 937.966625 378.763028 
L 947.492925 379.445955 
L 957.019225 380.014958 
L 966.545525 380.418757 
L 976.071825 380.802904 
L 985.598125 381.165555 
" style="fill:none;stroke:#f0ad4e;stroke-linecap:square;"/>
   </g>
   <g id="line2d_19">
    <path clip-path="url(#pdfbf6110f1)" d="M 32.968125 380.634345 
L 42.494425 380.956763 
L 52.020725 381.072833 
L 61.547025 380.888902 
L 71.073325 380.988083 
L 80.599625 380.945401 
L 90.125925 380.603332 
L 99.652225 379.511718 
L 109.178525 378.290523 
L 118.704825 378.32952 
L 128.231125 379.072616 
L 137.757425 379.324102 
L 147.283725 379.065246 
L 156.810025 378.764937 
L 166.336325 378.483974 
L 175.862625 378.240164 
L 185.388925 377.926959 
L 194.915225 377.505974 
L 204.441525 377.023268 
L 213.967825 376.418352 
L 223.494125 375.715788 
L 233.020425 374.719364 
L 242.546725 373.280768 
L 252.073025 371.516376 
L 261.599325 369.197426 
L 271.125625 365.783485 
L 280.651925 360.849574 
L 290.178225 354.615861 
L 299.704525 347.791663 
L 309.230825 339.511058 
L 318.757125 330.421953 
L 328.283425 320.978496 
L 337.809725 309.566756 
L 347.336025 296.733922 
L 356.862325 283.113161 
L 366.388625 271.088521 
L 375.914925 258.270427 
L 385.441225 244.373615 
L 394.967525 232.584186 
L 404.493825 219.433541 
L 414.020125 206.571229 
L 423.546425 195.336051 
L 433.072725 183.897904 
L 442.599025 169.962402 
L 452.125325 156.11687 
L 461.651625 144.964292 
L 471.177925 133.10516 
L 480.704225 121.900688 
L 490.230525 111.602671 
L 499.756825 102.014279 
L 509.283125 95.018432 
L 518.809425 89.263432 
L 528.335725 85.303837 
L 537.862025 88.288195 
L 547.388325 98.156016 
L 556.914625 115.995227 
L 566.440925 142.82129 
L 575.967225 170.639172 
L 585.493525 193.895612 
L 595.019825 214.936583 
L 604.546125 236.508775 
L 614.072425 257.431527 
L 623.598725 277.204015 
L 633.125025 295.209041 
L 642.651325 310.03073 
L 652.177625 323.270424 
L 661.703925 334.447567 
L 671.230225 341.803908 
L 680.756525 346.949078 
L 690.282825 350.760668 
L 699.809125 353.495383 
L 709.335425 355.063254 
L 718.861725 356.075645 
L 728.388025 357.291927 
L 737.914325 358.343008 
L 747.440625 358.873001 
L 756.966925 359.316709 
L 766.493225 360.339848 
L 776.019525 361.32706 
L 785.545825 362.095335 
L 795.072125 362.953887 
L 804.598425 363.951539 
L 814.124725 365.108864 
L 823.651025 366.299046 
L 833.177325 367.527917 
L 842.703625 368.631814 
L 852.229925 369.896612 
L 861.756225 371.325382 
L 871.282525 372.668789 
L 880.808825 374.001755 
L 890.335125 375.27423 
L 899.861425 376.465639 
L 909.387725 377.501982 
L 918.914025 378.468313 
L 928.440325 379.269751 
L 937.966625 379.903225 
L 947.492925 380.436596 
L 957.019225 380.833937 
L 966.545525 381.151442 
L 976.071825 381.39433 
L 985.598125 381.54387 
" style="fill:none;stroke:#f0ad4e;stroke-linecap:square;"/>
   </g>
   <g id="line2d_20">
    <path clip-path="url(#pdfbf6110f1)" d="M 32.968125 380.962319 
L 42.494425 381.161788 
L 52.020725 381.254216 
L 61.547025 381.137676 
L 71.073325 381.226999 
L 80.599625 381.230104 
L 90.125925 380.90405 
L 99.652225 379.94744 
L 109.178525 378.93932 
L 118.704825 378.88105 
L 128.231125 379.472697 
L 137.757425 379.771352 
L 147.283725 379.569509 
L 156.810025 379.317251 
L 166.336325 379.056955 
L 175.862625 378.811455 
L 185.388925 378.57381 
L 194.915225 378.209944 
L 204.441525 377.763696 
L 213.967825 377.256987 
L 223.494125 376.599033 
L 233.020425 375.750012 
L 242.546725 374.518129 
L 252.073025 372.619888 
L 261.599325 370.052003 
L 271.125625 366.537737 
L 280.651925 361.535676 
L 290.178225 355.148294 
L 299.704525 347.045152 
L 309.230825 336.588755 
L 318.757125 324.850607 
L 328.283425 312.273119 
L 337.809725 298.047275 
L 347.336025 282.801437 
L 356.862325 267.187349 
L 366.388625 253.289934 
L 375.914925 239.10318 
L 385.441225 224.672752 
L 394.967525 212.421502 
L 404.493825 200.070152 
L 414.020125 188.011429 
L 423.546425 176.760993 
L 433.072725 165.875884 
L 442.599025 152.732139 
L 452.125325 138.413684 
L 461.651625 126.287741 
L 471.177925 114.17148 
L 480.704225 102.520462 
L 490.230525 91.828063 
L 499.756825 81.793801 
L 509.283125 69.611233 
L 518.809425 68.743946 
L 528.335725 81.445645 
L 537.862025 93.963036 
L 547.388325 109.009405 
L 556.914625 127.247456 
L 566.440925 147.182087 
L 575.967225 168.186396 
L 585.493525 190.447797 
L 595.019825 215.174608 
L 604.546125 241.177873 
L 614.072425 266.227817 
L 623.598725 288.711154 
L 633.125025 308.009384 
L 642.651325 323.602101 
L 652.177625 334.306921 
L 661.703925 343.152225 
L 671.230225 351.030142 
L 680.756525 356.58403 
L 690.282825 361.36379 
L 699.809125 364.871297 
L 709.335425 367.05431 
L 718.861725 368.906885 
L 728.388025 369.946241 
L 737.914325 371.323159 
L 747.440625 372.749397 
L 756.966925 373.928856 
L 766.493225 374.757784 
L 776.019525 375.394001 
L 785.545825 376.197904 
L 795.072125 376.727994 
L 804.598425 377.027927 
L 814.124725 377.32092 
L 823.651025 377.635832 
L 833.177325 377.976865 
L 842.703625 378.230585 
L 852.229925 378.473345 
L 861.756225 378.78022 
L 871.282525 379.067367 
L 880.808825 379.376068 
L 890.335125 379.703036 
L 899.861425 380.079506 
L 909.387725 380.429855 
L 918.914025 380.690881 
L 928.440325 380.900944 
L 937.966625 381.085983 
L 947.492925 381.231748 
L 957.019225 381.338606 
L 966.545525 381.420074 
L 976.071825 381.494967 
L 985.598125 381.572233 
" style="fill:none;stroke:#f0ad4e;stroke-linecap:square;"/>
   </g>
   <g id="line2d_21">
    <path clip-path="url(#pdfbf6110f1)" d="M 32.968125 380.965243 
L 42.494425 381.175672 
L 52.020725 381.276319 
L 61.547025 381.179507 
L 71.073325 381.246545 
L 80.599625 381.206724 
L 90.125925 380.929807 
L 99.652225 380.206643 
L 109.178525 379.401463 
L 118.704825 379.31689 
L 128.231125 379.713452 
L 137.757425 379.827982 
L 147.283725 379.60422 
L 156.810025 379.360364 
L 166.336325 379.149388 
L 175.862625 378.897495 
L 185.388925 378.587881 
L 194.915225 378.275892 
L 204.441525 377.861429 
L 213.967825 377.294077 
L 223.494125 376.545523 
L 233.020425 375.544529 
L 242.546725 374.160672 
L 252.073025 372.243438 
L 261.599325 369.748624 
L 271.125625 366.164405 
L 280.651925 361.075224 
L 290.178225 354.55305 
L 299.704525 346.485362 
L 309.230825 336.091457 
L 318.757125 324.27698 
L 328.283425 311.794321 
L 337.809725 297.271862 
L 347.336025 281.533048 
L 356.862325 265.491743 
L 366.388625 250.499839 
L 375.914925 235.098404 
L 385.441225 219.648198 
L 394.967525 207.09704 
L 404.493825 195.265393 
L 414.020125 183.613669 
L 423.546425 172.732784 
L 433.072725 162.446834 
L 442.599025 150.637654 
L 452.125325 137.342874 
L 461.651625 126.771238 
L 471.177925 116.060778 
L 480.704225 104.822787 
L 490.230525 94.143927 
L 499.756825 83.500505 
L 509.283125 73.119935 
L 518.809425 76.17991 
L 528.335725 90.405176 
L 537.862025 101.206237 
L 547.388325 115.471324 
L 556.914625 134.272488 
L 566.440925 153.845769 
L 575.967225 174.57677 
L 585.493525 195.26795 
L 595.019825 217.817181 
L 604.546125 242.944156 
L 614.072425 267.913858 
L 623.598725 289.210932 
L 633.125025 307.287106 
L 642.651325 322.916139 
L 652.177625 333.459097 
L 661.703925 341.846994 
L 671.230225 349.484327 
L 680.756525 355.336493 
L 690.282825 359.767538 
L 699.809125 362.94807 
L 709.335425 365.004311 
L 718.861725 366.408809 
L 728.388025 367.043929 
L 737.914325 368.417922 
L 747.440625 369.902974 
L 756.966925 371.179242 
L 766.493225 372.448021 
L 776.019525 373.485183 
L 785.545825 374.480515 
L 795.072125 375.307249 
L 804.598425 376.01927 
L 814.124725 376.716313 
L 823.651025 377.359653 
L 833.177325 377.926092 
L 842.703625 378.381106 
L 852.229925 378.761046 
L 861.756225 379.189574 
L 871.282525 379.627418 
L 880.808825 379.974113 
L 890.335125 380.254318 
L 899.861425 380.538177 
L 909.387725 380.798289 
L 918.914025 380.998853 
L 928.440325 381.162702 
L 937.966625 381.310294 
L 947.492925 381.421354 
L 957.019225 381.49862 
L 966.545525 381.559995 
L 976.071825 381.605113 
L 985.598125 381.631051 
" style="fill:none;stroke:#f0ad4e;stroke-linecap:square;"/>
   </g>
   <g id="line2d_22">
    <path clip-path="url(#pdfbf6110f1)" d="M 32.968125 380.476806 
L 42.494425 380.803994 
L 52.020725 380.932185 
L 61.547025 380.779929 
L 71.073325 380.970596 
L 80.599625 380.996975 
L 90.125925 380.562884 
L 99.652225 379.116222 
L 109.178525 377.61819 
L 118.704825 377.793123 
L 128.231125 378.974147 
L 137.757425 379.500795 
L 147.283725 379.299021 
L 156.810025 379.140286 
L 166.336325 378.941289 
L 175.862625 378.689535 
L 185.388925 378.440094 
L 194.915225 378.169829 
L 204.441525 377.732035 
L 213.967825 377.194281 
L 223.494125 376.699102 
L 233.020425 375.933657 
L 242.546725 374.791507 
L 252.073025 373.169913 
L 261.599325 371.023984 
L 271.125625 368.371308 
L 280.651925 364.268267 
L 290.178225 358.657939 
L 299.704525 352.43396 
L 309.230825 344.572189 
L 318.757125 335.488206 
L 328.283425 325.716064 
L 337.809725 314.011799 
L 347.336025 300.993228 
L 356.862325 287.547046 
L 366.388625 276.056587 
L 375.914925 264.361115 
L 385.441225 252.070966 
L 394.967525 242.314559 
L 404.493825 232.311024 
L 414.020125 222.295458 
L 423.546425 213.449808 
L 433.072725 204.414418 
L 442.599025 192.921645 
L 452.125325 180.769869 
L 461.651625 169.626035 
L 471.177925 156.77962 
L 480.704225 142.808178 
L 490.230525 128.834884 
L 499.756825 115.981065 
L 509.283125 107.672708 
L 518.809425 101.795354 
L 528.335725 98.361035 
L 537.862025 100.337122 
L 547.388325 109.557626 
L 556.914625 122.176351 
L 566.440925 137.314472 
L 575.967225 154.789187 
L 585.493525 178.14681 
L 595.019825 201.144388 
L 604.546125 220.255044 
L 614.072425 239.4055 
L 623.598725 261.347004 
L 633.125025 282.59711 
L 642.651325 298.026784 
L 652.177625 310.888008 
L 661.703925 323.926016 
L 671.230225 333.887437 
L 680.756525 337.425419 
L 690.282825 342.7354 
L 699.809125 344.90493 
L 709.335425 345.513491 
L 718.861725 348.603961 
L 728.388025 350.880395 
L 737.914325 351.415373 
L 747.440625 352.901834 
L 756.966925 354.678924 
L 766.493225 355.347646 
L 776.019525 355.456401 
L 785.545825 356.02979 
L 795.072125 356.977571 
L 804.598425 356.98081 
L 814.124725 357.252465 
L 823.651025 358.203948 
L 833.177325 359.021224 
L 842.703625 359.819989 
L 852.229925 360.889482 
L 861.756225 361.98628 
L 871.282525 363.365376 
L 880.808825 365.170232 
L 890.335125 367.268957 
L 899.861425 369.399613 
L 909.387725 371.622827 
L 918.914025 373.687768 
L 928.440325 375.263084 
L 937.966625 376.675037 
L 947.492925 377.910207 
L 957.019225 378.901953 
L 966.545525 379.72941 
L 976.071825 380.393968 
L 985.598125 380.980777 
" style="fill:none;stroke:#f0ad4e;stroke-linecap:square;"/>
   </g>
   <g id="line2d_23">
    <path clip-path="url(#pdfbf6110f1)" d="M 32.968125 380.485156 
L 42.494425 380.828536 
L 52.020725 380.971071 
L 61.547025 380.798918 
L 71.073325 380.949783 
L 80.599625 380.918777 
L 90.125925 380.514774 
L 99.652225 379.37866 
L 109.178525 378.072244 
L 118.704825 378.162486 
L 128.231125 379.175964 
L 137.757425 379.571175 
L 147.283725 379.365702 
L 156.810025 379.186145 
L 166.336325 378.982061 
L 175.862625 378.747897 
L 185.388925 378.564175 
L 194.915225 378.301318 
L 204.441525 377.912124 
L 213.967825 377.448423 
L 223.494125 376.893555 
L 233.020425 376.163295 
L 242.546725 375.139635 
L 252.073025 373.572214 
L 261.599325 371.428174 
L 271.125625 368.557114 
L 280.651925 364.4199 
L 290.178225 358.991542 
L 299.704525 352.896787 
L 309.230825 344.861613 
L 318.757125 335.431634 
L 328.283425 325.752682 
L 337.809725 313.753835 
L 347.336025 300.453663 
L 356.862325 287.632001 
L 366.388625 276.035306 
L 375.914925 263.790726 
L 385.441225 251.488761 
L 394.967525 241.900049 
L 404.493825 232.181298 
L 414.020125 222.802224 
L 423.546425 214.637936 
L 433.072725 206.193207 
L 442.599025 195.395263 
L 452.125325 184.468667 
L 461.651625 175.274703 
L 471.177925 164.435572 
L 480.704225 152.089644 
L 490.230525 139.000035 
L 499.756825 127.512555 
L 509.283125 119.903598 
L 518.809425 112.740757 
L 528.335725 107.949178 
L 537.862025 110.098308 
L 547.388325 117.650806 
L 556.914625 127.493581 
L 566.440925 142.072865 
L 575.967225 162.67795 
L 585.493525 183.234907 
L 595.019825 201.597382 
L 604.546125 219.926999 
L 614.072425 239.495004 
L 623.598725 259.781237 
L 633.125025 279.194675 
L 642.651325 295.12619 
L 652.177625 309.364871 
L 661.703925 321.764944 
L 671.230225 329.702934 
L 680.756525 335.410346 
L 690.282825 339.598466 
L 699.809125 342.382524 
L 709.335425 343.234494 
L 718.861725 343.358055 
L 728.388025 344.718616 
L 737.914325 345.620565 
L 747.440625 345.573825 
L 756.966925 345.3429 
L 766.493225 345.791792 
L 776.019525 345.992174 
L 785.545825 346.725211 
L 795.072125 348.135288 
L 804.598425 349.068244 
L 814.124725 350.256652 
L 823.651025 351.88701 
L 833.177325 353.714048 
L 842.703625 355.281007 
L 852.229925 357.177461 
L 861.756225 359.453392 
L 871.282525 361.931556 
L 880.808825 364.744769 
L 890.335125 367.231725 
L 899.861425 369.588178 
L 909.387725 372.048757 
L 918.914025 374.117826 
L 928.440325 375.831947 
L 937.966625 377.314218 
L 947.492925 378.569728 
L 957.019225 379.587372 
L 966.545525 380.428698 
L 976.071825 381.045578 
L 985.598125 381.400527 
" style="fill:none;stroke:#f0ad4e;stroke-linecap:square;"/>
   </g>
   <g id="line2d_24">
    <path clip-path="url(#pdfbf6110f1)" d="M 32.968125 381.6495 
L 985.598125 381.6495 
" style="fill:none;stroke:#dedede;stroke-linecap:square;stroke-width:2;"/>
   </g>
   <g id="text_14">
    <!-- FastQC: Per Sequence GC Content -->
    <defs>
     <path d="M 9.8125 72.90625 
L 51.703125 72.90625 
L 51.703125 64.59375 
L 19.671875 64.59375 
L 19.671875 43.109375 
L 48.578125 43.109375 
L 48.578125 34.8125 
L 19.671875 34.8125 
L 19.671875 0 
L 9.8125 0 
z
" id="DejaVuSans-46"/>
     <path d="M 44.28125 53.078125 
L 44.28125 44.578125 
Q 40.484375 46.53125 36.375 47.5 
Q 32.28125 48.484375 27.875 48.484375 
Q 21.1875 48.484375 17.84375 46.4375 
Q 14.5 44.390625 14.5 40.28125 
Q 14.5 37.15625 16.890625 35.375 
Q 19.28125 33.59375 26.515625 31.984375 
L 29.59375 31.296875 
Q 39.15625 29.25 43.1875 25.515625 
Q 47.21875 21.78125 47.21875 15.09375 
Q 47.21875 7.46875 41.1875 3.015625 
Q 35.15625 -1.421875 24.609375 -1.421875 
Q 20.21875 -1.421875 15.453125 -0.5625 
Q 10.6875 0.296875 5.421875 2 
L 5.421875 11.28125 
Q 10.40625 8.6875 15.234375 7.390625 
Q 20.0625 6.109375 24.8125 6.109375 
Q 31.15625 6.109375 34.5625 8.28125 
Q 37.984375 10.453125 37.984375 14.40625 
Q 37.984375 18.0625 35.515625 20.015625 
Q 33.0625 21.96875 24.703125 23.78125 
L 21.578125 24.515625 
Q 13.234375 26.265625 9.515625 29.90625 
Q 5.8125 33.546875 5.8125 39.890625 
Q 5.8125 47.609375 11.28125 51.796875 
Q 16.75 56 26.8125 56 
Q 31.78125 56 36.171875 55.265625 
Q 40.578125 54.546875 44.28125 53.078125 
z
" id="DejaVuSans-73"/>
     <path d="M 39.40625 66.21875 
Q 28.65625 66.21875 22.328125 58.203125 
Q 16.015625 50.203125 16.015625 36.375 
Q 16.015625 22.609375 22.328125 14.59375 
Q 28.65625 6.59375 39.40625 6.59375 
Q 50.140625 6.59375 56.421875 14.59375 
Q 62.703125 22.609375 62.703125 36.375 
Q 62.703125 50.203125 56.421875 58.203125 
Q 50.140625 66.21875 39.40625 66.21875 
z
M 53.21875 1.3125 
L 66.21875 -12.890625 
L 54.296875 -12.890625 
L 43.5 -1.21875 
Q 41.890625 -1.3125 41.03125 -1.359375 
Q 40.1875 -1.421875 39.40625 -1.421875 
Q 24.03125 -1.421875 14.8125 8.859375 
Q 5.609375 19.140625 5.609375 36.375 
Q 5.609375 53.65625 14.8125 63.9375 
Q 24.03125 74.21875 39.40625 74.21875 
Q 54.734375 74.21875 63.90625 63.9375 
Q 73.09375 53.65625 73.09375 36.375 
Q 73.09375 23.6875 67.984375 14.640625 
Q 62.890625 5.609375 53.21875 1.3125 
z
" id="DejaVuSans-51"/>
     <path d="M 11.71875 12.40625 
L 22.015625 12.40625 
L 22.015625 0 
L 11.71875 0 
z
M 11.71875 51.703125 
L 22.015625 51.703125 
L 22.015625 39.3125 
L 11.71875 39.3125 
z
" id="DejaVuSans-3a"/>
     <path d="M 53.515625 70.515625 
L 53.515625 60.890625 
Q 47.90625 63.578125 42.921875 64.890625 
Q 37.9375 66.21875 33.296875 66.21875 
Q 25.25 66.21875 20.875 63.09375 
Q 16.5 59.96875 16.5 54.203125 
Q 16.5 49.359375 19.40625 46.890625 
Q 22.3125 44.4375 30.421875 42.921875 
L 36.375 41.703125 
Q 47.40625 39.59375 52.65625 34.296875 
Q 57.90625 29 57.90625 20.125 
Q 57.90625 9.515625 50.796875 4.046875 
Q 43.703125 -1.421875 29.984375 -1.421875 
Q 24.8125 -1.421875 18.96875 -0.25 
Q 13.140625 0.921875 6.890625 3.21875 
L 6.890625 13.375 
Q 12.890625 10.015625 18.65625 8.296875 
Q 24.421875 6.59375 29.984375 6.59375 
Q 38.421875 6.59375 43.015625 9.90625 
Q 47.609375 13.234375 47.609375 19.390625 
Q 47.609375 24.75 44.3125 27.78125 
Q 41.015625 30.8125 33.5 32.328125 
L 27.484375 33.5 
Q 16.453125 35.6875 11.515625 40.375 
Q 6.59375 45.0625 6.59375 53.421875 
Q 6.59375 63.09375 13.40625 68.65625 
Q 20.21875 74.21875 32.171875 74.21875 
Q 37.3125 74.21875 42.625 73.28125 
Q 47.953125 72.359375 53.515625 70.515625 
z
" id="DejaVuSans-53"/>
     <path d="M 14.796875 27.296875 
Q 14.796875 17.390625 18.875 11.75 
Q 22.953125 6.109375 30.078125 6.109375 
Q 37.203125 6.109375 41.296875 11.75 
Q 45.40625 17.390625 45.40625 27.296875 
Q 45.40625 37.203125 41.296875 42.84375 
Q 37.203125 48.484375 30.078125 48.484375 
Q 22.953125 48.484375 18.875 42.84375 
Q 14.796875 37.203125 14.796875 27.296875 
z
M 45.40625 8.203125 
Q 42.578125 3.328125 38.25 0.953125 
Q 33.9375 -1.421875 27.875 -1.421875 
Q 17.96875 -1.421875 11.734375 6.484375 
Q 5.515625 14.40625 5.515625 27.296875 
Q 5.515625 40.1875 11.734375 48.09375 
Q 17.96875 56 27.875 56 
Q 33.9375 56 38.25 53.625 
Q 42.578125 51.265625 45.40625 46.390625 
L 45.40625 54.6875 
L 54.390625 54.6875 
L 54.390625 -20.796875 
L 45.40625 -20.796875 
z
" id="DejaVuSans-71"/>
     <path d="M 8.5 21.578125 
L 8.5 54.6875 
L 17.484375 54.6875 
L 17.484375 21.921875 
Q 17.484375 14.15625 20.5 10.265625 
Q 23.53125 6.390625 29.59375 6.390625 
Q 36.859375 6.390625 41.078125 11.03125 
Q 45.3125 15.671875 45.3125 23.6875 
L 45.3125 54.6875 
L 54.296875 54.6875 
L 54.296875 0 
L 45.3125 0 
L 45.3125 8.40625 
Q 42.046875 3.421875 37.71875 1 
Q 33.40625 -1.421875 27.6875 -1.421875 
Q 18.265625 -1.421875 13.375 4.4375 
Q 8.5 10.296875 8.5 21.578125 
z
M 31.109375 56 
z
" id="DejaVuSans-75"/>
     <path d="M 30.609375 48.390625 
Q 23.390625 48.390625 19.1875 42.75 
Q 14.984375 37.109375 14.984375 27.296875 
Q 14.984375 17.484375 19.15625 11.84375 
Q 23.34375 6.203125 30.609375 6.203125 
Q 37.796875 6.203125 41.984375 11.859375 
Q 46.1875 17.53125 46.1875 27.296875 
Q 46.1875 37.015625 41.984375 42.703125 
Q 37.796875 48.390625 30.609375 48.390625 
z
M 30.609375 56 
Q 42.328125 56 49.015625 48.375 
Q 55.71875 40.765625 55.71875 27.296875 
Q 55.71875 13.875 49.015625 6.21875 
Q 42.328125 -1.421875 30.609375 -1.421875 
Q 18.84375 -1.421875 12.171875 6.21875 
Q 5.515625 13.875 5.515625 27.296875 
Q 5.515625 40.765625 12.171875 48.375 
Q 18.84375 56 30.609375 56 
z
" id="DejaVuSans-6f"/>
    </defs>
    <g transform="translate(371.641875 19.3575)scale(0.16 -0.16)">
     <use xlink:href="#DejaVuSans-46"/>
     <use x="57.378906" xlink:href="#DejaVuSans-61"/>
     <use x="118.658203" xlink:href="#DejaVuSans-73"/>
     <use x="170.757812" xlink:href="#DejaVuSans-74"/>
     <use x="209.966797" xlink:href="#DejaVuSans-51"/>
     <use x="288.677734" xlink:href="#DejaVuSans-43"/>
     <use x="358.501953" xlink:href="#DejaVuSans-3a"/>
     <use x="392.193359" xlink:href="#DejaVuSans-20"/>
     <use x="423.980469" xlink:href="#DejaVuSans-50"/>
     <use x="484.236328" xlink:href="#DejaVuSans-65"/>
     <use x="545.759766" xlink:href="#DejaVuSans-72"/>
     <use x="586.873047" xlink:href="#DejaVuSans-20"/>
     <use x="618.660156" xlink:href="#DejaVuSans-53"/>
     <use x="682.136719" xlink:href="#DejaVuSans-65"/>
     <use x="743.660156" xlink:href="#DejaVuSans-71"/>
     <use x="807.136719" xlink:href="#DejaVuSans-75"/>
     <use x="870.515625" xlink:href="#DejaVuSans-65"/>
     <use x="932.039062" xlink:href="#DejaVuSans-6e"/>
     <use x="995.417969" xlink:href="#DejaVuSans-63"/>
     <use x="1050.398438" xlink:href="#DejaVuSans-65"/>
     <use x="1111.921875" xlink:href="#DejaVuSans-20"/>
     <use x="1143.708984" xlink:href="#DejaVuSans-47"/>
     <use x="1221.199219" xlink:href="#DejaVuSans-43"/>
     <use x="1291.023438" xlink:href="#DejaVuSans-20"/>
     <use x="1322.810547" xlink:href="#DejaVuSans-43"/>
     <use x="1392.634766" xlink:href="#DejaVuSans-6f"/>
     <use x="1453.816406" xlink:href="#DejaVuSans-6e"/>
     <use x="1517.195312" xlink:href="#DejaVuSans-74"/>
     <use x="1556.404297" xlink:href="#DejaVuSans-65"/>
     <use x="1617.927734" xlink:href="#DejaVuSans-6e"/>
     <use x="1681.306641" xlink:href="#DejaVuSans-74"/>
    </g>
   </g>
  </g>
 </g>
 <defs>
  <clipPath id="pdfbf6110f1">
   <rect height="345.04" width="952.63" x="32.968125" y="36.6095"/>
  </clipPath>
 </defs>
</svg>
