<?xml version="1.0" encoding="utf-8" standalone="no"?>
<!DOCTYPE svg PUBLIC "-//W3C//DTD SVG 1.1//EN"
  "http://www.w3.org/Graphics/SVG/1.1/DTD/svg11.dtd">
<!-- Created with matplotlib (http://matplotlib.org/) -->
<svg height="417.270125pt" version="1.1" viewBox="0 0 1001.388125 417.270125" width="1001.388125pt" xmlns="http://www.w3.org/2000/svg" xmlns:xlink="http://www.w3.org/1999/xlink">
 <defs>
  <style type="text/css">
*{stroke-linecap:butt;stroke-linejoin:round;}
  </style>
 </defs>
 <g id="figure_1">
  <g id="patch_1">
   <path d="M 0 417.270125 
L 1001.388125 417.270125 
L 1001.388125 0 
L 0 0 
z
" style="fill:#ffffff;"/>
  </g>
  <g id="axes_1">
   <g id="patch_2">
    <path d="M 38.058125 381.6495 
L 990.688125 381.6495 
L 990.688125 36.6095 
L 38.058125 36.6095 
z
" style="fill:#ffffff;"/>
   </g>
   <g id="patch_3">
    <path clip-path="url(#pb318c79b9e)" d="M 38.058125 616.866562 
L 957.341098 616.866562 
L 957.341098 -324.001686 
L 38.058125 -324.001686 
z
" style="fill:#e6c3c3;"/>
   </g>
   <g id="patch_4">
    <path clip-path="url(#pb318c79b9e)" d="M 38.058125 411.051633 
L 957.341098 411.051633 
L 957.341098 234.638836 
L 38.058125 234.638836 
z
" style="fill:#e6dcc3;"/>
   </g>
   <g id="patch_5">
    <path clip-path="url(#pb318c79b9e)" d="M 38.058125 411.051633 
L 957.341098 411.051633 
L 957.341098 352.247367 
L 38.058125 352.247367 
z
" style="fill:#c3e6c3;"/>
   </g>
   <g id="matplotlib.axis_1">
    <g id="xtick_1">
     <g id="text_1">
      <!-- 0 -->
      <defs>
       <path d="M 31.78125 66.40625 
Q 24.171875 66.40625 20.328125 58.90625 
Q 16.5 51.421875 16.5 36.375 
Q 16.5 21.390625 20.328125 13.890625 
Q 24.171875 6.390625 31.78125 6.390625 
Q 39.453125 6.390625 43.28125 13.890625 
Q 47.125 21.390625 47.125 36.375 
Q 47.125 51.421875 43.28125 58.90625 
Q 39.453125 66.40625 31.78125 66.40625 
z
M 31.78125 74.21875 
Q 44.046875 74.21875 50.515625 64.515625 
Q 56.984375 54.828125 56.984375 36.375 
Q 56.984375 17.96875 50.515625 8.265625 
Q 44.046875 -1.421875 31.78125 -1.421875 
Q 19.53125 -1.421875 13.0625 8.265625 
Q 6.59375 17.96875 6.59375 36.375 
Q 6.59375 54.828125 13.0625 64.515625 
Q 19.53125 74.21875 31.78125 74.21875 
z
" id="DejaVuSans-30"/>
      </defs>
      <g transform="translate(68.860152 394.72825)scale(0.08 -0.08)">
       <use xlink:href="#DejaVuSans-30"/>
      </g>
     </g>
    </g>
    <g id="xtick_2">
     <g id="text_2">
      <!-- 20 -->
      <defs>
       <path d="M 19.1875 8.296875 
L 53.609375 8.296875 
L 53.609375 0 
L 7.328125 0 
L 7.328125 8.296875 
Q 12.9375 14.109375 22.625 23.890625 
Q 32.328125 33.6875 34.8125 36.53125 
Q 39.546875 41.84375 41.421875 45.53125 
Q 43.3125 49.21875 43.3125 52.78125 
Q 43.3125 58.59375 39.234375 62.25 
Q 35.15625 65.921875 28.609375 65.921875 
Q 23.96875 65.921875 18.8125 64.3125 
Q 13.671875 62.703125 7.8125 59.421875 
L 7.8125 69.390625 
Q 13.765625 71.78125 18.9375 73 
Q 24.125 74.21875 28.421875 74.21875 
Q 39.75 74.21875 46.484375 68.546875 
Q 53.21875 62.890625 53.21875 53.421875 
Q 53.21875 48.921875 51.53125 44.890625 
Q 49.859375 40.875 45.40625 35.40625 
Q 44.1875 33.984375 37.640625 27.21875 
Q 31.109375 20.453125 19.1875 8.296875 
z
" id="DejaVuSans-32"/>
      </defs>
      <g transform="translate(265.401882 394.72825)scale(0.08 -0.08)">
       <use xlink:href="#DejaVuSans-32"/>
       <use x="63.623047" xlink:href="#DejaVuSans-30"/>
      </g>
     </g>
    </g>
    <g id="xtick_3">
     <g id="text_3">
      <!-- 40 -->
      <defs>
       <path d="M 37.796875 64.3125 
L 12.890625 25.390625 
L 37.796875 25.390625 
z
M 35.203125 72.90625 
L 47.609375 72.90625 
L 47.609375 25.390625 
L 58.015625 25.390625 
L 58.015625 17.1875 
L 47.609375 17.1875 
L 47.609375 0 
L 37.796875 0 
L 37.796875 17.1875 
L 4.890625 17.1875 
L 4.890625 26.703125 
z
" id="DejaVuSans-34"/>
      </defs>
      <g transform="translate(464.488611 394.72825)scale(0.08 -0.08)">
       <use xlink:href="#DejaVuSans-34"/>
       <use x="63.623047" xlink:href="#DejaVuSans-30"/>
      </g>
     </g>
    </g>
    <g id="xtick_4">
     <g id="text_4">
      <!-- 60 -->
      <defs>
       <path d="M 33.015625 40.375 
Q 26.375 40.375 22.484375 35.828125 
Q 18.609375 31.296875 18.609375 23.390625 
Q 18.609375 15.53125 22.484375 10.953125 
Q 26.375 6.390625 33.015625 6.390625 
Q 39.65625 6.390625 43.53125 10.953125 
Q 47.40625 15.53125 47.40625 23.390625 
Q 47.40625 31.296875 43.53125 35.828125 
Q 39.65625 40.375 33.015625 40.375 
z
M 52.59375 71.296875 
L 52.59375 62.3125 
Q 48.875 64.0625 45.09375 64.984375 
Q 41.3125 65.921875 37.59375 65.921875 
Q 27.828125 65.921875 22.671875 59.328125 
Q 17.53125 52.734375 16.796875 39.40625 
Q 19.671875 43.65625 24.015625 45.921875 
Q 28.375 48.1875 33.59375 48.1875 
Q 44.578125 48.1875 50.953125 41.515625 
Q 57.328125 34.859375 57.328125 23.390625 
Q 57.328125 12.15625 50.6875 5.359375 
Q 44.046875 -1.421875 33.015625 -1.421875 
Q 20.359375 -1.421875 13.671875 8.265625 
Q 6.984375 17.96875 6.984375 36.375 
Q 6.984375 53.65625 15.1875 63.9375 
Q 23.390625 74.21875 37.203125 74.21875 
Q 40.921875 74.21875 44.703125 73.484375 
Q 48.484375 72.75 52.59375 71.296875 
z
" id="DejaVuSans-36"/>
      </defs>
      <g transform="translate(663.57534 394.72825)scale(0.08 -0.08)">
       <use xlink:href="#DejaVuSans-36"/>
       <use x="63.623047" xlink:href="#DejaVuSans-30"/>
      </g>
     </g>
    </g>
    <g id="xtick_5">
     <g id="text_5">
      <!-- 80 -->
      <defs>
       <path d="M 31.78125 34.625 
Q 24.75 34.625 20.71875 30.859375 
Q 16.703125 27.09375 16.703125 20.515625 
Q 16.703125 13.921875 20.71875 10.15625 
Q 24.75 6.390625 31.78125 6.390625 
Q 38.8125 6.390625 42.859375 10.171875 
Q 46.921875 13.96875 46.921875 20.515625 
Q 46.921875 27.09375 42.890625 30.859375 
Q 38.875 34.625 31.78125 34.625 
z
M 21.921875 38.8125 
Q 15.578125 40.375 12.03125 44.71875 
Q 8.5 49.078125 8.5 55.328125 
Q 8.5 64.0625 14.71875 69.140625 
Q 20.953125 74.21875 31.78125 74.21875 
Q 42.671875 74.21875 48.875 69.140625 
Q 55.078125 64.0625 55.078125 55.328125 
Q 55.078125 49.078125 51.53125 44.71875 
Q 48 40.375 41.703125 38.8125 
Q 48.828125 37.15625 52.796875 32.3125 
Q 56.78125 27.484375 56.78125 20.515625 
Q 56.78125 9.90625 50.3125 4.234375 
Q 43.84375 -1.421875 31.78125 -1.421875 
Q 19.734375 -1.421875 13.25 4.234375 
Q 6.78125 9.90625 6.78125 20.515625 
Q 6.78125 27.484375 10.78125 32.3125 
Q 14.796875 37.15625 21.921875 38.8125 
z
M 18.3125 54.390625 
Q 18.3125 48.734375 21.84375 45.5625 
Q 25.390625 42.390625 31.78125 42.390625 
Q 38.140625 42.390625 41.71875 45.5625 
Q 45.3125 48.734375 45.3125 54.390625 
Q 45.3125 60.0625 41.71875 63.234375 
Q 38.140625 66.40625 31.78125 66.40625 
Q 25.390625 66.40625 21.84375 63.234375 
Q 18.3125 60.0625 18.3125 54.390625 
z
" id="DejaVuSans-38"/>
      </defs>
      <g transform="translate(862.66207 394.72825)scale(0.08 -0.08)">
       <use xlink:href="#DejaVuSans-38"/>
       <use x="63.623047" xlink:href="#DejaVuSans-30"/>
      </g>
     </g>
    </g>
    <g id="text_6">
     <!-- Position (bp) -->
     <defs>
      <path d="M 19.671875 64.796875 
L 19.671875 37.40625 
L 32.078125 37.40625 
Q 38.96875 37.40625 42.71875 40.96875 
Q 46.484375 44.53125 46.484375 51.125 
Q 46.484375 57.671875 42.71875 61.234375 
Q 38.96875 64.796875 32.078125 64.796875 
z
M 9.8125 72.90625 
L 32.078125 72.90625 
Q 44.34375 72.90625 50.609375 67.359375 
Q 56.890625 61.8125 56.890625 51.125 
Q 56.890625 40.328125 50.609375 34.8125 
Q 44.34375 29.296875 32.078125 29.296875 
L 19.671875 29.296875 
L 19.671875 0 
L 9.8125 0 
z
" id="DejaVuSans-50"/>
      <path d="M 30.609375 48.390625 
Q 23.390625 48.390625 19.1875 42.75 
Q 14.984375 37.109375 14.984375 27.296875 
Q 14.984375 17.484375 19.15625 11.84375 
Q 23.34375 6.203125 30.609375 6.203125 
Q 37.796875 6.203125 41.984375 11.859375 
Q 46.1875 17.53125 46.1875 27.296875 
Q 46.1875 37.015625 41.984375 42.703125 
Q 37.796875 48.390625 30.609375 48.390625 
z
M 30.609375 56 
Q 42.328125 56 49.015625 48.375 
Q 55.71875 40.765625 55.71875 27.296875 
Q 55.71875 13.875 49.015625 6.21875 
Q 42.328125 -1.421875 30.609375 -1.421875 
Q 18.84375 -1.421875 12.171875 6.21875 
Q 5.515625 13.875 5.515625 27.296875 
Q 5.515625 40.765625 12.171875 48.375 
Q 18.84375 56 30.609375 56 
z
" id="DejaVuSans-6f"/>
      <path d="M 44.28125 53.078125 
L 44.28125 44.578125 
Q 40.484375 46.53125 36.375 47.5 
Q 32.28125 48.484375 27.875 48.484375 
Q 21.1875 48.484375 17.84375 46.4375 
Q 14.5 44.390625 14.5 40.28125 
Q 14.5 37.15625 16.890625 35.375 
Q 19.28125 33.59375 26.515625 31.984375 
L 29.59375 31.296875 
Q 39.15625 29.25 43.1875 25.515625 
Q 47.21875 21.78125 47.21875 15.09375 
Q 47.21875 7.46875 41.1875 3.015625 
Q 35.15625 -1.421875 24.609375 -1.421875 
Q 20.21875 -1.421875 15.453125 -0.5625 
Q 10.6875 0.296875 5.421875 2 
L 5.421875 11.28125 
Q 10.40625 8.6875 15.234375 7.390625 
Q 20.0625 6.109375 24.8125 6.109375 
Q 31.15625 6.109375 34.5625 8.28125 
Q 37.984375 10.453125 37.984375 14.40625 
Q 37.984375 18.0625 35.515625 20.015625 
Q 33.0625 21.96875 24.703125 23.78125 
L 21.578125 24.515625 
Q 13.234375 26.265625 9.515625 29.90625 
Q 5.8125 33.546875 5.8125 39.890625 
Q 5.8125 47.609375 11.28125 51.796875 
Q 16.75 56 26.8125 56 
Q 31.78125 56 36.171875 55.265625 
Q 40.578125 54.546875 44.28125 53.078125 
z
" id="DejaVuSans-73"/>
      <path d="M 9.421875 54.6875 
L 18.40625 54.6875 
L 18.40625 0 
L 9.421875 0 
z
M 9.421875 75.984375 
L 18.40625 75.984375 
L 18.40625 64.59375 
L 9.421875 64.59375 
z
" id="DejaVuSans-69"/>
      <path d="M 18.3125 70.21875 
L 18.3125 54.6875 
L 36.8125 54.6875 
L 36.8125 47.703125 
L 18.3125 47.703125 
L 18.3125 18.015625 
Q 18.3125 11.328125 20.140625 9.421875 
Q 21.96875 7.515625 27.59375 7.515625 
L 36.8125 7.515625 
L 36.8125 0 
L 27.59375 0 
Q 17.1875 0 13.234375 3.875 
Q 9.28125 7.765625 9.28125 18.015625 
L 9.28125 47.703125 
L 2.6875 47.703125 
L 2.6875 54.6875 
L 9.28125 54.6875 
L 9.28125 70.21875 
z
" id="DejaVuSans-74"/>
      <path d="M 54.890625 33.015625 
L 54.890625 0 
L 45.90625 0 
L 45.90625 32.71875 
Q 45.90625 40.484375 42.875 44.328125 
Q 39.84375 48.1875 33.796875 48.1875 
Q 26.515625 48.1875 22.3125 43.546875 
Q 18.109375 38.921875 18.109375 30.90625 
L 18.109375 0 
L 9.078125 0 
L 9.078125 54.6875 
L 18.109375 54.6875 
L 18.109375 46.1875 
Q 21.34375 51.125 25.703125 53.5625 
Q 30.078125 56 35.796875 56 
Q 45.21875 56 50.046875 50.171875 
Q 54.890625 44.34375 54.890625 33.015625 
z
" id="DejaVuSans-6e"/>
      <path id="DejaVuSans-20"/>
      <path d="M 31 75.875 
Q 24.46875 64.65625 21.28125 53.65625 
Q 18.109375 42.671875 18.109375 31.390625 
Q 18.109375 20.125 21.3125 9.0625 
Q 24.515625 -2 31 -13.1875 
L 23.1875 -13.1875 
Q 15.875 -1.703125 12.234375 9.375 
Q 8.59375 20.453125 8.59375 31.390625 
Q 8.59375 42.28125 12.203125 53.3125 
Q 15.828125 64.359375 23.1875 75.875 
z
" id="DejaVuSans-28"/>
      <path d="M 48.6875 27.296875 
Q 48.6875 37.203125 44.609375 42.84375 
Q 40.53125 48.484375 33.40625 48.484375 
Q 26.265625 48.484375 22.1875 42.84375 
Q 18.109375 37.203125 18.109375 27.296875 
Q 18.109375 17.390625 22.1875 11.75 
Q 26.265625 6.109375 33.40625 6.109375 
Q 40.53125 6.109375 44.609375 11.75 
Q 48.6875 17.390625 48.6875 27.296875 
z
M 18.109375 46.390625 
Q 20.953125 51.265625 25.265625 53.625 
Q 29.59375 56 35.59375 56 
Q 45.5625 56 51.78125 48.09375 
Q 58.015625 40.1875 58.015625 27.296875 
Q 58.015625 14.40625 51.78125 6.484375 
Q 45.5625 -1.421875 35.59375 -1.421875 
Q 29.59375 -1.421875 25.265625 0.953125 
Q 20.953125 3.328125 18.109375 8.203125 
L 18.109375 0 
L 9.078125 0 
L 9.078125 75.984375 
L 18.109375 75.984375 
z
" id="DejaVuSans-62"/>
      <path d="M 18.109375 8.203125 
L 18.109375 -20.796875 
L 9.078125 -20.796875 
L 9.078125 54.6875 
L 18.109375 54.6875 
L 18.109375 46.390625 
Q 20.953125 51.265625 25.265625 53.625 
Q 29.59375 56 35.59375 56 
Q 45.5625 56 51.78125 48.09375 
Q 58.015625 40.1875 58.015625 27.296875 
Q 58.015625 14.40625 51.78125 6.484375 
Q 45.5625 -1.421875 35.59375 -1.421875 
Q 29.59375 -1.421875 25.265625 0.953125 
Q 20.953125 3.328125 18.109375 8.203125 
z
M 48.6875 27.296875 
Q 48.6875 37.203125 44.609375 42.84375 
Q 40.53125 48.484375 33.40625 48.484375 
Q 26.265625 48.484375 22.1875 42.84375 
Q 18.109375 37.203125 18.109375 27.296875 
Q 18.109375 17.390625 22.1875 11.75 
Q 26.265625 6.109375 33.40625 6.109375 
Q 40.53125 6.109375 44.609375 11.75 
Q 48.6875 17.390625 48.6875 27.296875 
z
" id="DejaVuSans-70"/>
      <path d="M 8.015625 75.875 
L 15.828125 75.875 
Q 23.140625 64.359375 26.78125 53.3125 
Q 30.421875 42.28125 30.421875 31.390625 
Q 30.421875 20.453125 26.78125 9.375 
Q 23.140625 -1.703125 15.828125 -13.1875 
L 8.015625 -13.1875 
Q 14.5 -2 17.703125 9.0625 
Q 20.90625 20.125 20.90625 31.390625 
Q 20.90625 42.671875 17.703125 53.65625 
Q 14.5 64.65625 8.015625 75.875 
z
" id="DejaVuSans-29"/>
     </defs>
     <g transform="translate(482.891094 407.990437)scale(0.1 -0.1)">
      <use xlink:href="#DejaVuSans-50"/>
      <use x="60.255859" xlink:href="#DejaVuSans-6f"/>
      <use x="121.4375" xlink:href="#DejaVuSans-73"/>
      <use x="173.537109" xlink:href="#DejaVuSans-69"/>
      <use x="201.320312" xlink:href="#DejaVuSans-74"/>
      <use x="240.529297" xlink:href="#DejaVuSans-69"/>
      <use x="268.3125" xlink:href="#DejaVuSans-6f"/>
      <use x="329.494141" xlink:href="#DejaVuSans-6e"/>
      <use x="392.873047" xlink:href="#DejaVuSans-20"/>
      <use x="424.660156" xlink:href="#DejaVuSans-28"/>
      <use x="463.673828" xlink:href="#DejaVuSans-62"/>
      <use x="527.150391" xlink:href="#DejaVuSans-70"/>
      <use x="590.626953" xlink:href="#DejaVuSans-29"/>
     </g>
    </g>
   </g>
   <g id="matplotlib.axis_2">
    <g id="ytick_1">
     <g id="line2d_1">
      <path clip-path="url(#pb318c79b9e)" d="M 38.058125 381.6495 
L 990.688125 381.6495 
" style="fill:none;stroke:#dedede;stroke-linecap:square;"/>
     </g>
     <g id="text_7">
      <!-- 0 -->
      <g transform="translate(25.968125 384.688875)scale(0.08 -0.08)">
       <use xlink:href="#DejaVuSans-30"/>
      </g>
     </g>
    </g>
    <g id="ytick_2">
     <g id="line2d_2">
      <path clip-path="url(#pb318c79b9e)" d="M 38.058125 322.845235 
L 990.688125 322.845235 
" style="fill:none;stroke:#dedede;stroke-linecap:square;"/>
     </g>
     <g id="text_8">
      <!-- 5 -->
      <defs>
       <path d="M 10.796875 72.90625 
L 49.515625 72.90625 
L 49.515625 64.59375 
L 19.828125 64.59375 
L 19.828125 46.734375 
Q 21.96875 47.46875 24.109375 47.828125 
Q 26.265625 48.1875 28.421875 48.1875 
Q 40.625 48.1875 47.75 41.5 
Q 54.890625 34.8125 54.890625 23.390625 
Q 54.890625 11.625 47.5625 5.09375 
Q 40.234375 -1.421875 26.90625 -1.421875 
Q 22.3125 -1.421875 17.546875 -0.640625 
Q 12.796875 0.140625 7.71875 1.703125 
L 7.71875 11.625 
Q 12.109375 9.234375 16.796875 8.0625 
Q 21.484375 6.890625 26.703125 6.890625 
Q 35.15625 6.890625 40.078125 11.328125 
Q 45.015625 15.765625 45.015625 23.390625 
Q 45.015625 31 40.078125 35.4375 
Q 35.15625 39.890625 26.703125 39.890625 
Q 22.75 39.890625 18.8125 39.015625 
Q 14.890625 38.140625 10.796875 36.28125 
z
" id="DejaVuSans-35"/>
      </defs>
      <g transform="translate(25.968125 325.88461)scale(0.08 -0.08)">
       <use xlink:href="#DejaVuSans-35"/>
      </g>
     </g>
    </g>
    <g id="ytick_3">
     <g id="line2d_3">
      <path clip-path="url(#pb318c79b9e)" d="M 38.058125 264.040969 
L 990.688125 264.040969 
" style="fill:none;stroke:#dedede;stroke-linecap:square;"/>
     </g>
     <g id="text_9">
      <!-- 10 -->
      <defs>
       <path d="M 12.40625 8.296875 
L 28.515625 8.296875 
L 28.515625 63.921875 
L 10.984375 60.40625 
L 10.984375 69.390625 
L 28.421875 72.90625 
L 38.28125 72.90625 
L 38.28125 8.296875 
L 54.390625 8.296875 
L 54.390625 0 
L 12.40625 0 
z
" id="DejaVuSans-31"/>
      </defs>
      <g transform="translate(20.878125 267.080344)scale(0.08 -0.08)">
       <use xlink:href="#DejaVuSans-31"/>
       <use x="63.623047" xlink:href="#DejaVuSans-30"/>
      </g>
     </g>
    </g>
    <g id="ytick_4">
     <g id="line2d_4">
      <path clip-path="url(#pb318c79b9e)" d="M 38.058125 205.236704 
L 990.688125 205.236704 
" style="fill:none;stroke:#dedede;stroke-linecap:square;"/>
     </g>
     <g id="text_10">
      <!-- 15 -->
      <g transform="translate(20.878125 208.276079)scale(0.08 -0.08)">
       <use xlink:href="#DejaVuSans-31"/>
       <use x="63.623047" xlink:href="#DejaVuSans-35"/>
      </g>
     </g>
    </g>
    <g id="ytick_5">
     <g id="line2d_5">
      <path clip-path="url(#pb318c79b9e)" d="M 38.058125 146.432438 
L 990.688125 146.432438 
" style="fill:none;stroke:#dedede;stroke-linecap:square;"/>
     </g>
     <g id="text_11">
      <!-- 20 -->
      <g transform="translate(20.878125 149.471813)scale(0.08 -0.08)">
       <use xlink:href="#DejaVuSans-32"/>
       <use x="63.623047" xlink:href="#DejaVuSans-30"/>
      </g>
     </g>
    </g>
    <g id="ytick_6">
     <g id="line2d_6">
      <path clip-path="url(#pb318c79b9e)" d="M 38.058125 87.628173 
L 990.688125 87.628173 
" style="fill:none;stroke:#dedede;stroke-linecap:square;"/>
     </g>
     <g id="text_12">
      <!-- 25 -->
      <g transform="translate(20.878125 90.667548)scale(0.08 -0.08)">
       <use xlink:href="#DejaVuSans-32"/>
       <use x="63.623047" xlink:href="#DejaVuSans-35"/>
      </g>
     </g>
    </g>
    <g id="text_13">
     <!-- % of Sequences -->
     <defs>
      <path d="M 72.703125 32.078125 
Q 68.453125 32.078125 66.03125 28.46875 
Q 63.625 24.859375 63.625 18.40625 
Q 63.625 12.0625 66.03125 8.421875 
Q 68.453125 4.78125 72.703125 4.78125 
Q 76.859375 4.78125 79.265625 8.421875 
Q 81.6875 12.0625 81.6875 18.40625 
Q 81.6875 24.8125 79.265625 28.4375 
Q 76.859375 32.078125 72.703125 32.078125 
z
M 72.703125 38.28125 
Q 80.421875 38.28125 84.953125 32.90625 
Q 89.5 27.546875 89.5 18.40625 
Q 89.5 9.28125 84.9375 3.921875 
Q 80.375 -1.421875 72.703125 -1.421875 
Q 64.890625 -1.421875 60.34375 3.921875 
Q 55.8125 9.28125 55.8125 18.40625 
Q 55.8125 27.59375 60.375 32.9375 
Q 64.9375 38.28125 72.703125 38.28125 
z
M 22.3125 68.015625 
Q 18.109375 68.015625 15.6875 64.375 
Q 13.28125 60.75 13.28125 54.390625 
Q 13.28125 47.953125 15.671875 44.328125 
Q 18.0625 40.71875 22.3125 40.71875 
Q 26.5625 40.71875 28.96875 44.328125 
Q 31.390625 47.953125 31.390625 54.390625 
Q 31.390625 60.6875 28.953125 64.34375 
Q 26.515625 68.015625 22.3125 68.015625 
z
M 66.40625 74.21875 
L 74.21875 74.21875 
L 28.609375 -1.421875 
L 20.796875 -1.421875 
z
M 22.3125 74.21875 
Q 30.03125 74.21875 34.609375 68.875 
Q 39.203125 63.53125 39.203125 54.390625 
Q 39.203125 45.171875 34.640625 39.84375 
Q 30.078125 34.515625 22.3125 34.515625 
Q 14.546875 34.515625 10.03125 39.859375 
Q 5.515625 45.21875 5.515625 54.390625 
Q 5.515625 63.484375 10.046875 68.84375 
Q 14.59375 74.21875 22.3125 74.21875 
z
" id="DejaVuSans-25"/>
      <path d="M 37.109375 75.984375 
L 37.109375 68.5 
L 28.515625 68.5 
Q 23.6875 68.5 21.796875 66.546875 
Q 19.921875 64.59375 19.921875 59.515625 
L 19.921875 54.6875 
L 34.71875 54.6875 
L 34.71875 47.703125 
L 19.921875 47.703125 
L 19.921875 0 
L 10.890625 0 
L 10.890625 47.703125 
L 2.296875 47.703125 
L 2.296875 54.6875 
L 10.890625 54.6875 
L 10.890625 58.5 
Q 10.890625 67.625 15.140625 71.796875 
Q 19.390625 75.984375 28.609375 75.984375 
z
" id="DejaVuSans-66"/>
      <path d="M 53.515625 70.515625 
L 53.515625 60.890625 
Q 47.90625 63.578125 42.921875 64.890625 
Q 37.9375 66.21875 33.296875 66.21875 
Q 25.25 66.21875 20.875 63.09375 
Q 16.5 59.96875 16.5 54.203125 
Q 16.5 49.359375 19.40625 46.890625 
Q 22.3125 44.4375 30.421875 42.921875 
L 36.375 41.703125 
Q 47.40625 39.59375 52.65625 34.296875 
Q 57.90625 29 57.90625 20.125 
Q 57.90625 9.515625 50.796875 4.046875 
Q 43.703125 -1.421875 29.984375 -1.421875 
Q 24.8125 -1.421875 18.96875 -0.25 
Q 13.140625 0.921875 6.890625 3.21875 
L 6.890625 13.375 
Q 12.890625 10.015625 18.65625 8.296875 
Q 24.421875 6.59375 29.984375 6.59375 
Q 38.421875 6.59375 43.015625 9.90625 
Q 47.609375 13.234375 47.609375 19.390625 
Q 47.609375 24.75 44.3125 27.78125 
Q 41.015625 30.8125 33.5 32.328125 
L 27.484375 33.5 
Q 16.453125 35.6875 11.515625 40.375 
Q 6.59375 45.0625 6.59375 53.421875 
Q 6.59375 63.09375 13.40625 68.65625 
Q 20.21875 74.21875 32.171875 74.21875 
Q 37.3125 74.21875 42.625 73.28125 
Q 47.953125 72.359375 53.515625 70.515625 
z
" id="DejaVuSans-53"/>
      <path d="M 56.203125 29.59375 
L 56.203125 25.203125 
L 14.890625 25.203125 
Q 15.484375 15.921875 20.484375 11.0625 
Q 25.484375 6.203125 34.421875 6.203125 
Q 39.59375 6.203125 44.453125 7.46875 
Q 49.3125 8.734375 54.109375 11.28125 
L 54.109375 2.78125 
Q 49.265625 0.734375 44.1875 -0.34375 
Q 39.109375 -1.421875 33.890625 -1.421875 
Q 20.796875 -1.421875 13.15625 6.1875 
Q 5.515625 13.8125 5.515625 26.8125 
Q 5.515625 40.234375 12.765625 48.109375 
Q 20.015625 56 32.328125 56 
Q 43.359375 56 49.78125 48.890625 
Q 56.203125 41.796875 56.203125 29.59375 
z
M 47.21875 32.234375 
Q 47.125 39.59375 43.09375 43.984375 
Q 39.0625 48.390625 32.421875 48.390625 
Q 24.90625 48.390625 20.390625 44.140625 
Q 15.875 39.890625 15.1875 32.171875 
z
" id="DejaVuSans-65"/>
      <path d="M 14.796875 27.296875 
Q 14.796875 17.390625 18.875 11.75 
Q 22.953125 6.109375 30.078125 6.109375 
Q 37.203125 6.109375 41.296875 11.75 
Q 45.40625 17.390625 45.40625 27.296875 
Q 45.40625 37.203125 41.296875 42.84375 
Q 37.203125 48.484375 30.078125 48.484375 
Q 22.953125 48.484375 18.875 42.84375 
Q 14.796875 37.203125 14.796875 27.296875 
z
M 45.40625 8.203125 
Q 42.578125 3.328125 38.25 0.953125 
Q 33.9375 -1.421875 27.875 -1.421875 
Q 17.96875 -1.421875 11.734375 6.484375 
Q 5.515625 14.40625 5.515625 27.296875 
Q 5.515625 40.1875 11.734375 48.09375 
Q 17.96875 56 27.875 56 
Q 33.9375 56 38.25 53.625 
Q 42.578125 51.265625 45.40625 46.390625 
L 45.40625 54.6875 
L 54.390625 54.6875 
L 54.390625 -20.796875 
L 45.40625 -20.796875 
z
" id="DejaVuSans-71"/>
      <path d="M 8.5 21.578125 
L 8.5 54.6875 
L 17.484375 54.6875 
L 17.484375 21.921875 
Q 17.484375 14.15625 20.5 10.265625 
Q 23.53125 6.390625 29.59375 6.390625 
Q 36.859375 6.390625 41.078125 11.03125 
Q 45.3125 15.671875 45.3125 23.6875 
L 45.3125 54.6875 
L 54.296875 54.6875 
L 54.296875 0 
L 45.3125 0 
L 45.3125 8.40625 
Q 42.046875 3.421875 37.71875 1 
Q 33.40625 -1.421875 27.6875 -1.421875 
Q 18.265625 -1.421875 13.375 4.4375 
Q 8.5 10.296875 8.5 21.578125 
z
M 31.109375 56 
z
" id="DejaVuSans-75"/>
      <path d="M 48.78125 52.59375 
L 48.78125 44.1875 
Q 44.96875 46.296875 41.140625 47.34375 
Q 37.3125 48.390625 33.40625 48.390625 
Q 24.65625 48.390625 19.8125 42.84375 
Q 14.984375 37.3125 14.984375 27.296875 
Q 14.984375 17.28125 19.8125 11.734375 
Q 24.65625 6.203125 33.40625 6.203125 
Q 37.3125 6.203125 41.140625 7.25 
Q 44.96875 8.296875 48.78125 10.40625 
L 48.78125 2.09375 
Q 45.015625 0.34375 40.984375 -0.53125 
Q 36.96875 -1.421875 32.421875 -1.421875 
Q 20.0625 -1.421875 12.78125 6.34375 
Q 5.515625 14.109375 5.515625 27.296875 
Q 5.515625 40.671875 12.859375 48.328125 
Q 20.21875 56 33.015625 56 
Q 37.15625 56 41.109375 55.140625 
Q 45.0625 54.296875 48.78125 52.59375 
z
" id="DejaVuSans-63"/>
     </defs>
     <g transform="translate(14.798438 249.147469)rotate(-90)scale(0.1 -0.1)">
      <use xlink:href="#DejaVuSans-25"/>
      <use x="95.019531" xlink:href="#DejaVuSans-20"/>
      <use x="126.806641" xlink:href="#DejaVuSans-6f"/>
      <use x="187.988281" xlink:href="#DejaVuSans-66"/>
      <use x="223.193359" xlink:href="#DejaVuSans-20"/>
      <use x="254.980469" xlink:href="#DejaVuSans-53"/>
      <use x="318.457031" xlink:href="#DejaVuSans-65"/>
      <use x="379.980469" xlink:href="#DejaVuSans-71"/>
      <use x="443.457031" xlink:href="#DejaVuSans-75"/>
      <use x="506.835938" xlink:href="#DejaVuSans-65"/>
      <use x="568.359375" xlink:href="#DejaVuSans-6e"/>
      <use x="631.738281" xlink:href="#DejaVuSans-63"/>
      <use x="686.71875" xlink:href="#DejaVuSans-65"/>
      <use x="748.242188" xlink:href="#DejaVuSans-73"/>
     </g>
    </g>
   </g>
   <g id="line2d_7">
    <path clip-path="url(#pb318c79b9e)" d="M 81.359489 381.649307 
L 91.313825 381.649307 
L 101.268162 381.649179 
L 111.222498 381.648729 
L 121.176835 381.639664 
L 131.131171 381.637414 
L 141.085507 381.395684 
L 151.039844 381.310822 
L 160.99418 380.613921 
L 170.948517 379.573005 
L 190.85719 378.078943 
L 210.765863 376.756374 
L 230.674536 375.456242 
L 250.583209 374.323328 
L 270.491882 373.316133 
L 290.400554 372.483291 
L 310.309227 371.544178 
L 330.2179 370.82783 
L 350.126573 369.746251 
L 370.035246 367.922093 
L 389.943919 364.567293 
L 409.852592 360.869249 
L 429.761265 355.598389 
L 449.669938 347.160615 
L 469.578611 337.402619 
L 489.487284 327.40749 
L 509.395957 316.71157 
L 529.30463 305.539103 
L 549.213303 294.301767 
L 569.121976 282.996927 
L 589.030649 271.741879 
L 608.939321 260.372846 
L 628.847994 248.622767 
L 648.756667 236.7146 
L 668.66534 224.88448 
L 688.574013 213.113572 
L 708.482686 201.29615 
L 728.391359 189.174862 
L 748.300032 176.845114 
L 768.208705 164.537065 
L 788.117378 152.283179 
L 808.026051 139.995831 
L 827.934724 127.53654 
L 847.843397 115.011448 
L 867.75207 102.523483 
L 887.660743 90.225206 
L 907.569415 77.925835 
L 927.478088 65.467605 
L 947.386761 53.039976 
" style="fill:none;stroke:#7cb5ec;stroke-linecap:square;"/>
   </g>
   <g id="line2d_8">
    <path clip-path="url(#pb318c79b9e)" d="M 81.359489 381.649307 
L 91.313825 381.649307 
L 101.268162 381.64905 
L 111.222498 381.648664 
L 121.176835 381.639599 
L 131.131171 381.637349 
L 141.085507 381.39877 
L 151.039844 381.314679 
L 160.99418 380.619321 
L 170.948517 379.584866 
L 190.85719 378.095658 
L 210.765863 376.789387 
L 230.674536 375.544351 
L 250.583209 374.605592 
L 270.491882 373.776576 
L 290.400554 373.14644 
L 310.309227 372.272292 
L 330.2179 371.651767 
L 350.126573 370.622424 
L 370.035246 368.888336 
L 389.943919 365.555941 
L 409.852592 361.896632 
L 429.761265 356.621432 
L 449.669938 348.194266 
L 469.578611 338.434662 
L 489.487284 328.455156 
L 509.395957 317.756086 
L 529.30463 306.578315 
L 549.213303 295.341075 
L 569.121976 284.021963 
L 589.030649 272.744671 
L 608.939321 261.351626 
L 628.847994 249.570881 
L 648.756667 237.646802 
L 668.66534 225.806267 
L 688.574013 214.04677 
L 708.482686 202.25082 
L 728.391359 190.151809 
L 748.300032 177.848677 
L 768.208705 165.566151 
L 788.117378 153.33856 
L 808.026051 141.095411 
L 827.934724 128.692148 
L 847.843397 116.233146 
L 867.75207 103.813039 
L 887.660743 91.584806 
L 907.569415 79.370876 
L 927.478088 66.995612 
L 947.386761 54.654292 
" style="fill:none;stroke:#434348;stroke-linecap:square;"/>
   </g>
   <g id="line2d_9">
    <path clip-path="url(#pb318c79b9e)" d="M 81.359489 381.649246 
L 91.313825 381.649161 
L 101.268162 381.649161 
L 111.222498 381.649161 
L 121.176835 381.646534 
L 131.131171 381.645348 
L 141.085507 381.527308 
L 151.039844 381.486973 
L 160.99418 381.00795 
L 170.948517 380.253276 
L 190.85719 379.121646 
L 210.765863 378.077465 
L 230.674536 377.055697 
L 250.583209 376.153409 
L 270.491882 375.36145 
L 290.400554 374.726976 
L 310.309227 373.99302 
L 330.2179 373.449724 
L 350.126573 372.83618 
L 370.035246 372.23522 
L 389.943919 371.353736 
L 409.852592 370.496232 
L 429.761265 369.334054 
L 449.669938 367.641586 
L 469.578611 365.688085 
L 489.487284 363.743395 
L 509.395957 361.562457 
L 529.30463 359.246024 
L 549.213303 356.825108 
L 569.121976 354.373137 
L 589.030649 351.824606 
L 608.939321 349.130793 
L 628.847994 346.256658 
L 648.756667 343.228936 
L 668.66534 340.089868 
L 688.574013 336.818185 
L 708.482686 333.347369 
L 728.391359 329.643228 
L 748.300032 325.737326 
L 768.208705 321.615258 
L 788.117378 317.364939 
L 808.026051 312.858966 
L 827.934724 308.064377 
L 847.843397 303.053452 
L 867.75207 297.745691 
L 887.660743 292.310145 
L 907.569415 286.624962 
L 927.478088 280.600108 
L 947.386761 274.313922 
" style="fill:none;stroke:#90ed7d;stroke-linecap:square;"/>
   </g>
   <g id="line2d_10">
    <path clip-path="url(#pb318c79b9e)" d="M 81.359489 381.649331 
L 91.313825 381.649331 
L 101.268162 381.649331 
L 111.222498 381.649331 
L 121.176835 381.646788 
L 131.131171 381.645687 
L 141.085507 381.529003 
L 151.039844 381.48943 
L 160.99418 381.015662 
L 170.948517 380.265648 
L 190.85719 379.133594 
L 210.765863 378.108987 
L 230.674536 377.139206 
L 250.583209 376.401098 
L 270.491882 375.761158 
L 290.400554 375.289635 
L 310.309227 374.609572 
L 330.2179 374.153132 
L 350.126573 373.591787 
L 370.035246 373.062515 
L 389.943919 372.197427 
L 409.852592 371.372632 
L 429.761265 370.219987 
L 449.669938 368.556203 
L 469.578611 366.614099 
L 489.487284 364.68962 
L 509.395957 362.511986 
L 529.30463 360.198688 
L 549.213303 357.783153 
L 569.121976 355.331521 
L 589.030649 352.772059 
L 608.939321 350.068925 
L 628.847994 347.185807 
L 648.756667 344.152958 
L 668.66534 341.009357 
L 688.574013 337.740386 
L 708.482686 334.275078 
L 728.391359 330.574411 
L 748.300032 326.672746 
L 768.208705 322.557372 
L 788.117378 318.314425 
L 808.026051 313.82485 
L 827.934724 309.051699 
L 847.843397 304.069924 
L 867.75207 298.789618 
L 887.660743 293.382883 
L 907.569415 287.732442 
L 927.478088 281.735467 
L 947.386761 275.485676 
" style="fill:none;stroke:#f7a35c;stroke-linecap:square;"/>
   </g>
   <g id="line2d_11">
    <path clip-path="url(#pb318c79b9e)" d="M 81.359489 381.649098 
L 91.313825 381.648937 
L 101.268162 381.648615 
L 111.222498 381.648133 
L 121.176835 381.628591 
L 131.131171 381.62256 
L 141.085507 381.027228 
L 151.039844 380.809136 
L 160.99418 379.004403 
L 170.948517 376.279814 
L 190.85719 372.397653 
L 210.765863 369.028999 
L 230.674536 365.779845 
L 250.583209 362.951034 
L 270.491882 360.416029 
L 290.400554 358.397185 
L 310.309227 356.059002 
L 330.2179 354.395925 
L 350.126573 352.409047 
L 370.035246 350.249793 
L 389.943919 346.879088 
L 409.852592 343.37095 
L 429.761265 338.697238 
L 449.669938 331.728045 
L 469.578611 323.487208 
L 489.487284 315.037085 
L 509.395957 305.994525 
L 529.30463 296.590366 
L 549.213303 287.066225 
L 569.121976 277.580242 
L 589.030649 268.046933 
L 608.939321 258.456608 
L 628.847994 248.491778 
L 648.756667 238.368204 
L 668.66534 228.206431 
L 688.574013 217.995443 
L 708.482686 207.584416 
L 728.391359 196.910946 
L 748.300032 186.050264 
L 768.208705 175.083108 
L 788.117378 164.072166 
L 808.026051 152.92395 
L 827.934724 141.581968 
L 847.843397 130.12125 
L 867.75207 118.606692 
L 887.660743 107.042074 
L 907.569415 95.428482 
L 927.478088 83.616218 
L 947.386761 71.878862 
" style="fill:none;stroke:#8085e9;stroke-linecap:square;"/>
   </g>
   <g id="line2d_12">
    <path clip-path="url(#pb318c79b9e)" d="M 81.359489 381.649098 
L 91.313825 381.648857 
L 101.268162 381.648615 
L 111.222498 381.648213 
L 121.176835 381.628752 
L 131.131171 381.62256 
L 141.085507 381.031088 
L 151.039844 380.81573 
L 160.99418 379.023382 
L 170.948517 376.315801 
L 190.85719 372.44715 
L 210.765863 369.123731 
L 230.674536 366.018203 
L 250.583209 363.68384 
L 270.491882 361.630697 
L 290.400554 360.123751 
L 310.309227 357.971454 
L 330.2179 356.541427 
L 350.126573 354.671637 
L 370.035246 352.716845 
L 389.943919 349.370869 
L 409.852592 345.960317 
L 429.761265 341.29521 
L 449.669938 334.37093 
L 469.578611 326.131501 
L 489.487284 317.69931 
L 509.395957 308.655262 
L 529.30463 299.251466 
L 549.213303 289.730823 
L 569.121976 280.233501 
L 589.030649 270.667623 
L 608.939321 261.043201 
L 628.847994 251.054809 
L 648.756667 240.917764 
L 668.66534 230.743286 
L 688.574013 220.542953 
L 708.482686 210.146401 
L 728.391359 199.487446 
L 748.300032 188.646587 
L 768.208705 177.701627 
L 788.117378 166.708818 
L 808.026051 155.597072 
L 827.934724 144.308005 
L 847.843397 132.909007 
L 867.75207 121.465338 
L 887.660743 109.973578 
L 907.569415 98.437991 
L 927.478088 86.704254 
L 947.386761 75.046915 
" style="fill:none;stroke:#f15c80;stroke-linecap:square;"/>
   </g>
   <g id="line2d_13">
    <path clip-path="url(#pb318c79b9e)" d="M 81.359489 381.6495 
L 91.313825 381.6495 
L 101.268162 381.649423 
L 111.222498 381.649268 
L 121.176835 381.644469 
L 131.131171 381.64354 
L 141.085507 381.530454 
L 151.039844 381.489044 
L 160.99418 381.118284 
L 170.948517 380.571782 
L 190.85719 379.799301 
L 210.765863 379.201945 
L 230.674536 378.619798 
L 250.583209 378.044463 
L 270.491882 377.520949 
L 290.400554 377.03602 
L 310.309227 376.565566 
L 330.2179 376.172437 
L 350.126573 375.680349 
L 370.035246 374.794357 
L 389.943919 373.103763 
L 409.852592 371.150541 
L 429.761265 368.255908 
L 449.669938 363.35805 
L 469.578611 357.507789 
L 489.487284 351.609423 
L 509.395957 345.174074 
L 529.30463 338.34699 
L 549.213303 331.305538 
L 569.121976 324.075456 
L 589.030649 316.700862 
L 608.939321 309.22669 
L 628.847994 301.42286 
L 648.756667 293.278882 
L 668.66534 285.060985 
L 688.574013 276.801987 
L 708.482686 268.419415 
L 728.391359 259.729477 
L 748.300032 250.728534 
L 768.208705 241.427848 
L 788.117378 232.262269 
L 808.026051 223.074554 
L 827.934724 213.689693 
L 847.843397 204.189347 
L 867.75207 194.464571 
L 887.660743 184.744246 
L 907.569415 174.988819 
L 927.478088 165.060319 
L 947.386761 155.103103 
" style="fill:none;stroke:#e4d354;stroke-linecap:square;"/>
   </g>
   <g id="line2d_14">
    <path clip-path="url(#pb318c79b9e)" d="M 81.359489 381.6495 
L 91.313825 381.6495 
L 101.268162 381.6495 
L 111.222498 381.649268 
L 121.176835 381.644701 
L 131.131171 381.643772 
L 141.085507 381.532003 
L 151.039844 381.491134 
L 160.99418 381.122387 
L 170.948517 380.578245 
L 190.85719 379.805532 
L 210.765863 379.216342 
L 230.674536 378.668988 
L 250.583209 378.154878 
L 270.491882 377.588793 
L 290.400554 377.200463 
L 310.309227 376.734846 
L 330.2179 376.371827 
L 350.126573 375.863638 
L 370.035246 375.030242 
L 389.943919 373.322852 
L 409.852592 371.384104 
L 429.761265 368.483511 
L 449.669938 363.616498 
L 469.578611 357.789497 
L 489.487284 351.929251 
L 509.395957 345.502572 
L 529.30463 338.683769 
L 549.213303 331.656173 
L 569.121976 324.426478 
L 589.030649 317.050801 
L 608.939321 309.573068 
L 628.847994 301.767612 
L 648.756667 293.629478 
L 668.66534 285.417077 
L 688.574013 277.169728 
L 708.482686 268.807319 
L 728.391359 260.141492 
L 748.300032 251.16497 
L 768.208705 241.889169 
L 788.117378 232.743367 
L 808.026051 223.590405 
L 827.934724 214.246025 
L 847.843397 204.789683 
L 867.75207 195.120676 
L 887.660743 185.455307 
L 907.569415 175.769775 
L 927.478088 165.912525 
L 947.386761 156.027719 
" style="fill:none;stroke:#2b908f;stroke-linecap:square;"/>
   </g>
   <g id="line2d_15">
    <path clip-path="url(#pb318c79b9e)" d="M 81.359489 381.649384 
L 91.313825 381.649384 
L 101.268162 381.649151 
L 111.222498 381.649151 
L 121.176835 381.635523 
L 131.131171 381.630981 
L 141.085507 381.231941 
L 151.039844 381.096598 
L 160.99418 379.561123 
L 170.948517 377.115869 
L 190.85719 373.444961 
L 210.765863 370.071353 
L 230.674536 366.738859 
L 250.583209 363.790147 
L 270.491882 361.158186 
L 290.400554 358.993577 
L 310.309227 356.499638 
L 330.2179 354.648459 
L 350.126573 352.579708 
L 370.035246 350.722939 
L 389.943919 348.286072 
L 409.852592 346.091704 
L 429.761265 343.387878 
L 449.669938 340.080543 
L 469.578611 336.294209 
L 489.487284 332.61177 
L 509.395957 328.581132 
L 529.30463 324.430118 
L 549.213303 320.070966 
L 569.121976 315.695973 
L 589.030649 311.209863 
L 608.939321 306.680368 
L 628.847994 301.786309 
L 648.756667 296.760401 
L 668.66534 291.619417 
L 688.574013 286.337325 
L 708.482686 280.777501 
L 728.391359 274.902441 
L 748.300032 268.732002 
L 768.208705 262.309107 
L 788.117378 255.763972 
L 808.026051 248.894224 
L 827.934724 241.660553 
L 847.843397 234.224277 
L 867.75207 226.530709 
L 887.660743 218.569775 
L 907.569415 210.364537 
L 927.478088 201.847324 
L 947.386761 193.160118 
" style="fill:none;stroke:#f45b5b;stroke-linecap:square;"/>
   </g>
   <g id="line2d_16">
    <path clip-path="url(#pb318c79b9e)" d="M 81.359489 381.649267 
L 91.313825 381.649267 
L 101.268162 381.649034 
L 111.222498 381.649034 
L 121.176835 381.635989 
L 131.131171 381.63133 
L 141.085507 381.235668 
L 151.039844 381.10184 
L 160.99418 379.581739 
L 170.948517 377.156927 
L 190.85719 373.502266 
L 210.765863 370.187244 
L 230.674536 367.017989 
L 250.583209 364.583218 
L 270.491882 362.453027 
L 290.400554 360.823732 
L 310.309227 358.51155 
L 330.2179 356.923428 
L 350.126573 354.973363 
L 370.035246 353.379593 
L 389.943919 350.990713 
L 409.852592 348.928367 
L 429.761265 346.252321 
L 449.669938 343.026401 
L 469.578611 339.231507 
L 489.487284 335.59985 
L 509.395957 331.557332 
L 529.30463 327.40923 
L 549.213303 323.037382 
L 569.121976 318.660292 
L 589.030649 314.169466 
L 608.939321 309.626692 
L 628.847994 304.729779 
L 648.756667 299.70655 
L 668.66534 294.570051 
L 688.574013 289.303567 
L 708.482686 283.768144 
L 728.391359 277.912593 
L 748.300032 271.76376 
L 768.208705 265.359908 
L 788.117378 258.830963 
L 808.026051 251.988936 
L 827.934724 244.79376 
L 847.843397 237.393182 
L 867.75207 229.739041 
L 887.660743 221.822484 
L 907.569415 213.679327 
L 927.478088 205.222622 
L 947.386761 196.595108 
" style="fill:none;stroke:#91e8e1;stroke-linecap:square;"/>
   </g>
   <g id="line2d_17">
    <path clip-path="url(#pb318c79b9e)" d="M 81.359489 381.649439 
L 91.313825 381.649439 
L 101.268162 381.649378 
L 111.222498 381.649317 
L 121.176835 381.643884 
L 131.131171 381.642235 
L 141.085507 381.489799 
L 151.039844 381.435222 
L 160.99418 380.919733 
L 170.948517 380.121226 
L 190.85719 378.928502 
L 210.765863 377.838338 
L 230.674536 376.749945 
L 250.583209 375.767134 
L 270.491882 374.888715 
L 290.400554 374.172897 
L 310.309227 373.356381 
L 330.2179 372.737996 
L 350.126573 372.003711 
L 370.035246 371.038421 
L 389.943919 369.232958 
L 409.852592 367.299753 
L 429.761265 364.464534 
L 449.669938 359.868387 
L 469.578611 354.45145 
L 489.487284 348.955731 
L 509.395957 342.970346 
L 529.30463 336.641872 
L 549.213303 330.205617 
L 569.121976 323.582801 
L 589.030649 316.882636 
L 608.939321 310.073684 
L 628.847994 302.882694 
L 648.756667 295.460149 
L 668.66534 287.926313 
L 688.574013 280.314367 
L 708.482686 272.548305 
L 728.391359 264.453165 
L 748.300032 256.020734 
L 768.208705 247.354551 
L 788.117378 238.729453 
L 808.026051 229.979817 
L 827.934724 220.950338 
L 847.843397 211.799831 
L 867.75207 202.41261 
L 887.660743 192.917335 
L 907.569415 183.299323 
L 927.478088 173.53449 
L 947.386761 163.706107 
" style="fill:none;stroke:#7cb5ec;stroke-linecap:square;"/>
   </g>
   <g id="line2d_18">
    <path clip-path="url(#pb318c79b9e)" d="M 81.359489 381.649378 
L 91.313825 381.649378 
L 101.268162 381.649317 
L 111.222498 381.649134 
L 121.176835 381.643823 
L 131.131171 381.642235 
L 141.085507 381.492118 
L 151.039844 381.437908 
L 160.99418 380.926387 
L 170.948517 380.131573 
L 190.85719 378.93946 
L 210.765863 377.865687 
L 230.674536 376.828788 
L 250.583209 376.011936 
L 270.491882 375.286961 
L 290.400554 374.732951 
L 310.309227 373.970493 
L 330.2179 373.441299 
L 350.126573 372.751823 
L 370.035246 371.858386 
L 389.943919 370.065164 
L 409.852592 368.166359 
L 429.761265 365.334009 
L 449.669938 360.760358 
L 469.578611 355.354349 
L 489.487284 349.878593 
L 509.395957 343.894642 
L 529.30463 337.562719 
L 549.213303 331.125396 
L 569.121976 324.493056 
L 589.030649 317.775371 
L 608.939321 310.944441 
L 628.847994 303.733763 
L 648.756667 296.292385 
L 668.66534 288.749514 
L 688.574013 281.144558 
L 708.482686 273.393056 
L 728.391359 265.31159 
L 748.300032 256.885448 
L 768.208705 248.235503 
L 788.117378 239.622523 
L 808.026051 230.89923 
L 827.934724 221.906196 
L 847.843397 212.801078 
L 867.75207 203.466206 
L 887.660743 194.031246 
L 907.569415 184.477457 
L 927.478088 174.774221 
L 947.386761 165.011068 
" style="fill:none;stroke:#434348;stroke-linecap:square;"/>
   </g>
   <g id="line2d_19">
    <path clip-path="url(#pb318c79b9e)" d="M 81.359489 381.6494 
L 91.313825 381.6494 
L 101.268162 381.6494 
L 111.222498 381.6493 
L 121.176835 381.632023 
L 131.131171 381.62723 
L 141.085507 381.056888 
L 151.039844 380.862247 
L 160.99418 378.842734 
L 170.948517 375.59111 
L 190.85719 370.678245 
L 210.765863 366.190216 
L 230.674536 361.669131 
L 250.583209 357.544018 
L 270.491882 353.860768 
L 290.400554 350.802986 
L 310.309227 347.314577 
L 330.2179 344.675837 
L 350.126573 341.713279 
L 370.035246 338.803 
L 389.943919 334.873228 
L 409.852592 331.074182 
L 429.761265 326.24241 
L 449.669938 319.489494 
L 469.578611 311.913672 
L 489.487284 304.27798 
L 509.395957 295.841254 
L 529.30463 287.083055 
L 549.213303 277.957695 
L 569.121976 268.703656 
L 589.030649 259.446971 
L 608.939321 250.005831 
L 628.847994 240.089722 
L 648.756667 230.003091 
L 668.66534 219.877711 
L 688.574013 209.673236 
L 708.482686 199.020259 
L 728.391359 187.910289 
L 748.300032 176.663301 
L 768.208705 165.344609 
L 788.117378 153.905526 
L 808.026051 142.298867 
L 827.934724 130.376278 
L 847.843397 118.2198 
L 867.75207 106.029967 
L 887.660743 93.83504 
L 907.569415 81.59772 
L 927.478088 69.086265 
L 947.386761 56.567968 
" style="fill:none;stroke:#90ed7d;stroke-linecap:square;"/>
   </g>
   <g id="line2d_20">
    <path clip-path="url(#pb318c79b9e)" d="M 81.359489 381.6493 
L 91.313825 381.6493 
L 101.268162 381.6493 
L 111.222498 381.649101 
L 121.176835 381.632622 
L 131.131171 381.627829 
L 141.085507 381.063779 
L 151.039844 380.870936 
L 160.99418 378.865803 
L 170.948517 375.638696 
L 190.85719 370.737067 
L 210.765863 366.309607 
L 230.674536 362.010926 
L 250.583209 358.603459 
L 270.491882 355.571493 
L 290.400554 353.230607 
L 310.309227 349.972341 
L 330.2179 347.6734 
L 350.126573 344.853401 
L 370.035246 342.25351 
L 389.943919 338.357992 
L 409.852592 334.708697 
L 429.761265 329.858699 
L 449.669938 323.187324 
L 469.578611 315.586436 
L 489.487284 307.994935 
L 509.395957 299.551069 
L 529.30463 290.805553 
L 549.213303 281.715396 
L 569.121976 272.477036 
L 589.030649 263.213859 
L 608.939321 253.773368 
L 628.847994 243.84243 
L 648.756667 233.745762 
L 668.66534 223.613791 
L 688.574013 213.426294 
L 708.482686 202.808769 
L 728.391359 191.731056 
L 748.300032 180.511581 
L 768.208705 169.234234 
L 788.117378 157.828108 
L 808.026051 146.262944 
L 827.934724 134.394083 
L 847.843397 122.298524 
L 867.75207 110.176001 
L 887.660743 98.05228 
L 907.569415 85.895353 
L 927.478088 73.470332 
L 947.386761 61.035924 
" style="fill:none;stroke:#f7a35c;stroke-linecap:square;"/>
   </g>
   <g id="line2d_21">
    <path clip-path="url(#pb318c79b9e)" d="M 81.359489 381.6495 
L 91.313825 381.6495 
L 101.268162 381.649322 
L 111.222498 381.648965 
L 121.176835 381.640114 
L 131.131171 381.637262 
L 141.085507 381.400705 
L 151.039844 381.30809 
L 160.99418 380.53503 
L 170.948517 379.30038 
L 190.85719 377.435188 
L 210.765863 375.717057 
L 230.674536 373.985054 
L 250.583209 372.436113 
L 270.491882 371.046234 
L 290.400554 369.888991 
L 310.309227 368.555073 
L 330.2179 367.563931 
L 350.126573 366.354589 
L 370.035246 364.770538 
L 389.943919 361.945957 
L 409.852592 358.79348 
L 429.761265 354.265946 
L 449.669938 347.1252 
L 469.578611 338.792161 
L 489.487284 330.486331 
L 509.395957 321.317915 
L 529.30463 311.625531 
L 549.213303 301.738264 
L 569.121976 291.756006 
L 589.030649 281.67335 
L 608.939321 271.389633 
L 628.847994 260.682702 
L 648.756667 249.678024 
L 668.66534 238.586702 
L 688.574013 227.523538 
L 708.482686 216.298581 
L 728.391359 204.742936 
L 748.300032 192.863465 
L 768.208705 180.681881 
L 788.117378 168.692686 
L 808.026051 156.721609 
L 827.934724 144.565511 
L 847.843397 132.356719 
L 867.75207 119.88226 
L 887.660743 107.411514 
L 907.569415 95.049007 
L 927.478088 82.67842 
L 947.386761 70.277804 
" style="fill:none;stroke:#8085e9;stroke-linecap:square;"/>
   </g>
   <g id="line2d_22">
    <path clip-path="url(#pb318c79b9e)" d="M 81.359489 381.6495 
L 91.313825 381.6495 
L 101.268162 381.649322 
L 111.222498 381.648965 
L 121.176835 381.639995 
L 131.131171 381.637143 
L 141.085507 381.401655 
L 151.039844 381.309931 
L 160.99418 380.540614 
L 170.948517 379.312054 
L 190.85719 377.446891 
L 210.765863 375.752463 
L 230.674536 374.105471 
L 250.583209 372.83696 
L 270.491882 371.705767 
L 290.400554 370.841696 
L 310.309227 369.612631 
L 330.2179 368.777343 
L 350.126573 367.658952 
L 370.035246 366.213319 
L 389.943919 363.434036 
L 409.852592 360.354511 
L 429.761265 355.848571 
L 449.669938 348.753865 
L 469.578611 340.431014 
L 489.487284 332.163085 
L 509.395957 323.008838 
L 529.30463 313.316454 
L 549.213303 303.442227 
L 569.121976 293.447196 
L 589.030649 283.34657 
L 608.939321 273.04105 
L 628.847994 262.32197 
L 648.756667 251.303095 
L 668.66534 240.193059 
L 688.574013 229.141183 
L 708.482686 217.93883 
L 728.391359 206.405908 
L 748.300032 194.549487 
L 768.208705 182.396091 
L 788.117378 170.42947 
L 808.026051 158.5039 
L 827.934724 146.397257 
L 847.843397 134.24407 
L 867.75207 121.836859 
L 887.660743 109.439065 
L 907.569415 97.157202 
L 927.478088 84.856746 
L 947.386761 72.536001 
" style="fill:none;stroke:#f15c80;stroke-linecap:square;"/>
   </g>
   <g id="line2d_23">
    <path clip-path="url(#pb318c79b9e)" d="M 81.359489 381.649349 
L 91.313825 381.649048 
L 101.268162 381.648898 
L 111.222498 381.648446 
L 121.176835 381.625117 
L 131.131171 381.615184 
L 141.085507 380.740417 
L 151.039844 380.401167 
L 160.99418 377.018897 
L 170.948517 371.443916 
L 190.85719 363.081633 
L 210.765863 355.557768 
L 230.674536 348.112696 
L 250.583209 341.597702 
L 270.491882 335.749018 
L 290.400554 330.965346 
L 310.309227 325.382689 
L 330.2179 321.101722 
L 350.126573 316.35199 
L 370.035246 312.41968 
L 389.943919 307.841379 
L 409.852592 304.358342 
L 429.761265 300.710647 
L 449.669938 296.719563 
L 469.578611 292.007835 
L 489.487284 287.659815 
L 509.395957 282.82828 
L 529.30463 278.062594 
L 549.213303 273.057445 
L 569.121976 268.133046 
L 589.030649 263.017799 
L 608.939321 257.891942 
L 628.847994 252.34014 
L 648.756667 246.738368 
L 668.66534 240.959671 
L 688.574013 235.177739 
L 708.482686 229.052718 
L 728.391359 222.469694 
L 748.300032 215.694242 
L 768.208705 208.797103 
L 788.117378 201.68368 
L 808.026051 194.2882 
L 827.934724 186.474453 
L 847.843397 178.458645 
L 867.75207 170.252742 
L 887.660743 161.942912 
L 907.569415 153.380601 
L 927.478088 144.280591 
L 947.386761 135.115711 
" style="fill:none;stroke:#e4d354;stroke-linecap:square;"/>
   </g>
   <g id="line2d_24">
    <path clip-path="url(#pb318c79b9e)" d="M 81.359489 381.649349 
L 91.313825 381.649048 
L 101.268162 381.648898 
L 111.222498 381.648296 
L 121.176835 381.624967 
L 131.131171 381.615033 
L 141.085507 380.753963 
L 151.039844 380.420432 
L 160.99418 377.070672 
L 170.948517 371.553864 
L 190.85719 363.236734 
L 210.765863 355.839148 
L 230.674536 348.794132 
L 250.583209 343.538308 
L 270.491882 338.886333 
L 290.400554 335.436258 
L 310.309227 330.329289 
L 330.2179 326.806217 
L 350.126573 322.483483 
L 370.035246 319.314787 
L 389.943919 314.998224 
L 409.852592 311.949485 
L 429.761265 308.41392 
L 449.669938 304.689917 
L 469.578611 300.168509 
L 489.487284 296.069132 
L 509.395957 291.376594 
L 529.30463 286.725296 
L 549.213303 281.852596 
L 569.121976 277.070956 
L 589.030649 272.087105 
L 608.939321 267.026945 
L 628.847994 261.560633 
L 648.756667 256.004842 
L 668.66534 250.295907 
L 688.574013 244.553785 
L 708.482686 238.499202 
L 728.391359 231.972996 
L 748.300032 225.271069 
L 768.208705 218.408396 
L 788.117378 211.336439 
L 808.026051 203.979415 
L 827.934724 196.210895 
L 847.843397 188.2355 
L 867.75207 180.079566 
L 887.660743 171.824372 
L 907.569415 163.309697 
L 927.478088 154.263419 
L 947.386761 145.14595 
" style="fill:none;stroke:#2b908f;stroke-linecap:square;"/>
   </g>
   <g id="line2d_25">
    <path clip-path="url(#pb318c79b9e)" d="M 38.058125 381.6495 
L 990.688125 381.6495 
" style="fill:none;stroke:#dedede;stroke-linecap:square;stroke-width:2;"/>
   </g>
   <g id="text_14">
    <!-- FastQC: Adapter Content -->
    <defs>
     <path d="M 9.8125 72.90625 
L 51.703125 72.90625 
L 51.703125 64.59375 
L 19.671875 64.59375 
L 19.671875 43.109375 
L 48.578125 43.109375 
L 48.578125 34.8125 
L 19.671875 34.8125 
L 19.671875 0 
L 9.8125 0 
z
" id="DejaVuSans-46"/>
     <path d="M 34.28125 27.484375 
Q 23.390625 27.484375 19.1875 25 
Q 14.984375 22.515625 14.984375 16.5 
Q 14.984375 11.71875 18.140625 8.90625 
Q 21.296875 6.109375 26.703125 6.109375 
Q 34.1875 6.109375 38.703125 11.40625 
Q 43.21875 16.703125 43.21875 25.484375 
L 43.21875 27.484375 
z
M 52.203125 31.203125 
L 52.203125 0 
L 43.21875 0 
L 43.21875 8.296875 
Q 40.140625 3.328125 35.546875 0.953125 
Q 30.953125 -1.421875 24.3125 -1.421875 
Q 15.921875 -1.421875 10.953125 3.296875 
Q 6 8.015625 6 15.921875 
Q 6 25.140625 12.171875 29.828125 
Q 18.359375 34.515625 30.609375 34.515625 
L 43.21875 34.515625 
L 43.21875 35.40625 
Q 43.21875 41.609375 39.140625 45 
Q 35.0625 48.390625 27.6875 48.390625 
Q 23 48.390625 18.546875 47.265625 
Q 14.109375 46.140625 10.015625 43.890625 
L 10.015625 52.203125 
Q 14.9375 54.109375 19.578125 55.046875 
Q 24.21875 56 28.609375 56 
Q 40.484375 56 46.34375 49.84375 
Q 52.203125 43.703125 52.203125 31.203125 
z
" id="DejaVuSans-61"/>
     <path d="M 39.40625 66.21875 
Q 28.65625 66.21875 22.328125 58.203125 
Q 16.015625 50.203125 16.015625 36.375 
Q 16.015625 22.609375 22.328125 14.59375 
Q 28.65625 6.59375 39.40625 6.59375 
Q 50.140625 6.59375 56.421875 14.59375 
Q 62.703125 22.609375 62.703125 36.375 
Q 62.703125 50.203125 56.421875 58.203125 
Q 50.140625 66.21875 39.40625 66.21875 
z
M 53.21875 1.3125 
L 66.21875 -12.890625 
L 54.296875 -12.890625 
L 43.5 -1.21875 
Q 41.890625 -1.3125 41.03125 -1.359375 
Q 40.1875 -1.421875 39.40625 -1.421875 
Q 24.03125 -1.421875 14.8125 8.859375 
Q 5.609375 19.140625 5.609375 36.375 
Q 5.609375 53.65625 14.8125 63.9375 
Q 24.03125 74.21875 39.40625 74.21875 
Q 54.734375 74.21875 63.90625 63.9375 
Q 73.09375 53.65625 73.09375 36.375 
Q 73.09375 23.6875 67.984375 14.640625 
Q 62.890625 5.609375 53.21875 1.3125 
z
" id="DejaVuSans-51"/>
     <path d="M 64.40625 67.28125 
L 64.40625 56.890625 
Q 59.421875 61.53125 53.78125 63.8125 
Q 48.140625 66.109375 41.796875 66.109375 
Q 29.296875 66.109375 22.65625 58.46875 
Q 16.015625 50.828125 16.015625 36.375 
Q 16.015625 21.96875 22.65625 14.328125 
Q 29.296875 6.6875 41.796875 6.6875 
Q 48.140625 6.6875 53.78125 8.984375 
Q 59.421875 11.28125 64.40625 15.921875 
L 64.40625 5.609375 
Q 59.234375 2.09375 53.4375 0.328125 
Q 47.65625 -1.421875 41.21875 -1.421875 
Q 24.65625 -1.421875 15.125 8.703125 
Q 5.609375 18.84375 5.609375 36.375 
Q 5.609375 53.953125 15.125 64.078125 
Q 24.65625 74.21875 41.21875 74.21875 
Q 47.75 74.21875 53.53125 72.484375 
Q 59.328125 70.75 64.40625 67.28125 
z
" id="DejaVuSans-43"/>
     <path d="M 11.71875 12.40625 
L 22.015625 12.40625 
L 22.015625 0 
L 11.71875 0 
z
M 11.71875 51.703125 
L 22.015625 51.703125 
L 22.015625 39.3125 
L 11.71875 39.3125 
z
" id="DejaVuSans-3a"/>
     <path d="M 34.1875 63.1875 
L 20.796875 26.90625 
L 47.609375 26.90625 
z
M 28.609375 72.90625 
L 39.796875 72.90625 
L 67.578125 0 
L 57.328125 0 
L 50.6875 18.703125 
L 17.828125 18.703125 
L 11.1875 0 
L 0.78125 0 
z
" id="DejaVuSans-41"/>
     <path d="M 45.40625 46.390625 
L 45.40625 75.984375 
L 54.390625 75.984375 
L 54.390625 0 
L 45.40625 0 
L 45.40625 8.203125 
Q 42.578125 3.328125 38.25 0.953125 
Q 33.9375 -1.421875 27.875 -1.421875 
Q 17.96875 -1.421875 11.734375 6.484375 
Q 5.515625 14.40625 5.515625 27.296875 
Q 5.515625 40.1875 11.734375 48.09375 
Q 17.96875 56 27.875 56 
Q 33.9375 56 38.25 53.625 
Q 42.578125 51.265625 45.40625 46.390625 
z
M 14.796875 27.296875 
Q 14.796875 17.390625 18.875 11.75 
Q 22.953125 6.109375 30.078125 6.109375 
Q 37.203125 6.109375 41.296875 11.75 
Q 45.40625 17.390625 45.40625 27.296875 
Q 45.40625 37.203125 41.296875 42.84375 
Q 37.203125 48.484375 30.078125 48.484375 
Q 22.953125 48.484375 18.875 42.84375 
Q 14.796875 37.203125 14.796875 27.296875 
z
" id="DejaVuSans-64"/>
     <path d="M 41.109375 46.296875 
Q 39.59375 47.171875 37.8125 47.578125 
Q 36.03125 48 33.890625 48 
Q 26.265625 48 22.1875 43.046875 
Q 18.109375 38.09375 18.109375 28.8125 
L 18.109375 0 
L 9.078125 0 
L 9.078125 54.6875 
L 18.109375 54.6875 
L 18.109375 46.1875 
Q 20.953125 51.171875 25.484375 53.578125 
Q 30.03125 56 36.53125 56 
Q 37.453125 56 38.578125 55.875 
Q 39.703125 55.765625 41.0625 55.515625 
z
" id="DejaVuSans-72"/>
    </defs>
    <g transform="translate(414.218125 19.3575)scale(0.16 -0.16)">
     <use xlink:href="#DejaVuSans-46"/>
     <use x="57.378906" xlink:href="#DejaVuSans-61"/>
     <use x="118.658203" xlink:href="#DejaVuSans-73"/>
     <use x="170.757812" xlink:href="#DejaVuSans-74"/>
     <use x="209.966797" xlink:href="#DejaVuSans-51"/>
     <use x="288.677734" xlink:href="#DejaVuSans-43"/>
     <use x="358.501953" xlink:href="#DejaVuSans-3a"/>
     <use x="392.193359" xlink:href="#DejaVuSans-20"/>
     <use x="423.980469" xlink:href="#DejaVuSans-41"/>
     <use x="492.373047" xlink:href="#DejaVuSans-64"/>
     <use x="555.849609" xlink:href="#DejaVuSans-61"/>
     <use x="617.128906" xlink:href="#DejaVuSans-70"/>
     <use x="680.605469" xlink:href="#DejaVuSans-74"/>
     <use x="719.814453" xlink:href="#DejaVuSans-65"/>
     <use x="781.337891" xlink:href="#DejaVuSans-72"/>
     <use x="822.451172" xlink:href="#DejaVuSans-20"/>
     <use x="854.238281" xlink:href="#DejaVuSans-43"/>
     <use x="924.0625" xlink:href="#DejaVuSans-6f"/>
     <use x="985.244141" xlink:href="#DejaVuSans-6e"/>
     <use x="1048.623047" xlink:href="#DejaVuSans-74"/>
     <use x="1087.832031" xlink:href="#DejaVuSans-65"/>
     <use x="1149.355469" xlink:href="#DejaVuSans-6e"/>
     <use x="1212.734375" xlink:href="#DejaVuSans-74"/>
    </g>
   </g>
  </g>
 </g>
 <defs>
  <clipPath id="pb318c79b9e">
   <rect height="345.04" width="952.63" x="38.058125" y="36.6095"/>
  </clipPath>
 </defs>
</svg>
